<svg xmlns="http://www.w3.org/2000/svg" width="580" height="400">
 <!-- Created with Method Draw - http://github.com/duopixel/Method-Draw/ -->
 <g>
  <title>background</title>
  <rect fill="#fff" id="canvas_background" height="402" width="582" y="-1" x="-1"/>
  <g display="none" overflow="visible" y="0" x="0" height="100%" width="100%" id="canvasGrid">
   <rect fill="url(#gridpattern)" stroke-width="0" y="0" x="0" height="100%" width="100%"/>
  </g>
 </g>
 <g>
  <title>Layer 1</title>
  <path d="m227.5,178.453125c0,1 0.38269,1.923874 0,1c-0.541199,-1.306564 -0.714127,-2.21167 -3,-5c-2.689789,-3.281006 -6,-6 -9,-10c-3,-4 -5,-7 -7,-10c-2,-3 -4.60643,-7.538696 -6,-10c-2.031448,-3.587921 -2,-6 -2,-9c0,-2 0,-6 0,-10c0,-3 -0.20607,-8.08744 2,-13c1.832031,-4.079659 5.190277,-7.881523 7,-11c2.24469,-3.867996 4.65593,-7.38903 8,-10c4.595993,-3.58844 7.386871,-5.91761 10,-7c2.771637,-1.148048 5.963837,-2.115868 9,-3c3.958679,-1.152771 9,-2 13,-2c2,0 3,0 4,0c1,0 2,0 5,2c3,2 5.259338,3.770615 7,6c3.58844,4.595985 6.310211,9.718987 9,13c2.285889,2.788322 3.234619,6.152245 4,8c0.541199,1.306564 1.234619,4.152245 2,6c0.541199,1.306564 0.31073,3.080254 1,6c0.513733,2.176254 1,6 1,9c0,5 0.320374,7.025818 0,9c-0.506531,3.121445 -1.303223,4.769348 -2,6c-2.031464,3.587921 -1.770233,5.026749 -2,6c-0.513733,2.176254 -1.458801,2.693436 -2,4c-0.38269,0.923874 -1.292908,2.292892 -2,3c-0.707092,0.707108 -1.173096,2.852737 -2,4c-1.307465,1.813995 -2,2 -2,3c0,1 -0.61731,1.076126 -1,2c-0.541199,1.306564 -2.173096,1.852737 -3,3c-1.307465,1.813995 -1.824432,2.097885 -3,4c-0.525726,0.850647 -0.234619,2.152237 -1,4c-0.541199,1.306564 -2,1 -2,2c0,1 -1.303223,2.769348 -2,4c-2.031464,3.587921 -2,7 -2,9c0,2 -0.540497,3.053497 -1,5c-0.513748,2.176254 -1,4 -1,5c0,1 0,2 0,3c0,1 0,2 0,4c0,2 -0.38269,3.076126 0,4c0.541199,1.306564 2,1 3,1c1,0 2,0 4,0c2,0 4,0 6,0c6,0 11,-1 14,-1c3,0 6.07843,-0.789856 9,-2c2.065857,-0.855713 4.07843,-2.789856 7,-4c2.065857,-0.855713 3.298706,-1.948532 5,-3c1.9021,-1.175568 2.418854,-4.418854 4,-6c1.581146,-1.581146 3,-2 4,-3c2,-2 3.486267,-1.823746 4,-4c0.229767,-0.973251 0.824432,-1.097885 2,-3c0.525726,-0.850647 -0.38269,-2.076126 0,-3c0.541199,-1.306564 1,-2 1,-3c0,-1 0,-2 0,-3c0,-3 0,-5 0,-6c0,-1 0,-2 0,-3c0,-1 0.486267,-1.823746 1,-4c0.229767,-0.973251 0,-2 0,-3c0,-1 -0.307465,-2.186005 1,-4c0.826904,-1.147263 0.292908,-3.292892 1,-4c0.707092,-0.707108 1,-1 2,-2c2,-2 3.026764,-3.229752 4,-3c2.176239,0.513748 3.190277,3.881516 5,7c2.24469,3.867996 4,8 4,10c0,1 0,2 0,3c0,1 0,2 0,4c0,1 0.459503,2.053497 0,4c-0.513733,2.176254 -0.61731,3.076126 -1,4c-0.541199,1.306564 -0.61731,3.076126 -1,4c-0.541199,1.306564 -1.234619,2.152237 -2,4c-0.541199,1.306564 -2,2 -2,3c0,1 -1,2 -2,4c-1,2 -1,3 -2,4c-1,1 -1,2 -2,4c-1,2 -1,3 -2,4c-1,1 -1.292908,1.292892 -2,2c-0.707092,0.707108 -2,3 -3,4c-1,1 -2,2 -4,3c-2,1 -3.934143,3.144287 -6,4c-2.92157,1.210144 -5.823761,1.486252 -8,2c-1.946503,0.459503 -4.907776,1.496231 -9,2c-2.977509,0.366547 -3.693451,0.458801 -5,1c-0.923889,0.38269 -3.080261,-0.689255 -6,0c-2.176239,0.513748 -4.026764,0.770248 -5,1c-2.176239,0.513748 -3,1 -4,1c-1,0 -1.693451,0.458801 -3,1c-0.923889,0.38269 -3.076111,-0.38269 -4,0c-1.306549,0.541199 -1.693451,1.458801 -3,2c-0.923889,0.38269 -1.693451,0.458801 -3,1c-0.923874,0.38269 -1.292892,0.292892 -2,1c-0.707108,0.707108 -1.186005,0.692551 -3,2c-1.147263,0.826904 -1.61731,2.076126 -2,3c-0.541199,1.306564 -1.770248,2.026749 -2,3c-0.513748,2.176254 -1.486252,2.823746 -2,5c-0.229752,0.973251 0,2 0,4c0,1 -0.292892,1.292892 -1,2c-0.707108,0.707108 0,2 0,3c0,1 0,2 0,3c0,1 0,2 0,3c0,1 0,2 0,3c0,2 0,3 0,4c0,1 0,2 0,3c0,1 0.292892,1.292908 1,2c0.707108,0.707092 0,2 0,3c0,1 1,2 1,3c0,2 1,4 1,5c0,1 1,2 1,3c0,2 0,3 0,4c0,1 0,2 0,4c0,1 0.707108,2.292908 0,3c-0.707108,0.707092 -0.61731,1.076111 -1,2c-0.541199,1.306549 -0.61731,2.076111 -1,3c-0.541199,1.306549 -0.770248,3.026764 -1,4c-0.513748,2.176239 -2.486252,2.823761 -3,5c-0.229752,0.973236 -0.458801,2.693451 -1,4c-0.38269,0.923889 0,2 0,3c0,1 0,2 0,4c0,1 0,2 0,6c0,1 0.458801,1.693451 1,3c0.765366,1.847748 0.458801,2.693451 1,4c0.765366,1.847748 1,3 1,5c0,1 0.292892,2.292908 1,3c1.414215,1.414215 0,4 0,5c0,2 0,3 0,4c0,2 0,3 0,4c0,1 0.707108,2.292908 0,3c-0.707108,0.707092 -2.458801,0.693451 -3,2c-0.38269,0.923889 -1,1 -2,1c-1,0 -2.186005,0.307465 -4,-1c-1.147263,-0.826904 -1.420425,-2.085815 -2,-4c-1.04483,-3.450836 -2.343155,-6.876038 -4,-12c-1.268555,-3.923096 -0.310745,-7.080261 -1,-10c-0.513748,-2.176239 -1.540497,-4.053497 -2,-6c-0.513748,-2.176239 -0.292892,-3.292908 -1,-4c-0.707108,-0.707092 -2.292892,-0.292908 -3,-1c-0.707108,-0.707092 -1,-1 -2,-2c-1,-1 -2,-1 -3,-1c-1,0 -2,0 -3,0c-1,0 -1.585785,-0.414215 -3,1c-0.707108,0.707092 -1.186005,2.692535 -3,4c-2.29454,1.653809 -3.113663,2.892456 -5,5c-4.270386,4.771149 -6.346191,6.705475 -8,9c-1.307449,1.813995 -1.714127,4.21167 -4,7c-1.793198,2.187347 -3.692551,4.186005 -5,6c-0.826904,1.147278 -1.292892,2.292908 -2,3c-0.707108,0.707092 -1.292892,-0.292908 -2,-1c-1.414215,-1.414215 -1.585785,-1.585785 -3,-3c-1.414215,-1.414215 -2,-2 -2,-3c0,-1 -0.707108,-2.292908 0,-3c0.707108,-0.707092 0.337494,-2.309998 2,-5c0.7435,-1.203003 2,-3 4,-7c1,-2 2.292892,-5.292908 3,-6c0.707108,-0.707092 0.61731,-2.076111 1,-3c0.541199,-1.306549 2.173096,-1.852722 3,-3c1.307449,-1.813995 1.692551,-3.186005 3,-5c0.826904,-1.147278 1.824432,-2.0979 3,-4c0.525726,-0.850647 1,-3 2,-4c1,-1 1.540497,-2.053497 2,-4c0.513748,-2.176239 1.585785,-5.585785 3,-7c0.707108,-0.707092 0.61731,-2.076111 1,-3c0.541199,-1.306549 1,-2 1,-3c0,-2 0.839813,-4.012909 1,-5c0.506546,-3.121429 1,-5 1,-8c0,-2 1,-5 1,-8c0,-2 0,-3 0,-4c0,-2 0,-3 0,-4c0,-1 0,-2 0,-3c0,-2 0,-3 0,-6c0,-2 0,-4 0,-6c0,-3 0,-4 0,-6c0,-1 0,-2 0,-3c0,-1 0.38269,-2.076126 0,-3c-0.541199,-1.306564 -1,-2 -1,-4c0,-1 -0.458801,-1.693436 -1,-3c-0.38269,-0.923874 -0.292892,-1.292892 -1,-2c-0.707108,-0.707108 -1.458801,0.693436 -2,2c-0.38269,0.923874 -2.486252,2.823746 -3,5c-0.229752,0.973251 -0.486252,1.823746 -1,4c-0.229752,0.973251 0.307449,2.186005 -1,4c-0.826904,1.147263 -0.61731,2.076126 -1,3c-0.541199,1.306564 -1.486252,1.823746 -2,4c-0.229752,0.973251 -1,2 -2,4c-1,2 -1.79393,4.087433 -4,9c-0.916016,2.039825 -1,4 -2,5c-1,1 -2,3 -3,5c-1,2 -2.458801,3.693451 -3,5c-0.38269,0.923889 -1,1 -2,2c-1,1 -1.292892,1.707092 -2,1c-0.707108,-0.707092 -1.458801,-0.693451 -2,-2c-0.38269,-0.923889 0,-3 0,-4c0,-3 0,-5 0,-6c0,-1 0,-2 0,-3c0,-1 0,-2 0,-4c0,-2 0.458801,-2.693451 1,-4c0.38269,-0.923889 0.61731,-2.076111 1,-3c0.541199,-1.306564 1,-2 2,-3c1,-1 1.692551,-3.186005 3,-5c0.826904,-1.147263 1.770248,-2.026749 2,-3c0.513748,-2.176254 1.61731,-3.076126 2,-4c0.541199,-1.306564 2,-2 2,-3c0,-1 0.61731,-2.076126 1,-3c0.541199,-1.306564 1.076126,-1.61731 2,-2c1.306564,-0.541199 0.61731,-2.076126 1,-3c0.541199,-1.306564 2.486252,-1.823746 3,-4c0.229752,-0.973251 1.458801,-2.693436 2,-4c0.38269,-0.923874 1.292892,-1.292892 2,-2c0.707108,-0.707108 0.292892,-1.292892 1,-2c0.707108,-0.707108 -0.707108,-2.292892 0,-3c0.707108,-0.707108 2.292892,-0.292892 3,-1c0.707108,-0.707108 0.693436,-2.458801 2,-3c0.923874,-0.38269 2.458801,-0.693436 3,-2c0.38269,-0.923874 1.585785,0.414215 3,-1c0.707108,-0.707108 1.076126,-0.61731 2,-1c1.306564,-0.541199 3,-1 4,-1c1,0 2.292892,0.707108 3,0c0.707108,-0.707108 1,-1 2,-1c1,0 2.458801,0.306564 3,-1c0.38269,-0.923874 0.292892,-1.292892 1,-2c0.707108,-0.707108 1.458801,-0.693436 2,-2c0.38269,-0.923874 0,-2 0,-3c0,-1 0,-2 0,-3c0,-1 0,-3 0,-4c0,-1 0,-2 0,-3c0,-1 -1,-1 -1,-2c0,-1 -0.61731,-2.076126 -1,-3c-0.541199,-1.306564 -1,-2 -1,-3l-1,0" id="svg_1" stroke-width="1.5" stroke="#000" fill="none"/>
  <path d="m223.5,294.453125c0,0 0,1 1,2c1,1 2,1 3,1c1,0 -0.458801,0.306549 -1,-1c-0.38269,-0.923889 0,-2 0,-3c0,-1 0,-2 -1,-2c-1,0 -1,1 -2,1l0,1l0,1l0,1" id="svg_2" stroke-width="1.5" stroke="#000" fill="none"/>
  <path d="m223.5,130.453125c0,0 0,-1 1,-1c1,0 1,-1 2,-1c1,0 2,0 3,0c1,0 2,0 3,0c1,0 1.292892,0.292892 2,1c0.707108,0.707108 2,1 3,1l1,0l0,1" id="svg_3" stroke-width="1.5" stroke="#000" fill="none"/>
  <path d="m253.5,133.453125c0,0 0,-1 1,-1c1,0 1.693451,-1.458801 3,-2c0.923889,-0.38269 2,0 3,0c1,0 2,0 3,1l0,1l0,1" id="svg_4" stroke-width="1.5" stroke="#000" fill="none"/>
  <path d="m232.5,155.453125c0,0 1.076126,-0.38269 2,0c1.306564,0.541199 1.292892,1.292892 2,2c0.707108,0.707108 2.076126,-0.38269 3,0c1.306564,0.541199 2,1 3,1c1,0 1,1 2,1c1,0 2,0 3,0c1,0 2,0 3,0c1,0 2,0 3,0c1,0 1.292892,-0.292892 2,-1c0.707092,-0.707108 2,-1 3,-2c1,-1 1,-2 2,-2l0,-1l0,-1" id="svg_7" stroke-width="1.5" stroke="#000" fill="none"/>
 </g>
<g xmlns:sodipodi="http://sodipodi.sourceforge.net/DTD/sodipodi-0.dtd" xmlns:cc="http://creativecommons.org/ns#" xmlns:ccOLD="http://web.resource.org/cc/" xmlns:dc="http://purl.org/dc/elements/1.1/" xmlns:rdf="http://www.w3.org/1999/02/22-rdf-syntax-ns#" xmlns:inkscape="http://www.inkscape.org/namespaces/inkscape" xmlns:xlink="http://www.w3.org/1999/xlink" transform="matrix(96.000000,0.000000,0.000000,96.000000,0.000000,0.000000)" inkscape:groupmode="layer" inkscape:label="% Preview"><g inkscape:groupmode="layer" inkscape:label="% Pen-up transit"><path xmlns:svg="http://www.w3.org/2000/svg" style="stroke-width:0.004167;fill:none;stroke-linejoin:round;stroke-linecap:round;stroke:rgb(255, 159, 159)" d="M0.000 0.000  0.020 0.016  0.062 0.048  0.123 0.096  0.205 0.161  0.308 0.241  2.062 1.618  2.165 1.698  2.247 1.763  2.308 1.811  2.349 1.843  2.370 1.859 M2.349 1.869  2.349 1.895  2.348 1.948  2.346 2.026  2.344 2.130  2.342 2.260  2.335 2.676  2.333 2.807  2.331 2.911  2.329 2.989  2.328 3.041  2.328 3.067 M2.328 3.078  2.328 3.052  2.328 3.000  2.328 2.921  2.328 2.817  2.328 2.687  2.328 1.750  2.328 1.619  2.328 1.516  2.328 1.437  2.328 1.385  2.328 1.359 M2.484 1.369  2.516 1.374  2.544 1.377  2.568 1.380  2.589 1.383  2.606 1.386  2.620 1.388  2.630 1.389  2.637 1.390  2.641 1.390 M2.745 1.390  2.709 1.416  2.637 1.467  2.530 1.543  2.458 1.594  2.422 1.619 M2.714 1.588  2.691 1.575  2.646 1.549  2.578 1.509  2.489 1.456  2.376 1.391  0.337 0.197  0.225 0.132  0.135 0.079  0.067 0.039  0.022 0.013  0.000 -0.000" desc="pen-up transit"/></g><g inkscape:groupmode="layer" inkscape:label="% Pen-down drawing"><path xmlns:svg="http://www.w3.org/2000/svg" style="stroke-width:0.004167;fill:none;stroke-linejoin:round;stroke-linecap:round;stroke:blue" d="M2.370 1.859  2.371 1.867  2.371 1.873  2.361 1.849  2.339 1.817  2.293 1.768  2.245 1.713  2.172 1.609  2.109 1.505  2.097 1.479  2.091 1.456  2.089 1.411  2.088 1.307  2.091 1.247  2.096 1.210  2.109 1.172  2.126 1.140  2.146 1.110  2.182 1.057  2.220 1.000  2.241 0.975  2.266 0.953  2.326 0.906  2.349 0.891  2.370 0.880  2.416 0.863  2.464 0.848  2.531 0.834  2.599 0.828  2.641 0.828  2.659 0.830  2.693 0.849  2.734 0.879  2.766 0.911  2.859 1.047  2.875 1.069  2.886 1.092  2.901 1.130  2.922 1.192  2.926 1.217  2.932 1.255  2.939 1.298  2.943 1.349  2.944 1.407  2.943 1.442  2.933 1.481  2.922 1.505  2.910 1.529  2.905 1.546  2.901 1.567  2.891 1.592  2.880 1.609  2.871 1.625  2.859 1.640  2.849 1.659  2.838 1.682  2.823 1.701  2.819 1.706  2.818 1.713  2.814 1.724  2.801 1.743  2.793 1.750  2.776 1.765  2.760 1.786  2.745 1.807  2.734 1.848  2.729 1.856  2.716 1.864  2.713 1.869  2.706 1.889  2.693 1.911  2.681 1.938  2.674 1.964  2.672 2.005  2.668 2.031  2.662 2.057  2.654 2.087  2.651 2.109  2.651 2.182  2.650 2.207  2.651 2.223  2.657 2.231  2.665 2.234  2.786 2.234  2.871 2.229  2.932 2.224  2.980 2.218  3.026 2.203  3.059 2.183  3.099 2.161  3.126 2.146  3.151 2.130  3.163 2.117  3.173 2.100  3.182 2.082  3.193 2.067  3.216 2.049  3.234 2.036  3.249 2.024  3.261 2.016  3.270 2.007  3.276 1.994  3.283 1.982  3.297 1.963  3.299 1.956  3.297 1.948  3.296 1.939  3.297 1.932  3.304 1.915  3.307 1.901  3.307 1.776  3.311 1.759  3.318 1.734  3.319 1.718  3.318 1.703  3.318 1.685  3.321 1.674  3.328 1.661  3.332 1.650  3.335 1.627  3.338 1.619  3.359 1.598  3.384 1.574  3.393 1.568  3.401 1.567  3.416 1.577  3.429 1.594  3.453 1.640  3.483 1.700  3.492 1.725  3.495 1.744  3.495 1.817  3.497 1.834  3.495 1.859  3.484 1.901  3.479 1.923  3.474 1.942  3.453 1.984  3.441 2.001  3.435 2.008  3.432 2.015  3.426 2.032  3.412 2.057  3.401 2.082  3.380 2.115  3.359 2.165  3.349 2.182  3.328 2.203  3.314 2.222  3.297 2.244  3.280 2.260  3.255 2.276  3.224 2.297  3.209 2.309  3.193 2.317  3.148 2.330  3.109 2.338  3.071 2.348  3.016 2.359  2.983 2.363  2.963 2.369  2.954 2.370  2.940 2.368  2.922 2.367  2.901 2.369  2.849 2.380  2.824 2.387  2.807 2.390  2.793 2.393  2.776 2.401  2.734 2.401  2.703 2.422  2.672 2.432  2.661 2.436  2.651 2.442  2.640 2.450  2.620 2.463  2.606 2.478  2.599 2.494  2.587 2.511  2.578 2.526  2.557 2.578  2.557 2.594  2.557 2.619  2.555 2.631  2.547 2.640  2.544 2.647  2.544 2.655  2.547 2.672  2.547 2.838  2.549 2.850  2.557 2.859  2.560 2.865  2.560 2.874  2.557 2.890  2.568 2.922  2.573 2.951  2.578 2.973  2.589 3.005  2.589 3.088  2.592 3.105  2.592 3.113  2.588 3.119  2.582 3.129  2.578 3.140  2.568 3.172  2.561 3.194  2.557 3.213  2.551 3.228  2.532 3.250  2.526 3.265  2.522 3.285  2.516 3.307  2.514 3.322  2.516 3.338  2.516 3.442  2.519 3.457  2.526 3.473  2.532 3.496  2.536 3.515  2.545 3.541  2.547 3.567  2.549 3.584  2.557 3.599  2.563 3.611  2.563 3.626  2.557 3.651  2.557 3.734  2.560 3.750  2.560 3.759  2.557 3.765  2.541 3.773  2.532 3.778  2.526 3.786  2.518 3.795  2.505 3.797  2.488 3.796  2.476 3.793  2.464 3.786  2.456 3.779  2.451 3.769  2.443 3.744  2.401 3.619  2.395 3.590  2.393 3.563  2.393 3.539  2.391 3.515  2.370 3.453  2.365 3.426  2.363 3.418  2.359 3.411  2.353 3.407  2.335 3.404  2.328 3.401  2.307 3.380  2.292 3.371  2.276 3.369  2.245 3.369  2.231 3.369  2.223 3.372  2.214 3.380  2.202 3.398  2.194 3.410  2.182 3.422  2.155 3.446  2.130 3.474  2.078 3.530  2.047 3.567  2.020 3.619  2.005 3.640  1.953 3.703  1.942 3.720  1.932 3.734  1.927 3.736  1.922 3.734  1.911 3.723  1.880 3.692  1.864 3.675  1.859 3.661  1.857 3.644  1.856 3.636  1.859 3.630  1.863 3.623  1.866 3.611  1.871 3.596  1.880 3.578  1.896 3.552  1.922 3.505  1.938 3.469  1.953 3.442  1.959 3.427  1.964 3.411  1.969 3.402  1.978 3.395  1.995 3.380  2.026 3.328  2.040 3.310  2.057 3.286  2.066 3.266  2.078 3.244  2.091 3.227  2.099 3.203  2.111 3.163  2.120 3.144  2.130 3.130  2.137 3.115  2.141 3.098  2.148 3.082  2.151 3.067  2.156 3.037  2.161 3.015  2.169 2.973  2.172 2.932  2.177 2.894  2.182 2.849  2.182 2.515  2.184 2.499  2.182 2.484  2.175 2.466  2.172 2.442  2.169 2.428  2.161 2.411  2.157 2.400  2.151 2.390  2.145 2.389  2.140 2.393  2.130 2.411  2.115 2.432  2.106 2.447  2.099 2.463  2.089 2.505  2.088 2.522  2.085 2.533  2.078 2.547  2.071 2.563  2.068 2.578  2.057 2.595  2.047 2.619  2.040 2.636  2.026 2.661  1.984 2.755  1.974 2.785  1.970 2.797  1.963 2.807  1.948 2.829  1.932 2.859  1.915 2.888  1.901 2.911  1.893 2.921  1.880 2.932  1.869 2.944  1.864 2.945  1.859 2.942  1.848 2.934  1.839 2.921  1.837 2.901  1.839 2.880  1.838 2.744  1.842 2.721  1.849 2.703  1.859 2.672  1.868 2.655  1.880 2.640  1.895 2.617  1.911 2.588  1.924 2.572  1.932 2.557  1.943 2.531  1.953 2.515  1.966 2.498  1.971 2.491  1.974 2.484  1.978 2.468  1.984 2.453  1.993 2.439  2.005 2.432  2.012 2.426  2.014 2.418  2.016 2.401  2.022 2.391  2.031 2.383  2.040 2.373  2.047 2.359  2.056 2.340  2.068 2.317  2.077 2.306  2.089 2.296  2.099 2.276  2.101 2.269  2.097 2.251  2.099 2.244  2.106 2.241  2.123 2.237  2.130 2.234  2.138 2.218  2.143 2.209  2.151 2.203  2.168 2.196  2.176 2.190  2.182 2.182  2.187 2.178  2.194 2.179  2.203 2.178  2.214 2.171  2.223 2.165  2.256 2.154  2.276 2.151  2.293 2.154  2.301 2.154  2.307 2.151  2.317 2.142  2.328 2.140  2.346 2.140  2.354 2.137  2.359 2.130  2.363 2.118  2.370 2.109  2.381 2.101  2.391 2.088  2.392 2.073  2.391 2.057  2.391 1.953  2.389 1.947  2.382 1.938  2.380 1.932  2.376 1.916  2.362 1.884  2.359 1.869  2.349 1.869 M2.328 3.067  2.329 3.074  2.339 3.088  2.354 3.097  2.373 3.099  2.371 3.098  2.365 3.095  2.359 3.088  2.358 3.073  2.359 3.057  2.358 3.043  2.355 3.038  2.349 3.036  2.343 3.038  2.334 3.045  2.328 3.047  2.328 3.062  2.328 3.073  2.328 3.078 M2.328 1.359  2.329 1.354  2.332 1.350  2.345 1.347  2.353 1.340  2.359 1.338  2.422 1.338  2.434 1.341  2.443 1.349  2.457 1.356  2.474 1.359  2.484 1.359  2.484 1.369 M2.641 1.390  2.642 1.385  2.645 1.381  2.651 1.380  2.658 1.377  2.666 1.371  2.682 1.359  2.698 1.358  2.729 1.360  2.745 1.369  2.745 1.383  2.745 1.390 M2.422 1.619  2.429 1.618  2.443 1.619  2.455 1.629  2.464 1.640  2.470 1.643  2.478 1.641  2.487 1.640  2.495 1.640  2.512 1.647  2.526 1.651  2.532 1.652  2.541 1.659  2.547 1.661  2.641 1.661  2.652 1.658  2.661 1.651  2.676 1.641  2.693 1.630  2.703 1.615  2.707 1.611  2.714 1.609  2.714 1.595  2.714 1.588" desc="pen-down drawing"/></g></g><WCB layer="0" node="0" lastpath="0" lastpathnc="0" lastknownposx="0" lastknownposy="0" pausedposx="0" pausedposy="0" randseed="0" row="0" application="Axidraw"/></svg>