<svg width="580" height="400" xmlns="http://www.w3.org/2000/svg">
 <!-- Created with Method Draw - http://github.com/duopixel/Method-Draw/ -->
 <g>
  <title>background</title>
  <rect fill="#fff" id="canvas_background" height="402" width="582" y="-1" x="-1"/>
  <g display="none" overflow="visible" y="0" x="0" height="100%" width="100%" id="canvasGrid">
   <rect fill="url(#gridpattern)" stroke-width="0" y="0" x="0" height="100%" width="100%"/>
  </g>
 </g>
 <g>
  <title>Layer 1</title>
  <path d="m227.5,178.453125c0,1 0.38269,1.923874 0,1c-0.541199,-1.306564 -0.714127,-2.21167 -3,-5c-2.689789,-3.281006 -6,-6 -9,-10c-3,-4 -5,-7 -7,-10c-2,-3 -4.60643,-7.538696 -6,-10c-2.031448,-3.587921 -2,-6 -2,-9c0,-2 0,-6 0,-10c0,-3 -0.20607,-8.08744 2,-13c1.832031,-4.079659 5.190277,-7.881523 7,-11c2.24469,-3.867996 4.65593,-7.38903 8,-10c4.595993,-3.58844 7.386871,-5.91761 10,-7c2.771637,-1.148048 5.963837,-2.115868 9,-3c3.958679,-1.152771 9,-2 13,-2c2,0 3,0 4,0c1,0 2,0 5,2c3,2 5.259338,3.770615 7,6c3.58844,4.595985 6.310211,9.718987 9,13c2.285889,2.788322 3.234619,6.152245 4,8c0.541199,1.306564 1.234619,4.152245 2,6c0.541199,1.306564 0.31073,3.080254 1,6c0.513733,2.176254 1,6 1,9c0,5 0.320374,7.025818 0,9c-0.506531,3.121445 -1.303223,4.769348 -2,6c-2.031464,3.587921 -1.770233,5.026749 -2,6c-0.513733,2.176254 -1.458801,2.693436 -2,4c-0.38269,0.923874 -1.292908,2.292892 -2,3c-0.707092,0.707108 -1.173096,2.852737 -2,4c-1.307465,1.813995 -2,2 -2,3c0,1 -0.61731,1.076126 -1,2c-0.541199,1.306564 -2.173096,1.852737 -3,3c-1.307465,1.813995 -1.824432,2.097885 -3,4c-0.525726,0.850647 -0.234619,2.152237 -1,4c-0.541199,1.306564 -2,1 -2,2c0,1 -1.303223,2.769348 -2,4c-2.031464,3.587921 -2,7 -2,9c0,2 -0.540497,3.053497 -1,5c-0.513748,2.176254 -1,4 -1,5c0,1 0,2 0,3c0,1 0,2 0,4c0,2 -0.38269,3.076126 0,4c0.541199,1.306564 2,1 3,1c1,0 2,0 4,0c2,0 4,0 6,0c6,0 11,-1 14,-1c3,0 6.07843,-0.789856 9,-2c2.065857,-0.855713 4.07843,-2.789856 7,-4c2.065857,-0.855713 3.298706,-1.948532 5,-3c1.9021,-1.175568 2.418854,-4.418854 4,-6c1.581146,-1.581146 3,-2 4,-3c2,-2 3.486267,-1.823746 4,-4c0.229767,-0.973251 0.824432,-1.097885 2,-3c0.525726,-0.850647 -0.38269,-2.076126 0,-3c0.541199,-1.306564 1,-2 1,-3c0,-1 0,-2 0,-3c0,-3 0,-5 0,-6c0,-1 0,-2 0,-3c0,-1 0.486267,-1.823746 1,-4c0.229767,-0.973251 0,-2 0,-3c0,-1 -0.307465,-2.186005 1,-4c0.826904,-1.147263 0.292908,-3.292892 1,-4c0.707092,-0.707108 1,-1 2,-2c2,-2 3.026764,-3.229752 4,-3c2.176239,0.513748 3.190277,3.881516 5,7c2.24469,3.867996 4,8 4,10c0,1 0,2 0,3c0,1 0,2 0,4c0,1 0.459503,2.053497 0,4c-0.513733,2.176254 -0.61731,3.076126 -1,4c-0.541199,1.306564 -0.61731,3.076126 -1,4c-0.541199,1.306564 -1.234619,2.152237 -2,4c-0.541199,1.306564 -2,2 -2,3c0,1 -1,2 -2,4c-1,2 -1,3 -2,4c-1,1 -1,2 -2,4c-1,2 -1,3 -2,4c-1,1 -1.292908,1.292892 -2,2c-0.707092,0.707108 -2,3 -3,4c-1,1 -2,2 -4,3c-2,1 -3.934143,3.144287 -6,4c-2.92157,1.210144 -5.823761,1.486252 -8,2c-1.946503,0.459503 -4.907776,1.496231 -9,2c-2.977509,0.366547 -3.693451,0.458801 -5,1c-0.923889,0.38269 -3.080261,-0.689255 -6,0c-2.176239,0.513748 -4.026764,0.770248 -5,1c-2.176239,0.513748 -3,1 -4,1c-1,0 -1.693451,0.458801 -3,1c-0.923889,0.38269 -3.076111,-0.38269 -4,0c-1.306549,0.541199 -1.693451,1.458801 -3,2c-0.923889,0.38269 -1.693451,0.458801 -3,1c-0.923874,0.38269 -1.292892,0.292892 -2,1c-0.707108,0.707108 -1.186005,0.692551 -3,2c-1.147263,0.826904 -1.61731,2.076126 -2,3c-0.541199,1.306564 -1.770248,2.026749 -2,3c-0.513748,2.176254 -1.486252,2.823746 -2,5c-0.229752,0.973251 0,2 0,4c0,1 -0.292892,1.292892 -1,2c-0.707108,0.707108 0,2 0,3c0,1 0,2 0,3c0,1 0,2 0,3c0,1 0,2 0,3c0,2 0,3 0,4c0,1 0,2 0,3c0,1 0.292892,1.292908 1,2c0.707108,0.707092 0,2 0,3c0,1 1,2 1,3c0,2 1,4 1,5c0,1 1,2 1,3c0,2 0,3 0,4c0,1 0,2 0,4c0,1 0.707108,2.292908 0,3c-0.707108,0.707092 -0.61731,1.076111 -1,2c-0.541199,1.306549 -0.61731,2.076111 -1,3c-0.541199,1.306549 -0.770248,3.026764 -1,4c-0.513748,2.176239 -2.486252,2.823761 -3,5c-0.229752,0.973236 -0.458801,2.693451 -1,4c-0.38269,0.923889 0,2 0,3c0,1 0,2 0,4c0,1 0,2 0,6c0,1 0.458801,1.693451 1,3c0.765366,1.847748 0.458801,2.693451 1,4c0.765366,1.847748 1,3 1,5c0,1 0.292892,2.292908 1,3c1.414215,1.414215 0,4 0,5c0,2 0,3 0,4c0,2 0,3 0,4c0,1 0.707108,2.292908 0,3c-0.707108,0.707092 -2.458801,0.693451 -3,2c-0.38269,0.923889 -1,1 -2,1c-1,0 -2.186005,0.307465 -4,-1c-1.147263,-0.826904 -1.420425,-2.085815 -2,-4c-1.04483,-3.450836 -2.343155,-6.876038 -4,-12c-1.268555,-3.923096 -0.310745,-7.080261 -1,-10c-0.513748,-2.176239 -1.540497,-4.053497 -2,-6c-0.513748,-2.176239 -0.292892,-3.292908 -1,-4c-0.707108,-0.707092 -2.292892,-0.292908 -3,-1c-0.707108,-0.707092 -1,-1 -2,-2c-1,-1 -2,-1 -3,-1c-1,0 -2,0 -3,0c-1,0 -1.585785,-0.414215 -3,1c-0.707108,0.707092 -1.186005,2.692535 -3,4c-2.29454,1.653809 -3.113663,2.892456 -5,5c-4.270386,4.771149 -6.346191,6.705475 -8,9c-1.307449,1.813995 -1.714127,4.21167 -4,7c-1.793198,2.187347 -3.692551,4.186005 -5,6c-0.826904,1.147278 -1.292892,2.292908 -2,3c-0.707108,0.707092 -1.292892,-0.292908 -2,-1c-1.414215,-1.414215 -1.585785,-1.585785 -3,-3c-1.414215,-1.414215 -2,-2 -2,-3c0,-1 -0.707108,-2.292908 0,-3c0.707108,-0.707092 0.337494,-2.309998 2,-5c0.7435,-1.203003 2,-3 4,-7c1,-2 2.292892,-5.292908 3,-6c0.707108,-0.707092 0.61731,-2.076111 1,-3c0.541199,-1.306549 2.173096,-1.852722 3,-3c1.307449,-1.813995 1.692551,-3.186005 3,-5c0.826904,-1.147278 1.824432,-2.0979 3,-4c0.525726,-0.850647 1,-3 2,-4c1,-1 1.540497,-2.053497 2,-4c0.513748,-2.176239 1.585785,-5.585785 3,-7c0.707108,-0.707092 0.61731,-2.076111 1,-3c0.541199,-1.306549 1,-2 1,-3c0,-2 0.839813,-4.012909 1,-5c0.506546,-3.121429 1,-5 1,-8c0,-2 1,-5 1,-8c0,-2 0,-3 0,-4c0,-2 0,-3 0,-4c0,-1 0,-2 0,-3c0,-2 0,-3 0,-6c0,-2 0,-4 0,-6c0,-3 0,-4 0,-6c0,-1 0,-2 0,-3c0,-1 0.38269,-2.076126 0,-3c-0.541199,-1.306564 -1,-2 -1,-4c0,-1 -0.458801,-1.693436 -1,-3c-0.38269,-0.923874 -0.292892,-1.292892 -1,-2c-0.707108,-0.707108 -1.458801,0.693436 -2,2c-0.38269,0.923874 -2.486252,2.823746 -3,5c-0.229752,0.973251 -0.486252,1.823746 -1,4c-0.229752,0.973251 0.307449,2.186005 -1,4c-0.826904,1.147263 -0.61731,2.076126 -1,3c-0.541199,1.306564 -1.486252,1.823746 -2,4c-0.229752,0.973251 -1,2 -2,4c-1,2 -1.79393,4.087433 -4,9c-0.916016,2.039825 -1,4 -2,5c-1,1 -2,3 -3,5c-1,2 -2.458801,3.693451 -3,5c-0.38269,0.923889 -1,1 -2,2c-1,1 -1.292892,1.707092 -2,1c-0.707108,-0.707092 -1.458801,-0.693451 -2,-2c-0.38269,-0.923889 0,-3 0,-4c0,-3 0,-5 0,-6c0,-1 0,-2 0,-3c0,-1 0,-2 0,-4c0,-2 0.458801,-2.693451 1,-4c0.38269,-0.923889 0.61731,-2.076111 1,-3c0.541199,-1.306564 1,-2 2,-3c1,-1 1.692551,-3.186005 3,-5c0.826904,-1.147263 1.770248,-2.026749 2,-3c0.513748,-2.176254 1.61731,-3.076126 2,-4c0.541199,-1.306564 2,-2 2,-3c0,-1 0.61731,-2.076126 1,-3c0.541199,-1.306564 1.076126,-1.61731 2,-2c1.306564,-0.541199 0.61731,-2.076126 1,-3c0.541199,-1.306564 2.486252,-1.823746 3,-4c0.229752,-0.973251 1.458801,-2.693436 2,-4c0.38269,-0.923874 1.292892,-1.292892 2,-2c0.707108,-0.707108 0.292892,-1.292892 1,-2c0.707108,-0.707108 -0.707108,-2.292892 0,-3c0.707108,-0.707108 2.292892,-0.292892 3,-1c0.707108,-0.707108 0.693436,-2.458801 2,-3c0.923874,-0.38269 2.458801,-0.693436 3,-2c0.38269,-0.923874 1.585785,0.414215 3,-1c0.707108,-0.707108 1.076126,-0.61731 2,-1c1.306564,-0.541199 3,-1 4,-1c1,0 2.292892,0.707108 3,0c0.707108,-0.707108 1,-1 2,-1c1,0 2.458801,0.306564 3,-1c0.38269,-0.923874 0.292892,-1.292892 1,-2c0.707108,-0.707108 1.458801,-0.693436 2,-2c0.38269,-0.923874 0,-2 0,-3c0,-1 0,-2 0,-3c0,-1 0,-3 0,-4c0,-1 0,-2 0,-3c0,-1 -1,-1 -1,-2c0,-1 -0.61731,-2.076126 -1,-3c-0.541199,-1.306564 -1,-2 -1,-3l-1,0" id="svg_1" stroke-width="1.5" stroke="#000" fill="none"/>
  <path d="m223.5,294.453125c0,0 0,1 1,2c1,1 2,1 3,1c1,0 -0.458801,0.306549 -1,-1c-0.38269,-0.923889 0,-2 0,-3c0,-1 0,-2 -1,-2c-1,0 -1,1 -2,1l0,1l0,1l0,1" id="svg_2" stroke-width="1.5" stroke="#000" fill="none"/>
  <path d="m223.5,130.453125c0,0 0,-1 1,-1c1,0 1,-1 2,-1c1,0 2,0 3,0c1,0 2,0 3,0c1,0 1.292892,0.292892 2,1c0.707108,0.707108 2,1 3,1l1,0l0,1" id="svg_3" stroke-width="1.5" stroke="#000" fill="none"/>
  <path d="m253.5,133.453125c0,0 0,-1 1,-1c1,0 1.693451,-1.458801 3,-2c0.923889,-0.38269 2,0 3,0c1,0 2,0 3,1l0,1l0,1" id="svg_4" stroke-width="1.5" stroke="#000" fill="none"/>
  <path d="m232.5,155.453125c0,0 1.076126,-0.38269 2,0c1.306564,0.541199 1.292892,1.292892 2,2c0.707108,0.707108 2.076126,-0.38269 3,0c1.306564,0.541199 2,1 3,1c1,0 1,1 2,1c1,0 2,0 3,0c1,0 2,0 3,0c1,0 2,0 3,0c1,0 1.292892,-0.292892 2,-1c0.707092,-0.707108 2,-1 3,-2c1,-1 1,-2 2,-2l0,-1l0,-1" id="svg_7" stroke-width="1.5" stroke="#000" fill="none"/>
 </g>
</svg>