<!-- Created with Inkscape (http://www.inkscape.org/) --><svg xmlns:dc="http://purl.org/dc/elements/1.1/" xmlns:cc="http://creativecommons.org/ns#" xmlns:rdf="http://www.w3.org/1999/02/22-rdf-syntax-ns#" xmlns:svg="http://www.w3.org/2000/svg" xmlns="http://www.w3.org/2000/svg" xmlns:sodipodi="http://sodipodi.sourceforge.net/DTD/sodipodi-0.dtd" xmlns:inkscape="http://www.inkscape.org/namespaces/inkscape" id="svg8" version="1.1" viewBox="0 0 210 297" height="297mm" width="210mm" inkscape:version="0.92.4 (5da689c313, 2019-01-14)" sodipodi:docname="cowboy-so-sad.svg">
  <defs id="defs2"/>
  <sodipodi:namedview id="base" pagecolor="#ffffff" bordercolor="#666666" borderopacity="1.0" inkscape:pageopacity="0.0" inkscape:pageshadow="2" inkscape:zoom="0.98994949" inkscape:cx="187.20597" inkscape:cy="859.39627" inkscape:document-units="mm" inkscape:current-layer="layer1" showgrid="false" inkscape:window-width="1920" inkscape:window-height="1017" inkscape:window-x="-8" inkscape:window-y="-8" inkscape:window-maximized="1"/>
  <metadata id="metadata5">
    <rdf:RDF>
      <cc:Work rdf:about="">
        <dc:format>image/svg+xml</dc:format>
        <dc:type rdf:resource="http://purl.org/dc/dcmitype/StillImage"/>
        <dc:title/>
      </cc:Work>
    </rdf:RDF>
  </metadata>
  <g inkscape:label="Layer 1" inkscape:groupmode="layer" id="layer1">
    <text xml:space="preserve" style="font-style:normal;font-weight:normal;font-size:10.58333302px;line-height:1.25;font-family:sans-serif;letter-spacing:0px;word-spacing:0px;fill:#000000;fill-opacity:1;stroke:none;stroke-width:0.26458332" x="34.017857" y="73.238091" id="text12"><tspan sodipodi:role="line" x="34.017857" y="82.893585" style="stroke-width:0.26458332" id="tspan16"/></text>
    <g inkscape:label="Hershey Text" style="stroke:#000000;fill:none;stroke-linecap:round;stroke-linejoin:round"/><g inkscape:label="Hershey Text" style="stroke:#000000;fill:none;stroke-linecap:round;stroke-linejoin:round" transform=""><g id="a" transform="translate(32.3396150,31.8686220)"><path d="M505 785q47 5 117 19.5t156 38t184.5 55t202.5 71t210.5 86.5t207.5 100 M65 1209q-12 44 -1 99.5t59 126t140.5 156.5t243.5 191q91 63 159 92.5t116 29.5q57 0 85.5 -40.5t31 -117.5t-21 -189.5t-71.5 -256.5q-68 -205 -131 -416.5t-106 -423t-57 -419t15 -405.5  M1463 2016q-6 -113 -23.5 -240t-40.5 -261t-48 -271.5t-46.5 -273t-36 -266t-16.5 -249t12 -222.5t49 -187 " transform="translate(0.000000,0.000000)scale(0.001608, -0.001608)" style="stroke-width:1.701in" id="ay"/><path d="M0 397q137 119 224 216t131.5 166.5t51 107.5t-17.5 38q-27 0 -88.5 -55.5t-146.5 -178.5q-100 -145 -143.5 -263t-31.5 -201t79 -128.5t188 -45.5q35 0 74 4t83 12q69 13 127 33.5t106.5 46t87.5 54t69 55.5q71 65 116 139 " transform="translate(2.733109,0.000000)scale(0.001608, -0.001608)" style="stroke-width:1.701in" id="av"/><path d="M0 358q129 93 239 227q47 57 93.5 128t87 156.5t71 185t45.5 213.5q15 117 20.5 200t3 136t-12.5 78t-27 25q-16 0 -37 -21t-46.5 -60.5t-54 -95.5t-60.5 -126q-43 -95 -90 -212t-90.5 -241.5t-78.5 -248t-53 -232.5t-15 -195.5t36 -135.5q30 -45 72.5 -73t97.5 -28 q39 0 84 17t96 55t107.5 99t117.5 149 " transform="translate(4.194519,0.000000)scale(0.001608, -0.001608)" style="stroke-width:1.701in" id="ag"/><path d="M0 358q129 93 239 227q47 57 93.5 128t87 156.5t71 185t45.5 213.5q15 117 20.5 200t3 136t-12.5 78t-27 25q-16 0 -37 -21t-46.5 -60.5t-54 -95.5t-60.5 -126q-43 -95 -90 -212t-90.5 -241.5t-78.5 -248t-53 -232.5t-15 -195.5t36 -135.5q30 -45 72.5 -73t97.5 -28 q39 0 84 17t96 55t107.5 99t117.5 149 " transform="translate(5.168792,0.000000)scale(0.001608, -0.001608)" style="stroke-width:1.701in" id="al"/><path d="M172 742q-98 -184 -149 -330q-22 -62 -35.5 -122t-12 -108t23 -79t70.5 -34q63 0 117 36t98 96.5t78 139.5t56.5 164t33.5 170t9 159q-2 94 -26.5 133.5t-59.5 39.5q-26 0 -56 -19.5t-57 -52t-49.5 -74.5t-34.5 -87.5t-11 -91.5t20 -86q33 -70 69.5 -118t78 -78 t89.5 -43t105 -13q32 0 65.5 3.5t71.5 10.5 " transform="translate(6.143065,0.000000)scale(0.001608, -0.001608)" style="stroke-width:1.701in" id="ayu"/><path d="M260 2245q-45 -187 -42.5 -358.5t48 -318.5t131.5 -266.5t208.5 -204.5t278 -131t340.5 -46q54 0 110 4t114 12q181 26 360.5 67t344 106t306.5 157t249.5 220.5t172.5 296.5t75 384q-1 -3 -21 -65t-55 -167.5t-83 -247t-106 -303t-124.5 -336t-138 -347t-146 -334 t-149.5 -298.5q7 0 26.5 42.5t61 124.5t109.5 202.5t171.5 275.5t247.5 343.5t337 407.5q187 212 330 316t235 104q97 0 130.5 -116t-8.5 -346t-165.5 -573t-339.5 -798q7 2 25 25t64 75t128 137t214.5 211.5t324 298.5t458.5 397q231 196 430 357t353.5 276.5t260.5 179 t151 63.5q33 0 31.5 -36t-41 -113t-120.5 -197t-207 -287q-120 -159 -227 -340.5t-198.5 -376t-165.5 -396.5t-126.5 -401t-82 -389.5t-33 -362t21.5 -319.5t82 -261t147 -187t218 -97 " transform="translate(8.839197,0.000000)scale(0.001608, -0.001608)" style="stroke-width:1.701in" id="alr"/><path d="M0 373q41 52 77.5 109t69 115t61 115t51.5 109q55 121 97 241q-49 -126 -75 -224q-11 -42 -18 -82.5t-7 -72t9.5 -51t32.5 -19.5q24 0 64 25t101 82q1 0 -15.5 -15.5t-41 -44.5t-51.5 -71t-47.5 -94.5t-29.5 -114.5t2 -131q15 -93 59.5 -140t115.5 -47q89 0 214.5 76 t280.5 235 " transform="translate(17.247527,0.000000)scale(0.001608, -0.001608)" style="stroke-width:1.701in" id="aa"/><path d="M268 105q-7 13 -4 18t11 5q6 0 13 -3t11.5 -6.5t4.5 -8t-8 -7.5 " transform="translate(18.774852,0.000000)scale(0.001608, -0.001608)" style="stroke-width:1.701in" id="aQ"/><path d="M897 1255q87 224 130.5 387.5t50.5 271t-18 159.5t-73 52q-47 0 -113 -49t-143 -144t-161 -234t-167 -320q-75 -164 -142.5 -325t-116 -307.5t-72.5 -272t-13 -217.5t62.5 -144t155.5 -52q60 0 139 19t179 60t222 105t268 153 " transform="translate(21.535292,0.000000)scale(0.001608, -0.001608)" style="stroke-width:1.701in" id="avi"/><path d="M172 742q-98 -184 -149 -330q-22 -62 -35.5 -122t-12 -108t23 -79t70.5 -34q63 0 117 36t98 96.5t78 139.5t56.5 164t33.5 170t9 159q-2 94 -26.5 133.5t-59.5 39.5q-26 0 -56 -19.5t-57 -52t-49.5 -74.5t-34.5 -87.5t-11 -91.5t20 -86q33 -70 69.5 -118t78 -78 t89.5 -43t105 -13q32 0 65.5 3.5t71.5 10.5 " transform="translate(23.279659,0.000000)scale(0.001608, -0.001608)" style="stroke-width:1.701in" id="au"/><path d="M259 903q-67 -121 -122.5 -230.5t-97 -202.5t-67.5 -168.5t-34.5 -128.5t1.5 -81.5t40 -28.5q42 0 120 56q55 39 105.5 88t95.5 101.5t84.5 106.5t72.5 104q77 118 138 242q-70 -154 -110 -274q-17 -52 -29.5 -101.5t-14 -88t9.5 -62t40 -23.5q23 0 58.5 17t86.5 55 q155 116 241 220.5t123 195t34 165t-26 129.5 " transform="translate(24.372903,0.000000)scale(0.001608, -0.001608)" style="stroke-width:1.701in" id="agT"/><path d="M486 1335q-75 -98 -145.5 -211.5t-132.5 -233t-113.5 -240t-87.5 -233.5t-54.5 -213t-14.5 -178t7.5 25t26 53t55.5 90t96.5 136t147.5 192.5q155 196 258 302.5t167 106.5q46 0 75 -58t45 -182q10 -73 -1.5 -149t-40 -146.5t-72 -132.5t-98.5 -108t-118.5 -72.5 t-132.5 -26.5q-71 0 -145 32.5t-146 104.5q1 1 14 -6t40.5 -16t70.5 -16.5t104 -7.5q62 0 142 10.5t182 37.5t226 74t273 120 " transform="translate(26.253925,0.000000)scale(0.001608, -0.001608)" style="stroke-width:1.701in" id="an"/><path d="M172 742q-98 -184 -149 -330q-22 -62 -35.5 -122t-12 -108t23 -79t70.5 -34q63 0 117 36t98 96.5t78 139.5t56.5 164t33.5 170t9 159q-2 94 -26.5 133.5t-59.5 39.5q-26 0 -56 -19.5t-57 -52t-49.5 -74.5t-34.5 -87.5t-11 -91.5t20 -86q33 -70 69.5 -118t78 -78 t89.5 -43t105 -13q32 0 65.5 3.5t71.5 10.5 " transform="translate(28.044915,0.000000)scale(0.001608, -0.001608)" style="stroke-width:1.701in" id="ayl"/><path d="M193 883q-63 -121 -107 -232.5t-69 -208t-31.5 -175t5 -135t40.5 -87t75 -30.5t91.5 33t89.5 88t85 127.5t78.5 152.5t70 161.5t58.5 155t45.5 133.5t30.5 96q1 -3 -19 -81.5t-48 -229t-57 -372t-45 -509.5q-11 -201 -39 -365.5t-62.5 -281.5t-71 -181t-64.5 -64 q-25 0 -39.5 52.5t-12.5 166.5q2 124 31 245t79.5 236.5t120 224.5t152.5 209.5t176.5 191t192.5 169.5 " transform="translate(29.138159,0.000000)scale(0.001608, -0.001608)" style="stroke-width:1.701in" id="ap"/><path d="M261 225q-13 -104 -31.5 -188t-40 -157t-45 -139t-48.5 -133 " transform="translate(30.663877,0.000000)scale(0.001608, -0.001608)" style="stroke-width:1.701in" id="ayk"/></g><g id="aul" transform="translate(32.3396150,44.2158430)"><path d="M455 1710q-14 23 -20.5 57.5t-6 72.5t8 76.5t19.5 69.5t28 50t36 19q29 0 36.5 -49t-10 -156.5t-62.5 -278t-120 -414.5q-41 -134 -83.5 -274t-78 -272t-61.5 -248.5t-35.5 -204t1 -138t47.5 -50.5q24 0 59.5 22.5t85.5 72.5q141 141 269.5 311.5t250 382.5t238.5 472.5 t237 582.5q0 -1 -11 -40t-28 -108t-36 -166.5t-36 -216t-28 -256t-11 -286.5q0 -148 6.5 -271.5t21 -212t37.5 -137.5t55 -49q34 0 78 57.5t101 183.5q83 185 173.5 381.5t186 395.5t196.5 396t205 383q156 278 279 413.5t206 135.5q58 0 93 -64 " transform="translate(3.205776,0.000000)scale(0.001608, -0.001608)" style="stroke-width:1.701in" id="aT"/><path d="M0 397q137 119 224 216t131.5 166.5t51 107.5t-17.5 38q-27 0 -88.5 -55.5t-146.5 -178.5q-100 -145 -143.5 -263t-31.5 -201t79 -128.5t188 -45.5q35 0 74 4t83 12q69 13 127 33.5t106.5 46t87.5 54t69 55.5q71 65 116 139 " transform="translate(6.437276,0.000000)scale(0.001608, -0.001608)" style="stroke-width:1.701in" id="ale"/><path d="M0 373q41 52 77.5 109t69 115t61 115t51.5 109q55 121 97 241q-49 -126 -75 -224q-11 -42 -18 -82.5t-7 -72t9.5 -51t32.5 -19.5q24 0 64 25t101 82q1 0 -15.5 -15.5t-41 -44.5t-51.5 -71t-47.5 -94.5t-29.5 -114.5t2 -131q15 -93 59.5 -140t115.5 -47q89 0 214.5 76 t280.5 235 " transform="translate(9.501574,0.000000)scale(0.001608, -0.001608)" style="stroke-width:1.701in" id="auQ"/><path d="M0 397q137 119 224 216t131.5 166.5t51 107.5t-17.5 38q-27 0 -88.5 -55.5t-146.5 -178.5q-100 -145 -143.5 -263t-31.5 -201t79 -128.5t188 -45.5q35 0 74 4t83 12q69 13 127 33.5t106.5 46t87.5 54t69 55.5q71 65 116 139 " transform="translate(11.028899,0.000000)scale(0.001608, -0.001608)" style="stroke-width:1.701in" id="ar"/><path d="M662 633q-6 80 -18.5 136t-31.5 91.5t-44 51.5t-54 16q-35 0 -75.5 -20.5t-85 -56.5t-92.5 -85.5t-98 -107.5q-51 -59 -92.5 -127t-70 -134.5t-43 -128t-13 -108.5t21 -75t58.5 -28q23 0 53.5 11t68.5 34q78 48 149.5 110.5t134 133t116 146.5t95 151t70 145.5 t42.5 129.5q2 -1 -17.5 -92.5t-55 -262t-84.5 -413.5t-108 -547q-48 -247 -101 -412t-108.5 -264.5t-111.5 -141t-110 -41.5q-50 0 -97 29q-41 24 -51.5 84.5t17.5 157.5t99.5 231.5t194 306.5t300.5 383t420 461 " transform="translate(12.490309,0.000000)scale(0.001608, -0.001608)" style="stroke-width:1.701in" id="ae"/><path d="M0 373q41 52 77.5 109t69 115t61 115t51.5 109q55 121 97 241q-49 -126 -75 -224q-11 -42 -18 -82.5t-7 -72t9.5 -51t32.5 -19.5q24 0 64 25t101 82q1 0 -15.5 -15.5t-41 -44.5t-51.5 -71t-47.5 -94.5t-29.5 -114.5t2 -131q15 -93 59.5 -140t115.5 -47q89 0 214.5 76 t280.5 235 " transform="translate(14.001557,0.000000)scale(0.001608, -0.001608)" style="stroke-width:1.701in" id="agr"/><path d="M0 397q137 119 224 216t131.5 166.5t51 107.5t-17.5 38q-27 0 -88.5 -55.5t-146.5 -178.5q-100 -145 -143.5 -263t-31.5 -201t79 -128.5t188 -45.5q35 0 74 4t83 12q69 13 127 33.5t106.5 46t87.5 54t69 55.5q71 65 116 139 " transform="translate(15.528883,0.000000)scale(0.001608, -0.001608)" style="stroke-width:1.701in" id="aud"/><path d="M-230 742q69 21 165.5 42.5t211 39t242 28t259.5 10.5q15 0 30.5 -0.5t30.5 -0.5 M410 1445q-93 -223 -165.5 -399t-124.5 -312.5t-84 -237.5t-44 -175t-4.5 -124.5t33.5 -86.5q41 -54 102 -54q42 0 90.5 24t99.5 66t103.5 100t103.5 127 " transform="translate(16.990293,0.000000)scale(0.001608, -0.001608)" style="stroke-width:1.701in" id="ao"/><path d="M-230 742q69 21 165.5 42.5t211 39t242 28t259.5 10.5q15 0 30.5 -0.5t30.5 -0.5 M410 1445q-93 -223 -165.5 -399t-124.5 -312.5t-84 -237.5t-44 -175t-4.5 -124.5t33.5 -86.5q41 -54 102 -54q42 0 90.5 24t99.5 66t103.5 100t103.5 127 " transform="translate(19.429191,0.000000)scale(0.001608, -0.001608)" style="stroke-width:1.701in" id="ai"/><path d="M172 742q-98 -184 -149 -330q-22 -62 -35.5 -122t-12 -108t23 -79t70.5 -34q63 0 117 36t98 96.5t78 139.5t56.5 164t33.5 170t9 159q-2 94 -26.5 133.5t-59.5 39.5q-26 0 -56 -19.5t-57 -52t-49.5 -74.5t-34.5 -87.5t-11 -91.5t20 -86q33 -70 69.5 -118t78 -78 t89.5 -43t105 -13q32 0 65.5 3.5t71.5 10.5 " transform="translate(20.265201,0.000000)scale(0.001608, -0.001608)" style="stroke-width:1.701in" id="ais"/><path d="M912 1609l25.5 -25.5t17.5 -34.5 M346 1031q-111 -137 -182 -254.5t-111.5 -215.5t-55 -176.5t-11.5 -136t19 -94.5t36 -53q16 -12 39.5 -19t55.5 -7q45 0 105 16.5t132 54t154 99.5t171 152 " transform="translate(22.961332,0.000000)scale(0.001608, -0.001608)" style="stroke-width:1.701in" id="arB"/><path d="M128 1050q-29 -194 -64 -384q-15 -81 -33.5 -169t-39 -175.5t-43.5 -171t-47 -154.5q2 3 12.5 33t30 80.5t47.5 119t65.5 148t84.5 167.5t104 177q65 102 110.5 146t75.5 44q25 0 40.5 -25t24.5 -67t12.5 -97t3.5 -115q0 -44 0.5 -97t4 -106.5t11.5 -103t22.5 -88 t37 -61.5t54.5 -23q45 0 112 52.5t163 177.5 " transform="translate(24.083515,0.000000)scale(0.001608, -0.001608)" style="stroke-width:1.701in" id="aB"/><path d="M308 1557q6 -179 -35 -434q-18 -108 -47.5 -244t-75.5 -299t-110.5 -353.5t-152.5 -408.5q-159 -396 -266.5 -703t-158 -517t-42.5 -319.5t79 -109.5q27 0 68 19q48 23 103.5 89t112 165t111 225.5t100.5 270.5t81.5 299.5t53.5 313t15.5 311.5t-31.5 294 q-18 90 -35.5 150t-32.5 96.5t-27 52t-20 15.5t-9.5 -16t5.5 -40t24 -52.5t45.5 -52.5t70.5 -40t98 -16q71 0 166 32.5t219 111.5 " transform="translate(25.557786,0.000000)scale(0.001608, -0.001608)" style="stroke-width:1.701in" id="avJ"/><path d="M172 742q-98 -184 -149 -330q-22 -62 -35.5 -122t-12 -108t23 -79t70.5 -34q63 0 117 36t98 96.5t78 139.5t56.5 164t33.5 170t9 159q-2 94 -26.5 133.5t-59.5 39.5q-26 0 -56 -19.5t-57 -52t-49.5 -74.5t-34.5 -87.5t-11 -91.5t20 -86q33 -70 69.5 -118t78 -78 t89.5 -43t105 -13q32 0 65.5 3.5t71.5 10.5 " transform="translate(26.549744,0.000000)scale(0.001608, -0.001608)" style="stroke-width:1.701in" id="aTz"/><path d="M0 373q41 52 77.5 109t69 115t61 115t51.5 109q55 121 97 241q-49 -126 -75 -224q-11 -42 -18 -82.5t-7 -72t9.5 -51t32.5 -19.5q24 0 64 25t101 82q1 0 -15.5 -15.5t-41 -44.5t-51.5 -71t-47.5 -94.5t-29.5 -114.5t2 -131q15 -93 59.5 -140t115.5 -47q89 0 214.5 76 t280.5 235 " transform="translate(27.642988,0.000000)scale(0.001608, -0.001608)" style="stroke-width:1.701in" id="aBl"/><path d="M101 889q-12 -87 -29 -179t-35.5 -181t-37 -171.5t-34.5 -150.5t-28 -117.5t-17 -72.5q0 -1 7 28t23 79t41 116t60.5 140t82 151.5t105.5 148.5q86 104 143 155t91 51q35 0 45 -57.5t-2 -172.5q-6 -55 -17 -111t-25 -110t-30.5 -104.5t-32.5 -94.5q-38 -104 -82 -200 q81 111 167 225q36 48 77 102t84 109.5t86.5 110.5t84.5 106q70 87 111.5 126.5t58.5 39.5q23 0 6 -67.5t-66 -189.5q-42 -105 -57 -203t2 -175.5t68.5 -127.5t142.5 -59q4 -1 8 -1q37 0 74.5 14t73 37t68.5 52.5t62 59.5q68 72 130 163 " transform="translate(29.170313,0.000000)scale(0.001608, -0.001608)" style="stroke-width:1.701in" id="aio"/><path d="M193 883q-63 -121 -107 -232.5t-69 -208t-31.5 -175t5 -135t40.5 -87t75 -30.5t91.5 33t89.5 88t85 127.5t78.5 152.5t70 161.5t58.5 155t45.5 133.5t30.5 96q1 -3 -19 -81.5t-48 -229t-57 -372t-45 -509.5q-11 -201 -39 -365.5t-62.5 -281.5t-71 -181t-64.5 -64 q-25 0 -39.5 52.5t-12.5 166.5q2 124 31 245t79.5 236.5t120 224.5t152.5 209.5t176.5 191t192.5 169.5 " transform="translate(33.213707,0.000000)scale(0.001608, -0.001608)" style="stroke-width:1.701in" id="as"/><path d="M172 742q-98 -184 -149 -330q-22 -62 -35.5 -122t-12 -108t23 -79t70.5 -34q63 0 117 36t98 96.5t78 139.5t56.5 164t33.5 170t9 159q-2 94 -26.5 133.5t-59.5 39.5q-26 0 -56 -19.5t-57 -52t-49.5 -74.5t-34.5 -87.5t-11 -91.5t20 -86q33 -70 69.5 -118t78 -78 t89.5 -43t105 -13q32 0 65.5 3.5t71.5 10.5 " transform="translate(34.739425,0.000000)scale(0.001608, -0.001608)" style="stroke-width:1.701in" id="aF"/><path d="M307 927q-251 -411 -335 -616.5t11 -205.5q62 0 201 87q71 44 138 101.5t128 121.5t115.5 131t100.5 130q108 147 198 306q-74 -115 -137 -232q-26 -50 -52.5 -105.5t-49 -112.5t-39.5 -113.5t-24 -108.5q-6 -47 0.5 -82t23.5 -58t43.5 -34.5t60.5 -11.5q41 0 89 16 t100.5 47.5t107 78t106.5 107.5 " transform="translate(35.832669,0.000000)scale(0.001608, -0.001608)" style="stroke-width:1.701in" id="aJ"/><path d="M-230 742q69 21 165.5 42.5t211 39t242 28t259.5 10.5q15 0 30.5 -0.5t30.5 -0.5 M410 1445q-93 -223 -165.5 -399t-124.5 -312.5t-84 -237.5t-44 -175t-4.5 -124.5t33.5 -86.5q41 -54 102 -54q42 0 90.5 24t99.5 66t103.5 100t103.5 127 " transform="translate(39.192785,0.000000)scale(0.001608, -0.001608)" style="stroke-width:1.701in" id="apu"/><path d="M390 1256q-23 -53 -63 -134.5t-88.5 -182t-101 -216t-101 -235t-87.5 -239.5t-61 -230q0 -2 36.5 59t106 165t169 240.5t225.5 284.5q45 53 80 90.5t61 60.5t44 33.5t29 10.5q20 0 20 -28.5t-12.5 -73.5t-34 -100t-44.5 -108q-26 -59 -42.5 -120t-21.5 -118t2 -107 t27.5 -87.5t55 -59.5t85.5 -22q39 0 87 14t106.5 45t127.5 80t149 119 " transform="translate(40.028795,0.000000)scale(0.001608, -0.001608)" style="stroke-width:1.701in" id="aix"/><path d="M483 607q37 69 49.5 123.5t6 92t-30 57.5t-58.5 20q-29 0 -65 -14.5t-76 -45t-83 -77.5t-85 -112q-48 -73 -87 -145t-67 -137.5t-44.5 -121.5t-18.5 -97t10.5 -64.5t41.5 -23.5q26 0 66 20.5t97 67.5q123 101 196.5 185t114.5 147q48 72 68 131q-55 -137 -73 -244 q-8 -46 -8.5 -89.5t11.5 -77.5t39.5 -54.5t75.5 -19.5t90.5 13t79 31t67 43t54.5 49q58 59 99 133 " transform="translate(41.868017,0.000000)scale(0.001608, -0.001608)" style="stroke-width:1.701in" id="aoa"/><path d="M-230 742q69 21 165.5 42.5t211 39t242 28t259.5 10.5q15 0 30.5 -0.5t30.5 -0.5 M410 1445q-93 -223 -165.5 -399t-124.5 -312.5t-84 -237.5t-44 -175t-4.5 -124.5t33.5 -86.5q41 -54 102 -54q42 0 90.5 24t99.5 66t103.5 100t103.5 127 " transform="translate(43.400166,0.000000)scale(0.001608, -0.001608)" style="stroke-width:1.701in" id="aFx"/><path d="M193 883q-63 -121 -107 -232.5t-69 -208t-31.5 -175t5 -135t40.5 -87t75 -30.5t91.5 33t89.5 88t85 127.5t78.5 152.5t70 161.5t58.5 155t45.5 133.5t30.5 96q1 -3 -19 -81.5t-48 -229t-57 -372t-45 -509.5q-11 -201 -39 -365.5t-62.5 -281.5t-71 -181t-64.5 -64 q-25 0 -39.5 52.5t-12.5 166.5q2 124 31 245t79.5 236.5t120 224.5t152.5 209.5t176.5 191t192.5 169.5 " transform="translate(45.839064,0.000000)scale(0.001608, -0.001608)" style="stroke-width:1.701in" id="ad"/><path d="M172 742q-98 -184 -149 -330q-22 -62 -35.5 -122t-12 -108t23 -79t70.5 -34q63 0 117 36t98 96.5t78 139.5t56.5 164t33.5 170t9 159q-2 94 -26.5 133.5t-59.5 39.5q-26 0 -56 -19.5t-57 -52t-49.5 -74.5t-34.5 -87.5t-11 -91.5t20 -86q33 -70 69.5 -118t78 -78 t89.5 -43t105 -13q32 0 65.5 3.5t71.5 10.5 " transform="translate(47.364782,0.000000)scale(0.001608, -0.001608)" style="stroke-width:1.701in" id="and"/><path d="M307 927q-251 -411 -335 -616.5t11 -205.5q62 0 201 87q71 44 138 101.5t128 121.5t115.5 131t100.5 130q108 147 198 306q-74 -115 -137 -232q-26 -50 -52.5 -105.5t-49 -112.5t-39.5 -113.5t-24 -108.5q-6 -47 0.5 -82t23.5 -58t43.5 -34.5t60.5 -11.5q41 0 89 16 t100.5 47.5t107 78t106.5 107.5 " transform="translate(48.458025,0.000000)scale(0.001608, -0.001608)" style="stroke-width:1.701in" id="aru"/><path d="M0 373q41 52 77.5 109t69 115t61 115t51.5 109q55 121 97 241q-49 -126 -75 -224q-11 -42 -18 -82.5t-7 -72t9.5 -51t32.5 -19.5q24 0 64 25t101 82q1 0 -15.5 -15.5t-41 -44.5t-51.5 -71t-47.5 -94.5t-29.5 -114.5t2 -131q15 -93 59.5 -140t115.5 -47q89 0 214.5 76 t280.5 235 " transform="translate(50.215254,0.000000)scale(0.001608, -0.001608)" style="stroke-width:1.701in" id="api"/><path d="M285 966q-13 -87 -40 -184.5t-61.5 -202t-72.5 -215t-73 -223.5t-62.5 -228t-41.5 -228 M138 444q101 204 196 310.5t170 106.5q55 0 94.5 -61t56.5 -189q21 -150 -5.5 -258.5t-83.5 -179t-137.5 -104.5t-168.5 -36q-50 -1 -102.5 18t-100.5 51t-89 73t-68.5 85t-39 87 t-0.5 79q15 48 45 48q28 0 62 -48t62 -148q18 -62 54 -108.5t86 -77.5t112 -46.5t131 -15.5q81 0 169 20.5t176 62t172.5 103t159.5 142.5 " transform="translate(53.345468,0.000000)scale(0.001608, -0.001608)" style="stroke-width:1.701in" id="aFo"/><path d="M172 742q-98 -184 -149 -330q-22 -62 -35.5 -122t-12 -108t23 -79t70.5 -34q63 0 117 36t98 96.5t78 139.5t56.5 164t33.5 170t9 159q-2 94 -26.5 133.5t-59.5 39.5q-26 0 -56 -19.5t-57 -52t-49.5 -74.5t-34.5 -87.5t-11 -91.5t20 -86q33 -70 69.5 -118t78 -78 t89.5 -43t105 -13q32 0 65.5 3.5t71.5 10.5 " transform="translate(55.096265,0.000000)scale(0.001608, -0.001608)" style="stroke-width:1.701in" id="aii"/><path d="M128 1050q-29 -194 -64 -384q-15 -81 -33.5 -169t-39 -175.5t-43.5 -171t-47 -154.5q2 3 12.5 33t30 80.5t47.5 119t65.5 148t84.5 167.5t104 177q65 102 110.5 146t75.5 44q25 0 40.5 -25t24.5 -67t12.5 -97t3.5 -115q0 -44 0.5 -97t4 -106.5t11.5 -103t22.5 -88 t37 -61.5t54.5 -23q45 0 112 52.5t163 177.5 " transform="translate(56.189509,0.000000)scale(0.001608, -0.001608)" style="stroke-width:1.701in" id="aiig"/><path d="M193 883q-63 -121 -107 -232.5t-69 -208t-31.5 -175t5 -135t40.5 -87t75 -30.5t91.5 33t89.5 88t85 127.5t78.5 152.5t70 161.5t58.5 155t45.5 133.5t30.5 96q1 -3 -19 -81.5t-48 -229t-57 -372t-45 -509.5q-11 -201 -39 -365.5t-62.5 -281.5t-71 -181t-64.5 -64 q-25 0 -39.5 52.5t-12.5 166.5q2 124 31 245t79.5 236.5t120 224.5t152.5 209.5t176.5 191t192.5 169.5 " transform="translate(57.663780,0.000000)scale(0.001608, -0.001608)" style="stroke-width:1.701in" id="adp"/><path d="M285 966q-13 -87 -40 -184.5t-61.5 -202t-72.5 -215t-73 -223.5t-62.5 -228t-41.5 -228 M138 444q101 204 196 310.5t170 106.5q55 0 94.5 -61t56.5 -189q21 -150 -5.5 -258.5t-83.5 -179t-137.5 -104.5t-168.5 -36q-50 -1 -102.5 18t-100.5 51t-89 73t-68.5 85t-39 87 t-0.5 79q15 48 45 48q28 0 62 -48t62 -148q18 -62 54 -108.5t86 -77.5t112 -46.5t131 -15.5q81 0 169 20.5t176 62t172.5 103t159.5 142.5 " transform="translate(60.792386,0.000000)scale(0.001608, -0.001608)" style="stroke-width:1.701in" id="aTi"/><path d="M483 607q37 69 49.5 123.5t6 92t-30 57.5t-58.5 20q-29 0 -65 -14.5t-76 -45t-83 -77.5t-85 -112q-48 -73 -87 -145t-67 -137.5t-44.5 -121.5t-18.5 -97t10.5 -64.5t41.5 -23.5q26 0 66 20.5t97 67.5q123 101 196.5 185t114.5 147q48 72 68 131q-55 -137 -73 -244 q-8 -46 -8.5 -89.5t11.5 -77.5t39.5 -54.5t75.5 -19.5t90.5 13t79 31t67 43t54.5 49q58 59 99 133 " transform="translate(62.543184,0.000000)scale(0.001608, -0.001608)" style="stroke-width:1.701in" id="aiu"/><path d="M0 373q119 50 224 138q44 38 89.5 87t86.5 112t74 140t53 170q1 -1 -2 -32t-8 -82.5t-12.5 -117.5t-16.5 -137.5t-18.5 -142t-19.5 -131.5q-10 -66 -43.5 -129.5t-80.5 -113t-104 -80t-115 -30.5q-41 0 -81 17.5t-75.5 56.5t-65 101t-50.5 152q-1 1 6.5 -18t25 -48 t46.5 -63t72 -63.5t100.5 -49.5t132.5 -20q58 0 126.5 14.5t149.5 47.5t174.5 87.5t200.5 134.5 " transform="translate(64.075333,0.000000)scale(0.001608, -0.001608)" style="stroke-width:1.701in" id="aQa"/><path d="M0 373q119 50 224 138q44 38 89.5 87t86.5 112t74 140t53 170q1 -1 -2 -32t-8 -82.5t-12.5 -117.5t-16.5 -137.5t-18.5 -142t-19.5 -131.5q-10 -66 -43.5 -129.5t-80.5 -113t-104 -80t-115 -30.5q-41 0 -81 17.5t-75.5 56.5t-65 101t-50.5 152q-1 1 6.5 -18t25 -48 t46.5 -63t72 -63.5t100.5 -49.5t132.5 -20q58 0 126.5 14.5t149.5 47.5t174.5 87.5t200.5 134.5 " transform="translate(65.472434,0.000000)scale(0.001608, -0.001608)" style="stroke-width:1.701in" id="avk"/><path d="M0 397q137 119 224 216t131.5 166.5t51 107.5t-17.5 38q-27 0 -88.5 -55.5t-146.5 -178.5q-100 -145 -143.5 -263t-31.5 -201t79 -128.5t188 -45.5q35 0 74 4t83 12q69 13 127 33.5t106.5 46t87.5 54t69 55.5q71 65 116 139 " transform="translate(66.869535,0.000000)scale(0.001608, -0.001608)" style="stroke-width:1.701in" id="aiz"/><path d="M746 546q-7 230 -60.5 343t-145.5 113q-113 0 -271 -163q-72 -74 -129.5 -159t-96.5 -169.5t-55.5 -162.5t-6.5 -138t50.5 -96t115.5 -36q9 0 18 0.5t19 1.5q87 10 160 51.5t141 117.5t136 188.5t146 263.5t170 342.5t207 425.5 M690 556q-53 -95 -72 -177t-8.5 -142.5 t48 -95t96.5 -34.5q39 0 85.5 16.5t100.5 51.5t114 90t124 132 " transform="translate(68.330945,0.000000)scale(0.001608, -0.001608)" style="stroke-width:1.701in" id="aW"/><path d="M483 607q37 69 49.5 123.5t6 92t-30 57.5t-58.5 20q-29 0 -65 -14.5t-76 -45t-83 -77.5t-85 -112q-48 -73 -87 -145t-67 -137.5t-44.5 -121.5t-18.5 -97t10.5 -64.5t41.5 -23.5q26 0 66 20.5t97 67.5q123 101 196.5 185t114.5 147q48 72 68 131q-55 -137 -73 -244 q-8 -46 -8.5 -89.5t11.5 -77.5t39.5 -54.5t75.5 -19.5t90.5 13t79 31t67 43t54.5 49q58 59 99 133 " transform="translate(71.827717,0.000000)scale(0.001608, -0.001608)" style="stroke-width:1.701in" id="ah"/><path d="M259 903q-67 -121 -122.5 -230.5t-97 -202.5t-67.5 -168.5t-34.5 -128.5t1.5 -81.5t40 -28.5q42 0 120 56q55 39 105.5 88t95.5 101.5t84.5 106.5t72.5 104q77 118 138 242q-70 -154 -110 -274q-17 -52 -29.5 -101.5t-14 -88t9.5 -62t40 -23.5q23 0 58.5 17t86.5 55 q155 116 241 220.5t123 195t34 165t-26 129.5 " transform="translate(73.359865,0.000000)scale(0.001608, -0.001608)" style="stroke-width:1.701in" id="ari"/><path d="M483 607q37 69 49.5 123.5t6 92t-30 57.5t-58.5 20q-29 0 -65 -14.5t-76 -45t-83 -77.5t-85 -112q-48 -73 -87 -145t-67 -137.5t-44.5 -121.5t-18.5 -97t10.5 -64.5t41.5 -23.5q26 0 66 20.5t97 67.5q123 101 196.5 185t114.5 147q48 72 68 131q-55 -137 -73 -244 q-8 -46 -8.5 -89.5t11.5 -77.5t39.5 -54.5t75.5 -19.5t90.5 13t79 31t67 43t54.5 49q58 59 99 133 " transform="translate(75.240888,0.000000)scale(0.001608, -0.001608)" style="stroke-width:1.701in" id="aWs"/><path d="M193 883q-63 -121 -107 -232.5t-69 -208t-31.5 -175t5 -135t40.5 -87t75 -30.5t91.5 33t89.5 88t85 127.5t78.5 152.5t70 161.5t58.5 155t45.5 133.5t30.5 96q1 -3 -19 -81.5t-48 -229t-57 -372t-45 -509.5q-11 -201 -39 -365.5t-62.5 -281.5t-71 -181t-64.5 -64 q-25 0 -39.5 52.5t-12.5 166.5q2 124 31 245t79.5 236.5t120 224.5t152.5 209.5t176.5 191t192.5 169.5 " transform="translate(76.773036,0.000000)scale(0.001608, -0.001608)" style="stroke-width:1.701in" id="aJd"/><path d="M0 358q129 93 239 227q47 57 93.5 128t87 156.5t71 185t45.5 213.5q15 117 20.5 200t3 136t-12.5 78t-27 25q-16 0 -37 -21t-46.5 -60.5t-54 -95.5t-60.5 -126q-43 -95 -90 -212t-90.5 -241.5t-78.5 -248t-53 -232.5t-15 -195.5t36 -135.5q30 -45 72.5 -73t97.5 -28 q39 0 84 17t96 55t107.5 99t117.5 149 " transform="translate(79.901643,0.000000)scale(0.001608, -0.001608)" style="stroke-width:1.701in" id="aaB"/><path d="M483 607q37 69 49.5 123.5t6 92t-30 57.5t-58.5 20q-29 0 -65 -14.5t-76 -45t-83 -77.5t-85 -112q-48 -73 -87 -145t-67 -137.5t-44.5 -121.5t-18.5 -97t10.5 -64.5t41.5 -23.5q26 0 66 20.5t97 67.5q123 101 196.5 185t114.5 147q48 72 68 131q-55 -137 -73 -244 q-8 -46 -8.5 -89.5t11.5 -77.5t39.5 -54.5t75.5 -19.5t90.5 13t79 31t67 43t54.5 49q58 59 99 133 " transform="translate(80.875916,0.000000)scale(0.001608, -0.001608)" style="stroke-width:1.701in" id="ani"/><path d="M-230 742q69 21 165.5 42.5t211 39t242 28t259.5 10.5q15 0 30.5 -0.5t30.5 -0.5 M410 1445q-93 -223 -165.5 -399t-124.5 -312.5t-84 -237.5t-44 -175t-4.5 -124.5t33.5 -86.5q41 -54 102 -54q42 0 90.5 24t99.5 66t103.5 100t103.5 127 " transform="translate(82.408064,0.000000)scale(0.001608, -0.001608)" style="stroke-width:1.701in" id="ak"/><path d="M0 397q137 119 224 216t131.5 166.5t51 107.5t-17.5 38q-27 0 -88.5 -55.5t-146.5 -178.5q-100 -145 -143.5 -263t-31.5 -201t79 -128.5t188 -45.5q35 0 74 4t83 12q69 13 127 33.5t106.5 46t87.5 54t69 55.5q71 65 116 139 " transform="translate(83.244074,0.000000)scale(0.001608, -0.001608)" style="stroke-width:1.701in" id="aQp"/><path d="M0 358q129 93 239 227q47 57 93.5 128t87 156.5t71 185t45.5 213.5q15 117 20.5 200t3 136t-12.5 78t-27 25q-16 0 -37 -21t-46.5 -60.5t-54 -95.5t-60.5 -126q-43 -95 -90 -212t-90.5 -241.5t-78.5 -248t-53 -232.5t-15 -195.5t36 -135.5q30 -45 72.5 -73t97.5 -28 q39 0 84 17t96 55t107.5 99t117.5 149 " transform="translate(86.308372,0.000000)scale(0.001608, -0.001608)" style="stroke-width:1.701in" id="aQQ"/><path d="M483 607q37 69 49.5 123.5t6 92t-30 57.5t-58.5 20q-29 0 -65 -14.5t-76 -45t-83 -77.5t-85 -112q-48 -73 -87 -145t-67 -137.5t-44.5 -121.5t-18.5 -97t10.5 -64.5t41.5 -23.5q26 0 66 20.5t97 67.5q123 101 196.5 185t114.5 147q48 72 68 131q-55 -137 -73 -244 q-8 -46 -8.5 -89.5t11.5 -77.5t39.5 -54.5t75.5 -19.5t90.5 13t79 31t67 43t54.5 49q58 59 99 133 " transform="translate(87.282645,0.000000)scale(0.001608, -0.001608)" style="stroke-width:1.701in" id="aiiu"/><path d="M0 373q119 50 224 138q44 38 89.5 87t86.5 112t74 140t53 170q1 -1 -2 -32t-8 -82.5t-12.5 -117.5t-16.5 -137.5t-18.5 -142t-19.5 -131.5q-10 -66 -43.5 -129.5t-80.5 -113t-104 -80t-115 -30.5q-41 0 -81 17.5t-75.5 56.5t-65 101t-50.5 152q-1 1 6.5 -18t25 -48 t46.5 -63t72 -63.5t100.5 -49.5t132.5 -20q58 0 126.5 14.5t149.5 47.5t174.5 87.5t200.5 134.5 " transform="translate(88.814794,0.000000)scale(0.001608, -0.001608)" style="stroke-width:1.701in" id="aFv"/><path d="M-230 742q69 21 165.5 42.5t211 39t242 28t259.5 10.5q15 0 30.5 -0.5t30.5 -0.5 M410 1445q-93 -223 -165.5 -399t-124.5 -312.5t-84 -237.5t-44 -175t-4.5 -124.5t33.5 -86.5q41 -54 102 -54q42 0 90.5 24t99.5 66t103.5 100t103.5 127 " transform="translate(90.211895,0.000000)scale(0.001608, -0.001608)" style="stroke-width:1.701in" id="aiil"/></g><g id="aek" transform="translate(32.3396150,50.3894540)"><path d="M128 1050q-29 -194 -64 -384q-15 -81 -33.5 -169t-39 -175.5t-43.5 -171t-47 -154.5q2 3 12.5 33t30 80.5t47.5 119t65.5 148t84.5 167.5t104 177q65 102 110.5 146t75.5 44q25 0 40.5 -25t24.5 -67t12.5 -97t3.5 -115q0 -44 0.5 -97t4 -106.5t11.5 -103t22.5 -88 t37 -61.5t54.5 -23q45 0 112 52.5t163 177.5 " transform="translate(0.000000,0.000000)scale(0.001608, -0.001608)" style="stroke-width:1.701in" id="aoai"/><path d="M912 1609l25.5 -25.5t17.5 -34.5 M346 1031q-111 -137 -182 -254.5t-111.5 -215.5t-55 -176.5t-11.5 -136t19 -94.5t36 -53q16 -12 39.5 -19t55.5 -7q45 0 105 16.5t132 54t154 99.5t171 152 " transform="translate(1.474271,0.000000)scale(0.001608, -0.001608)" style="stroke-width:1.701in" id="avd"/><path d="M662 633q-6 80 -18.5 136t-31.5 91.5t-44 51.5t-54 16q-35 0 -75.5 -20.5t-85 -56.5t-92.5 -85.5t-98 -107.5q-51 -59 -92.5 -127t-70 -134.5t-43 -128t-13 -108.5t21 -75t58.5 -28q23 0 53.5 11t68.5 34q78 48 149.5 110.5t134 133t116 146.5t95 151t70 145.5 t42.5 129.5q2 -1 -17.5 -92.5t-55 -262t-84.5 -413.5t-108 -547q-48 -247 -101 -412t-108.5 -264.5t-111.5 -141t-110 -41.5q-50 0 -97 29q-41 24 -51.5 84.5t17.5 157.5t99.5 231.5t194 306.5t300.5 383t420 461 " transform="translate(2.596454,0.000000)scale(0.001608, -0.001608)" style="stroke-width:1.701in" id="akm"/><path d="M390 1256q-23 -53 -63 -134.5t-88.5 -182t-101 -216t-101 -235t-87.5 -239.5t-61 -230q0 -2 36.5 59t106 165t169 240.5t225.5 284.5q45 53 80 90.5t61 60.5t44 33.5t29 10.5q20 0 20 -28.5t-12.5 -73.5t-34 -100t-44.5 -108q-26 -59 -42.5 -120t-21.5 -118t2 -107 t27.5 -87.5t55 -59.5t85.5 -22q39 0 87 14t106.5 45t127.5 80t149 119 " transform="translate(4.107702,0.000000)scale(0.001608, -0.001608)" style="stroke-width:1.701in" id="aep"/><path d="M-230 742q69 21 165.5 42.5t211 39t242 28t259.5 10.5q15 0 30.5 -0.5t30.5 -0.5 M410 1445q-93 -223 -165.5 -399t-124.5 -312.5t-84 -237.5t-44 -175t-4.5 -124.5t33.5 -86.5q41 -54 102 -54q42 0 90.5 24t99.5 66t103.5 100t103.5 127 " transform="translate(5.946924,0.000000)scale(0.001608, -0.001608)" style="stroke-width:1.701in" id="aisp"/><path d="M268 105q-7 13 -4 18t11 5q6 0 13 -3t11.5 -6.5t4.5 -8t-8 -7.5 " transform="translate(6.782934,0.000000)scale(0.001608, -0.001608)" style="stroke-width:1.701in" id="agv"/></g><g id="apiy" transform="translate(32.3396150,62.7366790)"><path d="M1174 1441q38 136 50.5 243t0.5 181.5t-47.5 113.5t-94.5 39q-60 0 -143.5 -44t-189.5 -138q-155 -137 -272.5 -278.5t-201 -288.5t-135.5 -301.5t-76 -317.5q-11 -75 -10.5 -149t14 -140.5t40 -123t66.5 -98t93.5 -65t121.5 -23.5q91 0 207.5 47.5t260.5 155.5 q156 117 265 229.5t179.5 222t107 217t48 214.5t2.5 214t-30 216q-17 88 -34 179t-36 176.5t-40 160.5t-47 131.5t-57 89t-69 32.5q-27 0 -58.5 -19t-67.5 -61q-56 -65 -93 -150t-51.5 -174t-4 -175.5t49.5 -154t109 -109t175 -41.5q32 0 67 4t73 13q140 33 282 71 t280.5 80.5t272 88t256.5 92.5t233 95t201 94q92 47 179.5 102t164.5 116t139 126t101.5 130t53.5 129.5t-5 123.5 " transform="translate(0.000000,0.000000)scale(0.001608, -0.001608)" style="stroke-width:1.701in" id="agTg"/><path d="M307 927q-251 -411 -335 -616.5t11 -205.5q62 0 201 87q71 44 138 101.5t128 121.5t115.5 131t100.5 130q108 147 198 306q-74 -115 -137 -232q-26 -50 -52.5 -105.5t-49 -112.5t-39.5 -113.5t-24 -108.5q-6 -47 0.5 -82t23.5 -58t43.5 -34.5t60.5 -11.5q41 0 89 16 t100.5 47.5t107 78t106.5 107.5 " transform="translate(2.781341,0.000000)scale(0.001608, -0.001608)" style="stroke-width:1.701in" id="aixu"/><path d="M0 373q41 52 77.5 109t69 115t61 115t51.5 109q55 121 97 241q-49 -126 -75 -224q-11 -42 -18 -82.5t-7 -72t9.5 -51t32.5 -19.5q24 0 64 25t101 82q1 0 -15.5 -15.5t-41 -44.5t-51.5 -71t-47.5 -94.5t-29.5 -114.5t2 -131q15 -93 59.5 -140t115.5 -47q89 0 214.5 76 t280.5 235 " transform="translate(4.538569,0.000000)scale(0.001608, -0.001608)" style="stroke-width:1.701in" id="alp"/><path d="M746 546q-7 230 -60.5 343t-145.5 113q-113 0 -271 -163q-72 -74 -129.5 -159t-96.5 -169.5t-55.5 -162.5t-6.5 -138t50.5 -96t115.5 -36q9 0 18 0.5t19 1.5q87 10 160 51.5t141 117.5t136 188.5t146 263.5t170 342.5t207 425.5 M690 556q-53 -95 -72 -177t-8.5 -142.5 t48 -95t96.5 -34.5q39 0 85.5 16.5t100.5 51.5t114 90t124 132 " transform="translate(7.668783,0.000000)scale(0.001608, -0.001608)" style="stroke-width:1.701in" id="aTs"/><path d="M0 397q137 119 224 216t131.5 166.5t51 107.5t-17.5 38q-27 0 -88.5 -55.5t-146.5 -178.5q-100 -145 -143.5 -263t-31.5 -201t79 -128.5t188 -45.5q35 0 74 4t83 12q69 13 127 33.5t106.5 46t87.5 54t69 55.5q71 65 116 139 " transform="translate(9.562667,0.000000)scale(0.001608, -0.001608)" style="stroke-width:1.701in" id="aQQF"/><path d="M0 397q137 119 224 216t131.5 166.5t51 107.5t-17.5 38q-27 0 -88.5 -55.5t-146.5 -178.5q-100 -145 -143.5 -263t-31.5 -201t79 -128.5t188 -45.5q35 0 74 4t83 12q69 13 127 33.5t106.5 46t87.5 54t69 55.5q71 65 116 139 " transform="translate(11.024076,0.000000)scale(0.001608, -0.001608)" style="stroke-width:1.701in" id="apx"/><path d="M285 966q-13 -87 -40 -184.5t-61.5 -202t-72.5 -215t-73 -223.5t-62.5 -228t-41.5 -228 M138 444q101 204 196 310.5t170 106.5q55 0 94.5 -61t56.5 -189q21 -150 -5.5 -258.5t-83.5 -179t-137.5 -104.5t-168.5 -36q-50 -1 -102.5 18t-100.5 51t-89 73t-68.5 85t-39 87 t-0.5 79q15 48 45 48q28 0 62 -48t62 -148q18 -62 54 -108.5t86 -77.5t112 -46.5t131 -15.5q81 0 169 20.5t176 62t172.5 103t159.5 142.5 " transform="translate(12.485486,0.000000)scale(0.001608, -0.001608)" style="stroke-width:1.701in" id="ala"/><path d="M0 397q137 119 224 216t131.5 166.5t51 107.5t-17.5 38q-27 0 -88.5 -55.5t-146.5 -178.5q-100 -145 -143.5 -263t-31.5 -201t79 -128.5t188 -45.5q35 0 74 4t83 12q69 13 127 33.5t106.5 46t87.5 54t69 55.5q71 65 116 139 " transform="translate(14.236283,0.000000)scale(0.001608, -0.001608)" style="stroke-width:1.701in" id="ax"/><path d="M0 373q119 50 224 138q44 38 89.5 87t86.5 112t74 140t53 170q1 -1 -2 -32t-8 -82.5t-12.5 -117.5t-16.5 -137.5t-18.5 -142t-19.5 -131.5q-10 -66 -43.5 -129.5t-80.5 -113t-104 -80t-115 -30.5q-41 0 -81 17.5t-75.5 56.5t-65 101t-50.5 152q-1 1 6.5 -18t25 -48 t46.5 -63t72 -63.5t100.5 -49.5t132.5 -20q58 0 126.5 14.5t149.5 47.5t174.5 87.5t200.5 134.5 " transform="translate(15.697693,0.000000)scale(0.001608, -0.001608)" style="stroke-width:1.701in" id="aWT"/><path d="M-230 742q69 21 165.5 42.5t211 39t242 28t259.5 10.5q15 0 30.5 -0.5t30.5 -0.5 M410 1445q-93 -223 -165.5 -399t-124.5 -312.5t-84 -237.5t-44 -175t-4.5 -124.5t33.5 -86.5q41 -54 102 -54q42 0 90.5 24t99.5 66t103.5 100t103.5 127 " transform="translate(17.094794,0.000000)scale(0.001608, -0.001608)" style="stroke-width:1.701in" id="aas"/><path d="M0 373q119 50 224 138q44 38 89.5 87t86.5 112t74 140t53 170q1 -1 -2 -32t-8 -82.5t-12.5 -117.5t-16.5 -137.5t-18.5 -142t-19.5 -131.5q-10 -66 -43.5 -129.5t-80.5 -113t-104 -80t-115 -30.5q-41 0 -81 17.5t-75.5 56.5t-65 101t-50.5 152q-1 1 6.5 -18t25 -48 t46.5 -63t72 -63.5t100.5 -49.5t132.5 -20q58 0 126.5 14.5t149.5 47.5t174.5 87.5t200.5 134.5 " transform="translate(19.533692,0.000000)scale(0.001608, -0.001608)" style="stroke-width:1.701in" id="aQan"/><path d="M172 742q-98 -184 -149 -330q-22 -62 -35.5 -122t-12 -108t23 -79t70.5 -34q63 0 117 36t98 96.5t78 139.5t56.5 164t33.5 170t9 159q-2 94 -26.5 133.5t-59.5 39.5q-26 0 -56 -19.5t-57 -52t-49.5 -74.5t-34.5 -87.5t-11 -91.5t20 -86q33 -70 69.5 -118t78 -78 t89.5 -43t105 -13q32 0 65.5 3.5t71.5 10.5 " transform="translate(20.930793,0.000000)scale(0.001608, -0.001608)" style="stroke-width:1.701in" id="aJQ"/><path d="M0 373q41 52 77.5 109t69 115t61 115t51.5 109q55 121 97 241q-49 -126 -75 -224q-11 -42 -18 -82.5t-7 -72t9.5 -51t32.5 -19.5q24 0 64 25t101 82q1 0 -15.5 -15.5t-41 -44.5t-51.5 -71t-47.5 -94.5t-29.5 -114.5t2 -131q15 -93 59.5 -140t115.5 -47q89 0 214.5 76 t280.5 235 " transform="translate(22.024037,0.000000)scale(0.001608, -0.001608)" style="stroke-width:1.701in" id="aks"/><path d="M0 373q41 52 77.5 109t69 115t61 115t51.5 109q55 121 97 241q-49 -126 -75 -224q-11 -42 -18 -82.5t-7 -72t9.5 -51t32.5 -19.5q24 0 64 25t101 82q1 0 -15.5 -15.5t-41 -44.5t-51.5 -71t-47.5 -94.5t-29.5 -114.5t2 -131q15 -93 59.5 -140t115.5 -47q89 0 214.5 76 t280.5 235 " transform="translate(23.551362,0.000000)scale(0.001608, -0.001608)" style="stroke-width:1.701in" id="asn"/><path d="M193 883q-63 -121 -107 -232.5t-69 -208t-31.5 -175t5 -135t40.5 -87t75 -30.5t91.5 33t89.5 88t85 127.5t78.5 152.5t70 161.5t58.5 155t45.5 133.5t30.5 96q1 -3 -19 -81.5t-48 -229t-57 -372t-45 -509.5q-11 -201 -39 -365.5t-62.5 -281.5t-71 -181t-64.5 -64 q-25 0 -39.5 52.5t-12.5 166.5q2 124 31 245t79.5 236.5t120 224.5t152.5 209.5t176.5 191t192.5 169.5 " transform="translate(25.078688,0.000000)scale(0.001608, -0.001608)" style="stroke-width:1.701in" id="apW"/><path d="M-230 742q69 21 165.5 42.5t211 39t242 28t259.5 10.5q15 0 30.5 -0.5t30.5 -0.5 M410 1445q-93 -223 -165.5 -399t-124.5 -312.5t-84 -237.5t-44 -175t-4.5 -124.5t33.5 -86.5q41 -54 102 -54q42 0 90.5 24t99.5 66t103.5 100t103.5 127 " transform="translate(28.207294,0.000000)scale(0.001608, -0.001608)" style="stroke-width:1.701in" id="aec"/><path d="M172 742q-98 -184 -149 -330q-22 -62 -35.5 -122t-12 -108t23 -79t70.5 -34q63 0 117 36t98 96.5t78 139.5t56.5 164t33.5 170t9 159q-2 94 -26.5 133.5t-59.5 39.5q-26 0 -56 -19.5t-57 -52t-49.5 -74.5t-34.5 -87.5t-11 -91.5t20 -86q33 -70 69.5 -118t78 -78 t89.5 -43t105 -13q32 0 65.5 3.5t71.5 10.5 " transform="translate(29.043304,0.000000)scale(0.001608, -0.001608)" style="stroke-width:1.701in" id="aWm"/><path d="M193 883q-63 -121 -107 -232.5t-69 -208t-31.5 -175t5 -135t40.5 -87t75 -30.5t91.5 33t89.5 88t85 127.5t78.5 152.5t70 161.5t58.5 155t45.5 133.5t30.5 96q1 -3 -19 -81.5t-48 -229t-57 -372t-45 -509.5q-11 -201 -39 -365.5t-62.5 -281.5t-71 -181t-64.5 -64 q-25 0 -39.5 52.5t-12.5 166.5q2 124 31 245t79.5 236.5t120 224.5t152.5 209.5t176.5 191t192.5 169.5 " transform="translate(31.739436,0.000000)scale(0.001608, -0.001608)" style="stroke-width:1.701in" id="aQi"/><path d="M172 742q-98 -184 -149 -330q-22 -62 -35.5 -122t-12 -108t23 -79t70.5 -34q63 0 117 36t98 96.5t78 139.5t56.5 164t33.5 170t9 159q-2 94 -26.5 133.5t-59.5 39.5q-26 0 -56 -19.5t-57 -52t-49.5 -74.5t-34.5 -87.5t-11 -91.5t20 -86q33 -70 69.5 -118t78 -78 t89.5 -43t105 -13q32 0 65.5 3.5t71.5 10.5 " transform="translate(33.265154,0.000000)scale(0.001608, -0.001608)" style="stroke-width:1.701in" id="auo"/><path d="M307 927q-251 -411 -335 -616.5t11 -205.5q62 0 201 87q71 44 138 101.5t128 121.5t115.5 131t100.5 130q108 147 198 306q-74 -115 -137 -232q-26 -50 -52.5 -105.5t-49 -112.5t-39.5 -113.5t-24 -108.5q-6 -47 0.5 -82t23.5 -58t43.5 -34.5t60.5 -11.5q41 0 89 16 t100.5 47.5t107 78t106.5 107.5 " transform="translate(34.358398,0.000000)scale(0.001608, -0.001608)" style="stroke-width:1.701in" id="avix"/><path d="M261 225q-13 -104 -31.5 -188t-40 -157t-45 -139t-48.5 -133 " transform="translate(36.115626,0.000000)scale(0.001608, -0.001608)" style="stroke-width:1.701in" id="akJ"/></g><g id="aoo" transform="translate(32.3396150,75.0839000)"><path d="M193 520q124 40 257.5 71t261.5 58t244 51t204 50 " transform="translate(0.000000,0.000000)scale(0.001608, -0.001608)" style="stroke-width:1.701in" id="apn"/><path d="M227 2180q3 -177 7 -322.5t9.5 -270t11.5 -233.5t11.5 -213.5t10.5 -209.5t9 -221.5t6.5 -250t2.5 -294.5q0 -322 -33.5 -580.5t-99 -457t-161.5 -338t-220 -223.5q-58 -39 -109.5 -57.5t-96.5 -18.5q-72 0 -119.5 46t-61.5 128.5t10 197t94 250.5q61 118 143.5 236 t178 233.5t200.5 226t211.5 214t210 198t195.5 177.5 " transform="translate(2.202564,0.000000)scale(0.001608, -0.001608)" style="stroke-width:1.701in" id="aue"/><path d="M172 742q-98 -184 -149 -330q-22 -62 -35.5 -122t-12 -108t23 -79t70.5 -34q63 0 117 36t98 96.5t78 139.5t56.5 164t33.5 170t9 159q-2 94 -26.5 133.5t-59.5 39.5q-26 0 -56 -19.5t-57 -52t-49.5 -74.5t-34.5 -87.5t-11 -91.5t20 -86q33 -70 69.5 -118t78 -78 t89.5 -43t105 -13q32 0 65.5 3.5t71.5 10.5 " transform="translate(3.226677,0.000000)scale(0.001608, -0.001608)" style="stroke-width:1.701in" id="aen"/><path d="M390 1256q-23 -53 -63 -134.5t-88.5 -182t-101 -216t-101 -235t-87.5 -239.5t-61 -230q0 -2 36.5 59t106 165t169 240.5t225.5 284.5q45 53 80 90.5t61 60.5t44 33.5t29 10.5q20 0 20 -28.5t-12.5 -73.5t-34 -100t-44.5 -108q-26 -59 -42.5 -120t-21.5 -118t2 -107 t27.5 -87.5t55 -59.5t85.5 -22q39 0 87 14t106.5 45t127.5 80t149 119 " transform="translate(4.319920,0.000000)scale(0.001608, -0.001608)" style="stroke-width:1.701in" id="ac"/><path d="M128 1050q-29 -194 -64 -384q-15 -81 -33.5 -169t-39 -175.5t-43.5 -171t-47 -154.5q2 3 12.5 33t30 80.5t47.5 119t65.5 148t84.5 167.5t104 177q65 102 110.5 146t75.5 44q25 0 40.5 -25t24.5 -67t12.5 -97t3.5 -115q0 -44 0.5 -97t4 -106.5t11.5 -103t22.5 -88 t37 -61.5t54.5 -23q45 0 112 52.5t163 177.5 " transform="translate(6.159142,0.000000)scale(0.001608, -0.001608)" style="stroke-width:1.701in" id="aoh"/></g></g></g>
<svg:g xmlns:ccOLD="http://web.resource.org/cc/" xmlns:xlink="http://www.w3.org/1999/xlink" transform="matrix(25.400000,0.000000,0.000000,25.400000,-0.000000,0.000000)" inkscape:groupmode="layer" inkscape:label="% Preview"><svg:g inkscape:groupmode="layer" inkscape:label="% Pen-up transit"><path style="stroke-width:0.008268;fill:none;stroke-linejoin:round;stroke-linecap:round;stroke:rgb(255, 159, 159)" d="M8.268 0.000  8.242 0.004  8.191 0.014  8.114 0.027  8.011 0.045  7.883 0.067  1.690 1.138  1.562 1.160  1.459 1.178  1.382 1.191  1.331 1.201  1.305 1.205 M1.374 1.182  1.349 1.181  1.329 1.180  1.312 1.179  1.298 1.179  1.288 1.178  1.281 1.178  1.277 1.178 M1.307 1.278  1.318 1.248  1.329 1.221  1.338 1.197  1.346 1.177  1.353 1.161  1.358 1.147  1.362 1.137  1.365 1.130  1.366 1.127 M1.357 1.252  1.366 1.243  1.374 1.236  1.378 1.232  1.381 1.230 M1.515 1.232  1.521 1.220  1.524 1.212  1.526 1.208 M1.557 1.232  1.573 1.208  1.588 1.187  1.600 1.168  1.611 1.152  1.620 1.139  1.627 1.128  1.632 1.120  1.636 1.115  1.638 1.112 M1.936 1.362  1.939 1.333  1.943 1.307  1.945 1.285  1.948 1.267  1.949 1.253  1.951 1.242  1.952 1.234  1.952 1.231 M2.013 1.231  2.021 1.240  2.027 1.245  2.030 1.248 M2.031 1.248  2.060 1.234  2.086 1.221  2.109 1.209  2.129 1.200  2.145 1.191  2.158 1.185  2.168 1.180  2.174 1.177  2.178 1.175 M2.190 1.230  2.195 1.219  2.199 1.211  2.201 1.208 M2.232 1.232  2.239 1.218  2.244 1.208  2.248 1.201  2.249 1.198 M2.297 1.192  2.310 1.185  2.321 1.179  2.329 1.174  2.335 1.172  2.338 1.170 M2.377 1.230  2.383 1.219  2.387 1.211  2.388 1.208 M2.420 1.232  2.425 1.219  2.429 1.209  2.431 1.202  2.433 1.199 M2.481 1.231  2.489 1.236  2.494 1.239  2.497 1.240 M2.487 1.280  2.462 1.288  2.413 1.304  2.338 1.329  2.239 1.362  2.116 1.403  1.799 1.509  1.675 1.550  1.577 1.583  1.502 1.608  1.453 1.624  1.428 1.632 M1.576 1.592  1.565 1.619  1.555 1.643  1.547 1.664  1.540 1.681  1.535 1.695  1.531 1.705  1.528 1.712  1.527 1.716 M1.584 1.716  1.605 1.716  1.622 1.717  1.635 1.717  1.643 1.717  1.647 1.717 M1.765 1.716  1.779 1.711  1.790 1.706  1.798 1.703  1.804 1.702  1.807 1.701 M1.942 1.716  1.935 1.705  1.930 1.698  1.928 1.694 M1.987 1.686  1.980 1.672  1.974 1.660  1.970 1.653  1.968 1.649 M1.975 1.717  1.991 1.709  2.004 1.703  2.014 1.699  2.020 1.696  2.024 1.694 M2.083 1.686  2.076 1.672  2.070 1.660  2.066 1.653  2.064 1.649 M2.071 1.717  2.077 1.705  2.080 1.698  2.082 1.694 M2.113 1.718  2.138 1.702  2.159 1.688  2.178 1.676  2.194 1.665  2.208 1.657  2.219 1.649  2.227 1.644  2.232 1.641  2.235 1.639 M2.238 1.643  2.225 1.654  2.215 1.662  2.207 1.669  2.202 1.673  2.199 1.675 M2.221 1.716  2.225 1.699  2.227 1.687  2.229 1.679  2.230 1.674 M2.280 1.718  2.285 1.696  2.290 1.678  2.293 1.664  2.296 1.653  2.298 1.646  2.299 1.642 M2.318 1.716  2.324 1.705  2.328 1.698  2.329 1.694 M2.422 1.717  2.424 1.704  2.426 1.694  2.427 1.688  2.428 1.685 M2.517 1.718  2.539 1.709  2.557 1.701  2.571 1.694  2.582 1.690  2.589 1.687  2.593 1.685 M2.641 1.717  2.646 1.705  2.650 1.698  2.652 1.694 M2.683 1.718  2.691 1.703  2.697 1.693  2.701 1.686  2.703 1.682 M2.753 1.717  2.769 1.709  2.782 1.703  2.792 1.699  2.798 1.696  2.802 1.694 M2.861 1.686  2.854 1.672  2.848 1.660  2.844 1.653  2.842 1.649 M2.849 1.717  2.858 1.699  2.864 1.684  2.869 1.672  2.872 1.665  2.874 1.661 M2.922 1.716  2.934 1.710  2.943 1.706  2.949 1.704  2.952 1.702 M2.982 1.716  2.974 1.705  2.969 1.697  2.967 1.694 M3.027 1.686  3.019 1.671  3.014 1.660  3.010 1.653  3.008 1.649 M3.015 1.717  3.036 1.708  3.054 1.700  3.069 1.694  3.079 1.689  3.087 1.687  3.090 1.685 M3.138 1.717  3.143 1.705  3.147 1.698  3.149 1.694 M3.180 1.718  3.188 1.703  3.194 1.693  3.198 1.686  3.200 1.682 M3.310 1.717  3.330 1.708  3.348 1.700  3.362 1.693  3.374 1.688  3.383 1.684  3.388 1.681  3.391 1.680 M3.369 1.761  3.374 1.745  3.377 1.732  3.379 1.722  3.381 1.716  3.382 1.713 M3.442 1.718  3.448 1.706  3.451 1.698  3.453 1.694 M3.484 1.718  3.487 1.703  3.490 1.692  3.492 1.683  3.493 1.677  3.494 1.674 M3.544 1.718  3.548 1.705  3.552 1.695  3.554 1.688  3.556 1.685 M3.604 1.717  3.624 1.708  3.641 1.700  3.656 1.693  3.667 1.688  3.676 1.684  3.682 1.681  3.685 1.680 M3.662 1.761  3.667 1.745  3.670 1.732  3.672 1.722  3.674 1.716  3.675 1.713 M3.735 1.718  3.748 1.712  3.757 1.707  3.763 1.704  3.766 1.702 M3.963 1.716  3.979 1.713  3.992 1.710  4.001 1.708  4.008 1.707  4.011 1.706 M4.036 1.648  4.028 1.664  4.021 1.678  4.015 1.689  4.011 1.697  4.008 1.703  4.007 1.705 M4.038 1.716  4.061 1.712  4.081 1.709  4.098 1.707  4.112 1.705  4.122 1.704  4.128 1.703  4.132 1.703 M4.161 1.716  4.168 1.703  4.173 1.693  4.176 1.687  4.178 1.684 M4.225 1.678  4.239 1.686  4.250 1.693  4.258 1.698  4.263 1.701  4.266 1.703 M4.296 1.716  4.301 1.703  4.304 1.694  4.307 1.688  4.308 1.685 M4.356 1.717  4.377 1.718  4.394 1.718  4.406 1.718  4.415 1.718  4.419 1.718 M4.457 1.718  4.469 1.712  4.479 1.707  4.485 1.704  4.488 1.703 M4.518 1.716  4.510 1.705  4.505 1.697  4.503 1.694 M4.563 1.686  4.555 1.672  4.549 1.660  4.545 1.653  4.544 1.649 M4.608 1.716  4.629 1.717  4.646 1.717  4.658 1.718  4.667 1.718  4.671 1.718 M4.710 1.718  4.722 1.712  4.731 1.707  4.737 1.704  4.740 1.702 M4.825 1.717  4.817 1.705  4.813 1.698  4.810 1.694 M4.870 1.686  4.862 1.672  4.856 1.660  4.852 1.653  4.851 1.649 M4.858 1.717  4.832 1.719  4.780 1.721  4.702 1.726  4.598 1.732  4.468 1.739  1.672 1.895  1.542 1.903  1.437 1.908  1.359 1.913  1.308 1.916  1.281 1.917 M1.331 1.961  1.345 1.941  1.358 1.924  1.368 1.910  1.376 1.899  1.383 1.891  1.387 1.885  1.389 1.882 M1.392 1.886  1.379 1.897  1.369 1.906  1.361 1.912  1.356 1.916  1.353 1.919 M1.375 1.959  1.389 1.954  1.401 1.950  1.409 1.947  1.414 1.945  1.417 1.944 M1.435 1.959  1.443 1.941  1.450 1.926  1.455 1.915  1.458 1.908  1.460 1.905 M1.507 1.959  1.500 1.948  1.495 1.940  1.493 1.937 M1.552 1.929  1.545 1.915  1.539 1.904  1.535 1.896  1.533 1.892 M1.540 1.960  1.549 1.969  1.554 1.974  1.557 1.977 M1.559 1.977  1.546 2.002  1.519 2.052  1.480 2.128  1.427 2.228  1.387 2.304  1.361 2.354  1.348 2.379 M1.495 2.298  1.476 2.320  1.460 2.341  1.445 2.358  1.433 2.374  1.423 2.386  1.414 2.396  1.408 2.404  1.404 2.409  1.402 2.411 M1.512 2.446  1.540 2.443  1.563 2.441  1.583 2.439  1.599 2.438  1.610 2.436  1.618 2.436  1.622 2.435 M1.648 2.377  1.640 2.393  1.633 2.407  1.627 2.418  1.623 2.427  1.620 2.432  1.619 2.435 M1.765 2.445  1.772 2.430  1.777 2.420  1.781 2.412  1.783 2.409 M1.761 2.490  1.765 2.474  1.768 2.461  1.771 2.452  1.773 2.445  1.774 2.442 M1.946 2.446  1.939 2.435  1.934 2.427  1.932 2.423 M1.991 2.415  1.984 2.401  1.978 2.390  1.974 2.382  1.972 2.379 M1.979 2.446  2.000 2.446  2.017 2.446  2.030 2.446  2.038 2.446  2.042 2.446 M2.097 2.446  2.103 2.435  2.106 2.427  2.108 2.423 M2.261 2.446  2.266 2.433  2.269 2.424  2.272 2.417  2.273 2.414 M2.321 2.446  2.337 2.438  2.350 2.432  2.360 2.428  2.366 2.425  2.369 2.423 M2.429 2.415  2.421 2.401  2.415 2.390  2.411 2.382  2.410 2.379 M2.417 2.446  2.422 2.435  2.425 2.427  2.427 2.423 M2.459 2.447  2.481 2.438  2.499 2.430  2.513 2.423  2.524 2.419  2.531 2.416  2.535 2.414 M2.583 2.446  2.588 2.435  2.592 2.427  2.594 2.423 M2.625 2.447  2.633 2.433  2.639 2.422  2.643 2.415  2.645 2.411 M2.695 2.446  2.703 2.451  2.709 2.454  2.712 2.456 M2.701 2.495  2.676 2.502  2.626 2.517  2.551 2.540  2.452 2.570  2.327 2.608  1.659 2.810  1.535 2.848  1.435 2.878  1.360 2.901  1.310 2.916  1.285 2.923 M1.347 2.909  1.354 2.886  1.359 2.867  1.364 2.851  1.368 2.837  1.371 2.828  1.373 2.822  1.374 2.818 M1.400 2.931  1.406 2.920  1.409 2.913  1.411 2.909 M1.442 2.934  1.451 2.915  1.458 2.899  1.463 2.888  1.466 2.880  1.468 2.876 M1.516 2.931  1.519 2.915  1.521 2.902  1.523 2.894  1.524 2.890 M1.574 2.934  1.598 2.923  1.645 2.902  1.717 2.871  1.812 2.829  1.932 2.777  7.910 0.157  8.029 0.105  8.125 0.063  8.196 0.031  8.244 0.011  8.268 -0.000" desc="pen-up transit"/></svg:g><svg:g inkscape:groupmode="layer" inkscape:label="% Pen-down drawing"><path style="stroke-width:0.008268;fill:none;stroke-linejoin:round;stroke-linecap:round;stroke:blue" d="M1.305 1.205  1.312 1.204  1.322 1.201  1.334 1.198  1.347 1.193  1.360 1.188  1.374 1.182 M1.277 1.178  1.277 1.172  1.281 1.164  1.290 1.154  1.305 1.142  1.315 1.136  1.323 1.134  1.328 1.137  1.330 1.144  1.329 1.156  1.324 1.172  1.316 1.199  1.309 1.226  1.306 1.252  1.307 1.278 M1.366 1.127  1.364 1.142  1.362 1.159  1.356 1.193  1.353 1.210  1.352 1.226  1.353 1.240  1.357 1.252 M1.381 1.230  1.395 1.216  1.403 1.205  1.406 1.198  1.405 1.196  1.400 1.200  1.391 1.211  1.382 1.228  1.379 1.240  1.384 1.249  1.396 1.251  1.401 1.251  1.406 1.250  1.414 1.248  1.421 1.245  1.427 1.242  1.431 1.238  1.438 1.230  1.438 1.232 M1.438 1.232  1.453 1.218  1.459 1.209  1.465 1.200  1.469 1.188  1.472 1.174  1.474 1.162  1.474 1.153  1.473 1.148  1.471 1.147  1.469 1.148  1.466 1.152  1.463 1.158  1.459 1.166  1.453 1.179  1.447 1.194  1.442 1.210  1.439 1.225  1.438 1.237  1.440 1.246  1.445 1.250  1.451 1.252  1.456 1.251  1.462 1.248  1.469 1.241  1.477 1.232 M1.477 1.232  1.492 1.218  1.498 1.209  1.503 1.200  1.508 1.188  1.511 1.174  1.512 1.162  1.512 1.153  1.511 1.148  1.510 1.146  1.507 1.148  1.504 1.152  1.501 1.158  1.497 1.166  1.491 1.179  1.486 1.194  1.481 1.210  1.477 1.225  1.476 1.237  1.479 1.246  1.483 1.250  1.489 1.252  1.495 1.251  1.501 1.248  1.508 1.241  1.515 1.232 M1.526 1.208  1.516 1.229  1.514 1.236  1.514 1.243  1.515 1.248  1.519 1.250  1.527 1.248  1.533 1.242  1.538 1.233  1.542 1.223  1.544 1.212  1.544 1.202  1.543 1.194  1.539 1.191  1.535 1.192  1.531 1.195  1.529 1.200  1.526 1.205  1.526 1.212  1.527 1.217  1.531 1.224  1.536 1.229  1.542 1.232  1.548 1.233  1.553 1.233  1.557 1.232 M1.638 1.112  1.635 1.135  1.638 1.155  1.646 1.172  1.660 1.185  1.677 1.193  1.699 1.196  1.706 1.196  1.713 1.196  1.735 1.191  1.757 1.185  1.777 1.174  1.793 1.161  1.804 1.142  1.808 1.117  1.798 1.148  1.792 1.167  1.784 1.188  1.775 1.210  1.766 1.231  1.756 1.250  1.758 1.248  1.762 1.240  1.769 1.227  1.780 1.210  1.795 1.188  1.816 1.162  1.837 1.142  1.852 1.135  1.858 1.137  1.861 1.143  1.860 1.165  1.850 1.201  1.836 1.234  1.828 1.251  1.830 1.250  1.834 1.245  1.842 1.236  1.855 1.223  1.876 1.204  1.905 1.179  1.932 1.156  1.955 1.139  1.971 1.127  1.981 1.124  1.983 1.126  1.980 1.133  1.972 1.145  1.959 1.164  1.945 1.185  1.932 1.209  1.922 1.234  1.914 1.259  1.909 1.284  1.906 1.307  1.908 1.327  1.913 1.344  1.922 1.356  1.936 1.362 M1.952 1.231  1.957 1.224  1.962 1.217  1.966 1.210  1.969 1.203  1.975 1.187  1.970 1.202  1.969 1.207  1.968 1.211  1.969 1.215  1.971 1.216  1.975 1.214  1.982 1.209  1.978 1.213  1.975 1.217  1.972 1.223  1.970 1.231  1.970 1.239  1.974 1.248  1.981 1.251  1.995 1.246  2.013 1.231 M2.030 1.248  2.029 1.247  2.030 1.247  2.031 1.247  2.032 1.248  2.031 1.248 M2.178 1.175  2.186 1.151  2.189 1.134  2.188 1.123  2.184 1.120  2.176 1.123  2.167 1.132  2.157 1.147  2.147 1.167  2.138 1.188  2.130 1.207  2.126 1.225  2.125 1.238  2.129 1.248  2.139 1.251  2.147 1.250  2.159 1.246  2.173 1.239  2.190 1.230 M2.201 1.208  2.191 1.229  2.189 1.236  2.188 1.243  2.190 1.248  2.194 1.250  2.201 1.248  2.208 1.242  2.213 1.233  2.216 1.223  2.218 1.212  2.219 1.202  2.217 1.193  2.214 1.191  2.210 1.192  2.206 1.195  2.203 1.200  2.201 1.206  2.200 1.212  2.202 1.217  2.206 1.224  2.211 1.229  2.217 1.232  2.223 1.233  2.227 1.233  2.232 1.232 M2.249 1.198  2.242 1.212  2.235 1.225  2.231 1.235  2.229 1.244  2.229 1.249  2.232 1.251  2.239 1.247  2.246 1.242  2.252 1.235  2.257 1.229  2.262 1.222  2.270 1.206  2.264 1.224  2.262 1.230  2.261 1.236  2.261 1.240  2.264 1.241  2.268 1.240  2.273 1.237  2.288 1.223  2.296 1.210  2.298 1.200  2.297 1.192 M2.338 1.170  2.328 1.184  2.320 1.198  2.313 1.213  2.307 1.228  2.304 1.242  2.303 1.253  2.303 1.255  2.304 1.247  2.305 1.248  2.307 1.248  2.308 1.242  2.311 1.236  2.314 1.234  2.319 1.231  2.324 1.222  2.340 1.203  2.351 1.196  2.356 1.199  2.359 1.211  2.359 1.220  2.356 1.230  2.351 1.238  2.345 1.245  2.338 1.250  2.329 1.251  2.320 1.249  2.311 1.242  2.314 1.244  2.319 1.245  2.325 1.245  2.334 1.245  2.346 1.242  2.360 1.237  2.377 1.230 M2.388 1.208  2.379 1.229  2.376 1.236  2.376 1.243  2.377 1.248  2.382 1.250  2.389 1.248  2.395 1.242  2.400 1.233  2.404 1.223  2.406 1.212  2.406 1.202  2.405 1.193  2.401 1.191  2.397 1.192  2.394 1.196  2.391 1.200  2.389 1.206  2.388 1.212  2.389 1.217  2.394 1.224  2.399 1.229  2.404 1.232  2.411 1.233  2.415 1.233  2.420 1.232 M2.433 1.199  2.426 1.214  2.422 1.227  2.419 1.238  2.420 1.246  2.422 1.252  2.427 1.254  2.433 1.252  2.438 1.246  2.444 1.238  2.449 1.228  2.453 1.218  2.457 1.208  2.462 1.194  2.458 1.214  2.454 1.237  2.451 1.269  2.449 1.292  2.445 1.310  2.440 1.322  2.436 1.326  2.434 1.322  2.433 1.312  2.435 1.297  2.440 1.281  2.447 1.267  2.457 1.254  2.468 1.242  2.481 1.231 M2.497 1.240  2.495 1.252  2.493 1.262  2.490 1.271  2.487 1.280 M1.428 1.632  1.427 1.629  1.426 1.624  1.427 1.620  1.428 1.615  1.430 1.612  1.432 1.610  1.435 1.614  1.434 1.624  1.430 1.641  1.422 1.668  1.417 1.685  1.412 1.702  1.408 1.718  1.406 1.731  1.406 1.739  1.409 1.743  1.413 1.741  1.418 1.737  1.436 1.717  1.451 1.693  1.466 1.663  1.481 1.626  1.479 1.635  1.477 1.646  1.474 1.659  1.472 1.676  1.472 1.694  1.472 1.711  1.473 1.724  1.476 1.733  1.479 1.736  1.484 1.733  1.491 1.721  1.502 1.697  1.514 1.672  1.526 1.647  1.539 1.623  1.557 1.596  1.570 1.588  1.576 1.592 M1.527 1.716  1.541 1.702  1.549 1.691  1.552 1.685  1.551 1.682  1.546 1.686  1.536 1.697  1.527 1.714  1.525 1.727  1.530 1.734  1.542 1.737  1.547 1.737  1.552 1.736  1.560 1.734  1.567 1.731  1.573 1.728  1.577 1.724  1.584 1.716 M1.647 1.717  1.652 1.710  1.657 1.703  1.660 1.696  1.664 1.689  1.670 1.674  1.665 1.688  1.664 1.693  1.664 1.698  1.664 1.701  1.666 1.702  1.670 1.700  1.677 1.695  1.673 1.699  1.670 1.703  1.667 1.710  1.665 1.717  1.665 1.725  1.669 1.734  1.676 1.737  1.690 1.732  1.707 1.717  1.707 1.716 M1.707 1.716  1.722 1.702  1.730 1.691  1.733 1.685  1.732 1.682  1.727 1.686  1.717 1.697  1.708 1.714  1.706 1.726  1.711 1.735  1.723 1.737  1.728 1.737  1.733 1.736  1.741 1.734  1.748 1.732  1.753 1.728  1.758 1.725  1.765 1.716 M1.807 1.701  1.806 1.692  1.804 1.686  1.801 1.683  1.797 1.682  1.793 1.683  1.787 1.687  1.781 1.692  1.775 1.699  1.769 1.707  1.765 1.716  1.762 1.724  1.762 1.731  1.763 1.735  1.766 1.737  1.770 1.736  1.774 1.734  1.783 1.727  1.792 1.719  1.800 1.710  1.805 1.700  1.810 1.691  1.812 1.683  1.803 1.731  1.796 1.766  1.790 1.792  1.783 1.809  1.775 1.818  1.769 1.820  1.762 1.818  1.759 1.813  1.760 1.803  1.766 1.789  1.779 1.769  1.798 1.745  1.816 1.726  1.825 1.716  1.825 1.717 M1.825 1.717  1.829 1.710  1.834 1.703  1.838 1.696  1.841 1.689  1.847 1.674  1.842 1.688  1.841 1.693  1.841 1.698  1.841 1.701  1.843 1.702  1.847 1.700  1.854 1.695  1.850 1.699  1.847 1.703  1.844 1.710  1.842 1.717  1.842 1.725  1.846 1.734  1.853 1.737  1.867 1.732  1.885 1.717  1.885 1.716 M1.885 1.716  1.899 1.702  1.907 1.691  1.910 1.685  1.909 1.682  1.904 1.686  1.894 1.697  1.885 1.714  1.883 1.726  1.888 1.735  1.900 1.737  1.905 1.737  1.910 1.736  1.918 1.734  1.925 1.732  1.930 1.728  1.935 1.725  1.942 1.716 M1.928 1.694  1.938 1.691  1.952 1.689  1.967 1.687  1.985 1.686  1.987 1.686 M1.968 1.649  1.958 1.675  1.950 1.694  1.944 1.709  1.941 1.720  1.941 1.728  1.943 1.734  1.950 1.737  1.956 1.736  1.962 1.732  1.969 1.725  1.975 1.717 M2.024 1.694  2.034 1.691  2.047 1.689  2.063 1.687  2.081 1.686  2.083 1.686 M2.064 1.649  2.054 1.675  2.046 1.694  2.041 1.709  2.038 1.720  2.037 1.728  2.039 1.734  2.046 1.737  2.052 1.736  2.058 1.732  2.064 1.725  2.071 1.717 M2.082 1.694  2.073 1.715  2.070 1.722  2.069 1.729  2.071 1.734  2.076 1.736  2.083 1.734  2.089 1.728  2.094 1.719  2.098 1.709  2.100 1.698  2.100 1.688  2.098 1.680  2.095 1.677  2.091 1.678  2.088 1.682  2.084 1.686  2.082 1.692  2.081 1.698  2.083 1.703  2.087 1.710  2.092 1.715  2.098 1.718  2.104 1.719  2.109 1.719  2.113 1.718 M2.235 1.639  2.236 1.641  2.238 1.643 M2.199 1.675  2.188 1.692  2.181 1.705  2.177 1.717  2.176 1.725  2.177 1.731  2.180 1.734  2.182 1.735  2.186 1.736  2.193 1.735  2.201 1.732  2.211 1.725  2.221 1.716 M2.230 1.674  2.225 1.699  2.223 1.709  2.221 1.720  2.218 1.731  2.215 1.741  2.221 1.726  2.225 1.717  2.230 1.706  2.237 1.695  2.244 1.686  2.249 1.683  2.251 1.685  2.253 1.689  2.254 1.695  2.254 1.715  2.255 1.722  2.256 1.727  2.259 1.731  2.262 1.733  2.269 1.729  2.280 1.718 M2.299 1.642  2.297 1.670  2.294 1.685  2.289 1.704  2.282 1.726  2.255 1.797  2.245 1.829  2.243 1.850  2.244 1.855  2.248 1.857  2.252 1.855  2.258 1.850  2.266 1.840  2.273 1.825  2.279 1.808  2.284 1.789  2.287 1.769  2.288 1.750  2.287 1.731  2.284 1.721  2.282 1.715  2.281 1.712  2.279 1.711  2.279 1.712  2.279 1.715  2.281 1.718  2.283 1.721  2.288 1.724  2.294 1.725  2.305 1.723  2.318 1.716 M2.329 1.694  2.320 1.715  2.318 1.722  2.317 1.729  2.318 1.734  2.323 1.736  2.330 1.734  2.336 1.728  2.341 1.719  2.345 1.709  2.347 1.698  2.347 1.688  2.346 1.680  2.342 1.677  2.339 1.678  2.335 1.682  2.332 1.686  2.330 1.692  2.329 1.698  2.330 1.703  2.335 1.711  2.340 1.716  2.345 1.718  2.352 1.719  2.356 1.719  2.361 1.718  2.361 1.717 M2.361 1.717  2.366 1.710  2.371 1.703  2.375 1.696  2.378 1.689  2.384 1.673  2.379 1.688  2.378 1.693  2.378 1.698  2.378 1.701  2.380 1.702  2.384 1.700  2.391 1.695  2.387 1.699  2.384 1.703  2.381 1.709  2.379 1.717  2.379 1.725  2.383 1.734  2.390 1.737  2.404 1.732  2.422 1.717 M2.428 1.685  2.426 1.696  2.422 1.718  2.417 1.740  2.419 1.733  2.421 1.726  2.425 1.717  2.430 1.707  2.437 1.698  2.446 1.688  2.452 1.685  2.454 1.688  2.454 1.699  2.453 1.706  2.452 1.713  2.450 1.720  2.448 1.726  2.442 1.739  2.463 1.711  2.474 1.697  2.481 1.689  2.485 1.687  2.485 1.691  2.481 1.703  2.478 1.716  2.477 1.727  2.482 1.735  2.491 1.739  2.491 1.739  2.496 1.738  2.501 1.735  2.505 1.732  2.509 1.729  2.517 1.718 M2.593 1.685  2.586 1.700  2.582 1.713  2.580 1.724  2.580 1.732  2.583 1.738  2.588 1.740  2.594 1.738  2.599 1.732  2.604 1.724  2.609 1.715  2.614 1.704  2.618 1.694  2.622 1.680  2.618 1.700  2.614 1.723  2.612 1.755  2.609 1.779  2.605 1.796  2.601 1.808  2.597 1.812  2.594 1.809  2.593 1.798  2.595 1.782  2.600 1.767  2.608 1.753  2.618 1.740  2.629 1.728  2.641 1.717 M2.652 1.694  2.642 1.715  2.640 1.722  2.639 1.729  2.641 1.734  2.645 1.736  2.653 1.734  2.659 1.728  2.664 1.719  2.667 1.709  2.670 1.698  2.670 1.688  2.668 1.680  2.665 1.677  2.661 1.678  2.657 1.682  2.654 1.686  2.652 1.692  2.651 1.698  2.653 1.703  2.657 1.710  2.662 1.715  2.668 1.718  2.674 1.719  2.678 1.719  2.683 1.718 M2.703 1.682  2.693 1.700  2.682 1.721  2.680 1.731  2.683 1.734  2.696 1.729  2.704 1.722  2.713 1.715  2.720 1.706  2.726 1.698  2.739 1.679  2.730 1.693  2.727 1.700  2.723 1.707  2.721 1.714  2.719 1.721  2.719 1.726  2.721 1.730  2.724 1.732  2.728 1.733  2.733 1.732  2.740 1.729  2.747 1.724  2.753 1.717 M2.802 1.694  2.812 1.691  2.826 1.689  2.841 1.687  2.859 1.686  2.861 1.686 M2.842 1.649  2.832 1.675  2.824 1.694  2.819 1.709  2.816 1.720  2.815 1.728  2.817 1.734  2.824 1.737  2.830 1.736  2.836 1.732  2.843 1.725  2.849 1.717 M2.874 1.661  2.858 1.695  2.852 1.710  2.846 1.725  2.842 1.740  2.851 1.725  2.862 1.710  2.876 1.692  2.881 1.686  2.885 1.683  2.888 1.681  2.890 1.680  2.891 1.682  2.890 1.686  2.888 1.693  2.885 1.700  2.882 1.707  2.881 1.715  2.881 1.721  2.883 1.727  2.887 1.731  2.892 1.732  2.897 1.731  2.904 1.728  2.912 1.723  2.922 1.716 M2.952 1.702  2.955 1.694  2.955 1.689  2.954 1.685  2.950 1.684  2.946 1.685  2.941 1.688  2.936 1.692  2.930 1.700  2.925 1.709  2.921 1.718  2.918 1.725  2.917 1.731  2.917 1.735  2.920 1.737  2.924 1.736  2.930 1.731  2.943 1.719  2.950 1.710  2.954 1.702  2.950 1.718  2.949 1.723  2.950 1.728  2.953 1.732  2.957 1.733  2.963 1.732  2.968 1.730  2.972 1.727  2.976 1.724  2.982 1.716 M2.967 1.694  2.978 1.691  2.991 1.688  3.006 1.687  3.025 1.686  3.027 1.686 M3.008 1.649  2.997 1.674  2.990 1.694  2.984 1.709  2.981 1.720  2.981 1.728  2.983 1.734  2.990 1.737  2.996 1.736  3.002 1.732  3.008 1.725  3.015 1.717 M3.090 1.685  3.083 1.700  3.079 1.713  3.077 1.724  3.077 1.732  3.080 1.738  3.085 1.740  3.091 1.738  3.096 1.732  3.102 1.724  3.106 1.715  3.111 1.704  3.115 1.694  3.119 1.680  3.115 1.700  3.111 1.723  3.109 1.755  3.106 1.779  3.102 1.796  3.098 1.808  3.094 1.812  3.091 1.809  3.090 1.798  3.093 1.782  3.097 1.767  3.105 1.753  3.115 1.740  3.126 1.728  3.138 1.717 M3.149 1.694  3.140 1.715  3.137 1.722  3.136 1.729  3.138 1.734  3.142 1.736  3.150 1.734  3.156 1.728  3.161 1.719  3.164 1.709  3.167 1.698  3.167 1.688  3.165 1.680  3.162 1.677  3.158 1.678  3.155 1.682  3.151 1.686  3.149 1.692  3.148 1.698  3.150 1.703  3.154 1.710  3.159 1.715  3.165 1.718  3.171 1.719  3.175 1.719  3.180 1.718 M3.200 1.682  3.190 1.700  3.179 1.721  3.177 1.731  3.180 1.734  3.193 1.729  3.202 1.722  3.210 1.715  3.217 1.706  3.223 1.698  3.236 1.679  3.227 1.693  3.224 1.700  3.220 1.707  3.218 1.714  3.217 1.721  3.217 1.726  3.218 1.730  3.221 1.732  3.225 1.733  3.230 1.732  3.237 1.729  3.244 1.724  3.250 1.717 M3.250 1.717  3.255 1.710  3.260 1.703  3.263 1.696  3.266 1.689  3.273 1.673  3.268 1.688  3.267 1.693  3.266 1.698  3.267 1.701  3.269 1.702  3.273 1.700  3.280 1.695  3.276 1.699  3.273 1.703  3.270 1.710  3.268 1.717  3.268 1.725  3.272 1.734  3.279 1.737  3.293 1.732  3.310 1.717 M3.391 1.680  3.389 1.691  3.385 1.704  3.376 1.732  3.372 1.746  3.369 1.761 M3.382 1.713  3.395 1.693  3.405 1.686  3.411 1.690  3.415 1.702  3.414 1.719  3.409 1.730  3.401 1.736  3.390 1.739  3.383 1.738  3.377 1.734  3.371 1.730  3.367 1.724  3.364 1.719  3.364 1.714  3.367 1.711  3.371 1.714  3.375 1.723  3.379 1.730  3.384 1.735  3.391 1.738  3.399 1.739  3.410 1.737  3.421 1.734  3.432 1.727  3.442 1.718 M3.453 1.694  3.444 1.715  3.441 1.722  3.441 1.729  3.442 1.734  3.447 1.736  3.454 1.734  3.460 1.728  3.465 1.719  3.469 1.709  3.471 1.698  3.471 1.688  3.470 1.680  3.466 1.677  3.463 1.678  3.459 1.681  3.456 1.686  3.454 1.692  3.453 1.698  3.454 1.703  3.459 1.711  3.464 1.716  3.469 1.718  3.476 1.719  3.480 1.719  3.484 1.718 M3.494 1.674  3.489 1.699  3.487 1.709  3.485 1.720  3.482 1.731  3.479 1.741  3.485 1.726  3.489 1.717  3.494 1.706  3.501 1.695  3.508 1.686  3.513 1.683  3.515 1.685  3.517 1.689  3.517 1.695  3.518 1.715  3.519 1.722  3.520 1.727  3.523 1.731  3.526 1.733  3.533 1.729  3.544 1.718 M3.556 1.685  3.549 1.700  3.545 1.713  3.543 1.724  3.543 1.732  3.546 1.738  3.550 1.740  3.556 1.738  3.562 1.732  3.567 1.724  3.572 1.715  3.576 1.704  3.580 1.694  3.585 1.680  3.580 1.700  3.577 1.723  3.574 1.755  3.572 1.779  3.568 1.796  3.563 1.808  3.559 1.812  3.557 1.809  3.556 1.798  3.558 1.782  3.563 1.767  3.571 1.753  3.580 1.740  3.591 1.728  3.604 1.717 M3.685 1.680  3.682 1.691  3.678 1.704  3.669 1.732  3.665 1.746  3.662 1.761 M3.675 1.713  3.688 1.693  3.699 1.686  3.704 1.690  3.708 1.702  3.708 1.719  3.702 1.730  3.694 1.736  3.683 1.739  3.677 1.738  3.670 1.734  3.665 1.730  3.660 1.724  3.658 1.719  3.658 1.714  3.661 1.711  3.665 1.714  3.669 1.723  3.672 1.730  3.677 1.735  3.684 1.738  3.693 1.739  3.703 1.737  3.715 1.734  3.726 1.727  3.735 1.718 M3.766 1.702  3.769 1.694  3.769 1.689  3.768 1.685  3.764 1.684  3.760 1.685  3.755 1.688  3.750 1.692  3.744 1.700  3.739 1.709  3.735 1.718  3.732 1.725  3.731 1.731  3.731 1.735  3.734 1.737  3.738 1.736  3.744 1.731  3.757 1.719  3.764 1.710  3.768 1.702  3.764 1.718  3.763 1.723  3.764 1.728  3.766 1.732  3.771 1.733  3.777 1.732  3.782 1.730  3.786 1.727  3.790 1.724  3.796 1.716  3.796 1.717 M3.796 1.717  3.810 1.709  3.816 1.703  3.821 1.696  3.826 1.687  3.829 1.676  3.828 1.691  3.826 1.708  3.824 1.717  3.822 1.725  3.816 1.732  3.810 1.737  3.803 1.739  3.797 1.738  3.793 1.734  3.789 1.728  3.785 1.719  3.787 1.723  3.790 1.727  3.795 1.731  3.801 1.734  3.810 1.735  3.818 1.734  3.827 1.731  3.838 1.726  3.851 1.717 M3.851 1.717  3.865 1.708  3.871 1.703  3.876 1.696  3.881 1.687  3.884 1.676  3.883 1.691  3.881 1.708  3.879 1.717  3.877 1.725  3.872 1.732  3.865 1.737  3.858 1.739  3.852 1.738  3.848 1.734  3.844 1.728  3.841 1.719  3.842 1.723  3.845 1.727  3.850 1.731  3.856 1.734  3.865 1.735  3.873 1.734  3.882 1.731  3.893 1.726  3.906 1.717  3.906 1.716 M3.906 1.716  3.920 1.702  3.928 1.691  3.932 1.685  3.930 1.682  3.925 1.686  3.916 1.697  3.906 1.714  3.905 1.726  3.910 1.734  3.922 1.737  3.926 1.737  3.931 1.736  3.939 1.734  3.946 1.732  3.952 1.728  3.956 1.724  3.963 1.716 M4.011 1.706  4.007 1.685  4.003 1.679  3.998 1.677  3.990 1.680  3.981 1.688  3.972 1.698  3.966 1.708  3.963 1.719  3.962 1.727  3.965 1.734  3.973 1.736  3.975 1.736  3.985 1.732  3.994 1.725  4.003 1.713  4.012 1.696  4.028 1.664  4.036 1.648 M4.007 1.705  4.003 1.717  4.002 1.726  4.005 1.732  4.011 1.734  4.016 1.733  4.023 1.730  4.030 1.724  4.038 1.716 M4.132 1.703  4.135 1.694  4.135 1.689  4.133 1.685  4.130 1.684  4.125 1.685  4.121 1.687  4.115 1.693  4.110 1.700  4.105 1.709  4.100 1.718  4.097 1.725  4.096 1.731  4.097 1.735  4.100 1.737  4.104 1.735  4.110 1.731  4.122 1.720  4.130 1.710  4.134 1.702  4.129 1.717  4.129 1.723  4.129 1.728  4.132 1.731  4.137 1.733  4.142 1.732  4.147 1.730  4.152 1.727  4.155 1.724  4.161 1.716 M4.178 1.684  4.170 1.698  4.164 1.711  4.160 1.722  4.157 1.730  4.158 1.735  4.160 1.737  4.168 1.733  4.174 1.728  4.180 1.721  4.186 1.714  4.190 1.708  4.199 1.693  4.192 1.710  4.190 1.716  4.189 1.722  4.190 1.726  4.192 1.727  4.196 1.726  4.202 1.723  4.217 1.709  4.225 1.697  4.227 1.686  4.225 1.678 M4.266 1.703  4.269 1.694  4.269 1.689  4.268 1.685  4.264 1.684  4.260 1.685  4.255 1.687  4.250 1.693  4.244 1.700  4.239 1.709  4.235 1.718  4.232 1.725  4.231 1.731  4.231 1.735  4.234 1.737  4.238 1.735  4.244 1.731  4.257 1.720  4.264 1.710  4.268 1.702  4.264 1.717  4.263 1.723  4.264 1.728  4.266 1.731  4.271 1.733  4.277 1.732  4.282 1.730  4.286 1.727  4.290 1.724  4.296 1.716 M4.308 1.685  4.301 1.700  4.297 1.713  4.295 1.724  4.295 1.732  4.298 1.738  4.302 1.740  4.308 1.738  4.314 1.732  4.319 1.724  4.324 1.715  4.329 1.704  4.332 1.695  4.337 1.680  4.333 1.700  4.329 1.723  4.327 1.755  4.324 1.778  4.320 1.797  4.316 1.808  4.312 1.812  4.309 1.809  4.308 1.798  4.310 1.782  4.315 1.767  4.323 1.753  4.332 1.740  4.344 1.728  4.356 1.717 M4.419 1.718  4.434 1.704  4.440 1.696  4.446 1.686  4.450 1.674  4.453 1.660  4.454 1.648  4.454 1.639  4.454 1.634  4.452 1.633  4.450 1.634  4.447 1.638  4.443 1.644  4.439 1.652  4.434 1.665  4.428 1.680  4.423 1.696  4.420 1.711  4.419 1.723  4.421 1.732  4.425 1.736  4.432 1.738  4.437 1.737  4.443 1.734  4.450 1.728  4.457 1.718 M4.488 1.703  4.491 1.695  4.491 1.689  4.490 1.685  4.486 1.684  4.482 1.685  4.477 1.687  4.471 1.692  4.466 1.700  4.461 1.709  4.456 1.717  4.453 1.725  4.452 1.731  4.453 1.735  4.456 1.737  4.460 1.735  4.466 1.731  4.479 1.720  4.486 1.710  4.490 1.702  4.485 1.717  4.485 1.723  4.486 1.728  4.488 1.731  4.493 1.733  4.499 1.732  4.504 1.730  4.508 1.727  4.511 1.724  4.518 1.716 M4.503 1.694  4.514 1.691  4.527 1.689  4.542 1.687  4.561 1.686  4.563 1.686 M4.544 1.649  4.533 1.674  4.525 1.694  4.520 1.709  4.517 1.720  4.517 1.728  4.519 1.734  4.526 1.737  4.531 1.736  4.538 1.732  4.544 1.725  4.550 1.717  4.550 1.716 M4.550 1.716  4.565 1.702  4.573 1.691  4.576 1.685  4.575 1.682  4.570 1.686  4.560 1.697  4.551 1.714  4.549 1.726  4.554 1.734  4.566 1.737  4.571 1.737  4.576 1.736  4.584 1.734  4.591 1.732  4.596 1.728  4.601 1.724  4.608 1.716 M4.671 1.718  4.687 1.704  4.692 1.696  4.698 1.686  4.702 1.674  4.705 1.660  4.706 1.648  4.707 1.639  4.706 1.634  4.704 1.633  4.702 1.634  4.699 1.638  4.695 1.644  4.692 1.652  4.686 1.665  4.680 1.681  4.675 1.696  4.672 1.711  4.671 1.723  4.673 1.732  4.678 1.737  4.684 1.738  4.689 1.737  4.695 1.734  4.702 1.728  4.710 1.718 M4.740 1.702  4.743 1.695  4.744 1.689  4.742 1.685  4.738 1.684  4.734 1.685  4.729 1.688  4.724 1.692  4.718 1.700  4.713 1.709  4.709 1.718  4.706 1.725  4.705 1.731  4.705 1.735  4.708 1.737  4.712 1.735  4.719 1.731  4.731 1.719  4.738 1.710  4.742 1.702  4.738 1.718  4.737 1.723  4.738 1.728  4.740 1.732  4.745 1.733  4.751 1.732  4.756 1.730  4.760 1.727  4.764 1.724  4.770 1.716  4.770 1.717 M4.770 1.717  4.784 1.708  4.790 1.703  4.795 1.696  4.800 1.687  4.803 1.676  4.802 1.691  4.800 1.709  4.798 1.717  4.796 1.725  4.790 1.732  4.784 1.737  4.777 1.739  4.772 1.738  4.767 1.735  4.763 1.728  4.759 1.719  4.762 1.723  4.764 1.727  4.769 1.731  4.775 1.734  4.784 1.735  4.792 1.734  4.801 1.731  4.812 1.726  4.825 1.717 M4.810 1.694  4.821 1.691  4.834 1.688  4.849 1.687  4.868 1.686  4.870 1.686 M4.851 1.649  4.840 1.674  4.832 1.694  4.827 1.709  4.824 1.720  4.824 1.728  4.826 1.734  4.833 1.737  4.839 1.736  4.845 1.732  4.851 1.725  4.858 1.717 M1.281 1.917  1.277 1.942  1.275 1.952  1.273 1.964  1.270 1.974  1.267 1.984  1.273 1.969  1.277 1.960  1.282 1.949  1.289 1.938  1.296 1.929  1.301 1.926  1.303 1.928  1.305 1.932  1.305 1.938  1.306 1.958  1.307 1.965  1.308 1.970  1.310 1.974  1.314 1.976  1.321 1.972  1.331 1.961 M1.389 1.882  1.391 1.884  1.392 1.886 M1.353 1.919  1.342 1.935  1.335 1.948  1.331 1.959  1.330 1.968  1.331 1.974  1.334 1.978  1.336 1.979  1.340 1.979  1.346 1.978  1.355 1.975  1.365 1.969  1.375 1.959 M1.417 1.944  1.416 1.935  1.414 1.929  1.411 1.926  1.408 1.925  1.403 1.926  1.398 1.930  1.392 1.935  1.386 1.942  1.380 1.950  1.375 1.959  1.373 1.967  1.372 1.974  1.373 1.979  1.377 1.980  1.380 1.980  1.385 1.977  1.394 1.970  1.403 1.962  1.410 1.953  1.416 1.943  1.421 1.934  1.423 1.926  1.413 1.974  1.406 2.009  1.400 2.035  1.393 2.052  1.386 2.061  1.379 2.063  1.373 2.062  1.370 2.056  1.371 2.046  1.377 2.031  1.389 2.012  1.408 1.988  1.426 1.969  1.435 1.959 M1.460 1.905  1.444 1.938  1.437 1.953  1.432 1.968  1.428 1.983  1.437 1.969  1.447 1.953  1.462 1.935  1.467 1.929  1.471 1.926  1.474 1.923  1.475 1.923  1.477 1.925  1.476 1.929  1.474 1.936  1.471 1.942  1.468 1.950  1.467 1.957  1.467 1.964  1.469 1.970  1.472 1.974  1.478 1.975  1.483 1.974  1.490 1.971  1.498 1.966  1.507 1.959 M1.493 1.937  1.503 1.934  1.517 1.932  1.532 1.930  1.550 1.929  1.552 1.929 M1.533 1.892  1.523 1.918  1.515 1.937  1.510 1.953  1.507 1.964  1.506 1.971  1.509 1.977  1.515 1.980  1.521 1.979  1.527 1.975  1.534 1.968  1.540 1.960 M1.557 1.977  1.557 1.976  1.558 1.976  1.559 1.976  1.560 1.977  1.559 1.977 M1.348 2.379  1.351 2.363  1.351 2.352  1.348 2.345  1.342 2.342  1.333 2.345  1.321 2.354  1.303 2.371  1.291 2.390  1.282 2.409  1.277 2.429  1.277 2.438  1.278 2.447  1.280 2.455  1.284 2.461  1.290 2.465  1.298 2.467  1.311 2.464  1.328 2.454  1.344 2.439  1.356 2.425  1.362 2.412  1.365 2.398  1.366 2.384  1.364 2.371  1.359 2.348  1.357 2.338  1.354 2.330  1.350 2.324  1.346 2.322  1.342 2.323  1.338 2.327  1.332 2.337  1.329 2.347  1.328 2.359  1.332 2.369  1.339 2.375  1.349 2.378  1.354 2.378  1.358 2.377  1.376 2.372  1.394 2.367  1.411 2.362  1.427 2.356  1.442 2.350  1.455 2.344  1.466 2.337  1.477 2.330  1.485 2.322  1.492 2.314  1.495 2.306  1.495 2.298 M1.402 2.411  1.392 2.430  1.381 2.450  1.378 2.460  1.382 2.463  1.394 2.458  1.403 2.451  1.411 2.444  1.419 2.435  1.425 2.427  1.437 2.408  1.429 2.422  1.425 2.429  1.422 2.436  1.420 2.443  1.418 2.450  1.418 2.456  1.420 2.459  1.422 2.461  1.426 2.462  1.432 2.461  1.438 2.458  1.445 2.453  1.452 2.446 M1.452 2.446  1.457 2.439  1.461 2.432  1.465 2.425  1.468 2.418  1.474 2.403  1.470 2.417  1.469 2.422  1.468 2.427  1.469 2.430  1.471 2.431  1.475 2.430  1.481 2.424  1.478 2.428  1.474 2.433  1.471 2.439  1.469 2.446  1.469 2.454  1.473 2.463  1.481 2.466  1.494 2.461  1.512 2.446 M1.622 2.435  1.618 2.414  1.614 2.408  1.609 2.406  1.601 2.409  1.592 2.417  1.584 2.427  1.578 2.437  1.574 2.448  1.574 2.457  1.577 2.463  1.584 2.465  1.587 2.465  1.597 2.462  1.606 2.454  1.614 2.442  1.624 2.425  1.640 2.393  1.648 2.377 M1.619 2.435  1.614 2.446  1.614 2.455  1.617 2.461  1.623 2.463  1.628 2.462  1.635 2.459  1.642 2.453  1.650 2.445 M1.650 2.445  1.664 2.431  1.672 2.421  1.675 2.414  1.674 2.411  1.669 2.415  1.659 2.426  1.650 2.443  1.648 2.455  1.653 2.464  1.665 2.467  1.670 2.466  1.675 2.466  1.683 2.463  1.690 2.461  1.695 2.457  1.700 2.454  1.707 2.445 M1.707 2.445  1.721 2.431  1.730 2.421  1.733 2.414  1.732 2.411  1.726 2.415  1.717 2.426  1.708 2.443  1.706 2.455  1.711 2.464  1.723 2.467  1.728 2.466  1.733 2.466  1.741 2.463  1.748 2.461  1.753 2.457  1.757 2.454  1.765 2.445 M1.783 2.409  1.780 2.421  1.776 2.433  1.767 2.461  1.763 2.475  1.761 2.490 M1.774 2.442  1.786 2.422  1.797 2.415  1.803 2.419  1.806 2.431  1.806 2.448  1.800 2.459  1.792 2.466  1.781 2.468  1.775 2.467  1.768 2.463  1.763 2.459  1.759 2.453  1.756 2.448  1.756 2.443  1.759 2.440  1.763 2.443  1.767 2.452  1.770 2.459  1.776 2.464  1.782 2.467  1.791 2.468  1.801 2.467  1.813 2.463  1.824 2.456  1.834 2.447  1.834 2.445 M1.834 2.445  1.848 2.431  1.856 2.421  1.859 2.414  1.858 2.411  1.853 2.415  1.844 2.426  1.834 2.443  1.832 2.455  1.837 2.464  1.849 2.467  1.854 2.466  1.859 2.466  1.867 2.463  1.874 2.461  1.879 2.457  1.884 2.454  1.891 2.445  1.891 2.446 M1.891 2.446  1.906 2.437  1.911 2.432  1.917 2.425  1.921 2.416  1.924 2.405  1.923 2.420  1.921 2.438  1.920 2.446  1.917 2.454  1.912 2.462  1.905 2.466  1.898 2.469  1.893 2.467  1.888 2.464  1.884 2.457  1.881 2.448  1.883 2.452  1.886 2.456  1.891 2.460  1.897 2.463  1.905 2.464  1.913 2.463  1.922 2.460  1.934 2.455  1.946 2.446 M1.932 2.423  1.942 2.420  1.956 2.418  1.971 2.416  1.989 2.415  1.991 2.415 M1.972 2.379  1.962 2.404  1.954 2.423  1.949 2.439  1.946 2.450  1.945 2.458  1.948 2.463  1.954 2.466  1.960 2.465  1.966 2.461  1.973 2.454  1.979 2.446 M2.042 2.446  2.056 2.438  2.062 2.432  2.068 2.425  2.072 2.416  2.076 2.405  2.074 2.420  2.072 2.438  2.071 2.446  2.068 2.454  2.063 2.461  2.056 2.467  2.049 2.468  2.044 2.467  2.039 2.464  2.035 2.457  2.032 2.448  2.034 2.452  2.037 2.456  2.041 2.460  2.048 2.463  2.056 2.464  2.064 2.463  2.074 2.460  2.085 2.455  2.097 2.446 M2.108 2.423  2.099 2.444  2.096 2.452  2.096 2.458  2.097 2.463  2.102 2.466  2.109 2.463  2.115 2.457  2.120 2.448  2.124 2.438  2.126 2.427  2.126 2.417  2.125 2.409  2.121 2.406  2.118 2.407  2.114 2.411  2.111 2.415  2.109 2.421  2.108 2.427  2.109 2.432  2.113 2.440  2.118 2.445  2.124 2.447  2.131 2.448  2.135 2.448  2.139 2.447  2.140 2.446 M2.140 2.446  2.145 2.439  2.150 2.432  2.153 2.425  2.157 2.418  2.163 2.403  2.158 2.417  2.157 2.422  2.156 2.427  2.157 2.430  2.159 2.431  2.163 2.430  2.170 2.424  2.166 2.428  2.163 2.433  2.160 2.439  2.158 2.446  2.158 2.454  2.162 2.463  2.169 2.466  2.183 2.461  2.200 2.446 M2.200 2.446  2.205 2.439  2.210 2.432  2.214 2.425  2.217 2.418  2.223 2.403  2.218 2.417  2.217 2.422  2.217 2.427  2.217 2.430  2.219 2.431  2.223 2.430  2.230 2.424  2.226 2.428  2.223 2.433  2.220 2.438  2.218 2.446  2.218 2.454  2.222 2.463  2.229 2.466  2.243 2.461  2.261 2.446 M2.273 2.414  2.266 2.429  2.262 2.442  2.260 2.453  2.260 2.462  2.263 2.467  2.267 2.469  2.273 2.467  2.279 2.461  2.284 2.453  2.289 2.444  2.294 2.433  2.297 2.424  2.302 2.409  2.298 2.429  2.294 2.452  2.291 2.485  2.289 2.508  2.285 2.526  2.281 2.537  2.276 2.541  2.274 2.538  2.273 2.527  2.275 2.512  2.280 2.497  2.288 2.483  2.297 2.469  2.309 2.457  2.321 2.446 M2.369 2.423  2.379 2.420  2.393 2.418  2.408 2.416  2.427 2.415  2.429 2.415 M2.410 2.379  2.399 2.404  2.391 2.423  2.386 2.439  2.383 2.450  2.383 2.458  2.385 2.463  2.391 2.466  2.397 2.465  2.404 2.461  2.410 2.454  2.417 2.446 M2.427 2.423  2.418 2.444  2.416 2.452  2.415 2.458  2.417 2.463  2.421 2.466  2.428 2.463  2.435 2.457  2.439 2.448  2.443 2.438  2.445 2.427  2.446 2.417  2.444 2.409  2.440 2.406  2.437 2.407  2.433 2.411  2.430 2.415  2.428 2.421  2.427 2.427  2.428 2.432  2.433 2.440  2.438 2.445  2.443 2.447  2.450 2.448  2.454 2.448  2.459 2.447 M2.535 2.414  2.528 2.429  2.524 2.442  2.522 2.453  2.522 2.462  2.525 2.467  2.530 2.469  2.535 2.467  2.541 2.461  2.546 2.453  2.551 2.444  2.556 2.433  2.560 2.424  2.564 2.409  2.560 2.429  2.557 2.452  2.553 2.484  2.551 2.508  2.547 2.526  2.543 2.537  2.539 2.541  2.536 2.538  2.535 2.527  2.537 2.512  2.542 2.497  2.550 2.483  2.560 2.469  2.571 2.457  2.583 2.446 M2.594 2.423  2.584 2.444  2.582 2.452  2.581 2.458  2.583 2.463  2.587 2.466  2.595 2.463  2.601 2.457  2.606 2.448  2.609 2.438  2.611 2.427  2.612 2.417  2.610 2.409  2.607 2.406  2.603 2.407  2.599 2.411  2.596 2.415  2.594 2.421  2.594 2.427  2.595 2.432  2.599 2.440  2.604 2.445  2.610 2.447  2.616 2.448  2.621 2.448  2.625 2.447 M2.645 2.411  2.635 2.430  2.624 2.450  2.622 2.460  2.625 2.463  2.638 2.458  2.646 2.451  2.654 2.444  2.662 2.435  2.668 2.427  2.681 2.408  2.672 2.422  2.669 2.429  2.666 2.436  2.663 2.443  2.661 2.450  2.662 2.455  2.663 2.459  2.666 2.461  2.670 2.462  2.675 2.461  2.682 2.458  2.688 2.453  2.695 2.446 M2.712 2.456  2.710 2.468  2.707 2.478  2.704 2.486  2.701 2.495 M1.285 2.923  1.302 2.919  1.334 2.912  1.347 2.909 M1.374 2.818  1.375 2.838  1.376 2.870  1.378 2.911  1.378 2.927  1.379 2.946  1.376 2.982  1.370 3.011  1.360 3.033  1.346 3.047  1.339 3.050  1.333 3.052  1.325 3.049  1.322 3.041  1.322 3.028  1.328 3.012  1.337 2.997  1.349 2.983  1.361 2.968  1.375 2.955  1.388 2.942  1.400 2.931 M1.411 2.909  1.402 2.930  1.399 2.938  1.399 2.944  1.400 2.950  1.405 2.952  1.412 2.949  1.418 2.943  1.423 2.935  1.427 2.924  1.429 2.913  1.429 2.903  1.428 2.895  1.424 2.892  1.421 2.893  1.417 2.897  1.414 2.902  1.411 2.907  1.411 2.913  1.412 2.918  1.417 2.926  1.422 2.931  1.427 2.934  1.434 2.934  1.438 2.934  1.442 2.934 M1.468 2.876  1.452 2.910  1.446 2.925  1.440 2.940  1.436 2.955  1.445 2.941  1.456 2.925  1.470 2.907  1.475 2.902  1.479 2.898  1.482 2.896  1.484 2.895  1.485 2.897  1.484 2.902  1.482 2.908  1.479 2.915  1.477 2.922  1.475 2.930  1.475 2.937  1.477 2.942  1.480 2.946  1.486 2.947  1.492 2.946  1.498 2.944  1.506 2.938  1.516 2.931 M1.524 2.890  1.520 2.914  1.518 2.925  1.515 2.936  1.513 2.947  1.509 2.956  1.515 2.942  1.519 2.932  1.525 2.922  1.531 2.910  1.538 2.901  1.543 2.898  1.546 2.900  1.547 2.904  1.548 2.910  1.548 2.930  1.549 2.937  1.550 2.943  1.553 2.947  1.556 2.948  1.563 2.945  1.574 2.934" desc="pen-down drawing"/></svg:g></svg:g><WCB layer="0" node="0" lastpath="0" lastpathnc="0" lastknownposx="0" lastknownposy="0" pausedposx="0" pausedposy="0" randseed="0" row="0" application="Axidraw"/></svg>