<!-- Created with Inkscape (http://www.inkscape.org/) --><svg xmlns:dc="http://purl.org/dc/elements/1.1/" xmlns:cc="http://creativecommons.org/ns#" xmlns:rdf="http://www.w3.org/1999/02/22-rdf-syntax-ns#" xmlns:svg="http://www.w3.org/2000/svg" xmlns="http://www.w3.org/2000/svg" xmlns:sodipodi="http://sodipodi.sourceforge.net/DTD/sodipodi-0.dtd" xmlns:inkscape="http://www.inkscape.org/namespaces/inkscape" id="svg8" version="1.1" viewBox="0 0 210 297" height="297mm" width="210mm" inkscape:version="0.92.4 (5da689c313, 2019-01-14)" sodipodi:docname="cowboy-so-sad.svg">
  <defs id="defs2"/>
  <sodipodi:namedview id="base" pagecolor="#ffffff" bordercolor="#666666" borderopacity="1.0" inkscape:pageopacity="0.0" inkscape:pageshadow="2" inkscape:zoom="0.98994949" inkscape:cx="187.20597" inkscape:cy="859.39627" inkscape:document-units="mm" inkscape:current-layer="layer1" showgrid="false" inkscape:window-width="1920" inkscape:window-height="1017" inkscape:window-x="-8" inkscape:window-y="-8" inkscape:window-maximized="1"/>
  <metadata id="metadata5">
    <rdf:RDF>
      <cc:Work rdf:about="">
        <dc:format>image/svg+xml</dc:format>
        <dc:type rdf:resource="http://purl.org/dc/dcmitype/StillImage"/>
        <dc:title/>
      </cc:Work>
    </rdf:RDF>
  </metadata>
  <g inkscape:label="Layer 1" inkscape:groupmode="layer" id="layer1">
    <text xml:space="preserve" style="font-style:normal;font-weight:normal;font-size:10.58333302px;line-height:1.25;font-family:sans-serif;letter-spacing:0px;word-spacing:0px;fill:#000000;fill-opacity:1;stroke:none;stroke-width:0.26458332" x="34.017857" y="73.238091" id="text12"><tspan sodipodi:role="line" x="34.017857" y="82.893585" style="stroke-width:0.26458332" id="tspan16"/></text>
    <g inkscape:label="Hershey Text" style="stroke:#000000;fill:none;stroke-linecap:round;stroke-linejoin:round"/><g inkscape:label="Hershey Text" style="stroke:#000000;fill:none;stroke-linecap:round;stroke-linejoin:round" transform=""><g id="a" transform="translate(32.3396150,31.8686220)"><path d="M505 785q47 5 117 19.5t156 38t184.5 55t202.5 71t210.5 86.5t207.5 100 M65 1209q-12 44 -1 99.5t59 126t140.5 156.5t243.5 191q91 63 159 92.5t116 29.5q57 0 85.5 -40.5t31 -117.5t-21 -189.5t-71.5 -256.5q-68 -205 -131 -416.5t-106 -423t-57 -419t15 -405.5  M1463 2016q-6 -113 -23.5 -240t-40.5 -261t-48 -271.5t-46.5 -273t-36 -266t-16.5 -249t12 -222.5t49 -187 " transform="translate(0.000000,0.000000)scale(0.001608, -0.001608)" style="stroke-width:1.701in" id="ay"/><path d="M0 397q137 119 224 216t131.5 166.5t51 107.5t-17.5 38q-27 0 -88.5 -55.5t-146.5 -178.5q-100 -145 -143.5 -263t-31.5 -201t79 -128.5t188 -45.5q35 0 74 4t83 12q69 13 127 33.5t106.5 46t87.5 54t69 55.5q71 65 116 139 " transform="translate(2.733109,0.000000)scale(0.001608, -0.001608)" style="stroke-width:1.701in" id="av"/><path d="M0 358q129 93 239 227q47 57 93.5 128t87 156.5t71 185t45.5 213.5q15 117 20.5 200t3 136t-12.5 78t-27 25q-16 0 -37 -21t-46.5 -60.5t-54 -95.5t-60.5 -126q-43 -95 -90 -212t-90.5 -241.5t-78.5 -248t-53 -232.5t-15 -195.5t36 -135.5q30 -45 72.5 -73t97.5 -28 q39 0 84 17t96 55t107.5 99t117.5 149 " transform="translate(4.194519,0.000000)scale(0.001608, -0.001608)" style="stroke-width:1.701in" id="ag"/><path d="M0 358q129 93 239 227q47 57 93.5 128t87 156.5t71 185t45.5 213.5q15 117 20.5 200t3 136t-12.5 78t-27 25q-16 0 -37 -21t-46.5 -60.5t-54 -95.5t-60.5 -126q-43 -95 -90 -212t-90.5 -241.5t-78.5 -248t-53 -232.5t-15 -195.5t36 -135.5q30 -45 72.5 -73t97.5 -28 q39 0 84 17t96 55t107.5 99t117.5 149 " transform="translate(5.168792,0.000000)scale(0.001608, -0.001608)" style="stroke-width:1.701in" id="al"/><path d="M172 742q-98 -184 -149 -330q-22 -62 -35.5 -122t-12 -108t23 -79t70.5 -34q63 0 117 36t98 96.5t78 139.5t56.5 164t33.5 170t9 159q-2 94 -26.5 133.5t-59.5 39.5q-26 0 -56 -19.5t-57 -52t-49.5 -74.5t-34.5 -87.5t-11 -91.5t20 -86q33 -70 69.5 -118t78 -78 t89.5 -43t105 -13q32 0 65.5 3.5t71.5 10.5 " transform="translate(6.143065,0.000000)scale(0.001608, -0.001608)" style="stroke-width:1.701in" id="ayu"/><path d="M260 2245q-45 -187 -42.5 -358.5t48 -318.5t131.5 -266.5t208.5 -204.5t278 -131t340.5 -46q54 0 110 4t114 12q181 26 360.5 67t344 106t306.5 157t249.5 220.5t172.5 296.5t75 384q-1 -3 -21 -65t-55 -167.5t-83 -247t-106 -303t-124.5 -336t-138 -347t-146 -334 t-149.5 -298.5q7 0 26.5 42.5t61 124.5t109.5 202.5t171.5 275.5t247.5 343.5t337 407.5q187 212 330 316t235 104q97 0 130.5 -116t-8.5 -346t-165.5 -573t-339.5 -798q7 2 25 25t64 75t128 137t214.5 211.5t324 298.5t458.5 397q231 196 430 357t353.5 276.5t260.5 179 t151 63.5q33 0 31.5 -36t-41 -113t-120.5 -197t-207 -287q-120 -159 -227 -340.5t-198.5 -376t-165.5 -396.5t-126.5 -401t-82 -389.5t-33 -362t21.5 -319.5t82 -261t147 -187t218 -97 " transform="translate(8.839197,0.000000)scale(0.001608, -0.001608)" style="stroke-width:1.701in" id="alr"/><path d="M0 373q41 52 77.5 109t69 115t61 115t51.5 109q55 121 97 241q-49 -126 -75 -224q-11 -42 -18 -82.5t-7 -72t9.5 -51t32.5 -19.5q24 0 64 25t101 82q1 0 -15.5 -15.5t-41 -44.5t-51.5 -71t-47.5 -94.5t-29.5 -114.5t2 -131q15 -93 59.5 -140t115.5 -47q89 0 214.5 76 t280.5 235 " transform="translate(17.247527,0.000000)scale(0.001608, -0.001608)" style="stroke-width:1.701in" id="aa"/><path d="M268 105q-7 13 -4 18t11 5q6 0 13 -3t11.5 -6.5t4.5 -8t-8 -7.5 " transform="translate(18.774852,0.000000)scale(0.001608, -0.001608)" style="stroke-width:1.701in" id="aQ"/><path d="M897 1255q87 224 130.5 387.5t50.5 271t-18 159.5t-73 52q-47 0 -113 -49t-143 -144t-161 -234t-167 -320q-75 -164 -142.5 -325t-116 -307.5t-72.5 -272t-13 -217.5t62.5 -144t155.5 -52q60 0 139 19t179 60t222 105t268 153 " transform="translate(21.535292,0.000000)scale(0.001608, -0.001608)" style="stroke-width:1.701in" id="avi"/><path d="M172 742q-98 -184 -149 -330q-22 -62 -35.5 -122t-12 -108t23 -79t70.5 -34q63 0 117 36t98 96.5t78 139.5t56.5 164t33.5 170t9 159q-2 94 -26.5 133.5t-59.5 39.5q-26 0 -56 -19.5t-57 -52t-49.5 -74.5t-34.5 -87.5t-11 -91.5t20 -86q33 -70 69.5 -118t78 -78 t89.5 -43t105 -13q32 0 65.5 3.5t71.5 10.5 " transform="translate(23.279659,0.000000)scale(0.001608, -0.001608)" style="stroke-width:1.701in" id="au"/><path d="M259 903q-67 -121 -122.5 -230.5t-97 -202.5t-67.5 -168.5t-34.5 -128.5t1.5 -81.5t40 -28.5q42 0 120 56q55 39 105.5 88t95.5 101.5t84.5 106.5t72.5 104q77 118 138 242q-70 -154 -110 -274q-17 -52 -29.5 -101.5t-14 -88t9.5 -62t40 -23.5q23 0 58.5 17t86.5 55 q155 116 241 220.5t123 195t34 165t-26 129.5 " transform="translate(24.372903,0.000000)scale(0.001608, -0.001608)" style="stroke-width:1.701in" id="agT"/><path d="M486 1335q-75 -98 -145.5 -211.5t-132.5 -233t-113.5 -240t-87.5 -233.5t-54.5 -213t-14.5 -178t7.5 25t26 53t55.5 90t96.5 136t147.5 192.5q155 196 258 302.5t167 106.5q46 0 75 -58t45 -182q10 -73 -1.5 -149t-40 -146.5t-72 -132.5t-98.5 -108t-118.5 -72.5 t-132.5 -26.5q-71 0 -145 32.5t-146 104.5q1 1 14 -6t40.5 -16t70.5 -16.5t104 -7.5q62 0 142 10.5t182 37.5t226 74t273 120 " transform="translate(26.253925,0.000000)scale(0.001608, -0.001608)" style="stroke-width:1.701in" id="an"/><path d="M172 742q-98 -184 -149 -330q-22 -62 -35.5 -122t-12 -108t23 -79t70.5 -34q63 0 117 36t98 96.5t78 139.5t56.5 164t33.5 170t9 159q-2 94 -26.5 133.5t-59.5 39.5q-26 0 -56 -19.5t-57 -52t-49.5 -74.5t-34.5 -87.5t-11 -91.5t20 -86q33 -70 69.5 -118t78 -78 t89.5 -43t105 -13q32 0 65.5 3.5t71.5 10.5 " transform="translate(28.044915,0.000000)scale(0.001608, -0.001608)" style="stroke-width:1.701in" id="ayl"/><path d="M193 883q-63 -121 -107 -232.5t-69 -208t-31.5 -175t5 -135t40.5 -87t75 -30.5t91.5 33t89.5 88t85 127.5t78.5 152.5t70 161.5t58.5 155t45.5 133.5t30.5 96q1 -3 -19 -81.5t-48 -229t-57 -372t-45 -509.5q-11 -201 -39 -365.5t-62.5 -281.5t-71 -181t-64.5 -64 q-25 0 -39.5 52.5t-12.5 166.5q2 124 31 245t79.5 236.5t120 224.5t152.5 209.5t176.5 191t192.5 169.5 " transform="translate(29.138159,0.000000)scale(0.001608, -0.001608)" style="stroke-width:1.701in" id="ap"/><path d="M261 225q-13 -104 -31.5 -188t-40 -157t-45 -139t-48.5 -133 " transform="translate(30.663877,0.000000)scale(0.001608, -0.001608)" style="stroke-width:1.701in" id="ayk"/></g><g id="aul" transform="translate(32.3396150,44.2158430)"><path d="M455 1710q-14 23 -20.5 57.5t-6 72.5t8 76.5t19.5 69.5t28 50t36 19q29 0 36.5 -49t-10 -156.5t-62.5 -278t-120 -414.5q-41 -134 -83.5 -274t-78 -272t-61.5 -248.5t-35.5 -204t1 -138t47.5 -50.5q24 0 59.5 22.5t85.5 72.5q141 141 269.5 311.5t250 382.5t238.5 472.5 t237 582.5q0 -1 -11 -40t-28 -108t-36 -166.5t-36 -216t-28 -256t-11 -286.5q0 -148 6.5 -271.5t21 -212t37.5 -137.5t55 -49q34 0 78 57.5t101 183.5q83 185 173.5 381.5t186 395.5t196.5 396t205 383q156 278 279 413.5t206 135.5q58 0 93 -64 " transform="translate(3.205776,0.000000)scale(0.001608, -0.001608)" style="stroke-width:1.701in" id="aT"/><path d="M0 397q137 119 224 216t131.5 166.5t51 107.5t-17.5 38q-27 0 -88.5 -55.5t-146.5 -178.5q-100 -145 -143.5 -263t-31.5 -201t79 -128.5t188 -45.5q35 0 74 4t83 12q69 13 127 33.5t106.5 46t87.5 54t69 55.5q71 65 116 139 " transform="translate(6.437276,0.000000)scale(0.001608, -0.001608)" style="stroke-width:1.701in" id="ale"/><path d="M0 373q41 52 77.5 109t69 115t61 115t51.5 109q55 121 97 241q-49 -126 -75 -224q-11 -42 -18 -82.5t-7 -72t9.5 -51t32.5 -19.5q24 0 64 25t101 82q1 0 -15.5 -15.5t-41 -44.5t-51.5 -71t-47.5 -94.5t-29.5 -114.5t2 -131q15 -93 59.5 -140t115.5 -47q89 0 214.5 76 t280.5 235 " transform="translate(9.501574,0.000000)scale(0.001608, -0.001608)" style="stroke-width:1.701in" id="auQ"/><path d="M0 397q137 119 224 216t131.5 166.5t51 107.5t-17.5 38q-27 0 -88.5 -55.5t-146.5 -178.5q-100 -145 -143.5 -263t-31.5 -201t79 -128.5t188 -45.5q35 0 74 4t83 12q69 13 127 33.5t106.5 46t87.5 54t69 55.5q71 65 116 139 " transform="translate(11.028899,0.000000)scale(0.001608, -0.001608)" style="stroke-width:1.701in" id="ar"/><path d="M662 633q-6 80 -18.5 136t-31.5 91.5t-44 51.5t-54 16q-35 0 -75.5 -20.5t-85 -56.5t-92.5 -85.5t-98 -107.5q-51 -59 -92.5 -127t-70 -134.5t-43 -128t-13 -108.5t21 -75t58.5 -28q23 0 53.5 11t68.5 34q78 48 149.5 110.5t134 133t116 146.5t95 151t70 145.5 t42.5 129.5q2 -1 -17.5 -92.5t-55 -262t-84.5 -413.5t-108 -547q-48 -247 -101 -412t-108.5 -264.5t-111.5 -141t-110 -41.5q-50 0 -97 29q-41 24 -51.5 84.5t17.5 157.5t99.5 231.5t194 306.5t300.5 383t420 461 " transform="translate(12.490309,0.000000)scale(0.001608, -0.001608)" style="stroke-width:1.701in" id="ae"/><path d="M0 373q41 52 77.5 109t69 115t61 115t51.5 109q55 121 97 241q-49 -126 -75 -224q-11 -42 -18 -82.5t-7 -72t9.5 -51t32.5 -19.5q24 0 64 25t101 82q1 0 -15.5 -15.5t-41 -44.5t-51.5 -71t-47.5 -94.5t-29.5 -114.5t2 -131q15 -93 59.5 -140t115.5 -47q89 0 214.5 76 t280.5 235 " transform="translate(14.001557,0.000000)scale(0.001608, -0.001608)" style="stroke-width:1.701in" id="agr"/><path d="M0 397q137 119 224 216t131.5 166.5t51 107.5t-17.5 38q-27 0 -88.5 -55.5t-146.5 -178.5q-100 -145 -143.5 -263t-31.5 -201t79 -128.5t188 -45.5q35 0 74 4t83 12q69 13 127 33.5t106.5 46t87.5 54t69 55.5q71 65 116 139 " transform="translate(15.528883,0.000000)scale(0.001608, -0.001608)" style="stroke-width:1.701in" id="aud"/><path d="M-230 742q69 21 165.5 42.5t211 39t242 28t259.5 10.5q15 0 30.5 -0.5t30.5 -0.5 M410 1445q-93 -223 -165.5 -399t-124.5 -312.5t-84 -237.5t-44 -175t-4.5 -124.5t33.5 -86.5q41 -54 102 -54q42 0 90.5 24t99.5 66t103.5 100t103.5 127 " transform="translate(16.990293,0.000000)scale(0.001608, -0.001608)" style="stroke-width:1.701in" id="ao"/><path d="M-230 742q69 21 165.5 42.5t211 39t242 28t259.5 10.5q15 0 30.5 -0.5t30.5 -0.5 M410 1445q-93 -223 -165.5 -399t-124.5 -312.5t-84 -237.5t-44 -175t-4.5 -124.5t33.5 -86.5q41 -54 102 -54q42 0 90.5 24t99.5 66t103.5 100t103.5 127 " transform="translate(19.429191,0.000000)scale(0.001608, -0.001608)" style="stroke-width:1.701in" id="ai"/><path d="M172 742q-98 -184 -149 -330q-22 -62 -35.5 -122t-12 -108t23 -79t70.5 -34q63 0 117 36t98 96.5t78 139.5t56.5 164t33.5 170t9 159q-2 94 -26.5 133.5t-59.5 39.5q-26 0 -56 -19.5t-57 -52t-49.5 -74.5t-34.5 -87.5t-11 -91.5t20 -86q33 -70 69.5 -118t78 -78 t89.5 -43t105 -13q32 0 65.5 3.5t71.5 10.5 " transform="translate(20.265201,0.000000)scale(0.001608, -0.001608)" style="stroke-width:1.701in" id="ais"/><path d="M912 1609l25.5 -25.5t17.5 -34.5 M346 1031q-111 -137 -182 -254.5t-111.5 -215.5t-55 -176.5t-11.5 -136t19 -94.5t36 -53q16 -12 39.5 -19t55.5 -7q45 0 105 16.5t132 54t154 99.5t171 152 " transform="translate(22.961332,0.000000)scale(0.001608, -0.001608)" style="stroke-width:1.701in" id="arB"/><path d="M128 1050q-29 -194 -64 -384q-15 -81 -33.5 -169t-39 -175.5t-43.5 -171t-47 -154.5q2 3 12.5 33t30 80.5t47.5 119t65.5 148t84.5 167.5t104 177q65 102 110.5 146t75.5 44q25 0 40.5 -25t24.5 -67t12.5 -97t3.5 -115q0 -44 0.5 -97t4 -106.5t11.5 -103t22.5 -88 t37 -61.5t54.5 -23q45 0 112 52.5t163 177.5 " transform="translate(24.083515,0.000000)scale(0.001608, -0.001608)" style="stroke-width:1.701in" id="aB"/><path d="M308 1557q6 -179 -35 -434q-18 -108 -47.5 -244t-75.5 -299t-110.5 -353.5t-152.5 -408.5q-159 -396 -266.5 -703t-158 -517t-42.5 -319.5t79 -109.5q27 0 68 19q48 23 103.5 89t112 165t111 225.5t100.5 270.5t81.5 299.5t53.5 313t15.5 311.5t-31.5 294 q-18 90 -35.5 150t-32.5 96.5t-27 52t-20 15.5t-9.5 -16t5.5 -40t24 -52.5t45.5 -52.5t70.5 -40t98 -16q71 0 166 32.5t219 111.5 " transform="translate(25.557786,0.000000)scale(0.001608, -0.001608)" style="stroke-width:1.701in" id="avJ"/><path d="M172 742q-98 -184 -149 -330q-22 -62 -35.5 -122t-12 -108t23 -79t70.5 -34q63 0 117 36t98 96.5t78 139.5t56.5 164t33.5 170t9 159q-2 94 -26.5 133.5t-59.5 39.5q-26 0 -56 -19.5t-57 -52t-49.5 -74.5t-34.5 -87.5t-11 -91.5t20 -86q33 -70 69.5 -118t78 -78 t89.5 -43t105 -13q32 0 65.5 3.5t71.5 10.5 " transform="translate(26.549744,0.000000)scale(0.001608, -0.001608)" style="stroke-width:1.701in" id="aTz"/><path d="M0 373q41 52 77.5 109t69 115t61 115t51.5 109q55 121 97 241q-49 -126 -75 -224q-11 -42 -18 -82.5t-7 -72t9.5 -51t32.5 -19.5q24 0 64 25t101 82q1 0 -15.5 -15.5t-41 -44.5t-51.5 -71t-47.5 -94.5t-29.5 -114.5t2 -131q15 -93 59.5 -140t115.5 -47q89 0 214.5 76 t280.5 235 " transform="translate(27.642988,0.000000)scale(0.001608, -0.001608)" style="stroke-width:1.701in" id="aBl"/><path d="M101 889q-12 -87 -29 -179t-35.5 -181t-37 -171.5t-34.5 -150.5t-28 -117.5t-17 -72.5q0 -1 7 28t23 79t41 116t60.5 140t82 151.5t105.5 148.5q86 104 143 155t91 51q35 0 45 -57.5t-2 -172.5q-6 -55 -17 -111t-25 -110t-30.5 -104.5t-32.5 -94.5q-38 -104 -82 -200 q81 111 167 225q36 48 77 102t84 109.5t86.5 110.5t84.5 106q70 87 111.5 126.5t58.5 39.5q23 0 6 -67.5t-66 -189.5q-42 -105 -57 -203t2 -175.5t68.5 -127.5t142.5 -59q4 -1 8 -1q37 0 74.5 14t73 37t68.5 52.5t62 59.5q68 72 130 163 " transform="translate(29.170313,0.000000)scale(0.001608, -0.001608)" style="stroke-width:1.701in" id="aio"/><path d="M193 883q-63 -121 -107 -232.5t-69 -208t-31.5 -175t5 -135t40.5 -87t75 -30.5t91.5 33t89.5 88t85 127.5t78.5 152.5t70 161.5t58.5 155t45.5 133.5t30.5 96q1 -3 -19 -81.5t-48 -229t-57 -372t-45 -509.5q-11 -201 -39 -365.5t-62.5 -281.5t-71 -181t-64.5 -64 q-25 0 -39.5 52.5t-12.5 166.5q2 124 31 245t79.5 236.5t120 224.5t152.5 209.5t176.5 191t192.5 169.5 " transform="translate(33.213707,0.000000)scale(0.001608, -0.001608)" style="stroke-width:1.701in" id="as"/><path d="M172 742q-98 -184 -149 -330q-22 -62 -35.5 -122t-12 -108t23 -79t70.5 -34q63 0 117 36t98 96.5t78 139.5t56.5 164t33.5 170t9 159q-2 94 -26.5 133.5t-59.5 39.5q-26 0 -56 -19.5t-57 -52t-49.5 -74.5t-34.5 -87.5t-11 -91.5t20 -86q33 -70 69.5 -118t78 -78 t89.5 -43t105 -13q32 0 65.5 3.5t71.5 10.5 " transform="translate(34.739425,0.000000)scale(0.001608, -0.001608)" style="stroke-width:1.701in" id="aF"/><path d="M307 927q-251 -411 -335 -616.5t11 -205.5q62 0 201 87q71 44 138 101.5t128 121.5t115.5 131t100.5 130q108 147 198 306q-74 -115 -137 -232q-26 -50 -52.5 -105.5t-49 -112.5t-39.5 -113.5t-24 -108.5q-6 -47 0.5 -82t23.5 -58t43.5 -34.5t60.5 -11.5q41 0 89 16 t100.5 47.5t107 78t106.5 107.5 " transform="translate(35.832669,0.000000)scale(0.001608, -0.001608)" style="stroke-width:1.701in" id="aJ"/><path d="M-230 742q69 21 165.5 42.5t211 39t242 28t259.5 10.5q15 0 30.5 -0.5t30.5 -0.5 M410 1445q-93 -223 -165.5 -399t-124.5 -312.5t-84 -237.5t-44 -175t-4.5 -124.5t33.5 -86.5q41 -54 102 -54q42 0 90.5 24t99.5 66t103.5 100t103.5 127 " transform="translate(39.192785,0.000000)scale(0.001608, -0.001608)" style="stroke-width:1.701in" id="apu"/><path d="M390 1256q-23 -53 -63 -134.5t-88.5 -182t-101 -216t-101 -235t-87.5 -239.5t-61 -230q0 -2 36.5 59t106 165t169 240.5t225.5 284.5q45 53 80 90.5t61 60.5t44 33.5t29 10.5q20 0 20 -28.5t-12.5 -73.5t-34 -100t-44.5 -108q-26 -59 -42.5 -120t-21.5 -118t2 -107 t27.5 -87.5t55 -59.5t85.5 -22q39 0 87 14t106.5 45t127.5 80t149 119 " transform="translate(40.028795,0.000000)scale(0.001608, -0.001608)" style="stroke-width:1.701in" id="aix"/><path d="M483 607q37 69 49.5 123.5t6 92t-30 57.5t-58.5 20q-29 0 -65 -14.5t-76 -45t-83 -77.5t-85 -112q-48 -73 -87 -145t-67 -137.5t-44.5 -121.5t-18.5 -97t10.5 -64.5t41.5 -23.5q26 0 66 20.5t97 67.5q123 101 196.5 185t114.5 147q48 72 68 131q-55 -137 -73 -244 q-8 -46 -8.5 -89.5t11.5 -77.5t39.5 -54.5t75.5 -19.5t90.5 13t79 31t67 43t54.5 49q58 59 99 133 " transform="translate(41.868017,0.000000)scale(0.001608, -0.001608)" style="stroke-width:1.701in" id="aoa"/><path d="M-230 742q69 21 165.5 42.5t211 39t242 28t259.5 10.5q15 0 30.5 -0.5t30.5 -0.5 M410 1445q-93 -223 -165.5 -399t-124.5 -312.5t-84 -237.5t-44 -175t-4.5 -124.5t33.5 -86.5q41 -54 102 -54q42 0 90.5 24t99.5 66t103.5 100t103.5 127 " transform="translate(43.400166,0.000000)scale(0.001608, -0.001608)" style="stroke-width:1.701in" id="aFx"/><path d="M193 883q-63 -121 -107 -232.5t-69 -208t-31.5 -175t5 -135t40.5 -87t75 -30.5t91.5 33t89.5 88t85 127.5t78.5 152.5t70 161.5t58.5 155t45.5 133.5t30.5 96q1 -3 -19 -81.5t-48 -229t-57 -372t-45 -509.5q-11 -201 -39 -365.5t-62.5 -281.5t-71 -181t-64.5 -64 q-25 0 -39.5 52.5t-12.5 166.5q2 124 31 245t79.5 236.5t120 224.5t152.5 209.5t176.5 191t192.5 169.5 " transform="translate(45.839064,0.000000)scale(0.001608, -0.001608)" style="stroke-width:1.701in" id="ad"/><path d="M172 742q-98 -184 -149 -330q-22 -62 -35.5 -122t-12 -108t23 -79t70.5 -34q63 0 117 36t98 96.5t78 139.5t56.5 164t33.5 170t9 159q-2 94 -26.5 133.5t-59.5 39.5q-26 0 -56 -19.5t-57 -52t-49.5 -74.5t-34.5 -87.5t-11 -91.5t20 -86q33 -70 69.5 -118t78 -78 t89.5 -43t105 -13q32 0 65.5 3.5t71.5 10.5 " transform="translate(47.364782,0.000000)scale(0.001608, -0.001608)" style="stroke-width:1.701in" id="and"/><path d="M307 927q-251 -411 -335 -616.5t11 -205.5q62 0 201 87q71 44 138 101.5t128 121.5t115.5 131t100.5 130q108 147 198 306q-74 -115 -137 -232q-26 -50 -52.5 -105.5t-49 -112.5t-39.5 -113.5t-24 -108.5q-6 -47 0.5 -82t23.5 -58t43.5 -34.5t60.5 -11.5q41 0 89 16 t100.5 47.5t107 78t106.5 107.5 " transform="translate(48.458025,0.000000)scale(0.001608, -0.001608)" style="stroke-width:1.701in" id="aru"/><path d="M0 373q41 52 77.5 109t69 115t61 115t51.5 109q55 121 97 241q-49 -126 -75 -224q-11 -42 -18 -82.5t-7 -72t9.5 -51t32.5 -19.5q24 0 64 25t101 82q1 0 -15.5 -15.5t-41 -44.5t-51.5 -71t-47.5 -94.5t-29.5 -114.5t2 -131q15 -93 59.5 -140t115.5 -47q89 0 214.5 76 t280.5 235 " transform="translate(50.215254,0.000000)scale(0.001608, -0.001608)" style="stroke-width:1.701in" id="api"/><path d="M285 966q-13 -87 -40 -184.5t-61.5 -202t-72.5 -215t-73 -223.5t-62.5 -228t-41.5 -228 M138 444q101 204 196 310.5t170 106.5q55 0 94.5 -61t56.5 -189q21 -150 -5.5 -258.5t-83.5 -179t-137.5 -104.5t-168.5 -36q-50 -1 -102.5 18t-100.5 51t-89 73t-68.5 85t-39 87 t-0.5 79q15 48 45 48q28 0 62 -48t62 -148q18 -62 54 -108.5t86 -77.5t112 -46.5t131 -15.5q81 0 169 20.5t176 62t172.5 103t159.5 142.5 " transform="translate(53.345468,0.000000)scale(0.001608, -0.001608)" style="stroke-width:1.701in" id="aFo"/><path d="M172 742q-98 -184 -149 -330q-22 -62 -35.5 -122t-12 -108t23 -79t70.5 -34q63 0 117 36t98 96.5t78 139.5t56.5 164t33.5 170t9 159q-2 94 -26.5 133.5t-59.5 39.5q-26 0 -56 -19.5t-57 -52t-49.5 -74.5t-34.5 -87.5t-11 -91.5t20 -86q33 -70 69.5 -118t78 -78 t89.5 -43t105 -13q32 0 65.5 3.5t71.5 10.5 " transform="translate(55.096265,0.000000)scale(0.001608, -0.001608)" style="stroke-width:1.701in" id="aii"/><path d="M128 1050q-29 -194 -64 -384q-15 -81 -33.5 -169t-39 -175.5t-43.5 -171t-47 -154.5q2 3 12.5 33t30 80.5t47.5 119t65.5 148t84.5 167.5t104 177q65 102 110.5 146t75.5 44q25 0 40.5 -25t24.5 -67t12.5 -97t3.5 -115q0 -44 0.5 -97t4 -106.5t11.5 -103t22.5 -88 t37 -61.5t54.5 -23q45 0 112 52.5t163 177.5 " transform="translate(56.189509,0.000000)scale(0.001608, -0.001608)" style="stroke-width:1.701in" id="aiig"/><path d="M193 883q-63 -121 -107 -232.5t-69 -208t-31.5 -175t5 -135t40.5 -87t75 -30.5t91.5 33t89.5 88t85 127.5t78.5 152.5t70 161.5t58.5 155t45.5 133.5t30.5 96q1 -3 -19 -81.5t-48 -229t-57 -372t-45 -509.5q-11 -201 -39 -365.5t-62.5 -281.5t-71 -181t-64.5 -64 q-25 0 -39.5 52.5t-12.5 166.5q2 124 31 245t79.5 236.5t120 224.5t152.5 209.5t176.5 191t192.5 169.5 " transform="translate(57.663780,0.000000)scale(0.001608, -0.001608)" style="stroke-width:1.701in" id="adp"/><path d="M285 966q-13 -87 -40 -184.5t-61.5 -202t-72.5 -215t-73 -223.5t-62.5 -228t-41.5 -228 M138 444q101 204 196 310.5t170 106.5q55 0 94.5 -61t56.5 -189q21 -150 -5.5 -258.5t-83.5 -179t-137.5 -104.5t-168.5 -36q-50 -1 -102.5 18t-100.5 51t-89 73t-68.5 85t-39 87 t-0.5 79q15 48 45 48q28 0 62 -48t62 -148q18 -62 54 -108.5t86 -77.5t112 -46.5t131 -15.5q81 0 169 20.5t176 62t172.5 103t159.5 142.5 " transform="translate(60.792386,0.000000)scale(0.001608, -0.001608)" style="stroke-width:1.701in" id="aTi"/><path d="M483 607q37 69 49.5 123.5t6 92t-30 57.5t-58.5 20q-29 0 -65 -14.5t-76 -45t-83 -77.5t-85 -112q-48 -73 -87 -145t-67 -137.5t-44.5 -121.5t-18.5 -97t10.5 -64.5t41.5 -23.5q26 0 66 20.5t97 67.5q123 101 196.5 185t114.5 147q48 72 68 131q-55 -137 -73 -244 q-8 -46 -8.5 -89.5t11.5 -77.5t39.5 -54.5t75.5 -19.5t90.5 13t79 31t67 43t54.5 49q58 59 99 133 " transform="translate(62.543184,0.000000)scale(0.001608, -0.001608)" style="stroke-width:1.701in" id="aiu"/><path d="M0 373q119 50 224 138q44 38 89.5 87t86.5 112t74 140t53 170q1 -1 -2 -32t-8 -82.5t-12.5 -117.5t-16.5 -137.5t-18.5 -142t-19.5 -131.5q-10 -66 -43.5 -129.5t-80.5 -113t-104 -80t-115 -30.5q-41 0 -81 17.5t-75.5 56.5t-65 101t-50.5 152q-1 1 6.5 -18t25 -48 t46.5 -63t72 -63.5t100.5 -49.5t132.5 -20q58 0 126.5 14.5t149.5 47.5t174.5 87.5t200.5 134.5 " transform="translate(64.075333,0.000000)scale(0.001608, -0.001608)" style="stroke-width:1.701in" id="aQa"/><path d="M0 373q119 50 224 138q44 38 89.5 87t86.5 112t74 140t53 170q1 -1 -2 -32t-8 -82.5t-12.5 -117.5t-16.5 -137.5t-18.5 -142t-19.5 -131.5q-10 -66 -43.5 -129.5t-80.5 -113t-104 -80t-115 -30.5q-41 0 -81 17.5t-75.5 56.5t-65 101t-50.5 152q-1 1 6.5 -18t25 -48 t46.5 -63t72 -63.5t100.5 -49.5t132.5 -20q58 0 126.5 14.5t149.5 47.5t174.5 87.5t200.5 134.5 " transform="translate(65.472434,0.000000)scale(0.001608, -0.001608)" style="stroke-width:1.701in" id="avk"/><path d="M0 397q137 119 224 216t131.5 166.5t51 107.5t-17.5 38q-27 0 -88.5 -55.5t-146.5 -178.5q-100 -145 -143.5 -263t-31.5 -201t79 -128.5t188 -45.5q35 0 74 4t83 12q69 13 127 33.5t106.5 46t87.5 54t69 55.5q71 65 116 139 " transform="translate(66.869535,0.000000)scale(0.001608, -0.001608)" style="stroke-width:1.701in" id="aiz"/><path d="M746 546q-7 230 -60.5 343t-145.5 113q-113 0 -271 -163q-72 -74 -129.5 -159t-96.5 -169.5t-55.5 -162.5t-6.5 -138t50.5 -96t115.5 -36q9 0 18 0.5t19 1.5q87 10 160 51.5t141 117.5t136 188.5t146 263.5t170 342.5t207 425.5 M690 556q-53 -95 -72 -177t-8.5 -142.5 t48 -95t96.5 -34.5q39 0 85.5 16.5t100.5 51.5t114 90t124 132 " transform="translate(68.330945,0.000000)scale(0.001608, -0.001608)" style="stroke-width:1.701in" id="aW"/><path d="M483 607q37 69 49.5 123.5t6 92t-30 57.5t-58.5 20q-29 0 -65 -14.5t-76 -45t-83 -77.5t-85 -112q-48 -73 -87 -145t-67 -137.5t-44.5 -121.5t-18.5 -97t10.5 -64.5t41.5 -23.5q26 0 66 20.5t97 67.5q123 101 196.5 185t114.5 147q48 72 68 131q-55 -137 -73 -244 q-8 -46 -8.5 -89.5t11.5 -77.5t39.5 -54.5t75.5 -19.5t90.5 13t79 31t67 43t54.5 49q58 59 99 133 " transform="translate(71.827717,0.000000)scale(0.001608, -0.001608)" style="stroke-width:1.701in" id="ah"/><path d="M259 903q-67 -121 -122.5 -230.5t-97 -202.5t-67.5 -168.5t-34.5 -128.5t1.5 -81.5t40 -28.5q42 0 120 56q55 39 105.5 88t95.5 101.5t84.5 106.5t72.5 104q77 118 138 242q-70 -154 -110 -274q-17 -52 -29.5 -101.5t-14 -88t9.5 -62t40 -23.5q23 0 58.5 17t86.5 55 q155 116 241 220.5t123 195t34 165t-26 129.5 " transform="translate(73.359865,0.000000)scale(0.001608, -0.001608)" style="stroke-width:1.701in" id="ari"/><path d="M483 607q37 69 49.5 123.5t6 92t-30 57.5t-58.5 20q-29 0 -65 -14.5t-76 -45t-83 -77.5t-85 -112q-48 -73 -87 -145t-67 -137.5t-44.5 -121.5t-18.5 -97t10.5 -64.5t41.5 -23.5q26 0 66 20.5t97 67.5q123 101 196.5 185t114.5 147q48 72 68 131q-55 -137 -73 -244 q-8 -46 -8.5 -89.5t11.5 -77.5t39.5 -54.5t75.5 -19.5t90.5 13t79 31t67 43t54.5 49q58 59 99 133 " transform="translate(75.240888,0.000000)scale(0.001608, -0.001608)" style="stroke-width:1.701in" id="aWs"/><path d="M193 883q-63 -121 -107 -232.5t-69 -208t-31.5 -175t5 -135t40.5 -87t75 -30.5t91.5 33t89.5 88t85 127.5t78.5 152.5t70 161.5t58.5 155t45.5 133.5t30.5 96q1 -3 -19 -81.5t-48 -229t-57 -372t-45 -509.5q-11 -201 -39 -365.5t-62.5 -281.5t-71 -181t-64.5 -64 q-25 0 -39.5 52.5t-12.5 166.5q2 124 31 245t79.5 236.5t120 224.5t152.5 209.5t176.5 191t192.5 169.5 " transform="translate(76.773036,0.000000)scale(0.001608, -0.001608)" style="stroke-width:1.701in" id="aJd"/><path d="M0 358q129 93 239 227q47 57 93.5 128t87 156.5t71 185t45.5 213.5q15 117 20.5 200t3 136t-12.5 78t-27 25q-16 0 -37 -21t-46.5 -60.5t-54 -95.5t-60.5 -126q-43 -95 -90 -212t-90.5 -241.5t-78.5 -248t-53 -232.5t-15 -195.5t36 -135.5q30 -45 72.5 -73t97.5 -28 q39 0 84 17t96 55t107.5 99t117.5 149 " transform="translate(79.901643,0.000000)scale(0.001608, -0.001608)" style="stroke-width:1.701in" id="aaB"/><path d="M483 607q37 69 49.5 123.5t6 92t-30 57.5t-58.5 20q-29 0 -65 -14.5t-76 -45t-83 -77.5t-85 -112q-48 -73 -87 -145t-67 -137.5t-44.5 -121.5t-18.5 -97t10.5 -64.5t41.5 -23.5q26 0 66 20.5t97 67.5q123 101 196.5 185t114.5 147q48 72 68 131q-55 -137 -73 -244 q-8 -46 -8.5 -89.5t11.5 -77.5t39.5 -54.5t75.5 -19.5t90.5 13t79 31t67 43t54.5 49q58 59 99 133 " transform="translate(80.875916,0.000000)scale(0.001608, -0.001608)" style="stroke-width:1.701in" id="ani"/><path d="M-230 742q69 21 165.5 42.5t211 39t242 28t259.5 10.5q15 0 30.5 -0.5t30.5 -0.5 M410 1445q-93 -223 -165.5 -399t-124.5 -312.5t-84 -237.5t-44 -175t-4.5 -124.5t33.5 -86.5q41 -54 102 -54q42 0 90.5 24t99.5 66t103.5 100t103.5 127 " transform="translate(82.408064,0.000000)scale(0.001608, -0.001608)" style="stroke-width:1.701in" id="ak"/><path d="M0 397q137 119 224 216t131.5 166.5t51 107.5t-17.5 38q-27 0 -88.5 -55.5t-146.5 -178.5q-100 -145 -143.5 -263t-31.5 -201t79 -128.5t188 -45.5q35 0 74 4t83 12q69 13 127 33.5t106.5 46t87.5 54t69 55.5q71 65 116 139 " transform="translate(83.244074,0.000000)scale(0.001608, -0.001608)" style="stroke-width:1.701in" id="aQp"/><path d="M0 358q129 93 239 227q47 57 93.5 128t87 156.5t71 185t45.5 213.5q15 117 20.5 200t3 136t-12.5 78t-27 25q-16 0 -37 -21t-46.5 -60.5t-54 -95.5t-60.5 -126q-43 -95 -90 -212t-90.5 -241.5t-78.5 -248t-53 -232.5t-15 -195.5t36 -135.5q30 -45 72.5 -73t97.5 -28 q39 0 84 17t96 55t107.5 99t117.5 149 " transform="translate(86.308372,0.000000)scale(0.001608, -0.001608)" style="stroke-width:1.701in" id="aQQ"/><path d="M483 607q37 69 49.5 123.5t6 92t-30 57.5t-58.5 20q-29 0 -65 -14.5t-76 -45t-83 -77.5t-85 -112q-48 -73 -87 -145t-67 -137.5t-44.5 -121.5t-18.5 -97t10.5 -64.5t41.5 -23.5q26 0 66 20.5t97 67.5q123 101 196.5 185t114.5 147q48 72 68 131q-55 -137 -73 -244 q-8 -46 -8.5 -89.5t11.5 -77.5t39.5 -54.5t75.5 -19.5t90.5 13t79 31t67 43t54.5 49q58 59 99 133 " transform="translate(87.282645,0.000000)scale(0.001608, -0.001608)" style="stroke-width:1.701in" id="aiiu"/><path d="M0 373q119 50 224 138q44 38 89.5 87t86.5 112t74 140t53 170q1 -1 -2 -32t-8 -82.5t-12.5 -117.5t-16.5 -137.5t-18.5 -142t-19.5 -131.5q-10 -66 -43.5 -129.5t-80.5 -113t-104 -80t-115 -30.5q-41 0 -81 17.5t-75.5 56.5t-65 101t-50.5 152q-1 1 6.5 -18t25 -48 t46.5 -63t72 -63.5t100.5 -49.5t132.5 -20q58 0 126.5 14.5t149.5 47.5t174.5 87.5t200.5 134.5 " transform="translate(88.814794,0.000000)scale(0.001608, -0.001608)" style="stroke-width:1.701in" id="aFv"/><path d="M-230 742q69 21 165.5 42.5t211 39t242 28t259.5 10.5q15 0 30.5 -0.5t30.5 -0.5 M410 1445q-93 -223 -165.5 -399t-124.5 -312.5t-84 -237.5t-44 -175t-4.5 -124.5t33.5 -86.5q41 -54 102 -54q42 0 90.5 24t99.5 66t103.5 100t103.5 127 " transform="translate(90.211895,0.000000)scale(0.001608, -0.001608)" style="stroke-width:1.701in" id="aiil"/></g><g id="aek" transform="translate(32.3396150,50.3894540)"><path d="M128 1050q-29 -194 -64 -384q-15 -81 -33.5 -169t-39 -175.5t-43.5 -171t-47 -154.5q2 3 12.5 33t30 80.5t47.5 119t65.5 148t84.5 167.5t104 177q65 102 110.5 146t75.5 44q25 0 40.5 -25t24.5 -67t12.5 -97t3.5 -115q0 -44 0.5 -97t4 -106.5t11.5 -103t22.5 -88 t37 -61.5t54.5 -23q45 0 112 52.5t163 177.5 " transform="translate(0.000000,0.000000)scale(0.001608, -0.001608)" style="stroke-width:1.701in" id="aoai"/><path d="M912 1609l25.5 -25.5t17.5 -34.5 M346 1031q-111 -137 -182 -254.5t-111.5 -215.5t-55 -176.5t-11.5 -136t19 -94.5t36 -53q16 -12 39.5 -19t55.5 -7q45 0 105 16.5t132 54t154 99.5t171 152 " transform="translate(1.474271,0.000000)scale(0.001608, -0.001608)" style="stroke-width:1.701in" id="avd"/><path d="M662 633q-6 80 -18.5 136t-31.5 91.5t-44 51.5t-54 16q-35 0 -75.5 -20.5t-85 -56.5t-92.5 -85.5t-98 -107.5q-51 -59 -92.5 -127t-70 -134.5t-43 -128t-13 -108.5t21 -75t58.5 -28q23 0 53.5 11t68.5 34q78 48 149.5 110.5t134 133t116 146.5t95 151t70 145.5 t42.5 129.5q2 -1 -17.5 -92.5t-55 -262t-84.5 -413.5t-108 -547q-48 -247 -101 -412t-108.5 -264.5t-111.5 -141t-110 -41.5q-50 0 -97 29q-41 24 -51.5 84.5t17.5 157.5t99.5 231.5t194 306.5t300.5 383t420 461 " transform="translate(2.596454,0.000000)scale(0.001608, -0.001608)" style="stroke-width:1.701in" id="akm"/><path d="M390 1256q-23 -53 -63 -134.5t-88.5 -182t-101 -216t-101 -235t-87.5 -239.5t-61 -230q0 -2 36.5 59t106 165t169 240.5t225.5 284.5q45 53 80 90.5t61 60.5t44 33.5t29 10.5q20 0 20 -28.5t-12.5 -73.5t-34 -100t-44.5 -108q-26 -59 -42.5 -120t-21.5 -118t2 -107 t27.5 -87.5t55 -59.5t85.5 -22q39 0 87 14t106.5 45t127.5 80t149 119 " transform="translate(4.107702,0.000000)scale(0.001608, -0.001608)" style="stroke-width:1.701in" id="aep"/><path d="M-230 742q69 21 165.5 42.5t211 39t242 28t259.5 10.5q15 0 30.5 -0.5t30.5 -0.5 M410 1445q-93 -223 -165.5 -399t-124.5 -312.5t-84 -237.5t-44 -175t-4.5 -124.5t33.5 -86.5q41 -54 102 -54q42 0 90.5 24t99.5 66t103.5 100t103.5 127 " transform="translate(5.946924,0.000000)scale(0.001608, -0.001608)" style="stroke-width:1.701in" id="aisp"/><path d="M268 105q-7 13 -4 18t11 5q6 0 13 -3t11.5 -6.5t4.5 -8t-8 -7.5 " transform="translate(6.782934,0.000000)scale(0.001608, -0.001608)" style="stroke-width:1.701in" id="agv"/></g><g id="apiy" transform="translate(32.3396150,62.7366790)"><path d="M1174 1441q38 136 50.5 243t0.5 181.5t-47.5 113.5t-94.5 39q-60 0 -143.5 -44t-189.5 -138q-155 -137 -272.5 -278.5t-201 -288.5t-135.5 -301.5t-76 -317.5q-11 -75 -10.5 -149t14 -140.5t40 -123t66.5 -98t93.5 -65t121.5 -23.5q91 0 207.5 47.5t260.5 155.5 q156 117 265 229.5t179.5 222t107 217t48 214.5t2.5 214t-30 216q-17 88 -34 179t-36 176.5t-40 160.5t-47 131.5t-57 89t-69 32.5q-27 0 -58.5 -19t-67.5 -61q-56 -65 -93 -150t-51.5 -174t-4 -175.5t49.5 -154t109 -109t175 -41.5q32 0 67 4t73 13q140 33 282 71 t280.5 80.5t272 88t256.5 92.5t233 95t201 94q92 47 179.5 102t164.5 116t139 126t101.5 130t53.5 129.5t-5 123.5 " transform="translate(0.000000,0.000000)scale(0.001608, -0.001608)" style="stroke-width:1.701in" id="agTg"/><path d="M307 927q-251 -411 -335 -616.5t11 -205.5q62 0 201 87q71 44 138 101.5t128 121.5t115.5 131t100.5 130q108 147 198 306q-74 -115 -137 -232q-26 -50 -52.5 -105.5t-49 -112.5t-39.5 -113.5t-24 -108.5q-6 -47 0.5 -82t23.5 -58t43.5 -34.5t60.5 -11.5q41 0 89 16 t100.5 47.5t107 78t106.5 107.5 " transform="translate(2.781341,0.000000)scale(0.001608, -0.001608)" style="stroke-width:1.701in" id="aixu"/><path d="M0 373q41 52 77.5 109t69 115t61 115t51.5 109q55 121 97 241q-49 -126 -75 -224q-11 -42 -18 -82.5t-7 -72t9.5 -51t32.5 -19.5q24 0 64 25t101 82q1 0 -15.5 -15.5t-41 -44.5t-51.5 -71t-47.5 -94.5t-29.5 -114.5t2 -131q15 -93 59.5 -140t115.5 -47q89 0 214.5 76 t280.5 235 " transform="translate(4.538569,0.000000)scale(0.001608, -0.001608)" style="stroke-width:1.701in" id="alp"/><path d="M746 546q-7 230 -60.5 343t-145.5 113q-113 0 -271 -163q-72 -74 -129.5 -159t-96.5 -169.5t-55.5 -162.5t-6.5 -138t50.5 -96t115.5 -36q9 0 18 0.5t19 1.5q87 10 160 51.5t141 117.5t136 188.5t146 263.5t170 342.5t207 425.5 M690 556q-53 -95 -72 -177t-8.5 -142.5 t48 -95t96.5 -34.5q39 0 85.5 16.5t100.5 51.5t114 90t124 132 " transform="translate(7.668783,0.000000)scale(0.001608, -0.001608)" style="stroke-width:1.701in" id="aTs"/><path d="M0 397q137 119 224 216t131.5 166.5t51 107.5t-17.5 38q-27 0 -88.5 -55.5t-146.5 -178.5q-100 -145 -143.5 -263t-31.5 -201t79 -128.5t188 -45.5q35 0 74 4t83 12q69 13 127 33.5t106.5 46t87.5 54t69 55.5q71 65 116 139 " transform="translate(9.562667,0.000000)scale(0.001608, -0.001608)" style="stroke-width:1.701in" id="aQQF"/><path d="M0 397q137 119 224 216t131.5 166.5t51 107.5t-17.5 38q-27 0 -88.5 -55.5t-146.5 -178.5q-100 -145 -143.5 -263t-31.5 -201t79 -128.5t188 -45.5q35 0 74 4t83 12q69 13 127 33.5t106.5 46t87.5 54t69 55.5q71 65 116 139 " transform="translate(11.024076,0.000000)scale(0.001608, -0.001608)" style="stroke-width:1.701in" id="apx"/><path d="M285 966q-13 -87 -40 -184.5t-61.5 -202t-72.5 -215t-73 -223.5t-62.5 -228t-41.5 -228 M138 444q101 204 196 310.5t170 106.5q55 0 94.5 -61t56.5 -189q21 -150 -5.5 -258.5t-83.5 -179t-137.5 -104.5t-168.5 -36q-50 -1 -102.5 18t-100.5 51t-89 73t-68.5 85t-39 87 t-0.5 79q15 48 45 48q28 0 62 -48t62 -148q18 -62 54 -108.5t86 -77.5t112 -46.5t131 -15.5q81 0 169 20.5t176 62t172.5 103t159.5 142.5 " transform="translate(12.485486,0.000000)scale(0.001608, -0.001608)" style="stroke-width:1.701in" id="ala"/><path d="M0 397q137 119 224 216t131.5 166.5t51 107.5t-17.5 38q-27 0 -88.5 -55.5t-146.5 -178.5q-100 -145 -143.5 -263t-31.5 -201t79 -128.5t188 -45.5q35 0 74 4t83 12q69 13 127 33.5t106.5 46t87.5 54t69 55.5q71 65 116 139 " transform="translate(14.236283,0.000000)scale(0.001608, -0.001608)" style="stroke-width:1.701in" id="ax"/><path d="M0 373q119 50 224 138q44 38 89.5 87t86.5 112t74 140t53 170q1 -1 -2 -32t-8 -82.5t-12.5 -117.5t-16.5 -137.5t-18.5 -142t-19.5 -131.5q-10 -66 -43.5 -129.5t-80.5 -113t-104 -80t-115 -30.5q-41 0 -81 17.5t-75.5 56.5t-65 101t-50.5 152q-1 1 6.5 -18t25 -48 t46.5 -63t72 -63.5t100.5 -49.5t132.5 -20q58 0 126.5 14.5t149.5 47.5t174.5 87.5t200.5 134.5 " transform="translate(15.697693,0.000000)scale(0.001608, -0.001608)" style="stroke-width:1.701in" id="aWT"/><path d="M-230 742q69 21 165.5 42.5t211 39t242 28t259.5 10.5q15 0 30.5 -0.5t30.5 -0.5 M410 1445q-93 -223 -165.5 -399t-124.5 -312.5t-84 -237.5t-44 -175t-4.5 -124.5t33.5 -86.5q41 -54 102 -54q42 0 90.5 24t99.5 66t103.5 100t103.5 127 " transform="translate(17.094794,0.000000)scale(0.001608, -0.001608)" style="stroke-width:1.701in" id="aas"/><path d="M0 373q119 50 224 138q44 38 89.5 87t86.5 112t74 140t53 170q1 -1 -2 -32t-8 -82.5t-12.5 -117.5t-16.5 -137.5t-18.5 -142t-19.5 -131.5q-10 -66 -43.5 -129.5t-80.5 -113t-104 -80t-115 -30.5q-41 0 -81 17.5t-75.5 56.5t-65 101t-50.5 152q-1 1 6.5 -18t25 -48 t46.5 -63t72 -63.5t100.5 -49.5t132.5 -20q58 0 126.5 14.5t149.5 47.5t174.5 87.5t200.5 134.5 " transform="translate(19.533692,0.000000)scale(0.001608, -0.001608)" style="stroke-width:1.701in" id="aQan"/><path d="M172 742q-98 -184 -149 -330q-22 -62 -35.5 -122t-12 -108t23 -79t70.5 -34q63 0 117 36t98 96.5t78 139.5t56.5 164t33.5 170t9 159q-2 94 -26.5 133.5t-59.5 39.5q-26 0 -56 -19.5t-57 -52t-49.5 -74.5t-34.5 -87.5t-11 -91.5t20 -86q33 -70 69.5 -118t78 -78 t89.5 -43t105 -13q32 0 65.5 3.5t71.5 10.5 " transform="translate(20.930793,0.000000)scale(0.001608, -0.001608)" style="stroke-width:1.701in" id="aJQ"/><path d="M0 373q41 52 77.5 109t69 115t61 115t51.5 109q55 121 97 241q-49 -126 -75 -224q-11 -42 -18 -82.5t-7 -72t9.5 -51t32.5 -19.5q24 0 64 25t101 82q1 0 -15.5 -15.5t-41 -44.5t-51.5 -71t-47.5 -94.5t-29.5 -114.5t2 -131q15 -93 59.5 -140t115.5 -47q89 0 214.5 76 t280.5 235 " transform="translate(22.024037,0.000000)scale(0.001608, -0.001608)" style="stroke-width:1.701in" id="aks"/><path d="M0 373q41 52 77.5 109t69 115t61 115t51.5 109q55 121 97 241q-49 -126 -75 -224q-11 -42 -18 -82.5t-7 -72t9.5 -51t32.5 -19.5q24 0 64 25t101 82q1 0 -15.5 -15.5t-41 -44.5t-51.5 -71t-47.5 -94.5t-29.5 -114.5t2 -131q15 -93 59.5 -140t115.5 -47q89 0 214.5 76 t280.5 235 " transform="translate(23.551362,0.000000)scale(0.001608, -0.001608)" style="stroke-width:1.701in" id="asn"/><path d="M193 883q-63 -121 -107 -232.5t-69 -208t-31.5 -175t5 -135t40.5 -87t75 -30.5t91.5 33t89.5 88t85 127.5t78.5 152.5t70 161.5t58.5 155t45.5 133.5t30.5 96q1 -3 -19 -81.5t-48 -229t-57 -372t-45 -509.5q-11 -201 -39 -365.5t-62.5 -281.5t-71 -181t-64.5 -64 q-25 0 -39.5 52.5t-12.5 166.5q2 124 31 245t79.5 236.5t120 224.5t152.5 209.5t176.5 191t192.5 169.5 " transform="translate(25.078688,0.000000)scale(0.001608, -0.001608)" style="stroke-width:1.701in" id="apW"/><path d="M-230 742q69 21 165.5 42.5t211 39t242 28t259.5 10.5q15 0 30.5 -0.5t30.5 -0.5 M410 1445q-93 -223 -165.5 -399t-124.5 -312.5t-84 -237.5t-44 -175t-4.5 -124.5t33.5 -86.5q41 -54 102 -54q42 0 90.5 24t99.5 66t103.5 100t103.5 127 " transform="translate(28.207294,0.000000)scale(0.001608, -0.001608)" style="stroke-width:1.701in" id="aec"/><path d="M172 742q-98 -184 -149 -330q-22 -62 -35.5 -122t-12 -108t23 -79t70.5 -34q63 0 117 36t98 96.5t78 139.5t56.5 164t33.5 170t9 159q-2 94 -26.5 133.5t-59.5 39.5q-26 0 -56 -19.5t-57 -52t-49.5 -74.5t-34.5 -87.5t-11 -91.5t20 -86q33 -70 69.5 -118t78 -78 t89.5 -43t105 -13q32 0 65.5 3.5t71.5 10.5 " transform="translate(29.043304,0.000000)scale(0.001608, -0.001608)" style="stroke-width:1.701in" id="aWm"/><path d="M193 883q-63 -121 -107 -232.5t-69 -208t-31.5 -175t5 -135t40.5 -87t75 -30.5t91.5 33t89.5 88t85 127.5t78.5 152.5t70 161.5t58.5 155t45.5 133.5t30.5 96q1 -3 -19 -81.5t-48 -229t-57 -372t-45 -509.5q-11 -201 -39 -365.5t-62.5 -281.5t-71 -181t-64.5 -64 q-25 0 -39.5 52.5t-12.5 166.5q2 124 31 245t79.5 236.5t120 224.5t152.5 209.5t176.5 191t192.5 169.5 " transform="translate(31.739436,0.000000)scale(0.001608, -0.001608)" style="stroke-width:1.701in" id="aQi"/><path d="M172 742q-98 -184 -149 -330q-22 -62 -35.5 -122t-12 -108t23 -79t70.5 -34q63 0 117 36t98 96.5t78 139.5t56.5 164t33.5 170t9 159q-2 94 -26.5 133.5t-59.5 39.5q-26 0 -56 -19.5t-57 -52t-49.5 -74.5t-34.5 -87.5t-11 -91.5t20 -86q33 -70 69.5 -118t78 -78 t89.5 -43t105 -13q32 0 65.5 3.5t71.5 10.5 " transform="translate(33.265154,0.000000)scale(0.001608, -0.001608)" style="stroke-width:1.701in" id="auo"/><path d="M307 927q-251 -411 -335 -616.5t11 -205.5q62 0 201 87q71 44 138 101.5t128 121.5t115.5 131t100.5 130q108 147 198 306q-74 -115 -137 -232q-26 -50 -52.5 -105.5t-49 -112.5t-39.5 -113.5t-24 -108.5q-6 -47 0.5 -82t23.5 -58t43.5 -34.5t60.5 -11.5q41 0 89 16 t100.5 47.5t107 78t106.5 107.5 " transform="translate(34.358398,0.000000)scale(0.001608, -0.001608)" style="stroke-width:1.701in" id="avix"/><path d="M261 225q-13 -104 -31.5 -188t-40 -157t-45 -139t-48.5 -133 " transform="translate(36.115626,0.000000)scale(0.001608, -0.001608)" style="stroke-width:1.701in" id="akJ"/></g><g id="aoo" transform="translate(32.3396150,75.0839000)"><path d="M193 520q124 40 257.5 71t261.5 58t244 51t204 50 " transform="translate(0.000000,0.000000)scale(0.001608, -0.001608)" style="stroke-width:1.701in" id="apn"/><path d="M227 2180q3 -177 7 -322.5t9.5 -270t11.5 -233.5t11.5 -213.5t10.5 -209.5t9 -221.5t6.5 -250t2.5 -294.5q0 -322 -33.5 -580.5t-99 -457t-161.5 -338t-220 -223.5q-58 -39 -109.5 -57.5t-96.5 -18.5q-72 0 -119.5 46t-61.5 128.5t10 197t94 250.5q61 118 143.5 236 t178 233.5t200.5 226t211.5 214t210 198t195.5 177.5 " transform="translate(2.202564,0.000000)scale(0.001608, -0.001608)" style="stroke-width:1.701in" id="aue"/><path d="M172 742q-98 -184 -149 -330q-22 -62 -35.5 -122t-12 -108t23 -79t70.5 -34q63 0 117 36t98 96.5t78 139.5t56.5 164t33.5 170t9 159q-2 94 -26.5 133.5t-59.5 39.5q-26 0 -56 -19.5t-57 -52t-49.5 -74.5t-34.5 -87.5t-11 -91.5t20 -86q33 -70 69.5 -118t78 -78 t89.5 -43t105 -13q32 0 65.5 3.5t71.5 10.5 " transform="translate(3.226677,0.000000)scale(0.001608, -0.001608)" style="stroke-width:1.701in" id="aen"/><path d="M390 1256q-23 -53 -63 -134.5t-88.5 -182t-101 -216t-101 -235t-87.5 -239.5t-61 -230q0 -2 36.5 59t106 165t169 240.5t225.5 284.5q45 53 80 90.5t61 60.5t44 33.5t29 10.5q20 0 20 -28.5t-12.5 -73.5t-34 -100t-44.5 -108q-26 -59 -42.5 -120t-21.5 -118t2 -107 t27.5 -87.5t55 -59.5t85.5 -22q39 0 87 14t106.5 45t127.5 80t149 119 " transform="translate(4.319920,0.000000)scale(0.001608, -0.001608)" style="stroke-width:1.701in" id="ac"/><path d="M128 1050q-29 -194 -64 -384q-15 -81 -33.5 -169t-39 -175.5t-43.5 -171t-47 -154.5q2 3 12.5 33t30 80.5t47.5 119t65.5 148t84.5 167.5t104 177q65 102 110.5 146t75.5 44q25 0 40.5 -25t24.5 -67t12.5 -97t3.5 -115q0 -44 0.5 -97t4 -106.5t11.5 -103t22.5 -88 t37 -61.5t54.5 -23q45 0 112 52.5t163 177.5 " transform="translate(6.159142,0.000000)scale(0.001608, -0.001608)" style="stroke-width:1.701in" id="aoh"/></g></g></g>
</svg>