<?xml version="1.0" encoding="UTF-8" standalone="no"?>
<!-- Created with Inkscape (http://www.inkscape.org/) -->

<svg
   xmlns:dc="http://purl.org/dc/elements/1.1/"
   xmlns:cc="http://creativecommons.org/ns#"
   xmlns:rdf="http://www.w3.org/1999/02/22-rdf-syntax-ns#"
   xmlns:svg="http://www.w3.org/2000/svg"
   xmlns="http://www.w3.org/2000/svg"
   xmlns:sodipodi="http://sodipodi.sourceforge.net/DTD/sodipodi-0.dtd"
   xmlns:inkscape="http://www.inkscape.org/namespaces/inkscape"
   width="210mm"
   height="297mm"
   viewBox="0 0 210 297"
   version="1.1"
   id="svg8"
   inkscape:version="0.92.4 (5da689c313, 2019-01-14)"
   sodipodi:docname="hershey-text-3-fonts.svg">
  <defs
     id="defs2" />
  <sodipodi:namedview
     id="base"
     pagecolor="#ffffff"
     bordercolor="#666666"
     borderopacity="1.0"
     inkscape:pageopacity="0.0"
     inkscape:pageshadow="2"
     inkscape:zoom="0.7"
     inkscape:cx="256.82921"
     inkscape:cy="521.49628"
     inkscape:document-units="mm"
     inkscape:current-layer="layer1"
     showgrid="false"
     inkscape:window-width="1920"
     inkscape:window-height="1017"
     inkscape:window-x="-8"
     inkscape:window-y="-8"
     inkscape:window-maximized="1" />
  <metadata
     id="metadata5">
    <rdf:RDF>
      <cc:Work
         rdf:about="">
        <dc:format>image/svg+xml</dc:format>
        <dc:type
           rdf:resource="http://purl.org/dc/dcmitype/StillImage" />
        <dc:title></dc:title>
      </cc:Work>
    </rdf:RDF>
  </metadata>
  <g
     inkscape:label="Layer 1"
     inkscape:groupmode="layer"
     id="layer1">
    <g
       id="g507"
       transform=""
       style="stroke-linejoin:round;stroke:#000000;stroke-linecap:round;fill:none"
       inkscape:label="Hershey Text">
      <g
         id="g505"
         transform="translate(47.6250000,58.1190380)">
        <path
           id="path471"
           transform="translate(0.000000,0.000000)scale(0.004134, -0.004134)"
           style="stroke-width:0.6614in"
           d="M457 2034q-128 -171 -225.5 -356t-150 -384t-52 -412.5t67.5 -443.5q26 -89 80.5 -154t129.5 -108t166.5 -63.5t190.5 -20.5q105 0 214 22t213 65t198.5 106t169.5 144.5t126 180.5t69 214q25 160 15 319.5t-47.5 306t-99 272.5t-139.5 219t-169 146t-188 53 q-51 0 -103.5 -16t-104.5 -51q-96 -64 -182.5 -144.5t-154.5 -170t-115 -185t-64 -190t-1 -184.5t72 -169 M1178 1249q77 -181 166 -364t182.5 -361t188.5 -347.5t184 -324.5 " />
        <path
           id="path473"
           transform="translate(8.847005,0.000000)scale(0.004134, -0.004134)"
           style="stroke-width:0.6614in"
           d="M43 1530q142 41 294 73q65 14 139 26.5t152.5 23t159.5 16.5t160 6 M111 893q11 -1 22 -1q87 0 169.5 17t169.5 42.5t183.5 55t210.5 55.5 M237 1753q-7 -115 -16 -204.5t-16.5 -167t-12.5 -149t-4.5 -151t7.5 -174t24 -217t44.5 -279.5t69.5 -363 M29 87 q138 22 285.5 39t289.5 36t269 44.5t223 63.5 " />
        <path
           id="path475"
           transform="translate(14.345377,0.000000)scale(0.004134, -0.004134)"
           style="stroke-width:0.6614in"
           d="M129 32q-10 104 -16 218.5t-9 230.5t-4 230.5t-0.5 218t2 192t3 153.5t3 102.5t1.5 38.5q0 2 11.5 -33.5t36 -98.5t61.5 -148t88.5 -182t118 -201.5t148.5 -205.5q2 0 27 18.5t67.5 63t99.5 120.5t122.5 191.5t136 274t139.5 369.5q5 -2 0.5 -46.5t-8 -131t-0.5 -215 t22 -298.5t60 -380.5t113 -461.5 " />
        <path
           id="path477"
           transform="translate(21.001302,0.000000)scale(0.004134, -0.004134)"
           style="stroke-width:0.6614in"
           d="M-3 424q246 93 403 176.5t217 146.5t20 100t-189 36q-94 -1 -168.5 -29t-129.5 -74.5t-90.5 -107.5t-50 -126.5t-8.5 -132t33.5 -124t76.5 -101.5t120 -66q63 -20 122.5 -28t115.5 -8q100 0 182.5 20t142.5 43q70 28 127 63 " />
        <path
           id="path479"
           transform="translate(25.424804,0.000000)scale(0.004134, -0.004134)"
           style="stroke-width:0.6614in"
           d="M777 753q-45 79 -96.5 116t-110.5 37q-89 0 -188.5 -78.5t-202.5 -219.5q-41 -56 -69.5 -118t-44 -122.5t-17.5 -115.5t10 -96.5t38 -66t67 -24.5q47 0 112 36.5t150 120.5q78 77 136.5 151t101.5 142.5t71.5 131t46.5 115.5q43 125 45 233q-11 -123 -12 -266 q-2 -123 6 -282t35 -336q27 -176 54.5 -333t38 -297t-5 -263.5t-73.5 -231.5q-32 -60 -77 -105t-95.5 -75t-103 -45t-99.5 -15q-59 0 -104 23.5t-62 71t1.5 118.5t85.5 167 " />
        <path
           id="path481"
           transform="translate(29.930989,0.000000)scale(0.004134, -0.004134)"
           style="stroke-width:0.6614in"
           d="M690 801q-29 84 -72.5 123t-97.5 39q-64 0 -137.5 -50.5t-150.5 -144.5q-47 -58 -89 -126t-73.5 -137.5t-49.5 -136t-18.5 -122.5t19.5 -96.5t66 -57.5q17 -6 35 -6q48 0 104 36t113.5 95t113.5 135t103 156t81 158t49 140q-1 0 -5 -37.5t-3.5 -99.5t9.5 -142.5t33 -167 t66.5 -172.5t111.5 -158 " />
        <path
           id="path483"
           transform="translate(34.313151,0.000000)scale(0.004134, -0.004134)"
           style="stroke-width:0.6614in"
           d="M-39 1057q6 -108 14.5 -232t22.5 -255t34.5 -265.5t49.5 -265.5q0 -1 -3 30.5t-2.5 86.5t7.5 129.5t25.5 158t52.5 171.5t89 172q78 119 144 170t119 51q38 0 69.5 -23t56 -63t42.5 -93.5t28 -113.5q17 -99 32.5 -185.5t32.5 -156t38.5 -120.5t50.5 -78 " />
        <path
           id="path485"
           transform="translate(38.434863,0.000000)scale(0.004134, -0.004134)"
           style="stroke-width:0.6614in"
           d="M547 1590q22 -229 50 -439t51 -403t34.5 -371t-0.5 -345 M26 1693q35 78 93 136t133.5 96t166.5 57t190 19q135 0 279 -34t284 -100q116 -55 224 -121.5t192.5 -140.5t137.5 -154t59 -161t-43.5 -161.5t-170.5 -156.5q-83 -52 -159 -88t-145.5 -58t-133.5 -32t-124 -10 q-70 0 -135 11.5t-126.5 31t-120.5 44t-118 50.5q2 2 46 -43.5t126.5 -129.5t203 -201t274.5 -257q97 -88 177 -148t146 -97t119.5 -53t97.5 -16q53 0 93 19t75 50 " />
        <path
           id="path487"
           transform="translate(46.827115,0.000000)scale(0.004134, -0.004134)"
           style="stroke-width:0.6614in"
           d="M79 1517q-10 7 -12.5 13.5t1 11t10.5 7t14 2.5q12 0 20 -7.5t0 -26.5 M-63 990q23 -86 41.5 -163.5t33.5 -151.5t27 -147.5t22.5 -151.5t20 -163.5t19.5 -183.5 " />
        <path
           id="path489"
           transform="translate(48.563443,0.000000)scale(0.004134, -0.004134)"
           style="stroke-width:0.6614in"
           d="M10 1497q-33 -119 -37 -321q-2 -86 2.5 -198.5t19.5 -254.5t41.5 -314.5t69.5 -379.5 M541 1081q-77 -66 -134.5 -117.5t-102 -95t-79.5 -82.5t-66.5 -80.5t-63.5 -88t-71 -105.5q4 0 21.5 -14t59 -35t113 -46t183 -46t268 -35t368.5 -14t64.5 1 " />
        <path
           id="path491"
           transform="translate(53.317675,0.000000)scale(0.004134, -0.004134)"
           style="stroke-width:0.6614in"
           d="M-14 1506q-7 -94 -11 -215t-1 -258t14.5 -284.5t35.5 -296t62 -292t93 -271.5 " />
        <path
           id="path493"
           transform="translate(55.054003,0.000000)scale(0.004134, -0.004134)"
           style="stroke-width:0.6614in"
           d="M79 1517q-10 7 -12.5 13.5t1 11t10.5 7t14 2.5q12 0 20 -7.5t0 -26.5 M-63 990q23 -86 41.5 -163.5t33.5 -151.5t27 -147.5t22.5 -151.5t20 -163.5t19.5 -183.5 " />
        <path
           id="path495"
           transform="translate(56.790331,0.000000)scale(0.004134, -0.004134)"
           style="stroke-width:0.6614in"
           d="M32 1577q63 29 154 42t200 13q118 0 248 -14.5t257 -40t243.5 -62t206 -80.5t144.5 -94.5t60 -104.5q5 -53 -28 -103.5t-92.5 -99t-140 -95t-170 -91t-183 -87t-179 -83t-157.5 -79.5t-119 -77 M348 1493q19 -82 35 -194t30.5 -239.5t28.5 -264t29 -268t32 -251 t38 -212.5 " />
        <path
           id="path497"
           transform="translate(64.149055,0.000000)scale(0.004134, -0.004134)"
           style="stroke-width:0.6614in"
           d="M43 905q2 -108 11 -219.5t29 -217t52 -201.5t79 -173q2 1 -5.5 19t-15.5 50.5t-11.5 78.5t6.5 102.5t38.5 122.5t84.5 138q59 77 122 134.5t116 97.5q62 46 121 79 " />
        <path
           id="path499"
           transform="translate(67.497688,0.000000)scale(0.004134, -0.004134)"
           style="stroke-width:0.6614in"
           d="M79 1517q-10 7 -12.5 13.5t1 11t10.5 7t14 2.5q12 0 20 -7.5t0 -26.5 M-63 990q23 -86 41.5 -163.5t33.5 -151.5t27 -147.5t22.5 -151.5t20 -163.5t19.5 -183.5 " />
        <path
           id="path501"
           transform="translate(69.234016,0.000000)scale(0.004134, -0.004134)"
           style="stroke-width:0.6614in"
           d="M-39 1057q6 -108 14.5 -232t22.5 -255t34.5 -265.5t49.5 -265.5q0 -1 -3 30.5t-2.5 86.5t7.5 129.5t25.5 158t52.5 171.5t89 172q78 119 144 170t119 51q38 0 69.5 -23t56 -63t42.5 -93.5t28 -113.5q17 -99 32.5 -185.5t32.5 -156t38.5 -120.5t50.5 -78 " />
        <path
           id="path503"
           transform="translate(73.355728,0.000000)scale(0.004134, -0.004134)"
           style="stroke-width:0.6614in"
           d="M-369 619q119 49 258 78.5t283.5 50t288.5 35.5t273.5 35.5t238 50.5t182.5 80 M453 1412q-8 -76 -13 -184.5t-7.5 -234.5t-2.5 -261.5t2 -265.5t5.5 -246.5t7.5 -205.5 " />
      </g>
    </g>
    <g
       id="g697"
       transform=""
       style="stroke-linejoin:round;stroke:#000000;stroke-linecap:round;fill:none"
       inkscape:label="Hershey Text">
      <g
         id="g695"
         transform="translate(20.7886910,170.7559400)">
        <path
           id="path671"
           transform="translate(0.000000,0.000000)scale(0.003445, -0.003445)"
           style="stroke-width:0.7937in"
           d="M1000 2225h77q261 0 602 -641q175 -460 175 -640v-156q-32 -181 -117 -291v-19q78 -248 78 -350q-187 -718 -252 -718h-20l-39 19l175 602l-39 194h20q-20 34 -20 78h-39q-368 -291 -912 -291q-555 0 -641 388q-58 204 -58 291v39q0 253 485 971q40 217 389 485z M728 1934v-39l349 214q-20 0 -58 19q-230 -78 -291 -194zM1194 2050v-58q-128 -363 -253 -505h-19v78q0 56 116 330v39q-255 -82 -524 -408q-39 -148 -58 -427q19 -119 19 -291h-38q-78 174 -78 310v175h-39q-200 -374 -214 -582q0 -324 292 -486q77 -38 213 -77q20 0 20 19 l97 -19h58q475 0 796 310v20q-168 330 -311 330q-63 0 -174 -78q-39 0 -39 58q0 143 233 156q147 0 388 -330q34 91 58 213q0 564 -407 1126q-78 97 -136 97z" />
        <path
           id="path673"
           transform="translate(7.200249,0.000000)scale(0.003445, -0.003445)"
           style="stroke-width:0.7937in"
           d="M677 1895h116q30 0 77 -77v-39q0 -39 -58 -39q-63 39 -116 39h-39q-396 -102 -522 -329q95 -135 213 -135h116q138 39 155 39h58q28 0 58 -58v-39q0 -31 -252 -155q-339 -355 -348 -619v-193q70 -155 252 -155q525 146 793 329l38 -58v-39q-236 -217 -696 -348 q-19 -19 -155 -19h-38q-329 15 -329 251q0 20 19 20l-19 96v39q0 318 348 735q0 23 -213 97l-116 154v39q0 194 464 425q0 35 194 39z" />
        <path
           id="path675"
           transform="translate(11.265462,0.000000)scale(0.003445, -0.003445)"
           style="stroke-width:0.7937in"
           d="M225 2304q118 -32 118 -165q-65 -76 -95 -284q169 -876 853 -876q0 -24 118 -24q1013 151 1397 474q71 137 284 781l47 23h24q47 -7 47 -47v-213q0 -238 -308 -663q0 -46 -94 -284h23q804 921 1042 923h24q142 -82 142 -213v-94q0 -338 -332 -1160q109 0 663 544 q1488 1136 1563 1136h71v-118q-905 -1230 -1137 -2131q-94 -294 -118 -639q96 -923 450 -923v-24q0 -47 -48 -47h-94q-355 213 -355 639q-42 0 -48 119v497q83 444 166 568l-24 47q155 241 355 734q192 381 616 1018v47q-215 0 -1894 -1515q-219 -201 -331 -402l-48 -24h-47 q-34 0 -71 71q0 88 166 308q378 857 378 1255q-23 165 -71 165h-23q-516 -170 -1255 -1349q-133 -414 -189 -426q-46 -24 -71 -24l-71 95q0 14 378 710q142 319 142 426v24q-779 -426 -1420 -426h-71q-53 0 -95 23q-46 -23 -71 -23q-392 112 -544 378q-237 363 -237 592 q0 497 95 497z" />
        <path
           id="path677"
           transform="translate(29.283311,0.000000)scale(0.003445, -0.003445)"
           style="stroke-width:0.7937in"
           d="M448 1015q42 -7 42 -42v-64q0 -235 -402 -550v-63q0 -169 190 -169q364 0 614 338q30 0 63 -63q-191 -402 -656 -402h-21q-251 0 -338 148v127q26 331 423 740h85z" />
        <path
           id="path679"
           transform="translate(32.414902,0.000000)scale(0.003445, -0.003445)"
           style="stroke-width:0.7937in"
           d="M549 995q20 0 125 -83q7 41 42 41q83 -31 83 -62v-21l-146 -626h21q37 0 251 223h41l21 -104q-438 -422 -438 -849q-151 -834 -521 -834q-188 76 -188 229v21q0 206 647 1064q62 228 62 396h-21q-343 -396 -500 -396h-21q-125 114 -125 250l187 355q265 396 480 396z M49 202v-41q204 31 479 479l42 84l-21 104q-223 0 -438 -396q-62 -141 -62 -230zM-14 -1111l63 -42q266 0 396 834h-21q-438 -488 -438 -792z" />
        <path
           id="path681"
           transform="translate(35.653292,0.000000)scale(0.003445, -0.003445)"
           style="stroke-width:0.7937in"
           d="M463 1005q141 0 141 -342q-121 -275 -121 -321q0 -108 81 -141h60q73 0 319 255l40 -61v-20q-136 -243 -379 -315h-101q-36 0 -161 181h-20l-281 -241h-101q-39 0 -80 121q0 203 221 502q178 318 362 382h20zM403 804q-374 -385 -402 -643h20q281 156 281 321 q86 91 141 302z" />
        <path
           id="path683"
           transform="translate(38.936468,0.000000)scale(0.003445, -0.003445)"
           style="stroke-width:0.7937in"
           d="M108 1060h19q28 0 59 -58q-72 -337 -72 -380q162 223 280 313h55q94 0 130 -676q80 -52 101 -52q105 135 221 253h20q29 0 59 -58v-20q-122 -154 -234 -301l-118 9q-184 0 -184 345q-18 295 -34 328q-134 0 -386 -641q0 -105 -93 -147h-21q-75 39 -75 96q54 71 233 969z " />
        <path
           id="path685"
           transform="translate(42.095620,0.000000)scale(0.003445, -0.003445)"
           style="stroke-width:0.7937in"
           d="M1011 2015h125q1128 -163 1128 -814q0 -225 -627 -564q-260 -126 -606 -188q0 -63 -20 -63q27 -250 188 -250q525 0 835 313h42q41 -7 41 -42v-21q-347 -417 -1023 -417q-209 0 -209 480l-41 146v21q0 113 104 167h42q28 0 125 -167q373 0 835 334q188 204 188 292v21 q0 282 -668 564q-145 42 -251 42h-271q-287 0 -689 -293q-90 -97 -105 -292l-41 -21q-30 0 -63 63v125q0 317 961 564zM906 1347h21q42 -7 42 -42q-230 -893 -355 -1462q-21 0 -21 -21v-229q0 -30 -63 -63h-41q-42 0 -42 42q42 301 83 417q-21 37 -21 84q58 0 293 1086 q61 180 104 188z" />
        <path
           id="path687"
           transform="translate(49.192517,0.000000)scale(0.003445, -0.003445)"
           style="stroke-width:0.7937in"
           d="M904 1695q84 0 128 -200q0 -37 -37 -37h-18q-14 0 -146 146v36q0 46 73 55zM321 1057h18q26 0 55 -55l-292 -510l-73 -237q40 -109 109 -109l37 18l36 -18q171 37 484 300q37 -6 37 -36v-37q-285 -335 -594 -373q-200 12 -200 164q0 431 383 893z" />
        <path
           id="path689"
           transform="translate(51.597194,0.000000)scale(0.003445, -0.003445)"
           style="stroke-width:0.7937in"
           d="M217 1115h20l61 -61q-21 -139 -41 -182q20 -40 20 -61q-20 -40 -20 -61h20q171 162 345 162q142 -67 142 -263q-185 -284 -487 -284q0 -20 -60 -20q0 -35 101 -61q226 -148 604 173l20 -40v-61q-380 -362 -725 -214l-142 40q-15 -182 -162 -182l-41 61v40 q182 679 304 993zM298 527v-61h81q243 108 243 304h-41q-223 0 -283 -243z" />
        <path
           id="path691"
           transform="translate(54.752901,0.000000)scale(0.003445, -0.003445)"
           style="stroke-width:0.7937in"
           d="M570 1775q20 -62 41 -62q0 -902 -392 -1218q0 -31 -145 -165v-103l83 -83q222 53 425 313h20q30 0 62 -62v-20q-159 -255 -404 -375h-206q-69 0 -124 289v41q62 310 227 785q145 366 248 557q66 103 165 103zM446 1507l-351 -929h21q371 242 371 929h-41z" />
        <path
           id="path693"
           transform="translate(56.840629,0.000000)scale(0.003445, -0.003445)"
           style="stroke-width:0.7937in"
           d="M904 1695q84 0 128 -200q0 -37 -37 -37h-18q-14 0 -146 146v36q0 46 73 55zM321 1057h18q26 0 55 -55l-292 -510l-73 -237q40 -109 109 -109l37 18l36 -18q171 37 484 300q37 -6 37 -36v-37q-285 -335 -594 -373q-200 12 -200 164q0 431 383 893z" />
      </g>
    </g>
    <g
       id="g872"
       transform=""
       style="stroke-linejoin:round;stroke:#000000;stroke-linecap:round;fill:none"
       inkscape:label="Hershey Text">
      <g
         id="g870"
         transform="translate(44.9791680,221.7827300)">
        <path
           id="path840"
           transform="translate(0.000000,0.000000)scale(0.003445, -0.003445)"
           style="stroke-width:0.7937in"
           d="M694 1345q183 0 357 -588v-148q0 -52 -63 -252q147 -209 147 -273q-21 -84 -84 -84q-67 1 -147 210l-42 21q-365 -231 -463 -231v21l-42 -21h-63q-294 0 -294 399v84q0 447 357 799h21l147 -21q0 59 169 84zM378 925h-21q-42 0 -42 84q-96 -53 -210 -526q0 -235 189 -336 q171 1 463 168v21q-274 268 -274 379l84 63l316 -316l42 147v148q-105 399 -210 441h-85q-31 -2 -252 -273z" />
        <path
           id="path842"
           transform="translate(4.306369,0.000000)scale(0.003445, -0.003445)"
           style="stroke-width:0.7937in"
           d="M822 1375l62 -83v-41q0 -54 -623 -260q-48 -87 -48 -187v-44q0 -100 50 -191l407 91l111 -22h179q35 -6 35 -35v-22q0 -35 -34 -35h-202q-320 -45 -501 -115q0 -38 47 -262h276q122 0 336 67h20q36 -6 36 -35q0 -141 -502 -191q-38 22 -94 22q-43 -22 -64 -22 q-191 0 -191 373l-65 87q42 70 42 136q-45 83 -89 378q0 125 620 280q142 111 192 111z" />
        <path
           id="path844"
           transform="translate(8.130425,0.000000)scale(0.003445, -0.003445)"
           style="stroke-width:0.7937in"
           d="M899 1335h42q17 0 64 -64l-21 -148q0 -625 234 -1042v-63q0 -31 -64 -64h-43q-93 0 -255 829h-21q-39 -258 -340 -510h-85q-26 0 -212 255q0 -170 -22 -170l22 -43v-106q0 -149 -107 -149q-85 32 -85 64q85 526 85 1020v42q0 43 64 43q97 -41 106 -85v-21 q0 -359 170 -659h64q218 199 319 680q26 191 85 191z" />
        <path
           id="path846"
           transform="translate(12.677951,0.000000)scale(0.003445, -0.003445)"
           style="stroke-width:0.7937in"
           d="M448 1015q42 -7 42 -42v-64q0 -235 -402 -550v-63q0 -169 190 -169q364 0 614 338q30 0 63 -63q-191 -402 -656 -402h-21q-251 0 -338 148v127q26 331 423 740h85z" />
        <path
           id="path848"
           transform="translate(15.809543,0.000000)scale(0.003445, -0.003445)"
           style="stroke-width:0.7937in"
           d="M549 995q20 0 125 -83q7 41 42 41q83 -31 83 -62v-21l-146 -626h21q37 0 251 223h41l21 -104q-438 -422 -438 -849q-151 -834 -521 -834q-188 76 -188 229v21q0 206 647 1064q62 228 62 396h-21q-343 -396 -500 -396h-21q-125 114 -125 250l187 355q265 396 480 396z M49 202v-41q204 31 479 479l42 84l-21 104q-223 0 -438 -396q-62 -141 -62 -230zM-14 -1111l63 -42q266 0 396 834h-21q-438 -488 -438 -792z" />
        <path
           id="path850"
           transform="translate(19.047932,0.000000)scale(0.003445, -0.003445)"
           style="stroke-width:0.7937in"
           d="M463 1005q141 0 141 -342q-121 -275 -121 -321q0 -108 81 -141h60q73 0 319 255l40 -61v-20q-136 -243 -379 -315h-101q-36 0 -161 181h-20l-281 -241h-101q-39 0 -80 121q0 203 221 502q178 318 362 382h20zM403 804q-374 -385 -402 -643h20q281 156 281 321 q86 91 141 302z" />
        <path
           id="path852"
           transform="translate(22.331108,0.000000)scale(0.003445, -0.003445)"
           style="stroke-width:0.7937in"
           d="M108 1060h19q28 0 59 -58q-72 -337 -72 -380q162 223 280 313h55q94 0 130 -676q80 -52 101 -52q105 135 221 253h20q29 0 59 -58v-20q-122 -154 -234 -301l-118 9q-184 0 -184 345q-18 295 -34 328q-134 0 -386 -641q0 -105 -93 -147h-21q-75 39 -75 96q54 71 233 969z " />
        <path
           id="path854"
           transform="translate(25.490261,0.000000)scale(0.003445, -0.003445)"
           style="stroke-width:0.7937in"
           d="M468 1345q393 -114 393 -306q0 -211 -502 -371v-21q34 -72 655 -306v-65q0 -44 -44 -44h-22q-144 0 -720 284l-22 -44v-306l22 -152l-65 -44h-66q-43 0 -43 44v480q0 95 -44 174l22 219q0 27 -22 218q0 158 458 240zM185 1039v-218l109 -22q189 0 393 197v65 q0 60 -240 131q-167 0 -262 -153z" />
        <path
           id="path856"
           transform="translate(29.521022,0.000000)scale(0.003445, -0.003445)"
           style="stroke-width:0.7937in"
           d="M904 1695q84 0 128 -200q0 -37 -37 -37h-18q-14 0 -146 146v36q0 46 73 55zM321 1057h18q26 0 55 -55l-292 -510l-73 -237q40 -109 109 -109l37 18l36 -18q171 37 484 300q37 -6 37 -36v-37q-285 -335 -594 -373q-200 12 -200 164q0 431 383 893z" />
        <path
           id="path858"
           transform="translate(31.925699,0.000000)scale(0.003445, -0.003445)"
           style="stroke-width:0.7937in"
           d="M217 1115h20l61 -61q-21 -139 -41 -182q20 -40 20 -61q-20 -40 -20 -61h20q171 162 345 162q142 -67 142 -263q-185 -284 -487 -284q0 -20 -60 -20q0 -35 101 -61q226 -148 604 173l20 -40v-61q-380 -362 -725 -214l-142 40q-15 -182 -162 -182l-41 61v40 q182 679 304 993zM298 527v-61h81q243 108 243 304h-41q-223 0 -283 -243z" />
        <path
           id="path860"
           transform="translate(35.081406,0.000000)scale(0.003445, -0.003445)"
           style="stroke-width:0.7937in"
           d="M570 1775q20 -62 41 -62q0 -902 -392 -1218q0 -31 -145 -165v-103l83 -83q222 53 425 313h20q30 0 62 -62v-20q-159 -255 -404 -375h-206q-69 0 -124 289v41q62 310 227 785q145 366 248 557q66 103 165 103zM446 1507l-351 -929h21q371 242 371 929h-41z" />
        <path
           id="path862"
           transform="translate(37.169134,0.000000)scale(0.003445, -0.003445)"
           style="stroke-width:0.7937in"
           d="M904 1695q84 0 128 -200q0 -37 -37 -37h-18q-14 0 -146 146v36q0 46 73 55zM321 1057h18q26 0 55 -55l-292 -510l-73 -237q40 -109 109 -109l37 18l36 -18q171 37 484 300q37 -6 37 -36v-37q-285 -335 -594 -373q-200 12 -200 164q0 431 383 893z" />
        <path
           id="path864"
           transform="translate(39.573811,0.000000)scale(0.003445, -0.003445)"
           style="stroke-width:0.7937in"
           d="M564 1255q90 -37 90 -158v-22q0 -45 -45 -45h-45q-55 45 -91 45q-338 -72 -338 -699v-113q160 -113 293 -113q183 0 586 136l23 -45q0 -226 -699 -271q-338 17 -338 293h23l-23 45q0 711 383 947h181z" />
        <path
           id="path866"
           transform="translate(43.311739,0.000000)scale(0.003445, -0.003445)"
           style="stroke-width:0.7937in"
           d="M699 1345h43q31 0 65 -65v-280q26 -389 129 -389l194 22q44 -70 44 -108q-100 -43 -195 -43q0 -56 173 -345v-87q0 -31 -65 -64q-54 0 -323 474h-216q-84 -51 -345 -668l-44 -22h-86q-43 0 -43 43v22q0 49 216 388q64 156 64 194q-129 0 -129 43q0 144 259 173 q223 712 259 712zM634 849q-32 -178 -86 -238q43 0 43 -21q32 21 129 21q-43 226 -43 238h-43z" />
        <path
           id="path868"
           transform="translate(47.308050,0.000000)scale(0.003445, -0.003445)"
           style="stroke-width:0.7937in"
           d="M334 1355h41q273 0 459 -354q0 -296 -459 -563q63 -331 63 -396l-63 -42h-62q-32 0 -63 83q0 21 21 21q0 348 -167 459v21q0 41 63 41l-21 209v208q6 42 42 42h62q42 -7 42 -42v-62q0 -188 42 -355h62q271 146 271 355v21q-129 208 -292 208q-152 0 -271 -167h-62 q-42 69 -42 125q150 188 334 188z" />
      </g>
    </g>
  </g>
</svg>
