<?xml version="1.0" encoding="UTF-8" standalone="no"?>
<!-- Created with Inkscape (http://www.inkscape.org/) -->

<svg
   xmlns:dc="http://purl.org/dc/elements/1.1/"
   xmlns:cc="http://creativecommons.org/ns#"
   xmlns:rdf="http://www.w3.org/1999/02/22-rdf-syntax-ns#"
   xmlns:svg="http://www.w3.org/2000/svg"
   xmlns="http://www.w3.org/2000/svg"
   xmlns:sodipodi="http://sodipodi.sourceforge.net/DTD/sodipodi-0.dtd"
   xmlns:inkscape="http://www.inkscape.org/namespaces/inkscape"
   id="svg8"
   version="1.1"
   viewBox="0 0 210 297"
   height="297mm"
   width="210mm"
   inkscape:version="0.92.4 (5da689c313, 2019-01-14)"
   sodipodi:docname="inkskapeDrawing.svg">
  <defs
     id="defs2" />
  <sodipodi:namedview
     id="base"
     pagecolor="#ffffff"
     bordercolor="#666666"
     borderopacity="1.0"
     inkscape:pageopacity="0.0"
     inkscape:pageshadow="2"
     inkscape:zoom="0.7"
     inkscape:cx="276.12812"
     inkscape:cy="724.83883"
     inkscape:document-units="mm"
     inkscape:current-layer="layer1"
     showgrid="false"
     inkscape:window-width="1920"
     inkscape:window-height="1017"
     inkscape:window-x="-8"
     inkscape:window-y="-8"
     inkscape:window-maximized="1" />
  <metadata
     id="metadata5">
    <rdf:RDF>
      <cc:Work
         rdf:about="">
        <dc:format>image/svg+xml</dc:format>
        <dc:type
           rdf:resource="http://purl.org/dc/dcmitype/StillImage" />
        <dc:title />
      </cc:Work>
    </rdf:RDF>
  </metadata>
  <g
     inkscape:label="Layer 1"
     inkscape:groupmode="layer"
     id="layer1">
    <text
       xml:space="preserve"
       style="font-style:normal;font-weight:normal;font-size:10.58333302px;line-height:1.25;font-family:sans-serif;letter-spacing:0px;word-spacing:0px;fill:#000000;fill-opacity:1;stroke:none;stroke-width:0.26458332"
       x="25.702381"
       y="114.81548"
       id="text12"><tspan
         sodipodi:role="line"
         id="tspan10"
         x="25.702381"
         y="124.47098"
         style="stroke-width:0.26458332" /></text>
    <g
       id="g1428"
       style="stroke-linejoin:round;stroke:#000000;stroke-linecap:round;fill:none"
       inkscape:label="Hershey Text" />
    <g
       id="g1636"
       transform=""
       style="stroke-linejoin:round;stroke:#000000;stroke-linecap:round;fill:none"
       inkscape:label="Hershey Text">
      <g
         id="g1450"
         transform="translate(28.7261890,36.9523700)">
        <path
           id="path1430"
           transform="translate(0.000000,0.000000)scale(0.003445, -0.003445)"
           style="stroke-width:0.7937in"
           d="M7 1017q79 0 175.5 6.5t199 19t205.5 31.5t195.5 43.5t168.5 54.5t125 66 M355 2212q-7 -129 -11.5 -286.5t-4.5 -334t5 -368t16 -390.5t29.5 -400.5t45.5 -396.5 M818 2140q32 -87 53 -189.5t34.5 -233t21.5 -294.5t14 -373q6 -211 24 -390t38 -313q23 -156 51 -285  " />
        <path
           id="path1432"
           transform="translate(4.581977,0.000000)scale(0.003445, -0.003445)"
           style="stroke-width:0.7937in"
           d="M-3 424q246 93 403 176.5t217 146.5t20 100t-189 36q-94 -1 -168.5 -29t-129.5 -74.5t-90.5 -107.5t-50 -126.5t-8.5 -132t33.5 -124t76.5 -101.5t120 -66q63 -20 122.5 -28t115.5 -8q100 0 182.5 20t142.5 43q70 28 127 63 " />
        <path
           id="path1434"
           transform="translate(8.268229,0.000000)scale(0.003445, -0.003445)"
           style="stroke-width:0.7937in"
           d="M-14 1506q-7 -94 -11 -215t-1 -258t14.5 -284.5t35.5 -296t62 -292t93 -271.5 " />
        <path
           id="path1436"
           transform="translate(9.715169,0.000000)scale(0.003445, -0.003445)"
           style="stroke-width:0.7937in"
           d="M-14 1506q-7 -94 -11 -215t-1 -258t14.5 -284.5t35.5 -296t62 -292t93 -271.5 " />
        <path
           id="path1438"
           transform="translate(11.162109,0.000000)scale(0.003445, -0.003445)"
           style="stroke-width:0.7937in"
           d="M14 724q-12 -172 -9.5 -297t22 -206.5t59 -120.5t102.5 -39q7 0 14 0.5t15 1.5q72 9 116.5 62.5t67.5 131t28.5 168t0.5 174.5q-7 104 -35 181t-68 128t-86 76.5t-89 25.5q-40 0 -73 -22t-50 -65t-14.5 -107.5t33.5 -149.5 " />
        <path
           id="path1440"
           transform="translate(16.836181,0.000000)scale(0.003445, -0.003445)"
           style="stroke-width:0.7937in"
           d="M261 1622q244 27 514 57.5t550.5 59.5t563 55t551.5 45 M1126 1825q3 -136 6 -243.5t5.5 -200t3.5 -176t-1.5 -171t-8 -185.5t-16.5 -219q-13 -151 -48.5 -255t-89 -168.5t-124.5 -93.5t-156 -29q-68 0 -150 17q-115 25 -205 56t-144 70t-67 87t25 106 " />
        <path
           id="path1442"
           transform="translate(22.072726,0.000000)scale(0.003445, -0.003445)"
           style="stroke-width:0.7937in"
           d="M14 724q-12 -172 -9.5 -297t22 -206.5t59 -120.5t102.5 -39q7 0 14 0.5t15 1.5q72 9 116.5 62.5t67.5 131t28.5 168t0.5 174.5q-7 104 -35 181t-68 128t-86 76.5t-89 25.5q-40 0 -73 -22t-50 -65t-14.5 -107.5t33.5 -149.5 " />
        <path
           id="path1444"
           transform="translate(24.312038,0.000000)scale(0.003445, -0.003445)"
           style="stroke-width:0.7937in"
           d="M-48 1376q14 -77 27 -183t22.5 -227t16 -250t8 -253.5t-2 -237.5t-13.5 -201q1 -1 8.5 25.5t27.5 75.5t54 117t88.5 149.5t131.5 173.5t182 188q104 96 176.5 137t120.5 41t74.5 -35t38.5 -91t12.5 -125.5t-2.5 -138.5q-5 -103 -6.5 -193.5t-1.5 -158.5q1 -79 3 -146  " />
        <path
           id="path1446"
           transform="translate(27.929388,0.000000)scale(0.003445, -0.003445)"
           style="stroke-width:0.7937in"
           d="M-39 1057q6 -108 14.5 -232t22.5 -255t34.5 -265.5t49.5 -265.5q0 -1 -3 30.5t-2.5 86.5t7.5 129.5t25.5 158t52.5 171.5t89 172q78 119 144 170t119 51q38 0 69.5 -23t56 -63t42.5 -93.5t28 -113.5q17 -99 32.5 -185.5t32.5 -156t38.5 -120.5t50.5 -78 " />
        <path
           id="path1448"
           transform="translate(31.364148,0.000000)scale(0.003445, -0.003445)"
           style="stroke-width:0.7937in"
           d="M215 215q32 -66 50.5 -135.5t14 -145t-37 -157t-101.5 -171.5 " />
      </g>
      <g
         id="g1502"
         transform="translate(28.7261890,63.4107020)">
        <path
           id="path1452"
           transform="translate(6.869520,0.000000)scale(0.003445, -0.003445)"
           style="stroke-width:0.7937in"
           d="M29 1452q168 53 351 95q78 18 167 34.5t183.5 30t192.5 21.5t194 8q81 0 159 -6.5t150 -21.5t137.5 -39.5t120.5 -59.5 M272 58q163 34 314.5 73t307.5 77t323.5 72.5t361.5 59.5 M778 1611q5 -112 11 -242t14.5 -267t18.5 -275t22 -267t26.5 -242.5t31.5 -201.5 " />
        <path
           id="path1454"
           transform="translate(12.243869,0.000000)scale(0.003445, -0.003445)"
           style="stroke-width:0.7937in"
           d="M351 1466q0 -49 3 -100t13.5 -103t29.5 -104t52 -102 " />
        <path
           id="path1456"
           transform="translate(15.206651,0.000000)scale(0.003445, -0.003445)"
           style="stroke-width:0.7937in"
           d="M29 941q4 -83 6.5 -157t4.5 -144t3 -139.5t1 -143.5t-1 -156t-4 -177q0 1 1 34.5t6 90t16 130.5t29.5 156t47 168t69.5 165q35 68 73 101.5t75 33.5q48 0 89.5 -56t67 -169t30 -285t-21.5 -403q1 0 5.5 25.5t18.5 73.5t39.5 116.5t68.5 154t106 186t153 212.5 q45 56 83 95.5t70.5 64.5t59 36t48.5 11q29 0 49.5 -17.5t34 -47.5t20 -69.5t8.5 -83.5t-1 -89.5t-9 -87.5q-17 -115 -21.5 -216t-2.5 -178q2 -90 9 -166 " />
        <path
           id="path1458"
           transform="translate(23.981309,0.000000)scale(0.003445, -0.003445)"
           style="stroke-width:0.7937in"
           d="M-58 1036q46 -103 84 -205.5t71 -219.5t63 -255.5t61 -315.5q-1 1 -2.5 38.5t0 104t7 158t19.5 200t38 229.5t61 247q1 -1 18.5 -46t48 -119.5t73 -170.5t92.5 -197.5t106 -202t115 -183.5q-1 -1 -1.5 43.5t2 119t8 172t17 203t30 212t45.5 198.5 " />
        <path
           id="path1460"
           transform="translate(28.149874,0.000000)scale(0.003445, -0.003445)"
           style="stroke-width:0.7937in"
           d="M43 905q2 -108 11 -219.5t29 -217t52 -201.5t79 -173q2 1 -5.5 19t-15.5 50.5t-11.5 78.5t6.5 102.5t38.5 122.5t84.5 138q59 77 122 134.5t116 97.5q62 46 121 79 " />
        <path
           id="path1462"
           transform="translate(30.940402,0.000000)scale(0.003445, -0.003445)"
           style="stroke-width:0.7937in"
           d="M79 1517q-10 7 -12.5 13.5t1 11t10.5 7t14 2.5q12 0 20 -7.5t0 -26.5 M-63 990q23 -86 41.5 -163.5t33.5 -151.5t27 -147.5t22.5 -151.5t20 -163.5t19.5 -183.5 " />
        <path
           id="path1464"
           transform="translate(32.387342,0.000000)scale(0.003445, -0.003445)"
           style="stroke-width:0.7937in"
           d="M-369 619q119 49 258 78.5t283.5 50t288.5 35.5t273.5 35.5t238 50.5t182.5 80 M453 1412q-8 -76 -13 -184.5t-7.5 -234.5t-2.5 -261.5t2 -265.5t5.5 -246.5t7.5 -205.5 " />
        <path
           id="path1466"
           transform="translate(36.142496,0.000000)scale(0.003445, -0.003445)"
           style="stroke-width:0.7937in"
           d="M79 1517q-10 7 -12.5 13.5t1 11t10.5 7t14 2.5q12 0 20 -7.5t0 -26.5 M-63 990q23 -86 41.5 -163.5t33.5 -151.5t27 -147.5t22.5 -151.5t20 -163.5t19.5 -183.5 " />
        <path
           id="path1468"
           transform="translate(37.589436,0.000000)scale(0.003445, -0.003445)"
           style="stroke-width:0.7937in"
           d="M-39 1057q6 -108 14.5 -232t22.5 -255t34.5 -265.5t49.5 -265.5q0 -1 -3 30.5t-2.5 86.5t7.5 129.5t25.5 158t52.5 171.5t89 172q78 119 144 170t119 51q38 0 69.5 -23t56 -63t42.5 -93.5t28 -113.5q17 -99 32.5 -185.5t32.5 -156t38.5 -120.5t50.5 -78 " />
        <path
           id="path1470"
           transform="translate(41.024196,0.000000)scale(0.003445, -0.003445)"
           style="stroke-width:0.7937in"
           d="M777 753q-45 79 -96.5 116t-110.5 37q-89 0 -188.5 -78.5t-202.5 -219.5q-41 -56 -69.5 -118t-44 -122.5t-17.5 -115.5t10 -96.5t38 -66t67 -24.5q47 0 112 36.5t150 120.5q78 77 136.5 151t101.5 142.5t71.5 131t46.5 115.5q43 125 45 233q-11 -123 -12 -266 q-2 -123 6 -282t35 -336q27 -176 54.5 -333t38 -297t-5 -263.5t-73.5 -231.5q-32 -60 -77 -105t-95.5 -75t-103 -45t-99.5 -15q-59 0 -104 23.5t-62 71t1.5 118.5t85.5 167 " />
        <path
           id="path1472"
           transform="translate(48.214110,0.000000)scale(0.003445, -0.003445)"
           style="stroke-width:0.7937in"
           d="M-369 619q119 49 258 78.5t283.5 50t288.5 35.5t273.5 35.5t238 50.5t182.5 80 M453 1412q-8 -76 -13 -184.5t-7.5 -234.5t-2.5 -261.5t2 -265.5t5.5 -246.5t7.5 -205.5 " />
        <path
           id="path1474"
           transform="translate(51.969264,0.000000)scale(0.003445, -0.003445)"
           style="stroke-width:0.7937in"
           d="M14 724q-12 -172 -9.5 -297t22 -206.5t59 -120.5t102.5 -39q7 0 14 0.5t15 1.5q72 9 116.5 62.5t67.5 131t28.5 168t0.5 174.5q-7 104 -35 181t-68 128t-86 76.5t-89 25.5q-40 0 -73 -22t-50 -65t-14.5 -107.5t33.5 -149.5 " />
        <path
           id="path1476"
           transform="translate(57.643336,0.000000)scale(0.003445, -0.003445)"
           style="stroke-width:0.7937in"
           d="M79 1517q-10 7 -12.5 13.5t1 11t10.5 7t14 2.5q12 0 20 -7.5t0 -26.5 M-63 990q23 -86 41.5 -163.5t33.5 -151.5t27 -147.5t22.5 -151.5t20 -163.5t19.5 -183.5 " />
        <path
           id="path1478"
           transform="translate(59.090276,0.000000)scale(0.003445, -0.003445)"
           style="stroke-width:0.7937in"
           d="M-39 1057q6 -108 14.5 -232t22.5 -255t34.5 -265.5t49.5 -265.5q0 -1 -3 30.5t-2.5 86.5t7.5 129.5t25.5 158t52.5 171.5t89 172q78 119 144 170t119 51q38 0 69.5 -23t56 -63t42.5 -93.5t28 -113.5q17 -99 32.5 -185.5t32.5 -156t38.5 -120.5t50.5 -78 " />
        <path
           id="path1480"
           transform="translate(62.525036,0.000000)scale(0.003445, -0.003445)"
           style="stroke-width:0.7937in"
           d="M-413 736q71 31 161.5 49.5t191.5 31t206 21.5t205 21.5t189.5 31.5t157.5 51 M788 1526q-21 78 -54.5 138.5t-74.5 101t-86.5 61.5t-89.5 21q-43 0 -83 -20t-70.5 -61.5t-49.5 -104t-22 -147.5q-3 -86 4 -185.5t18.5 -206t25 -216.5t24 -216t15.5 -205.5t0.5 -185 t-22.5 -154t-53 -112.5 " />
        <path
           id="path1482"
           transform="translate(65.315563,0.000000)scale(0.003445, -0.003445)"
           style="stroke-width:0.7937in"
           d="M14 724q-12 -172 -9.5 -297t22 -206.5t59 -120.5t102.5 -39q7 0 14 0.5t15 1.5q72 9 116.5 62.5t67.5 131t28.5 168t0.5 174.5q-7 104 -35 181t-68 128t-86 76.5t-89 25.5q-40 0 -73 -22t-50 -65t-14.5 -107.5t33.5 -149.5 " />
        <path
           id="path1484"
           transform="translate(67.554875,0.000000)scale(0.003445, -0.003445)"
           style="stroke-width:0.7937in"
           d="M43 905q2 -108 11 -219.5t29 -217t52 -201.5t79 -173q2 1 -5.5 19t-15.5 50.5t-11.5 78.5t6.5 102.5t38.5 122.5t84.5 138q59 77 122 134.5t116 97.5q62 46 121 79 " />
        <path
           id="path1486"
           transform="translate(70.345403,0.000000)scale(0.003445, -0.003445)"
           style="stroke-width:0.7937in"
           d="M29 941q4 -83 6.5 -157t4.5 -144t3 -139.5t1 -143.5t-1 -156t-4 -177q0 1 1 34.5t6 90t16 130.5t29.5 156t47 168t69.5 165q35 68 73 101.5t75 33.5q48 0 89.5 -56t67 -169t30 -285t-21.5 -403q1 0 5.5 25.5t18.5 73.5t39.5 116.5t68.5 154t106 186t153 212.5 q45 56 83 95.5t70.5 64.5t59 36t48.5 11q29 0 49.5 -17.5t34 -47.5t20 -69.5t8.5 -83.5t-1 -89.5t-9 -87.5q-17 -115 -21.5 -216t-2.5 -178q2 -90 9 -166 " />
        <path
           id="path1488"
           transform="translate(79.120061,0.000000)scale(0.003445, -0.003445)"
           style="stroke-width:0.7937in"
           d="M-76 1010q60 -163 127 -308t135.5 -271t135.5 -231.5t127 -188.5 M655 1122q-55 -152 -94 -275t-65.5 -229t-43 -200.5t-27 -190t-17 -197.5t-13.5 -222q-10 -182 -8 -347.5t7 -294.5q7 -150 19 -281 " />
        <path
           id="path1490"
           transform="translate(82.554821,0.000000)scale(0.003445, -0.003445)"
           style="stroke-width:0.7937in"
           d="M14 724q-12 -172 -9.5 -297t22 -206.5t59 -120.5t102.5 -39q7 0 14 0.5t15 1.5q72 9 116.5 62.5t67.5 131t28.5 168t0.5 174.5q-7 104 -35 181t-68 128t-86 76.5t-89 25.5q-40 0 -73 -22t-50 -65t-14.5 -107.5t33.5 -149.5 " />
        <path
           id="path1492"
           transform="translate(84.794133,0.000000)scale(0.003445, -0.003445)"
           style="stroke-width:0.7937in"
           d="M11 880q4 -101 2 -198.5t-5.5 -184t-5.5 -159.5t3 -126.5t20 -83t44 -29.5q4 0 7 0.5t7 1.5q35 7 68 49t65 108t63.5 150.5t62.5 176t61 185.5t60 179q2 0 -5 -26.5t-16 -72.5t-17.5 -107.5t-9.5 -132.5t8.5 -147t36.5 -151t74 -144.5t121 -127.5 " />
        <path
           id="path1494"
           transform="translate(91.122773,0.000000)scale(0.003445, -0.003445)"
           style="stroke-width:0.7937in"
           d="M-369 619q119 49 258 78.5t283.5 50t288.5 35.5t273.5 35.5t238 50.5t182.5 80 M453 1412q-8 -76 -13 -184.5t-7.5 -234.5t-2.5 -261.5t2 -265.5t5.5 -246.5t7.5 -205.5 " />
        <path
           id="path1496"
           transform="translate(94.877927,0.000000)scale(0.003445, -0.003445)"
           style="stroke-width:0.7937in"
           d="M-48 1376q14 -77 27 -183t22.5 -227t16 -250t8 -253.5t-2 -237.5t-13.5 -201q1 -1 8.5 25.5t27.5 75.5t54 117t88.5 149.5t131.5 173.5t182 188q104 96 176.5 137t120.5 41t74.5 -35t38.5 -91t12.5 -125.5t-2.5 -138.5q-5 -103 -6.5 -193.5t-1.5 -158.5q1 -79 3 -146  " />
        <path
           id="path1498"
           transform="translate(98.495277,0.000000)scale(0.003445, -0.003445)"
           style="stroke-width:0.7937in"
           d="M690 801q-29 84 -72.5 123t-97.5 39q-64 0 -137.5 -50.5t-150.5 -144.5q-47 -58 -89 -126t-73.5 -137.5t-49.5 -136t-18.5 -122.5t19.5 -96.5t66 -57.5q17 -6 35 -6q48 0 104 36t113.5 95t113.5 135t103 156t81 158t49 140q-1 0 -5 -37.5t-3.5 -99.5t9.5 -142.5t33 -167 t66.5 -172.5t111.5 -158 " />
        <path
           id="path1500"
           transform="translate(102.147078,0.000000)scale(0.003445, -0.003445)"
           style="stroke-width:0.7937in"
           d="M-369 619q119 49 258 78.5t283.5 50t288.5 35.5t273.5 35.5t238 50.5t182.5 80 M453 1412q-8 -76 -13 -184.5t-7.5 -234.5t-2.5 -261.5t2 -265.5t5.5 -246.5t7.5 -205.5 " />
      </g>
      <g
         id="g1540"
         transform="translate(28.7261890,76.6398700)">
        <path
           id="path1504"
           transform="translate(0.000000,0.000000)scale(0.003445, -0.003445)"
           style="stroke-width:0.7937in"
           d="M-76 1010q60 -163 127 -308t135.5 -271t135.5 -231.5t127 -188.5 M655 1122q-55 -152 -94 -275t-65.5 -229t-43 -200.5t-27 -190t-17 -197.5t-13.5 -222q-10 -182 -8 -347.5t7 -294.5q7 -150 19 -281 " />
        <path
           id="path1506"
           transform="translate(3.434760,0.000000)scale(0.003445, -0.003445)"
           style="stroke-width:0.7937in"
           d="M14 724q-12 -172 -9.5 -297t22 -206.5t59 -120.5t102.5 -39q7 0 14 0.5t15 1.5q72 9 116.5 62.5t67.5 131t28.5 168t0.5 174.5q-7 104 -35 181t-68 128t-86 76.5t-89 25.5q-40 0 -73 -22t-50 -65t-14.5 -107.5t33.5 -149.5 " />
        <path
           id="path1508"
           transform="translate(5.674072,0.000000)scale(0.003445, -0.003445)"
           style="stroke-width:0.7937in"
           d="M11 880q4 -101 2 -198.5t-5.5 -184t-5.5 -159.5t3 -126.5t20 -83t44 -29.5q4 0 7 0.5t7 1.5q35 7 68 49t65 108t63.5 150.5t62.5 176t61 185.5t60 179q2 0 -5 -26.5t-16 -72.5t-17.5 -107.5t-9.5 -132.5t8.5 -147t36.5 -151t74 -144.5t121 -127.5 " />
        <path
           id="path1510"
           transform="translate(8.567952,0.000000)scale(0.003445, -0.003445)"
           style="stroke-width:0.7937in"
           d="M351 1466q0 -49 3 -100t13.5 -103t29.5 -104t52 -102 " />
        <path
           id="path1512"
           transform="translate(11.530734,0.000000)scale(0.003445, -0.003445)"
           style="stroke-width:0.7937in"
           d="M43 905q2 -108 11 -219.5t29 -217t52 -201.5t79 -173q2 1 -5.5 19t-15.5 50.5t-11.5 78.5t6.5 102.5t38.5 122.5t84.5 138q59 77 122 134.5t116 97.5q62 46 121 79 " />
        <path
           id="path1514"
           transform="translate(14.321262,0.000000)scale(0.003445, -0.003445)"
           style="stroke-width:0.7937in"
           d="M-3 424q246 93 403 176.5t217 146.5t20 100t-189 36q-94 -1 -168.5 -29t-129.5 -74.5t-90.5 -107.5t-50 -126.5t-8.5 -132t33.5 -124t76.5 -101.5t120 -66q63 -20 122.5 -28t115.5 -8q100 0 182.5 20t142.5 43q70 28 127 63 " />
        <path
           id="path1516"
           transform="translate(21.442274,0.000000)scale(0.003445, -0.003445)"
           style="stroke-width:0.7937in"
           d="M690 801q-29 84 -72.5 123t-97.5 39q-64 0 -137.5 -50.5t-150.5 -144.5q-47 -58 -89 -126t-73.5 -137.5t-49.5 -136t-18.5 -122.5t19.5 -96.5t66 -57.5q17 -6 35 -6q48 0 104 36t113.5 95t113.5 135t103 156t81 158t49 140q-1 0 -5 -37.5t-3.5 -99.5t9.5 -142.5t33 -167 t66.5 -172.5t111.5 -158 " />
        <path
           id="path1518"
           transform="translate(28.528835,0.000000)scale(0.003445, -0.003445)"
           style="stroke-width:0.7937in"
           d="M29 941q4 -83 6.5 -157t4.5 -144t3 -139.5t1 -143.5t-1 -156t-4 -177q0 1 1 34.5t6 90t16 130.5t29.5 156t47 168t69.5 165q35 68 73 101.5t75 33.5q48 0 89.5 -56t67 -169t30 -285t-21.5 -403q1 0 5.5 25.5t18.5 73.5t39.5 116.5t68.5 154t106 186t153 212.5 q45 56 83 95.5t70.5 64.5t59 36t48.5 11q29 0 49.5 -17.5t34 -47.5t20 -69.5t8.5 -83.5t-1 -89.5t-9 -87.5q-17 -115 -21.5 -216t-2.5 -178q2 -90 9 -166 " />
        <path
           id="path1520"
           transform="translate(33.868733,0.000000)scale(0.003445, -0.003445)"
           style="stroke-width:0.7937in"
           d="M-3 424q246 93 403 176.5t217 146.5t20 100t-189 36q-94 -1 -168.5 -29t-129.5 -74.5t-90.5 -107.5t-50 -126.5t-8.5 -132t33.5 -124t76.5 -101.5t120 -66q63 -20 122.5 -28t115.5 -8q100 0 182.5 20t142.5 43q70 28 127 63 " />
        <path
           id="path1522"
           transform="translate(37.554985,0.000000)scale(0.003445, -0.003445)"
           style="stroke-width:0.7937in"
           d="M777 753q-45 79 -96.5 116t-110.5 37q-89 0 -188.5 -78.5t-202.5 -219.5q-41 -56 -69.5 -118t-44 -122.5t-17.5 -115.5t10 -96.5t38 -66t67 -24.5q47 0 112 36.5t150 120.5q78 77 136.5 151t101.5 142.5t71.5 131t46.5 115.5q43 125 45 233q-11 -123 -12 -266 q-2 -123 6 -282t35 -336q27 -176 54.5 -333t38 -297t-5 -263.5t-73.5 -231.5q-32 -60 -77 -105t-95.5 -75t-103 -45t-99.5 -15q-59 0 -104 23.5t-62 71t1.5 118.5t85.5 167 " />
        <path
           id="path1524"
           transform="translate(41.310139,0.000000)scale(0.003445, -0.003445)"
           style="stroke-width:0.7937in"
           d="M690 801q-29 84 -72.5 123t-97.5 39q-64 0 -137.5 -50.5t-150.5 -144.5q-47 -58 -89 -126t-73.5 -137.5t-49.5 -136t-18.5 -122.5t19.5 -96.5t66 -57.5q17 -6 35 -6q48 0 104 36t113.5 95t113.5 135t103 156t81 158t49 140q-1 0 -5 -37.5t-3.5 -99.5t9.5 -142.5t33 -167 t66.5 -172.5t111.5 -158 " />
        <path
           id="path1526"
           transform="translate(48.396700,0.000000)scale(0.003445, -0.003445)"
           style="stroke-width:0.7937in"
           d="M695 1511q-26 -100 -41 -219.5t-18 -247.5t6 -259.5t30 -256.5t54.5 -237.5t79.5 -203.5 M715 821q-34 70 -69.5 117.5t-71 77t-71 42.5t-69.5 13q-45 0 -87 -18.5t-80 -48t-71.5 -65t-60.5 -70.5q-33 -42 -58 -99t-41 -121.5t-22 -132t-1.5 -132t20.5 -122t44.5 -100.5 t70 -68t97.5 -25q19 0 40 3q53 8 96.5 39.5t79 77.5t63.5 102.5t49 113.5q49 134 76 299 " />
        <path
           id="path1528"
           transform="translate(51.841795,0.000000)scale(0.003445, -0.003445)"
           style="stroke-width:0.7937in"
           d="M14 724q-12 -172 -9.5 -297t22 -206.5t59 -120.5t102.5 -39q7 0 14 0.5t15 1.5q72 9 116.5 62.5t67.5 131t28.5 168t0.5 174.5q-7 104 -35 181t-68 128t-86 76.5t-89 25.5q-40 0 -73 -22t-50 -65t-14.5 -107.5t33.5 -149.5 " />
        <path
           id="path1530"
           transform="translate(54.081107,0.000000)scale(0.003445, -0.003445)"
           style="stroke-width:0.7937in"
           d="M11 880q4 -101 2 -198.5t-5.5 -184t-5.5 -159.5t3 -126.5t20 -83t44 -29.5q4 0 7 0.5t7 1.5q35 7 68 49t65 108t63.5 150.5t62.5 176t61 185.5t60 179q2 0 -5 -26.5t-16 -72.5t-17.5 -107.5t-9.5 -132.5t8.5 -147t36.5 -151t74 -144.5t121 -127.5 " />
        <path
           id="path1532"
           transform="translate(56.974987,0.000000)scale(0.003445, -0.003445)"
           style="stroke-width:0.7937in"
           d="M367 855q-39 69 -81.5 102t-84.5 33q-66 0 -123 -81t-88 -238q-20 -103 -15.5 -188t27.5 -153t61 -118t85.5 -83.5t100.5 -50t106 -16.5q62 0 118.5 22.5t97.5 66.5t61.5 110.5t9.5 153.5 " />
        <path
           id="path1534"
           transform="translate(59.524358,0.000000)scale(0.003445, -0.003445)"
           style="stroke-width:0.7937in"
           d="M-48 1376q14 -77 27 -183t22.5 -227t16 -250t8 -253.5t-2 -237.5t-13.5 -201q1 -1 8.5 25.5t27.5 75.5t54 117t88.5 149.5t131.5 173.5t182 188q104 96 176.5 137t120.5 41t74.5 -35t38.5 -91t12.5 -125.5t-2.5 -138.5q-5 -103 -6.5 -193.5t-1.5 -158.5q1 -79 3 -146  " />
        <path
           id="path1536"
           transform="translate(63.141708,0.000000)scale(0.003445, -0.003445)"
           style="stroke-width:0.7937in"
           d="M-3 424q246 93 403 176.5t217 146.5t20 100t-189 36q-94 -1 -168.5 -29t-129.5 -74.5t-90.5 -107.5t-50 -126.5t-8.5 -132t33.5 -124t76.5 -101.5t120 -66q63 -20 122.5 -28t115.5 -8q100 0 182.5 20t142.5 43q70 28 127 63 " />
        <path
           id="path1538"
           transform="translate(66.827960,0.000000)scale(0.003445, -0.003445)"
           style="stroke-width:0.7937in"
           d="M278 90q-9 8 -9.5 15t4 12.5t12.5 9t15 3.5q11 0 16 -8.5t-6 -31.5 " />
      </g>
      <g
         id="g1590"
         transform="translate(28.7261890,103.0982000)">
        <path
           id="path1542"
           transform="translate(6.869520,0.000000)scale(0.003445, -0.003445)"
           style="stroke-width:0.7937in"
           d="M32 1577q63 29 154 42t200 13q118 0 248 -14.5t257 -40t243.5 -62t206 -80.5t144.5 -94.5t60 -104.5q5 -53 -28 -103.5t-92.5 -99t-140 -95t-170 -91t-183 -87t-179 -83t-157.5 -79.5t-119 -77 M348 1493q19 -82 35 -194t30.5 -239.5t28.5 -264t29 -268t32 -251 t38 -212.5 " />
        <path
           id="path1544"
           transform="translate(13.001790,0.000000)scale(0.003445, -0.003445)"
           style="stroke-width:0.7937in"
           d="M-14 1506q-7 -94 -11 -215t-1 -258t14.5 -284.5t35.5 -296t62 -292t93 -271.5 " />
        <path
           id="path1546"
           transform="translate(14.448730,0.000000)scale(0.003445, -0.003445)"
           style="stroke-width:0.7937in"
           d="M-3 424q246 93 403 176.5t217 146.5t20 100t-189 36q-94 -1 -168.5 -29t-129.5 -74.5t-90.5 -107.5t-50 -126.5t-8.5 -132t33.5 -124t76.5 -101.5t120 -66q63 -20 122.5 -28t115.5 -8q100 0 182.5 20t142.5 43q70 28 127 63 " />
        <path
           id="path1548"
           transform="translate(18.134982,0.000000)scale(0.003445, -0.003445)"
           style="stroke-width:0.7937in"
           d="M690 801q-29 84 -72.5 123t-97.5 39q-64 0 -137.5 -50.5t-150.5 -144.5q-47 -58 -89 -126t-73.5 -137.5t-49.5 -136t-18.5 -122.5t19.5 -96.5t66 -57.5q17 -6 35 -6q48 0 104 36t113.5 95t113.5 135t103 156t81 158t49 140q-1 0 -5 -37.5t-3.5 -99.5t9.5 -142.5t33 -167 t66.5 -172.5t111.5 -158 " />
        <path
           id="path1550"
           transform="translate(21.786783,0.000000)scale(0.003445, -0.003445)"
           style="stroke-width:0.7937in"
           d="M471 862q-25 25 -57 44.5t-68 32.5t-74 19.5t-74 6.5q-38 0 -73 -7.5t-62.5 -23t-45.5 -39t-24 -55.5q-5 -31 16 -68t59.5 -77t88.5 -82.5t102 -85.5t101.5 -85.5t86 -82.5t55 -77t9.5 -68q-10 -37 -32.5 -63t-53.5 -42.5t-68 -24t-77 -7.5q-54 0 -109 12.5t-102 33.5  " />
        <path
           id="path1552"
           transform="translate(24.473958,0.000000)scale(0.003445, -0.003445)"
           style="stroke-width:0.7937in"
           d="M-3 424q246 93 403 176.5t217 146.5t20 100t-189 36q-94 -1 -168.5 -29t-129.5 -74.5t-90.5 -107.5t-50 -126.5t-8.5 -132t33.5 -124t76.5 -101.5t120 -66q63 -20 122.5 -28t115.5 -8q100 0 182.5 20t142.5 43q70 28 127 63 " />
        <path
           id="path1554"
           transform="translate(31.594970,0.000000)scale(0.003445, -0.003445)"
           style="stroke-width:0.7937in"
           d="M777 753q-45 79 -96.5 116t-110.5 37q-89 0 -188.5 -78.5t-202.5 -219.5q-41 -56 -69.5 -118t-44 -122.5t-17.5 -115.5t10 -96.5t38 -66t67 -24.5q47 0 112 36.5t150 120.5q78 77 136.5 151t101.5 142.5t71.5 131t46.5 115.5q43 125 45 233q-11 -123 -12 -266 q-2 -123 6 -282t35 -336q27 -176 54.5 -333t38 -297t-5 -263.5t-73.5 -231.5q-32 -60 -77 -105t-95.5 -75t-103 -45t-99.5 -15q-59 0 -104 23.5t-62 71t1.5 118.5t85.5 167 " />
        <path
           id="path1556"
           transform="translate(35.350124,0.000000)scale(0.003445, -0.003445)"
           style="stroke-width:0.7937in"
           d="M-3 424q246 93 403 176.5t217 146.5t20 100t-189 36q-94 -1 -168.5 -29t-129.5 -74.5t-90.5 -107.5t-50 -126.5t-8.5 -132t33.5 -124t76.5 -101.5t120 -66q63 -20 122.5 -28t115.5 -8q100 0 182.5 20t142.5 43q70 28 127 63 " />
        <path
           id="path1558"
           transform="translate(39.036376,0.000000)scale(0.003445, -0.003445)"
           style="stroke-width:0.7937in"
           d="M-369 619q119 49 258 78.5t283.5 50t288.5 35.5t273.5 35.5t238 50.5t182.5 80 M453 1412q-8 -76 -13 -184.5t-7.5 -234.5t-2.5 -261.5t2 -265.5t5.5 -246.5t7.5 -205.5 " />
        <path
           id="path1560"
           transform="translate(46.226290,0.000000)scale(0.003445, -0.003445)"
           style="stroke-width:0.7937in"
           d="M39 1550q-12 -27 -22.5 -54.5t-18.5 -63.5t-13 -85t-6 -119t3 -165.5t13.5 -224t26.5 -295t41 -379.5q0 -1 0.5 23.5t6 66t17.5 96t35 114t59 119.5t89 112q44 42 90 60.5t93 18.5q62 0 120 -27t103.5 -66t74 -83.5t31.5 -80.5q3 -37 -20 -75.5t-65 -76t-98.5 -72.5 t-120 -65.5t-130.5 -56.5t-129.5 -44.5t-117 -28.5t-92.5 -10q-31 0 -49 7t-19.5 23t16 40.5t57.5 58.5 " />
        <path
           id="path1562"
           transform="translate(49.154621,0.000000)scale(0.003445, -0.003445)"
           style="stroke-width:0.7937in"
           d="M690 801q-29 84 -72.5 123t-97.5 39q-64 0 -137.5 -50.5t-150.5 -144.5q-47 -58 -89 -126t-73.5 -137.5t-49.5 -136t-18.5 -122.5t19.5 -96.5t66 -57.5q17 -6 35 -6q48 0 104 36t113.5 95t113.5 135t103 156t81 158t49 140q-1 0 -5 -37.5t-3.5 -99.5t9.5 -142.5t33 -167 t66.5 -172.5t111.5 -158 " />
        <path
           id="path1564"
           transform="translate(52.806422,0.000000)scale(0.003445, -0.003445)"
           style="stroke-width:0.7937in"
           d="M367 855q-39 69 -81.5 102t-84.5 33q-66 0 -123 -81t-88 -238q-20 -103 -15.5 -188t27.5 -153t61 -118t85.5 -83.5t100.5 -50t106 -16.5q62 0 118.5 22.5t97.5 66.5t61.5 110.5t9.5 153.5 " />
        <path
           id="path1566"
           transform="translate(55.355793,0.000000)scale(0.003445, -0.003445)"
           style="stroke-width:0.7937in"
           d="M10 1497q-33 -119 -37 -321q-2 -86 2.5 -198.5t19.5 -254.5t41.5 -314.5t69.5 -379.5 M541 1081q-77 -66 -134.5 -117.5t-102 -95t-79.5 -82.5t-66.5 -80.5t-63.5 -88t-71 -105.5q4 0 21.5 -14t59 -35t113 -46t183 -46t268 -35t368.5 -14t64.5 1 " />
        <path
           id="path1568"
           transform="translate(62.752412,0.000000)scale(0.003445, -0.003445)"
           style="stroke-width:0.7937in"
           d="M690 801q-29 84 -72.5 123t-97.5 39q-64 0 -137.5 -50.5t-150.5 -144.5q-47 -58 -89 -126t-73.5 -137.5t-49.5 -136t-18.5 -122.5t19.5 -96.5t66 -57.5q17 -6 35 -6q48 0 104 36t113.5 95t113.5 135t103 156t81 158t49 140q-1 0 -5 -37.5t-3.5 -99.5t9.5 -142.5t33 -167 t66.5 -172.5t111.5 -158 " />
        <path
           id="path1570"
           transform="translate(66.404214,0.000000)scale(0.003445, -0.003445)"
           style="stroke-width:0.7937in"
           d="M471 862q-25 25 -57 44.5t-68 32.5t-74 19.5t-74 6.5q-38 0 -73 -7.5t-62.5 -23t-45.5 -39t-24 -55.5q-5 -31 16 -68t59.5 -77t88.5 -82.5t102 -85.5t101.5 -85.5t86 -82.5t55 -77t9.5 -68q-10 -37 -32.5 -63t-53.5 -42.5t-68 -24t-77 -7.5q-54 0 -109 12.5t-102 33.5  " />
        <path
           id="path1572"
           transform="translate(72.526148,0.000000)scale(0.003445, -0.003445)"
           style="stroke-width:0.7937in"
           d="M471 862q-25 25 -57 44.5t-68 32.5t-74 19.5t-74 6.5q-38 0 -73 -7.5t-62.5 -23t-45.5 -39t-24 -55.5q-5 -31 16 -68t59.5 -77t88.5 -82.5t102 -85.5t101.5 -85.5t86 -82.5t55 -77t9.5 -68q-10 -37 -32.5 -63t-53.5 -42.5t-68 -24t-77 -7.5q-54 0 -109 12.5t-102 33.5  " />
        <path
           id="path1574"
           transform="translate(75.213322,0.000000)scale(0.003445, -0.003445)"
           style="stroke-width:0.7937in"
           d="M14 724q-12 -172 -9.5 -297t22 -206.5t59 -120.5t102.5 -39q7 0 14 0.5t15 1.5q72 9 116.5 62.5t67.5 131t28.5 168t0.5 174.5q-7 104 -35 181t-68 128t-86 76.5t-89 25.5q-40 0 -73 -22t-50 -65t-14.5 -107.5t33.5 -149.5 " />
        <path
           id="path1576"
           transform="translate(77.452634,0.000000)scale(0.003445, -0.003445)"
           style="stroke-width:0.7937in"
           d="M14 724q-12 -172 -9.5 -297t22 -206.5t59 -120.5t102.5 -39q7 0 14 0.5t15 1.5q72 9 116.5 62.5t67.5 131t28.5 168t0.5 174.5q-7 104 -35 181t-68 128t-86 76.5t-89 25.5q-40 0 -73 -22t-50 -65t-14.5 -107.5t33.5 -149.5 " />
        <path
           id="path1578"
           transform="translate(79.691946,0.000000)scale(0.003445, -0.003445)"
           style="stroke-width:0.7937in"
           d="M-39 1057q6 -108 14.5 -232t22.5 -255t34.5 -265.5t49.5 -265.5q0 -1 -3 30.5t-2.5 86.5t7.5 129.5t25.5 158t52.5 171.5t89 172q78 119 144 170t119 51q38 0 69.5 -23t56 -63t42.5 -93.5t28 -113.5q17 -99 32.5 -185.5t32.5 -156t38.5 -120.5t50.5 -78 " />
        <path
           id="path1580"
           transform="translate(86.561467,0.000000)scale(0.003445, -0.003445)"
           style="stroke-width:0.7937in"
           d="M690 801q-29 84 -72.5 123t-97.5 39q-64 0 -137.5 -50.5t-150.5 -144.5q-47 -58 -89 -126t-73.5 -137.5t-49.5 -136t-18.5 -122.5t19.5 -96.5t66 -57.5q17 -6 35 -6q48 0 104 36t113.5 95t113.5 135t103 156t81 158t49 140q-1 0 -5 -37.5t-3.5 -99.5t9.5 -142.5t33 -167 t66.5 -172.5t111.5 -158 " />
        <path
           id="path1582"
           transform="translate(90.213268,0.000000)scale(0.003445, -0.003445)"
           style="stroke-width:0.7937in"
           d="M471 862q-25 25 -57 44.5t-68 32.5t-74 19.5t-74 6.5q-38 0 -73 -7.5t-62.5 -23t-45.5 -39t-24 -55.5q-5 -31 16 -68t59.5 -77t88.5 -82.5t102 -85.5t101.5 -85.5t86 -82.5t55 -77t9.5 -68q-10 -37 -32.5 -63t-53.5 -42.5t-68 -24t-77 -7.5q-54 0 -109 12.5t-102 33.5  " />
        <path
           id="path1584"
           transform="translate(96.335202,0.000000)scale(0.003445, -0.003445)"
           style="stroke-width:0.7937in"
           d="M-76 1010q60 -163 127 -308t135.5 -271t135.5 -231.5t127 -188.5 M655 1122q-55 -152 -94 -275t-65.5 -229t-43 -200.5t-27 -190t-17 -197.5t-13.5 -222q-10 -182 -8 -347.5t7 -294.5q7 -150 19 -281 " />
        <path
           id="path1586"
           transform="translate(99.769962,0.000000)scale(0.003445, -0.003445)"
           style="stroke-width:0.7937in"
           d="M14 724q-12 -172 -9.5 -297t22 -206.5t59 -120.5t102.5 -39q7 0 14 0.5t15 1.5q72 9 116.5 62.5t67.5 131t28.5 168t0.5 174.5q-7 104 -35 181t-68 128t-86 76.5t-89 25.5q-40 0 -73 -22t-50 -65t-14.5 -107.5t33.5 -149.5 " />
        <path
           id="path1588"
           transform="translate(102.009274,0.000000)scale(0.003445, -0.003445)"
           style="stroke-width:0.7937in"
           d="M11 880q4 -101 2 -198.5t-5.5 -184t-5.5 -159.5t3 -126.5t20 -83t44 -29.5q4 0 7 0.5t7 1.5q35 7 68 49t65 108t63.5 150.5t62.5 176t61 185.5t60 179q2 0 -5 -26.5t-16 -72.5t-17.5 -107.5t-9.5 -132.5t8.5 -147t36.5 -151t74 -144.5t121 -127.5 " />
      </g>
      <g
         id="g1600"
         transform="translate(28.7261890,116.3273700)">
        <path
           id="path1592"
           transform="translate(0.000000,0.000000)scale(0.003445, -0.003445)"
           style="stroke-width:0.7937in"
           d="M840 1343q-11 111 -34.5 195t-56 140.5t-73 85t-85.5 28.5q-69 0 -142 -67.5t-141 -207.5q-52 -107 -92 -219t-67 -223.5t-39.5 -220.5t-8.5 -208.5t25 -188.5t62 -160q27 -47 71.5 -87t101 -69t122 -45t134.5 -16q87 0 174 30t160.5 97t127.5 175.5t76 265.5 " />
        <path
           id="path1594"
           transform="translate(4.754232,0.000000)scale(0.003445, -0.003445)"
           style="stroke-width:0.7937in"
           d="M690 801q-29 84 -72.5 123t-97.5 39q-64 0 -137.5 -50.5t-150.5 -144.5q-47 -58 -89 -126t-73.5 -137.5t-49.5 -136t-18.5 -122.5t19.5 -96.5t66 -57.5q17 -6 35 -6q48 0 104 36t113.5 95t113.5 135t103 156t81 158t49 140q-1 0 -5 -37.5t-3.5 -99.5t9.5 -142.5t33 -167 t66.5 -172.5t111.5 -158 " />
        <path
           id="path1596"
           transform="translate(8.406033,0.000000)scale(0.003445, -0.003445)"
           style="stroke-width:0.7937in"
           d="M-39 1057q6 -108 14.5 -232t22.5 -255t34.5 -265.5t49.5 -265.5q0 -1 -3 30.5t-2.5 86.5t7.5 129.5t25.5 158t52.5 171.5t89 172q78 119 144 170t119 51q38 0 69.5 -23t56 -63t42.5 -93.5t28 -113.5q17 -99 32.5 -185.5t32.5 -156t38.5 -120.5t50.5 -78 " />
        <path
           id="path1598"
           transform="translate(11.840793,0.000000)scale(0.003445, -0.003445)"
           style="stroke-width:0.7937in"
           d="M278 90q-9 8 -9.5 15t4 12.5t12.5 9t15 3.5q11 0 16 -8.5t-6 -31.5 " />
      </g>
      <g
         id="g1622"
         transform="translate(28.7261890,142.7857100)">
        <path
           id="path1602"
           transform="translate(0.000000,0.000000)scale(0.003445, -0.003445)"
           style="stroke-width:0.7937in"
           d="M1197 1706q-54 62 -115 105t-125 71t-128.5 40.5t-126.5 12.5q-95 0 -177 -26.5t-139 -73.5q-65 -53 -83 -103.5t10.5 -111.5t103.5 -139t195 -187q60 -54 133 -122t149 -143.5t150.5 -156t137.5 -161t110 -157.5t68 -145t12 -125t-59 -97q-72 -58 -178 -86.5t-226 -28.5 q-104 0 -212 21t-206 61.5t-180.5 100.5t-136.5 138q-56 82 -71.5 146t-4 113t43 85t69 61.5t73.5 42.5t57 28 " />
        <path
           id="path1604"
           transform="translate(5.718858,0.000000)scale(0.003445, -0.003445)"
           style="stroke-width:0.7937in"
           d="M79 1517q-10 7 -12.5 13.5t1 11t10.5 7t14 2.5q12 0 20 -7.5t0 -26.5 M-63 990q23 -86 41.5 -163.5t33.5 -151.5t27 -147.5t22.5 -151.5t20 -163.5t19.5 -183.5 " />
        <path
           id="path1606"
           transform="translate(7.165798,0.000000)scale(0.003445, -0.003445)"
           style="stroke-width:0.7937in"
           d="M-39 1057q6 -108 14.5 -232t22.5 -255t34.5 -265.5t49.5 -265.5q0 -1 -3 30.5t-2.5 86.5t7.5 129.5t25.5 158t52.5 171.5t89 172q78 119 144 170t119 51q38 0 69.5 -23t56 -63t42.5 -93.5t28 -113.5q17 -99 32.5 -185.5t32.5 -156t38.5 -120.5t50.5 -78 " />
        <path
           id="path1608"
           transform="translate(10.600558,0.000000)scale(0.003445, -0.003445)"
           style="stroke-width:0.7937in"
           d="M367 855q-39 69 -81.5 102t-84.5 33q-66 0 -123 -81t-88 -238q-20 -103 -15.5 -188t27.5 -153t61 -118t85.5 -83.5t100.5 -50t106 -16.5q62 0 118.5 22.5t97.5 66.5t61.5 110.5t9.5 153.5 " />
        <path
           id="path1610"
           transform="translate(13.149929,0.000000)scale(0.003445, -0.003445)"
           style="stroke-width:0.7937in"
           d="M-3 424q246 93 403 176.5t217 146.5t20 100t-189 36q-94 -1 -168.5 -29t-129.5 -74.5t-90.5 -107.5t-50 -126.5t-8.5 -132t33.5 -124t76.5 -101.5t120 -66q63 -20 122.5 -28t115.5 -8q100 0 182.5 20t142.5 43q70 28 127 63 " />
        <path
           id="path1612"
           transform="translate(16.836181,0.000000)scale(0.003445, -0.003445)"
           style="stroke-width:0.7937in"
           d="M43 905q2 -108 11 -219.5t29 -217t52 -201.5t79 -173q2 1 -5.5 19t-15.5 50.5t-11.5 78.5t6.5 102.5t38.5 122.5t84.5 138q59 77 122 134.5t116 97.5q62 46 121 79 " />
        <path
           id="path1614"
           transform="translate(19.626708,0.000000)scale(0.003445, -0.003445)"
           style="stroke-width:0.7937in"
           d="M-3 424q246 93 403 176.5t217 146.5t20 100t-189 36q-94 -1 -168.5 -29t-129.5 -74.5t-90.5 -107.5t-50 -126.5t-8.5 -132t33.5 -124t76.5 -101.5t120 -66q63 -20 122.5 -28t115.5 -8q100 0 182.5 20t142.5 43q70 28 127 63 " />
        <path
           id="path1616"
           transform="translate(23.312960,0.000000)scale(0.003445, -0.003445)"
           style="stroke-width:0.7937in"
           d="M-14 1506q-7 -94 -11 -215t-1 -258t14.5 -284.5t35.5 -296t62 -292t93 -271.5 " />
        <path
           id="path1618"
           transform="translate(24.759901,0.000000)scale(0.003445, -0.003445)"
           style="stroke-width:0.7937in"
           d="M-76 1010q60 -163 127 -308t135.5 -271t135.5 -231.5t127 -188.5 M655 1122q-55 -152 -94 -275t-65.5 -229t-43 -200.5t-27 -190t-17 -197.5t-13.5 -222q-10 -182 -8 -347.5t7 -294.5q7 -150 19 -281 " />
        <path
           id="path1620"
           transform="translate(28.194661,0.000000)scale(0.003445, -0.003445)"
           style="stroke-width:0.7937in"
           d="M215 215q32 -66 50.5 -135.5t14 -145t-37 -157t-101.5 -171.5 " />
      </g>
      <g
         id="g1634"
         transform="translate(28.7261890,169.2440300)">
        <path
           id="path1624"
           transform="translate(0.000000,0.000000)scale(0.003445, -0.003445)"
           style="stroke-width:0.7937in"
           d="M68 587q51 -10 100 -20t104 -10q35 0 72.5 5.5t79.5 19.5t90 37.5t102 59.5 " />
        <path
           id="path1626"
           transform="translate(2.859429,0.000000)scale(0.003445, -0.003445)"
           style="stroke-width:0.7937in"
           d="M261 1622q244 27 514 57.5t550.5 59.5t563 55t551.5 45 M1126 1825q3 -136 6 -243.5t5.5 -200t3.5 -176t-1.5 -171t-8 -185.5t-16.5 -219q-13 -151 -48.5 -255t-89 -168.5t-124.5 -93.5t-156 -29q-68 0 -150 17q-115 25 -205 56t-144 70t-67 87t25 106 " />
        <path
           id="path1628"
           transform="translate(8.095974,0.000000)scale(0.003445, -0.003445)"
           style="stroke-width:0.7937in"
           d="M14 724q-12 -172 -9.5 -297t22 -206.5t59 -120.5t102.5 -39q7 0 14 0.5t15 1.5q72 9 116.5 62.5t67.5 131t28.5 168t0.5 174.5q-7 104 -35 181t-68 128t-86 76.5t-89 25.5q-40 0 -73 -22t-50 -65t-14.5 -107.5t33.5 -149.5 " />
        <path
           id="path1630"
           transform="translate(10.335286,0.000000)scale(0.003445, -0.003445)"
           style="stroke-width:0.7937in"
           d="M-48 1376q14 -77 27 -183t22.5 -227t16 -250t8 -253.5t-2 -237.5t-13.5 -201q1 -1 8.5 25.5t27.5 75.5t54 117t88.5 149.5t131.5 173.5t182 188q104 96 176.5 137t120.5 41t74.5 -35t38.5 -91t12.5 -125.5t-2.5 -138.5q-5 -103 -6.5 -193.5t-1.5 -158.5q1 -79 3 -146  " />
        <path
           id="path1632"
           transform="translate(13.952636,0.000000)scale(0.003445, -0.003445)"
           style="stroke-width:0.7937in"
           d="M-39 1057q6 -108 14.5 -232t22.5 -255t34.5 -265.5t49.5 -265.5q0 -1 -3 30.5t-2.5 86.5t7.5 129.5t25.5 158t52.5 171.5t89 172q78 119 144 170t119 51q38 0 69.5 -23t56 -63t42.5 -93.5t28 -113.5q17 -99 32.5 -185.5t32.5 -156t38.5 -120.5t50.5 -78 " />
      </g>
    </g>
  </g>
</svg>
