<?xml version="1.0" standalone="no"?>
<!DOCTYPE svg PUBLIC "-//W3C//DTD SVG 1.1//EN" "http://www.w3.org/Graphics/SVG/1.1/DTD/svg11.dtd" >
<svg xmlns="http://www.w3.org/2000/svg" xmlns:xlink="http://www.w3.org/1999/xlink" version="1.1">
<metadata>
Created by FontForge 20191125 at Fri Jul 26 12:33:23 2019
 By convertio
Copyright: Megan Rikli
</metadata>
<defs>
<font id="QEMeganRikli" horiz-adv-x="997" >
  <font-face 
    font-family="QEMeganRikli"
    font-weight="400"
    font-stretch="normal"
    units-per-em="3072"
    panose-1="0 0 4 0 0 0 0 0 0 0"
    ascent="2457"
    descent="-615"
    x-height="885"
    cap-height="1766"
    bbox="-930 -1990 5812 2735"
    underline-thickness="160"
    underline-position="-480"
    unicode-range="U+001D-266B"
  />
<missing-glyph horiz-adv-x="2003" 
 />
    <glyph glyph-name=".notdef" horiz-adv-x="2003" 
 />
    <glyph glyph-name="uni0000" horiz-adv-x="0" 
 />
    <glyph glyph-name="uni0000" horiz-adv-x="0" 
 />
    <glyph glyph-name="uni000D" horiz-adv-x="613" 
 />
    <glyph glyph-name="space" unicode=" " 
 />
    <glyph glyph-name="exclam" unicode="!" horiz-adv-x="990" 
d="M831 2175q46 -7 46 -46q-254 -928 -509 -1342h-46v139q0 62 278 763q138 434 231 486zM276 255q115 -33 115 -162q0 -61 -162 -93q-69 90 -69 139q0 61 116 116z" />
    <glyph glyph-name="quotedbl" unicode="&#x22;" horiz-adv-x="810" 
d="M876 1815q42 -6 42 -41l-124 -622h-63q-51 42 -62 42q77 621 145 621h62zM545 1753h21q31 0 62 -83q-83 -580 -145 -580h-42q-41 0 -41 41v104l62 290l-21 145q92 83 104 83z" />
    <glyph glyph-name="numbersign" unicode="#" horiz-adv-x="1900" 
d="M1235 1445h63q42 -7 42 -42v-42q-126 -190 -126 -272l21 -42l105 21h335q30 0 63 -63q0 -52 -586 -105q-84 -205 -84 -251v-42h398q42 -6 42 -42q0 -73 -503 -125q-72 -398 -146 -398q-31 0 -63 63v42q0 62 63 251l-42 21q-231 0 -231 -377l-63 -42h-41q-42 0 -42 42
q42 251 42 272h-42l-231 -63q-41 51 -41 84q0 121 355 147q79 86 147 335q-21 0 -21 21q-423 -84 -586 -210h-21q-42 0 -42 42v84q74 116 733 230q101 377 167 377h42q84 -34 84 -147q-126 -135 -126 -146v-21l21 -42q141 0 252 377q48 63 62 63zM733 544h126q55 0 125 335
h-42q-152 0 -209 -335z" />
    <glyph glyph-name="dollar" unicode="$" horiz-adv-x="1330" 
d="M921 1825h65q50 0 66 -109q-88 -153 -88 -218q133 0 197 -218q-43 -100 -88 -109q-65 169 -130 196h-44l-218 -611v-43q349 -332 349 -350v-109q-90 -130 -262 -130h-44l-261 21q-72 -545 -218 -545h-22q-32 0 -66 65v22q0 66 175 502q0 41 -197 174l-65 88v87
q0 31 65 65h44q26 0 87 -174l66 -44h43q44 0 109 284q0 40 -196 283q-65 110 -65 175v44q0 254 567 349q94 290 131 305zM354 1192v-65q124 -205 196 -262h44q0 93 152 502h-22q-213 0 -370 -175zM615 560q-87 -161 -87 -262l218 -22h87v22q0 140 -218 262z" />
    <glyph glyph-name="percent" unicode="%" horiz-adv-x="1590" 
d="M997 1955q121 -70 121 -181q-23 -487 -745 -1511l-81 -201q0 -61 -60 -61l40 -141l-60 -40h-61q-31 0 -80 81v141q456 657 685 1047q168 349 221 624l-20 101h-161q-235 -140 -483 -342q40 -74 40 -162q0 -168 -282 -241h-20q-101 80 -101 181v20q0 290 443 524
q144 0 403 161h201zM91 1250q20 0 20 -20q92 39 101 80v41l-40 60q-81 -12 -81 -161zM1199 847h20q181 -120 181 -322q0 -323 -423 -403q-181 40 -181 101v201l181 343q81 80 222 80zM1098 706l-40 -60q0 -46 20 -81q-121 -155 -121 -221v-20q6 -41 40 -41q186 0 282 222v40
q0 161 -181 161z" />
    <glyph glyph-name="ampersand" unicode="&#x26;" horiz-adv-x="1260" 
d="M866 1875h21q31 0 65 -64q-43 -670 -43 -729q107 0 150 -279q-106 0 -300 -1114q21 -116 21 -193q-43 -86 -128 -86q-43 54 -43 64v450q86 79 171 643l-43 22q-114 -64 -343 -129h-107q-29 0 -107 107v65l22 107q-322 107 -322 214q0 252 472 343q450 76 450 150
q0 429 64 429zM73 1018v-22q38 -107 193 -107h64q73 0 407 107v172q0 43 -64 43q-600 -90 -600 -193zM373 675q7 -43 43 -43q179 12 450 193v21h-64q-271 -86 -429 -171z" />
    <glyph glyph-name="quotesingle" unicode="'" horiz-adv-x="550" 
d="M333 1675q38 0 66 -111q-27 -464 -111 -464h-44q-44 0 -44 66q44 50 66 443z" />
    <glyph glyph-name="parenleft" unicode="(" horiz-adv-x="930" 
d="M552 1855h41q30 0 62 -61v-41q-512 -432 -512 -1044q0 -391 491 -655q123 0 123 -144l-41 -20h-102q-362 147 -430 307q-164 353 -164 450v287l164 471q138 253 368 450z" />
    <glyph glyph-name="parenright" unicode=")" horiz-adv-x="750" 
d="M162 1715h60q114 -61 325 -750q61 -197 61 -325q-70 -770 -548 -770l-20 41v40q340 261 385 385q41 185 41 203l-21 101l21 41q0 207 -284 811q-29 0 -61 61v121q6 41 41 41z" />
    <glyph glyph-name="asterisk" unicode="*" horiz-adv-x="1700" 
d="M1110 2115q39 -6 39 -39q-39 -286 -39 -314v-19h19q187 176 294 176q31 0 79 -78q0 -32 -255 -157q-78 -58 -78 -78v-40q174 0 391 -293l-58 -40h-20q-263 216 -450 216l-79 -411l39 -79q-19 -176 -137 -176q-32 46 -59 157q20 42 79 391v59h-20q-463 -294 -607 -294h-59
q-39 0 -39 40v78q0 30 78 78h79q10 0 58 -39l255 137q163 118 196 118v39q-135 120 -333 235v78q0 28 59 59h59q160 -160 333 -235q30 80 98 431h78z" />
    <glyph glyph-name="plus" unicode="+" horiz-adv-x="1100" 
d="M560 985q44 -7 44 -45v-45l-22 -156l45 -23h224q35 0 89 -89v-23q0 -44 -45 -44h-223l-112 -23v-403q0 -116 -67 -134h-90q-45 0 -45 45v45q67 315 67 425l-44 22q-201 -89 -314 -89q-67 73 -67 112q43 102 90 112h201l157 22v67q0 174 112 224z" />
    <glyph glyph-name="comma" unicode="," horiz-adv-x="652" 
d="M249 245q42 0 63 -168q-24 -356 -192 -491q-42 0 -42 42v126q108 491 171 491z" />
    <glyph glyph-name="hyphen" unicode="-" horiz-adv-x="1370" 
d="M1027 780h96q47 -8 47 -48q-37 -84 -857 -238q0 -24 -24 -24h-48q-34 0 -71 71v24q15 70 857 215z" />
    <glyph glyph-name="hyphen" unicode="&#x2010;" horiz-adv-x="1370" 
d="M1027 780h96q47 -8 47 -48q-37 -84 -857 -238q0 -24 -24 -24h-48q-34 0 -71 71v24q15 70 857 215z" />
    <glyph glyph-name="period" unicode="." horiz-adv-x="720" 
d="M221 215h107q39 0 81 -81v-53l-54 -81q-215 14 -215 161z" />
    <glyph glyph-name="slash" unicode="/" horiz-adv-x="1150" 
d="M956 1935q47 -7 47 -48v-24l-549 -1146q-120 -200 -120 -383q48 -7 48 -47q-128 -209 -239 -287h-71q-41 0 -72 143q88 335 167 335q615 1280 789 1457z" />
    <glyph glyph-name="zero" unicode="0" horiz-adv-x="910" 
d="M569 1575q205 -158 205 -638q0 -433 -432 -797h-91q-205 0 -205 342q0 38 91 387h-23q-40 -23 -91 -23l-23 46v45q0 244 364 570q124 68 205 68zM387 1347l23 -159q-225 -475 -228 -797q75 -69 114 -69q365 268 365 706q-46 365 -114 365h-91zM159 1051v-45h23v45h-23z
" />
    <glyph glyph-name="one" unicode="1" horiz-adv-x="710" 
d="M485 1455q32 0 63 -84q-316 -1027 -316 -1097v-190q0 -33 -84 -84q-148 0 -148 127q232 563 401 1328h84z" />
    <glyph glyph-name="two" unicode="2" 
d="M468 1405h78q26 0 78 -117q0 -248 -331 -1015l624 176q39 -6 39 -39v-20q-80 -145 -468 -234q-15 0 -429 -156l-39 59v97q188 176 370 722q39 78 78 312v59h-58q-20 0 -351 -351q-49 0 -59 78q296 429 468 429z" />
    <glyph glyph-name="three" unicode="3" horiz-adv-x="1080" 
d="M518 1355h56q24 0 92 -92v-93q0 -81 -203 -350v-19h37q317 0 461 -166v-74q0 -213 -609 -406q-152 -37 -166 -37l-92 19q79 277 277 277l18 -37l-18 -37l37 -19q366 135 387 203v74q-103 56 -258 74q-226 -28 -443 -129h-19q-26 0 -55 55v19q0 39 295 221
q222 226 222 351v18h-19q-79 0 -313 -203h-37l-37 56v37q252 258 387 258z" />
    <glyph glyph-name="four" unicode="4" horiz-adv-x="1310" 
d="M1034 1815q78 -29 78 -59q0 -61 -156 -429l-156 -468v-39h293q39 -6 39 -39v-20q0 -58 -390 -78q-78 -82 -117 -449q19 -38 19 -58q-10 -176 -98 -176q-97 27 -97 137v136q69 85 156 391l-39 19q-289 0 -488 -78h-39q-39 0 -39 39v59q351 363 351 722l39 19h20
q28 0 58 -58v-78q0 -84 -175 -488h292q137 0 137 214q39 14 195 586q80 192 117 195z" />
    <glyph glyph-name="five" unicode="5" horiz-adv-x="1280" 
d="M1047 1365q27 0 56 -56v-37q-270 -169 -654 -169q-206 -280 -206 -411q149 112 262 112h112q355 -91 355 -337q0 -171 -224 -374q-168 -74 -374 -93q-262 56 -262 150q0 187 262 187q37 -6 37 -38q0 -28 -93 -112l37 -19h112q196 0 374 243q0 229 -299 262h-37
q-94 0 -393 -262h-56q-28 0 -56 75l262 617q0 126 56 150l187 -19h93q229 38 449 131z" />
    <glyph glyph-name="six" unicode="6" horiz-adv-x="1220" 
d="M510 1495q42 -7 42 -42v-42q-271 -721 -355 -1023v-146q7 -41 42 -41h83q32 0 188 354q287 460 480 460q84 -93 84 -105v-167q0 -224 -522 -647v-21q63 0 63 -41q0 -33 -84 -84h-83q-239 63 -376 125q-42 51 -42 84q0 292 313 1065l105 271h62zM552 326v-21
q397 250 397 459v42h-63q-334 -343 -334 -480z" />
    <glyph glyph-name="seven" unicode="7" horiz-adv-x="1150" 
d="M909 1535h41q29 0 60 -61v-80q-412 -703 -465 -1112l21 -141l-81 -61h-41q-80 33 -80 141v21q384 1000 384 1051h-21q-312 -81 -626 -142q-81 30 -81 61v60q6 41 40 41q476 0 849 222z" />
    <glyph glyph-name="eight" unicode="8" horiz-adv-x="910" 
d="M533 1655h76q155 0 209 -133v-151q-133 -221 -323 -456v-19q95 -296 95 -549q0 -176 -190 -247h-95q-265 0 -265 322q0 173 303 550q-19 259 -19 323q0 252 171 322q6 38 38 38zM438 1295l19 -114v-57h19q190 138 190 247q-38 96 -38 132h-57q-67 -14 -133 -208zM343 783
q-189 -269 -189 -361v-75q42 -95 189 -95h19q95 33 95 170v38q-45 323 -95 323h-19z" />
    <glyph glyph-name="nine" unicode="9" horiz-adv-x="1060" 
d="M561 1685q133 0 133 -95h57l76 57h19q37 0 76 -114q-171 -737 -304 -1198l19 -115q-32 -91 -76 -342l-57 -38h-38q-39 0 -39 38v95q0 193 191 818q0 61 57 247q-114 0 -114 152v19q-337 -342 -476 -342h-38q-43 0 -57 95q42 307 418 666q117 57 153 57zM123 1038h19
q140 31 476 419q-29 76 -57 76q-181 0 -419 -438q-19 -36 -19 -57z" />
    <glyph glyph-name="colon" unicode=":" horiz-adv-x="630" 
d="M274 855q99 -42 108 -87v-43q-35 -87 -152 -87h-21q-44 0 -44 43v109q0 49 109 65zM209 377h86q44 -7 44 -43v-109q0 -31 -65 -65h-87q-34 0 -87 87v43q1 30 109 87z" />
    <glyph glyph-name="semicolon" unicode=";" horiz-adv-x="700" 
d="M224 845q114 0 165 -91q0 -73 -183 -219q-73 18 -73 73q0 180 91 237zM235 254h20q88 0 102 -285q0 -184 -305 -469h-82v41q245 251 245 509q-21 110 -21 184z" />
    <glyph glyph-name="less" unicode="&#x3c;" horiz-adv-x="1070" 
d="M914 1495q20 -40 20 -62q-187 -388 -685 -665q0 -22 623 -623v-103q0 -42 -41 -42h-42q-496 555 -789 685v104q318 173 519 332q182 168 353 374h42z" />
    <glyph glyph-name="equal" unicode="=" horiz-adv-x="1250" 
d="M949 844q89 -33 89 -66v-23q0 -44 -44 -44h-45q-293 0 -815 -88l-44 66v44q45 89 110 89zM288 513l88 -44q298 22 441 22q243 -16 243 -88q0 -66 -243 -66q-73 0 -110 22q-366 -66 -441 -66h-22q-44 0 -44 44v44q0 132 88 132z" />
    <glyph glyph-name="greater" unicode="&#x3e;" 
d="M104 1375q32 0 407 -222q291 -122 296 -148v-74q-431 -337 -536 -833q0 -123 -74 -148q-29 0 -74 74v148q69 216 370 666q12 0 74 93v18q0 50 -518 278q0 20 -19 55q36 85 74 93z" />
    <glyph glyph-name="question" unicode="?" horiz-adv-x="1177" 
d="M819 1855q202 0 227 -268q0 -142 -536 -824v-42q0 -69 62 -144v-20q0 -42 -42 -42q-164 0 -164 165v124q494 652 494 742q21 0 21 20v62q-34 83 -144 83h-42q-242 -78 -433 -206h-20q-30 0 -62 61v42q116 132 577 247h62zM469 227h20q111 0 144 -83v-62q-33 -82 -144 -82
h-20q-33 0 -83 82v62q0 32 83 83z" />
    <glyph glyph-name="at" unicode="@" horiz-adv-x="1730" 
d="M1285 1160q285 0 285 -419v-114q0 -464 -514 -666h-95q-152 0 -152 153v133h-19q-33 0 -152 -171q-53 -76 -133 -76q-28 0 -57 57v152q0 260 418 609h114q133 -110 133 -343v-19q-171 -79 -171 -323v-19l38 -19q495 99 495 570v153q-38 209 -190 209q-636 0 -1047 -609
q-76 -146 -76 -228v-95q0 -272 419 -343q9 0 76 19l171 -19q182 0 381 133h38q38 -6 38 -38q0 -204 -609 -247v19l-38 -19q-449 0 -552 266q-76 141 -76 229h19l-19 38q57 340 304 589q543 438 971 438zM638 380v-57q149 130 190 285h-19q-51 -18 -171 -228z" />
    <glyph glyph-name="A" unicode="A" horiz-adv-x="1690" 
d="M1004 2215h62q71 0 103 -226v-205q0 -46 20 -82q-37 -121 -82 -451q-32 0 -62 -205q37 16 308 800q0 36 103 41l20 -41v-62q-390 -994 -390 -1271q0 -226 165 -226h20q265 62 410 185q62 0 62 -82q-226 -287 -595 -287q-122 0 -205 205q0 12 20 266q-325 -406 -574 -512
q0 -15 -123 -62h-82q-164 0 -164 185q0 113 513 1333q202 426 471 697zM984 2030q-389 -513 -800 -1661q21 -40 21 -61l-21 -41q21 -36 21 -82q-21 0 -21 -21h41q85 0 308 164q410 304 410 513q-82 0 -82 61v21q205 545 205 923v164q-72 20 -82 20z" />
    <glyph glyph-name="B" unicode="B" horiz-adv-x="1628" 
d="M1451 2030h75q140 0 249 -153v-171q0 -200 -547 -567q-83 -36 -90 -68q184 -96 355 -338q60 -150 -27 -341q53 0 122 56h40q42 -6 42 -43q-17 -48 -504 -255q-239 -175 -616 -175q-232 0 -471 151q-119 38 -134 97v77q37 71 117 98q69 0 210 -132l36 -18h31q0 50 300 934
q83 323 121 323l40 -80q-57 -284 -282 -1033v-144q5 0 71 -19q646 -13 781 389q-171 370 -501 370h-75q-42 0 -42 43v75q0 34 359 98q541 320 541 558q-47 145 -164 145h-75q-132 0 -485 -130l-279 -149q0 -26 -116 -115h-20q-30 0 -61 60v58q0 62 434 248q274 140 565 151z
" />
    <glyph glyph-name="C" unicode="C" horiz-adv-x="1085" 
d="M969 2215q139 -46 139 -254v-161q0 -358 -162 -577h-46q-46 0 -46 69q138 433 138 692l-46 23h-23q-284 -137 -785 -1430v-116q0 -197 116 -276q277 0 811 281q34 0 70 -69v-23q-475 -351 -835 -351q0 -23 -69 -23q-192 0 -231 254q0 629 692 1753q209 208 277 208z" />
    <glyph glyph-name="D" unicode="D" horiz-adv-x="3328" 
d="M1438 1792q891 0 1513 -767q131 -613 169 -576l158 6h41q42 -6 42 -41v-42q-258 -65 -286 -231q-77 -26 -336 -124q-269 -36 -973 -87q-41 68 -41 125q39 95 649 261l521 109l19 64q-80 935 -1268 1178q-271 0 -271 21q-571 -78 -1125 -292q-51 -133 -146 -146
q-95 41 -104 84q0 192 667 312q0 84 771 146zM1229 1584h21q33 0 84 -84q0 -174 -125 -1062q20 -131 20 -292l-62 -42h-83q-52 0 -63 84q63 231 188 1187l-21 188zM2405 181l-437 -96q645 42 927 135l29 100q-405 -112 -519 -139z" />
    <glyph glyph-name="E" unicode="E" horiz-adv-x="1180" 
d="M677 1895h116q30 0 77 -77v-39q0 -39 -58 -39q-63 39 -116 39h-39q-396 -102 -522 -329q95 -135 213 -135h116q138 39 155 39h58q28 0 58 -58v-39q0 -31 -252 -155q-339 -355 -348 -619v-193q70 -155 252 -155q525 146 793 329l38 -58v-39q-236 -217 -696 -348
q-19 -19 -155 -19h-38q-329 15 -329 251q0 20 19 20l-19 96v39q0 318 348 735q0 23 -213 97l-116 154v39q0 194 464 425q0 35 194 39z" />
    <glyph glyph-name="F" unicode="F" horiz-adv-x="2380" 
d="M2481 2355q42 -7 42 -42v-21q-147 -348 -273 -967v-42q406 42 547 42l21 -42v-21q0 -79 -547 -106q-126 -111 -229 -792q-88 -122 64 -27l252 138l77 -50v-42q-423 -232 -669 -391q-236 -132 -789 -67q-645 75 -872 685q-105 54 -105 168v42q7 42 42 42q85 0 336 -294
q280 -105 443 -206q509 -159 1046 -71q215 687 215 823h-21q-312 -84 -337 -84l-42 84q0 115 442 148q126 444 126 609v42l-631 -693l-21 42q0 112 379 504q399 455 399 589h105zM884 235q-442 139 -442 186h-106v-21q27 -98 551 -326l305 -47q436 41 591 107l42 25h-91
q-386 -71 -850 76z" />
    <glyph glyph-name="G" unicode="G" horiz-adv-x="1770" 
d="M1413 2185h45q242 0 292 -787q-143 -698 -270 -698q-45 -234 -67 -292l5 -253h22q237 315 360 315l23 -45v-22q-495 -470 -495 -540l22 -113q-40 -28 -292 -967q0 -218 -360 -518q-83 -45 -180 -45q-29 0 -135 158q0 418 540 1170q0 75 315 427q40 341 130 973h-23
q-20 0 -405 -585q-441 -473 -607 -518h-90q-113 0 -203 113v292q71 367 518 1103q526 832 855 832zM175 250v-112q45 -55 45 -90h45q208 0 428 247q394 353 765 1260q157 0 180 23q-33 495 -225 495q-251 0 -788 -788q-450 -830 -450 -1035zM1058 -452q-518 -693 -518 -1125
q44 -23 68 -23q239 0 450 788q67 326 67 337v23h-67z" />
    <glyph glyph-name="H" unicode="H" horiz-adv-x="1610" 
d="M743 2285h42q41 -6 41 -41v-21q-83 -378 -83 -581v-62q0 -20 -20 -20l20 -42v-41q0 -21 -20 -21q0 -21 20 -21l-20 -103v-63q0 -108 -21 -352l41 -21q660 797 747 1161h41q83 -21 83 -83q-166 -238 -415 -1513v-104l21 -145h21q112 0 352 249h21q42 0 42 -62
q-33 -119 -374 -373h-41q-166 0 -166 352v104q0 108 187 850v20h-21q-560 -642 -560 -746q-41 -741 -145 -1078q-109 -518 -456 -518h-103q-138 87 -187 269q41 256 207 684q93 155 311 394q290 338 290 539q42 1389 145 1389zM-65 -741q0 -21 104 -125q312 0 394 498
l124 829h-21q-332 -317 -601 -995v-207z" />
    <glyph glyph-name="I" unicode="I" horiz-adv-x="2200" 
d="M2008 1766h66q35 0 88 -87v-22q0 -821 -549 -1450v-44h22q316 97 571 308l44 -66q-186 -277 -835 -439q-535 -88 -592 -176h-22q-101 198 -330 198q-461 338 -461 988q11 0 66 44h44q88 0 110 -395q187 -440 395 -440q0 -66 220 -66q252 336 922 1406q219 237 241 241z
M1986 1591q-729 -972 -966 -1516h22q474 0 791 681q197 352 197 813z" />
    <glyph glyph-name="J" unicode="J" horiz-adv-x="637" 
d="M243 2215q40 0 83 -124q-42 -239 -42 -332q62 -1086 83 -1266l-21 -41q21 -64 21 -249l290 249q42 -7 42 -42v-41q-353 -291 -353 -498q-117 -1431 -809 -1431q-158 0 -207 228q0 524 871 1369l21 125v269q0 371 -62 1307q20 82 20 145q-20 177 -20 270zM-546 -1207v-83
q0 -104 104 -146q429 0 602 872q41 166 41 352v42l21 41h-42q-726 -743 -726 -1078z" />
    <glyph glyph-name="K" unicode="K" horiz-adv-x="1110" 
d="M1021 2275h85q126 -66 126 -253q0 -228 -865 -1118q-76 0 -105 -126q134 -591 359 -591q0 -160 421 -358q586 -232 717 -232h296l105 21l21 -43v-21q-28 -84 -190 -84h-105q-330 0 -970 274q-654 308 -654 633l-84 63q-21 -111 -21 -126q42 -240 42 -338v-105
q-10 -44 -106 -85q-63 77 -63 148v105l63 696q-30 0 -63 64v126q169 97 169 359q42 106 105 738l42 21q43 0 43 -63q-127 -912 -127 -970h21q802 769 802 1075q-127 50 -127 85v42q0 30 63 63z" />
    <glyph glyph-name="L" unicode="L" horiz-adv-x="3910" 
d="M3712 2165q45 -55 45 -90q-42 -385 -655 -1535q-34 0 -135 -203v-23q0 -63 496 -90q354 -179 407 -226v-45q-464 203 -993 203q-62 0 -384 -406q-824 -790 -1648 -790v23l-45 -23q-24 0 -68 23l-112 -23q-482 0 -655 293v204q217 277 429 338q217 158 1264 406
q545 91 1083 91q492 562 813 1557h-23q-1040 -792 -1806 -1016q-228 -158 -496 -158h-68q-180 113 -180 316l90 68h23q135 -14 135 -68v-45q-68 0 -68 -45v-23q7 -45 45 -45h68q476 0 1851 835q522 497 587 497zM78 -634v-67q74 -226 722 -226q1038 0 1851 1038v45h-113
q-1417 0 -2325 -564q-135 -137 -135 -226z" />
    <glyph glyph-name="M" unicode="M" horiz-adv-x="5230" 
d="M225 2304q118 -32 118 -165q-65 -76 -95 -284q169 -876 853 -876q0 -24 118 -24q1013 151 1397 474q71 137 284 781l47 23h24q47 -7 47 -47v-213q0 -238 -308 -663q0 -46 -94 -284h23q804 921 1042 923h24q142 -82 142 -213v-94q0 -338 -332 -1160q109 0 663 544
q1488 1136 1563 1136h71v-118q-905 -1230 -1137 -2131q-94 -294 -118 -639q96 -923 450 -923v-24q0 -47 -48 -47h-94q-355 213 -355 639q-42 0 -48 119v497q83 444 166 568l-24 47q155 241 355 734q192 381 616 1018v47q-215 0 -1894 -1515q-219 -201 -331 -402l-48 -24h-47
q-34 0 -71 71q0 88 166 308q378 857 378 1255q-23 165 -71 165h-23q-516 -170 -1255 -1349q-133 -414 -189 -426q-46 -24 -71 -24l-71 95q0 14 378 710q142 319 142 426v24q-779 -426 -1420 -426h-71q-53 0 -95 23q-46 -23 -71 -23q-392 112 -544 378q-237 363 -237 592
q0 497 95 497z" />
    <glyph glyph-name="N" unicode="N" horiz-adv-x="3620" 
d="M2690 2485h46q32 0 68 -68q0 -46 -319 -591q-136 -312 -318 -910h23q846 1160 1409 1160q182 -59 182 -205v-68q0 -319 -591 -1432q0 -89 -204 -455q-114 -473 -114 -568q67 -523 205 -523q0 -31 181 -137v-68h-136q-364 250 -364 591v250q158 694 432 1092q0 66 364 886
q91 289 91 341q-28 205 -91 205h-23q-400 -134 -795 -546q-471 -516 -887 -1250q-159 -478 -228 -478h-45q-45 0 -45 46v68q99 292 159 386q239 306 409 933q182 449 182 523h-46q-336 -223 -1000 -319h-273q-643 0 -773 273q-159 301 -159 500q29 296 114 296h22
q33 0 69 -68v-46q-69 -97 -69 -182q0 -659 842 -659q1199 71 1455 614q174 400 227 409z" />
    <glyph glyph-name="O" unicode="O" horiz-adv-x="1730" 
d="M3455 2735h82q41 -6 41 -41v-62q0 -279 -740 -699q-823 -350 -1316 -494q0 -20 -21 -20l21 -103v-123q0 -646 -864 -1131q-219 -62 -370 -62q-237 0 -288 494q67 617 432 1110q241 274 391 370q0 220 287 453h21q195 0 288 -515q20 -178 82 -349q638 144 1440 514
q431 313 431 411q30 0 62 62q-20 113 -20 164zM987 2077h144q144 -74 144 -226v-41q0 -83 -41 -268h123v124q-87 514 -185 596h-41q-144 -103 -144 -185zM925 1851v-41q21 -247 206 -247h21q0 26 20 205q0 108 -103 165q-110 0 -144 -82zM123 452q0 -198 144 -287h185
q340 0 782 514q164 241 164 493v226q-41 0 -41 21l-205 -41q-329 76 -329 329q0 46 -21 82q-679 -556 -679 -1337z" />
    <glyph glyph-name="P" unicode="P" horiz-adv-x="2770" 
d="M1376 2400h238q393 0 1182 -332q264 -208 264 -343v-19q0 -272 -797 -619q-672 -295 -1144 -295q-24 0 -188 -784l-51 -25l-70 46q19 192 19 283v62q93 79 182 466q-35 45 -35 59v37q0 48 147 280q118 640 182 653l51 -26l-200 -892h238q440 0 1222 438q304 167 304 317
v19q0 252 -1088 517l-435 36q-40 -18 -256 -38v15q-998 -302 -998 -585q0 -126 -51 -126h-39q-68 23 -68 126v73q0 65 245 251q627 406 1146 406z" />
    <glyph glyph-name="Q" unicode="Q" horiz-adv-x="2090" 
d="M1000 2225h77q261 0 602 -641q175 -460 175 -640v-156q-32 -181 -117 -291v-19q78 -248 78 -350q-187 -718 -252 -718h-20l-39 19l175 602l-39 194h20q-20 34 -20 78h-39q-368 -291 -912 -291q-555 0 -641 388q-58 204 -58 291v39q0 253 485 971q40 217 389 485z
M728 1934v-39l349 214q-20 0 -58 19q-230 -78 -291 -194zM1194 2050v-58q-128 -363 -253 -505h-19v78q0 56 116 330v39q-255 -82 -524 -408q-39 -148 -58 -427q19 -119 19 -291h-38q-78 174 -78 310v175h-39q-200 -374 -214 -582q0 -324 292 -486q77 -38 213 -77q20 0 20 19
l97 -19h58q475 0 796 310v20q-168 330 -311 330q-63 0 -174 -78q-39 0 -39 58q0 143 233 156q147 0 388 -330q34 91 58 213q0 564 -407 1126q-78 97 -136 97z" />
    <glyph glyph-name="R" unicode="R" horiz-adv-x="2060" 
d="M1011 2015h125q1128 -163 1128 -814q0 -225 -627 -564q-260 -126 -606 -188q0 -63 -20 -63q27 -250 188 -250q525 0 835 313h42q41 -7 41 -42v-21q-347 -417 -1023 -417q-209 0 -209 480l-41 146v21q0 113 104 167h42q28 0 125 -167q373 0 835 334q188 204 188 292v21
q0 282 -668 564q-145 42 -251 42h-271q-287 0 -689 -293q-90 -97 -105 -292l-41 -21q-30 0 -63 63v125q0 317 961 564zM906 1347h21q42 -7 42 -42q-230 -893 -355 -1462q-21 0 -21 -21v-229q0 -30 -63 -63h-41q-42 0 -42 42q42 301 83 417q-21 37 -21 84q58 0 293 1086
q61 180 104 188z" />
    <glyph glyph-name="S" unicode="S" horiz-adv-x="1748" 
d="M1052 1855q0 -29 191 -76q133 -54 249 -211v-38q0 -28 -58 -57h-38q-158 248 -478 248q-172 0 -172 -210q0 -274 440 -1033l27 -117q221 -3 538 87h39v-57q-160 -173 -547 -162q-106 -229 -325 -229h-38q-598 0 -804 574l-76 210v38q0 30 76 77h39q76 -40 76 -96l-19 -38
q86 -421 612 -421h57q173 -9 238 -4l-8 42l-249 517q-186 385 -191 631v76q0 249 421 249zM688 191q12 -57 153 -57q192 15 192 76h-115z" />
    <glyph glyph-name="T" unicode="T" horiz-adv-x="1903" 
d="M2214 2305l40 -61v-20q0 -77 -303 -424q-222 -572 -384 -1375v-20l-32 -72l357 116l42 -1q17 -25 17 -59v-20l-505 -187q-113 -222 -324 -222h-121q-292 0 -910 425q0 19 -101 141v40q0 32 81 81h40q331 -384 647 -384h243q445 0 445 202l262 1031h-20
q-505 -525 -707 -687q0 -81 -61 -81q-40 0 -40 41v81q1031 938 1031 1132q192 323 303 323z" />
    <glyph glyph-name="U" unicode="U" horiz-adv-x="1720" 
d="M631 2565h42q42 -7 42 -42q0 -293 -379 -1409q-105 -260 -189 -651v-148h63q715 663 715 904l294 547q112 251 316 505h21q84 -32 84 -63q-205 -706 -673 -1220q-105 -311 -105 -504v-64q0 -252 273 -252q240 9 568 295q63 -21 63 -127q-378 -336 -715 -336
q-200 0 -315 294l42 442q-34 0 -526 -589l-147 -42q-105 84 -105 210q147 552 547 1787q37 463 84 463zM1219 1556h21q43 0 43 42v42q-32 0 -64 -84zM1177 1493v-21q42 0 42 42v21q-42 -7 -42 -42z" />
    <glyph glyph-name="V" unicode="V" horiz-adv-x="1210" 
d="M2282 2675q33 0 69 -68v-23q0 -33 -296 -91q-637 -662 -1022 -1477q-353 -586 -523 -977q-131 -159 -250 -159h-91q-159 99 -159 318v114q0 821 341 2295h45q68 0 68 -91q-340 -1391 -340 -2159q51 -272 113 -272h91q249 312 841 1431q46 6 454 659q398 500 568 500h91z
" />
    <glyph glyph-name="W" unicode="W" horiz-adv-x="2010" 
d="M2704 2463h22q32 0 67 -67v-22q0 -45 -44 -45q-43 22 -67 22q-211 0 -668 -979q-67 0 -445 -958q-118 -423 -357 -423q-133 142 -133 468q44 634 44 712h-44q-642 -1291 -980 -1291q-89 94 -89 178v22l423 1559q-32 0 -67 67v22q23 353 134 401h44l67 -45
q0 -362 -401 -1692l-22 -267q210 0 779 1024q179 402 268 690l44 23l67 -45q-156 -799 -156 -1403q14 -178 67 -178h44q90 62 602 1203q315 595 601 935q133 89 200 89z" />
    <glyph glyph-name="X" unicode="X" horiz-adv-x="1410" 
d="M1741 2635h68q46 -7 46 -46v-46q-524 -483 -938 -1304q-46 0 -46 -183q183 -365 366 -1121q-29 -115 -68 -115h-23q-92 0 -160 550q-196 545 -229 549h-46q-549 -1251 -709 -1671q-115 -408 -115 -572v-68q0 -284 115 -412q0 -46 -46 -46h-46q-160 170 -160 412
q0 419 549 1670q389 752 389 847v46q0 56 -252 869v23q8 46 46 46q198 -358 321 -755h22q217 331 412 686q238 394 504 641z" />
    <glyph glyph-name="Y" unicode="Y" horiz-adv-x="1429" 
d="M1568 2105q38 0 66 -111q-222 -491 -472 -1752l67 68q146 140 173 140h23q44 -7 44 -44v-44q-379 -293 -390 -412q-62 -40 -334 -1022q-385 -763 -533 -778q-178 80 -178 289v67q170 810 623 1377q123 166 329 371l226 873v23q-66 -13 -489 -645q-466 -533 -622 -533h-22
q-35 0 -89 89v111q0 224 444 1466q0 89 45 89h22q44 -7 44 -44v-45l-422 -1422q43 -22 67 -22q119 0 733 822q395 524 578 1089h67zM190 -1494v-112l22 -44q252 113 645 1355q22 231 22 267q-401 -463 -533 -844q-156 -408 -156 -622z" />
    <glyph glyph-name="Z" unicode="Z" horiz-adv-x="2000" 
d="M1280 2265q34 0 88 -88q0 -314 -154 -594v-154h22q117 88 198 88q308 -91 308 -462l22 -44q0 -22 -22 -22l22 -198q0 -76 -22 -462q22 -38 22 -87l263 219q44 -6 44 -44v-88q-95 -146 -439 -483l-242 -704l-352 -594l-198 -198h-22q-154 0 -154 264v44q0 432 902 1298
q-22 155 -22 264q110 192 110 505q-35 704 -264 704q-202 0 -462 -748q-94 -239 -132 -286q0 -49 22 -87q0 -132 -154 -132q-88 22 -88 88q88 263 418 901l220 858v44h-44q-378 -188 -814 -704q-272 -393 -308 -396h-44q-44 0 -44 44v66q529 724 1210 1188h110zM796 -1430
v-22h44q398 409 572 902q0 49 66 176h-44q-638 -547 -638 -1056z" />
    <glyph glyph-name="bracketleft" unicode="[" 
d="M854 2175l19 -38v-19q0 -58 -419 -152q-38 -33 -57 -285q-33 0 -186 -1692l38 -19q269 57 380 57h39q29 0 76 -76v-19q0 -61 -381 -95q0 -34 -209 -57q-78 26 -114 95q57 152 224 2015q-19 130 -19 209q76 38 76 57l133 -19h76q68 0 324 38z" />
    <glyph glyph-name="backslash" unicode="\" horiz-adv-x="1210" 
d="M128 1322q393 -780 917 -1215v-64q0 -43 -43 -43h-64q-202 16 -639 768q-155 240 -299 384q0 126 128 170z" />
    <glyph glyph-name="bracketright" unicode="]" 
d="M128 2065q195 -39 195 -58l156 39q19 0 19 -20l370 39q77 -29 77 -58v-59q-136 -343 -206 -1740q20 -201 78 -311q-33 -98 -97 -98q-20 0 -20 20l-116 -20l-117 20q-171 -39 -272 -39l-39 58v39q0 64 447 117v78q0 279 128 1798q-97 20 -97 39l-39 -19q-185 0 -506 -39
l-19 39v117q0 28 58 58z" />
    <glyph glyph-name="asciicircum" unicode="^" horiz-adv-x="719" 
d="M695 459l61 -24l2 -53q-318 -291 -618 -382q-140 21 -140 140v52q0 27 70 70h17q40 0 53 -88h69q73 0 486 285z" />
    <glyph glyph-name="underscore" unicode="_" horiz-adv-x="1670" 
d="M326 5l1121 10q40 0 102 -102v-102q0 -51 -76 -51q-67 0 -179 77l-1197 -10q-37 0 -77 76q0 102 306 102z" />
    <glyph glyph-name="grave" unicode="`" 
 />
    <glyph glyph-name="a" unicode="a" horiz-adv-x="953" 
d="M463 1005q141 0 141 -342q-121 -275 -121 -321q0 -108 81 -141h60q73 0 319 255l40 -61v-20q-136 -243 -379 -315h-101q-36 0 -161 181h-20l-281 -241h-101q-39 0 -80 121q0 203 221 502q178 318 362 382h20zM403 804q-374 -385 -402 -643h20q281 156 281 321
q86 91 141 302z" />
    <glyph glyph-name="b" unicode="b" horiz-adv-x="1114" 
d="M452 1355h20q28 0 60 -60q0 -39 -200 -378q-199 -374 -199 -439v-20h20q438 538 498 538h20q199 0 199 -398q-20 -137 -40 -180l35 -25q49 -33 231 51h20q40 -6 40 -40q-96 -162 -425 -185q-48 -104 -339 -199q-246 46 -299 100h-40q0 -120 -139 -120q-40 0 -40 40v80
q60 332 339 876q213 359 239 359zM193 299v-20h20q60 0 139 -20q339 0 339 159q60 78 60 120q-14 319 -80 319h-20q-171 -139 -458 -558z" />
    <glyph glyph-name="c" unicode="c" horiz-adv-x="856" 
d="M303 995q195 0 195 -156q-54 -390 -136 -390h-20q-28 0 -58 58v234q-215 -156 -215 -409q0 -98 195 -195q332 46 573 310h20q39 -6 39 -39v-19q-221 -369 -554 -369q0 -20 -19 -20q-371 0 -371 332h20l-20 39q0 347 351 624z" />
    <glyph glyph-name="d" unicode="d" horiz-adv-x="1050" 
d="M938 1375h61q41 -6 41 -41v-101q-285 -596 -387 -896v-41q7 -41 41 -41q179 49 326 184h20q41 -7 41 -41v-20q-262 -285 -387 -285h-102q-81 27 -81 183v40h-41q-144 -268 -427 -366h-62q-53 0 -81 143q57 443 529 1017l143 143h81q56 0 102 -204h20q90 268 163 326z
M572 1090q-405 -403 -550 -896q21 -39 21 -61h81q427 314 427 591q34 0 82 325z" />
    <glyph glyph-name="e" unicode="e" horiz-adv-x="909" 
d="M448 1015q42 -7 42 -42v-64q0 -235 -402 -550v-63q0 -169 190 -169q364 0 614 338q30 0 63 -63q-191 -402 -656 -402h-21q-251 0 -338 148v127q26 331 423 740h85z" />
    <glyph glyph-name="f" unicode="f" horiz-adv-x="617" 
d="M272 1557h66q44 -7 44 -44v-264l-242 -880v-22q0 -44 66 -44q225 0 406 158q32 0 66 -66v-22q-155 -168 -516 -224v-22q0 -49 44 -331q0 -666 -308 -1188q-184 -434 -396 -528q-132 45 -132 176v176q154 637 616 1805l-66 110v110q0 154 110 154h66q132 330 132 770v132
q7 44 44 44zM30 83q0 -66 -396 -1101q-154 -480 -154 -726q164 0 396 594q154 196 220 726q-22 192 -22 331v132q0 44 -44 44z" />
    <glyph glyph-name="g" unicode="g" horiz-adv-x="940" 
d="M549 995q20 0 125 -83q7 41 42 41q83 -31 83 -62v-21l-146 -626h21q37 0 251 223h41l21 -104q-438 -422 -438 -849q-151 -834 -521 -834q-188 76 -188 229v21q0 206 647 1064q62 228 62 396h-21q-343 -396 -500 -396h-21q-125 114 -125 250l187 355q265 396 480 396z
M49 202v-41q204 31 479 479l42 84l-21 104q-223 0 -438 -396q-62 -141 -62 -230zM-14 -1111l63 -42q266 0 396 834h-21q-438 -488 -438 -792z" />
    <glyph glyph-name="h" unicode="h" horiz-adv-x="1144" 
d="M354 1285h21q29 0 61 -61l-286 -714q24 0 367 449l82 61h41q29 0 61 -61v-102q-128 -302 -163 -510v-21q12 -48 143 -102q225 21 473 231l20 -40v-41q-158 -234 -493 -292q-137 0 -266 183v102q0 82 123 408h-21q-224 -240 -550 -775h-82q-29 0 -61 61v61l449 1020
q28 143 81 143z" />
    <glyph glyph-name="i" unicode="i" horiz-adv-x="698" 
d="M904 1695q84 0 128 -200q0 -37 -37 -37h-18q-14 0 -146 146v36q0 46 73 55zM321 1057h18q26 0 55 -55l-292 -510l-73 -237q40 -109 109 -109l37 18l36 -18q171 37 484 300q37 -6 37 -36v-37q-285 -335 -594 -373q-200 12 -200 164q0 431 383 893z" />
    <glyph glyph-name="j" unicode="j" horiz-adv-x="500" 
d="M291 1835h22q32 0 135 -135v-22q0 -45 -45 -45h-90q-35 0 -89 90v45q0 32 67 67zM134 1095q45 0 45 -67q-157 -779 -157 -964q164 0 448 403h45q32 0 67 -67q-302 -370 -627 -650q-135 -917 -404 -1323q-86 -67 -202 -67q-179 116 -179 381q0 538 673 1099
q112 585 201 1255h90zM-225 -362q0 -40 -314 -336q-168 -365 -179 -561q23 -39 45 -202h90q224 145 358 830q45 155 45 269h-45z" />
    <glyph glyph-name="k" unicode="k" horiz-adv-x="916" 
d="M217 1115h20l61 -61q-21 -139 -41 -182q20 -40 20 -61q-20 -40 -20 -61h20q171 162 345 162q142 -67 142 -263q-185 -284 -487 -284q0 -20 -60 -20q0 -35 101 -61q226 -148 604 173l20 -40v-61q-380 -362 -725 -214l-142 40q-15 -182 -162 -182l-41 61v40
q182 679 304 993zM298 527v-61h81q243 108 243 304h-41q-223 0 -283 -243z" />
    <glyph glyph-name="l" unicode="l" horiz-adv-x="606" 
d="M570 1775q20 -62 41 -62q0 -902 -392 -1218q0 -31 -145 -165v-103l83 -83q222 53 425 313h20q30 0 62 -62v-20q-159 -255 -404 -375h-206q-69 0 -124 289v41q62 310 227 785q145 366 248 557q66 103 165 103zM446 1507l-351 -929h21q371 242 371 929h-41z" />
    <glyph glyph-name="m" unicode="m" horiz-adv-x="1518" 
d="M442 935h57q63 0 76 -267l-76 -286h38q140 220 458 534h19q38 -6 38 -38v-77q-57 -52 -133 -458q0 -209 267 -209q49 0 312 325l52 -7l7 -48q-44 -185 -333 -404h-134q-267 36 -267 267v191q38 135 38 153v57h-19q-142 -253 -458 -649h-38q-48 0 -57 76q153 329 153 554
v114h-39q-259 -259 -381 -687q0 -27 -58 -57h-57q-27 0 -57 57q38 210 153 516q0 19 -19 19q57 305 95 305q76 -39 76 -95q0 -35 -38 -210q299 324 325 324z" />
    <glyph glyph-name="n" unicode="n" horiz-adv-x="917" 
d="M108 1060h19q28 0 59 -58q-72 -337 -72 -380q162 223 280 313h55q94 0 130 -676q80 -52 101 -52q105 135 221 253h20q29 0 59 -58v-20q-122 -154 -234 -301l-118 9q-184 0 -184 345q-18 295 -34 328q-134 0 -386 -641q0 -105 -93 -147h-21q-75 39 -75 96q54 71 233 969z
" />
    <glyph glyph-name="o" unicode="o" horiz-adv-x="680" 
d="M487 1095q39 0 39 -59q0 -30 -59 -593h19q11 0 196 10l19 -39v-39q-5 -46 -254 -89q-136 -286 -410 -286h-39q-98 50 -98 156v118q0 273 430 743q83 78 157 78zM389 899q-78 -240 -78 -293q19 -38 19 -58h20q78 0 78 273v78h-39zM154 548q-117 -228 -117 -372l39 -20h59
q26 0 195 196z" />
    <glyph glyph-name="p" unicode="p" horiz-adv-x="1089" 
d="M273 985q35 0 53 -107l-18 -107h36q0 47 160 161h36q178 -127 178 -463q0 -59 -89 -303h18q155 0 439 281q35 -6 35 -36v-36q-83 -284 -688 -387q-23 -18 -125 -18h-195q-65 0 -89 -284l-54 -36h-53q-36 0 -36 36v89l71 267v17q-142 138 -142 374q28 160 160 160
q89 -92 89 -160q43 55 160 516q9 0 54 36zM148 237v-17q0 -72 285 -72q127 77 178 321v35q0 78 -71 303h-36q-148 -27 -356 -570z" />
    <glyph glyph-name="q" unicode="q" horiz-adv-x="827" 
d="M481 1045q54 0 72 -144l54 36h36q36 -6 36 -36v-55q-198 -566 -198 -578h36q156 62 307 181q36 -6 36 -36v-36q-66 -78 -452 -307v-542q0 -581 -487 -958h-127q-41 0 -54 90q0 202 524 1355v36l-72 73l18 126h-18l-181 -180h-90q-30 0 -73 126q74 211 542 831zM47 286h18
q343 311 343 488v54h-18q-323 -395 -343 -542zM282 -147q-434 -951 -434 -1138h18l37 -19q433 337 433 994l-18 36q18 32 18 73v54h-54z" />
    <glyph glyph-name="r" unicode="r" horiz-adv-x="950" 
d="M360 1085q27 0 58 -58v-58q-97 -140 -97 -213l97 19h19q28 0 58 -58v-39q-150 -192 -155 -310v-135q0 -31 78 -78h58q155 0 468 289h20l19 -39v-19q-38 -101 -345 -325l-123 -42l-117 -19q-174 90 -174 233v251l39 59q0 27 -58 58q-157 -244 -182 -244q-28 0 -58 58v20
q181 244 181 301l155 349h59z" />
    <glyph glyph-name="s" unicode="s" horiz-adv-x="869" 
d="M551 1035q20 -38 20 -59l-59 -429l20 -39l-20 -117v-98l20 -39q308 192 342 192l20 -39v-39q-402 -368 -831 -368h-20q-228 0 -273 293q38 89 78 98h59q39 -7 39 -39q311 172 488 566q4 117 117 117zM24 234q102 -58 234 -58q137 0 137 293q0 97 -20 97
q-267 -222 -351 -332z" />
    <glyph glyph-name="t" unicode="t" horiz-adv-x="520" 
d="M386 1455h20q42 -6 42 -41v-63q0 -43 -146 -436q21 0 21 -21l104 21h250q41 -7 41 -42q0 -30 -62 -62h-166q-291 0 -291 -125q-59 -108 -146 -374q21 -146 62 -146h84q133 93 304 289q29 0 62 -63q-235 -392 -491 -392h-21q-125 73 -125 104v208q78 286 167 457h-21
q-205 -62 -291 -62l-21 41v21q0 74 416 146q157 520 208 540z" />
    <glyph glyph-name="u" unicode="u" horiz-adv-x="1093" 
d="M811 1019h40q29 0 60 -60v-21q-282 -451 -282 -581v-19q12 -109 53 -109h56q125 0 353 230h21q41 -6 41 -41v-39q-273 -327 -491 -327q-172 55 -172 249v14q-31 0 -437 -281q-30 0 -76 -38h-58q-29 0 -60 59v39q42 306 377 830l80 20l21 -41v-39q0 -46 -264 -508l-17 -88
q334 15 604 504z" />
    <glyph glyph-name="v" unicode="v" horiz-adv-x="1021" 
d="M611 1105h22q30 0 63 -64l-63 -318v-22q6 -42 88 -202l52 -51q118 0 263 16l22 -43v-42q-398 -173 -468 131h-42q-198 -331 -510 -510h-85q-43 0 -43 43v255q0 21 21 21l-21 42q149 536 298 659h21q33 0 85 -85l-213 -446q-63 -106 -63 -170v-128h21q425 214 425 744
q98 170 127 170z" />
    <glyph glyph-name="w" unicode="w" horiz-adv-x="1170" 
d="M1008 1005h38q27 0 57 -57q-57 -417 -152 -417q-292 -379 -512 -379q-38 0 -57 151h-19q-212 -255 -455 -303l-38 57v114q86 453 341 758h19q76 -38 76 -114q-43 0 -303 -587v-57h19q358 230 512 587l38 19h19q43 0 56 -94q-132 -225 -132 -361h57q249 157 379 380
l-19 132q19 171 76 171z" />
    <glyph glyph-name="x" unicode="x" 
d="M908 1135l19 -38v-58l-652 -748v-19q130 -115 365 -115l38 19q37 -19 58 -19q74 7 256 295q39 -6 39 -38v-77q-127 -295 -315 -295q-100 -19 -115 -19q-115 19 -115 38q-37 -19 -57 -19q-191 57 -230 134q-39 0 -365 -441q19 -33 19 -77l-57 -38h-38q-28 0 -58 58v76
q86 201 364 480v19q-123 151 -153 383q50 326 115 326h19q58 0 58 -76q-39 -263 -39 -288q30 -230 96 -230h39q387 425 613 748z" />
    <glyph glyph-name="y" unicode="y" horiz-adv-x="949" 
d="M621 985h18q44 0 57 -95q-38 -35 -132 -737l38 -19q190 191 326 310l47 -6l6 -62l-304 -336q-151 -101 -151 -511q0 -517 -265 -699h-37q-62 0 -76 246v56q0 299 265 776l56 378v37q-245 -356 -321 -378h-57q-139 0 -151 57q0 457 227 888h38q37 -5 37 -37v-19
q-170 -466 -170 -700q37 -19 57 -19q271 235 378 549q64 321 114 321zM261 -962h38q80 184 114 454q-19 36 -19 56q19 37 19 57h-19q-133 -214 -133 -567z" />
    <glyph glyph-name="z" unicode="z" horiz-adv-x="955" 
d="M348 885h63q30 0 63 -63v-231q77 63 147 63q84 -34 84 -147v-273q13 0 238 233q53 -28 53 -63v-21q-333 -283 -333 -632q-51 -385 -504 -1071h-63q-42 0 -63 210q128 685 525 1176v273l21 105h-21q-173 -78 -378 -546l-42 -21h-63q-36 0 -63 105q315 510 315 588v105h-63
q-208 -296 -241 -323q-36 13 -58 13v63q270 372 383 457zM201 -984q193 191 336 735h-21q-139 0 -315 -735z" />
    <glyph glyph-name="braceleft" unicode="{" horiz-adv-x="730" 
d="M463 1995q41 -6 41 -41v-83q-276 -148 -330 -288v-83q18 -55 310 -227q62 -126 62 -165v-82l-145 -186v-21q145 -15 145 -82v-83q-330 -207 -330 -350q0 -201 350 -330q0 -11 21 -83l-62 -41h-21q-412 76 -412 351v206l165 247q0 42 -165 145v82l309 165v42
q-92 131 -350 247l-21 41v207q0 206 371 412h62z" />
    <glyph glyph-name="bar" unicode="|" 
 />
    <glyph glyph-name="braceright" unicode="}" horiz-adv-x="640" 
d="M185 1985h20q142 0 330 -248v-103q0 -130 -309 -495l186 -124l20 -124q-124 -91 -124 -165q227 -93 227 -392q-96 -434 -185 -434h-62q-42 0 -42 41q0 57 104 310q20 26 20 144v21q-3 36 -247 248v144q41 52 41 62v62q-99 0 -124 165q0 101 330 496v82q-48 124 -165 124
q-30 0 -62 62v83q7 41 42 41z" />
    <glyph glyph-name="asciitilde" unicode="~" 
 />
    <glyph glyph-name="sterling" unicode="&#xa3;" horiz-adv-x="1750" 
d="M1031 1635l102 -122q0 -41 -41 -41q-107 20 -123 20q-225 -61 -305 -204q-102 -231 -102 -449q6 -40 40 -40h184l143 -21v-40q0 -41 -306 -82q0 -20 -21 -20q41 -209 41 -286q-41 -153 -41 -184h21q262 0 408 41q39 -20 61 -20l102 20l41 -20l122 20h61q151 0 163 -61
v-41q0 -41 -122 -61q-71 20 -82 20q-21 0 -61 -20l-245 20q-571 0 -917 -224q-113 0 -184 143v20q0 84 408 163l102 123v122l-20 204q-145 -41 -164 -41h-61q-41 0 -41 41v82q0 56 225 81q0 411 224 735q131 77 388 122z" />
    <glyph glyph-name="bullet" unicode="&#x2022;" horiz-adv-x="730" 
d="M298 945q137 0 235 -156v-157q-106 -182 -313 -182q-130 135 -130 234q0 131 208 261z" />
    <glyph glyph-name="endash" unicode="&#x2013;" 
d="M725 725l40 -59v-19q0 -74 -509 -117q0 -20 -58 -20h-39q-59 20 -59 117q9 41 98 78q19 0 19 -19z" />
    <glyph glyph-name="emdash" unicode="&#x2014;" horiz-adv-x="2060" 
d="M1838 715l59 -79v-39q-8 -40 -98 -78q-147 39 -177 39q-19 0 -19 -20q-157 40 -374 40q-209 -40 -275 -40h-275q-44 0 -78 -19q-20 0 -20 19q-239 -19 -373 -98q-118 20 -118 59v39q0 54 39 118q875 39 1415 39q17 0 157 -19q78 39 137 39z" />
    <glyph glyph-name="quotedblleft" unicode="&#x201c;" horiz-adv-x="830" 
d="M714 1815h48q34 0 71 -72q-89 -138 -167 -549l-48 -24q-35 0 -71 96q47 549 167 549zM475 1743q48 0 48 -71q0 -57 -72 -191q34 0 72 -72q-40 -108 -144 -167h-47q-35 0 -72 71v24q130 406 215 406z" />
    <glyph glyph-name="quotedblright" unicode="&#x201d;" horiz-adv-x="720" 
d="M378 1735q33 0 73 -147q48 24 74 24q0 -12 49 -74v-73q0 -146 -147 -246q-49 0 -49 74l-99 -74q-49 0 -49 49v49q74 418 148 418z" />
    <glyph glyph-name="quoteleft" unicode="&#x2018;" horiz-adv-x="540" 
d="M564 1865q49 -8 49 -50q-117 -695 -174 -695h-49q-50 0 -50 50v74q142 621 224 621z" />
    <glyph glyph-name="quoteright" unicode="&#x2019;" horiz-adv-x="580" 
d="M493 1795q38 0 80 -80v-53q-54 -372 -133 -372q-67 0 -80 106q35 399 133 399z" />
    <glyph glyph-name="onehalf" unicode="&#xbd;" horiz-adv-x="1850" 
d="M802 1695h40q40 -6 40 -40v-80q-501 -1307 -501 -1464q40 -66 40 -121q0 -80 -80 -120h-60q-104 0 -121 60l562 1665q0 59 80 100zM120 1635q32 0 80 -80v-141q0 -20 -20 -20l20 -40v-160l20 -201q-50 -40 -60 -40h-40q-60 0 -80 221q20 303 20 421q10 0 60 40z
M1063 1073h100q100 -51 100 -160v-20q0 -122 -280 -602v-20q431 20 621 20q81 -30 81 -60v-20q0 -40 -41 -40h-80q-410 0 -662 -100h-100q-29 0 -60 60q0 64 180 341q181 319 181 421q-20 0 -20 20q-42 -1 -181 -201h-60q-29 0 -60 60q0 138 281 301z" />
    <glyph glyph-name="onequarter" unicode="&#xbc;" horiz-adv-x="1520" 
d="M653 1815h40q41 -6 41 -41v-20q0 -256 -245 -877q-203 -585 -203 -653l20 -102l-82 -81h-81q-51 0 -61 81q265 706 428 1244q36 0 102 429zM41 1774h20q102 -46 102 -204v-122q0 -449 -81 -449h-21q-41 0 -41 41v469l-20 245zM1285 1448h41q40 -6 40 -41v-20
q-102 -227 -142 -653v-20q81 -10 81 -61q-143 -63 -143 -347v-20q0 -27 41 -225q-20 -61 -122 -61q-69 0 -102 143q0 34 61 428h-20q-151 0 -367 -82q-82 31 -82 62v61q171 148 286 489h81q41 0 41 -61q0 -23 -122 -326v-21h40q225 0 225 347q67 408 163 408z" />
    <glyph glyph-name="threequarters" unicode="&#xbe;" horiz-adv-x="1810" 
d="M344 1755q77 -26 112 -93v-75q0 -75 -149 -281q263 -68 299 -168v-37q0 -201 -580 -281q-56 19 -56 112q38 56 374 75q93 55 93 75q-25 75 -168 75h-37q-167 -56 -187 -56q-27 0 -56 56v56q232 168 261 224q0 18 75 112v56h-18q-110 0 -225 -74h-56q-37 0 -37 37v19
q199 168 355 168zM998 1662h19q27 0 56 -57q-122 -565 -262 -841q-187 -316 -280 -767q-47 -37 -56 -37h-94q-27 0 -56 56v37q175 262 486 1085q38 60 113 449zM1597 1362h18q38 0 38 -56q0 -34 -131 -542q19 0 19 -19l93 19q27 0 56 -56q0 -45 -224 -112l-56 -299
q18 -99 18 -187v-57q0 -26 -56 -56q-131 0 -131 131l75 430v19q-20 0 -56 19q-147 -75 -243 -75h-37q-27 0 -56 56v56q149 163 224 393l37 18h19q32 0 56 -112q-37 -115 -93 -224q18 0 18 -19l131 19h38q171 654 243 654z" />
    <glyph glyph-name="lira" unicode="&#x20a4;" 
 />
    <glyph glyph-name="Euro" unicode="&#x20ac;" horiz-adv-x="1510" 
d="M1091 1485q46 -76 46 -139q0 -36 -325 -186q-209 -223 -209 -325v-23h372q46 -7 46 -46v-23q0 -47 -232 -70q-23 0 -23 23q-302 0 -302 -162v-116q255 -24 255 -93q-56 -47 -93 -47v-69q209 -70 279 -70h93q225 47 255 47q46 -8 46 -47v-23q0 -100 -324 -116
q-490 0 -627 255q-175 -46 -325 -46l-23 46v47q0 62 325 116v185q0 47 -186 70v70q0 69 279 116q363 626 673 626z" />
    <glyph glyph-name="uni0394" unicode="&#x394;" horiz-adv-x="970" 
d="M612 1663q103 0 207 -166v-145q0 -29 -63 -62h-20l-124 207h-63q-103 -53 -103 -165v-228q0 -153 62 -165q83 104 83 124q-42 67 -42 103q41 95 83 104h42q29 0 62 -62v-83q0 -161 -228 -393q83 -273 83 -435v-62q-84 -145 -248 -145h-104q-228 62 -228 103v187
q62 174 332 393q-21 243 -21 352v103q0 47 -21 83q0 352 311 352zM156 318v-42l104 -20h62q107 0 124 62q-21 269 -83 269h-20q-187 -173 -187 -269z" />
    <glyph glyph-name="uni0394" unicode="&#x2206;" horiz-adv-x="970" 
d="M612 1663q103 0 207 -166v-145q0 -29 -63 -62h-20l-124 207h-63q-103 -53 -103 -165v-228q0 -153 62 -165q83 104 83 124q-42 67 -42 103q41 95 83 104h42q29 0 62 -62v-83q0 -161 -228 -393q83 -273 83 -435v-62q-84 -145 -248 -145h-104q-228 62 -228 103v187
q62 174 332 393q-21 243 -21 352v103q0 47 -21 83q0 352 311 352zM156 318v-42l104 -20h62q107 0 124 62q-21 269 -83 269h-20q-187 -173 -187 -269z" />
    <glyph glyph-name="fraction.1" 
 />
    <glyph glyph-name="approxequal" unicode="&#x2248;" horiz-adv-x="2410" 
d="M573 1005h21q32 0 172 -193v-86q0 -33 -172 -623h43q317 288 581 343q294 108 343 108h215q336 0 580 -322v-43h-21q-258 257 -623 257q-496 0 -903 -343q0 -23 -300 -323q-65 -383 -129 -644q0 -22 21 -22q-129 -644 -258 -644q-172 86 -172 236q0 408 387 1032
q43 95 172 601h-43q-232 -172 -365 -172h-22q-115 0 -150 86v22q0 297 451 666q108 64 172 64zM100 361v-43q430 99 430 494h-64q-366 -308 -366 -451zM272 -649q-125 -332 -172 -365q0 -23 22 -65l-22 -215h22q64 0 172 516v129h-22z" />
    <glyph glyph-name="approxequal" unicode="&#x22f2;" horiz-adv-x="2410" 
d="M573 1005h21q32 0 172 -193v-86q0 -33 -172 -623h43q317 288 581 343q294 108 343 108h215q336 0 580 -322v-43h-21q-258 257 -623 257q-496 0 -903 -343q0 -23 -300 -323q-65 -383 -129 -644q0 -22 21 -22q-129 -644 -258 -644q-172 86 -172 236q0 408 387 1032
q43 95 172 601h-43q-232 -172 -365 -172h-22q-115 0 -150 86v22q0 297 451 666q108 64 172 64zM100 361v-43q430 99 430 494h-64q-366 -308 -366 -451zM272 -649q-125 -332 -172 -365q0 -23 22 -65l-22 -215h22q64 0 172 516v129h-22z" />
    <glyph glyph-name="notequal" unicode="&#x2260;" horiz-adv-x="2000" 
d="M881 822q34 0 59 -97q-59 -265 -59 -485q345 233 660 233h116q349 -75 349 -156v-38q0 -39 -39 -39h-39q-138 105 -310 116h-136q-375 0 -698 -407q-193 -1066 -329 -1066q0 -31 -78 -78h-77q-84 0 -97 252h19l-19 39q95 415 407 872q155 189 155 485h-19
q-328 -329 -543 -329h-155q-78 31 -78 135v78q147 465 213 465h39q39 0 39 -58q-136 -376 -136 -427q6 -38 39 -38h58q325 0 601 543h58zM319 -1020l39 -20q127 0 271 718v97q-310 -355 -310 -795z" />
    <glyph glyph-name="dagger" unicode="&#x2020;" horiz-adv-x="1410" 
d="M1229 1045q98 -105 98 -158q0 -540 -630 -807q-154 -20 -315 -20q-443 0 -513 217q0 30 -39 79v78q0 237 315 513q0 34 99 39h19q29 0 60 -59q-72 -368 -257 -591v-20q0 -98 296 -98h217q281 0 492 256q138 212 138 335v98h-177q-40 0 -40 40q68 98 237 98zM-32 553v-138
q100 0 197 354v20q-38 0 -197 -236z" />
    <glyph glyph-name="daggerdbl" unicode="&#x2021;" horiz-adv-x="740" 
d="M266 956h21q41 -6 41 -41v-83q-291 -445 -291 -541v-62q7 -42 42 -42q436 0 436 520q-21 115 -83 187v21q7 41 42 41h83l83 -83q0 -688 -291 -790q-58 -41 -250 -83q-249 0 -249 187q37 308 416 769z" />
    <glyph glyph-name="perthousand" unicode="&#x2030;" horiz-adv-x="1040" 
d="M471 912q41 -6 41 -40v-41q-82 -85 -82 -203h21q199 203 284 203h41q170 0 204 -244q0 -409 -468 -590q-62 0 -143 -20l-203 40q-132 -132 -224 -407l-102 -20l-20 41v122q140 377 163 386l-21 143v101q13 122 61 122q41 0 41 -81h41q92 121 264 488h102zM695 729
q-183 -163 -427 -508h-21v-41q7 -41 41 -41h163q386 87 386 427v41q0 122 -142 122z" />
    <glyph glyph-name="guilsinglleft" unicode="&#x2039;" horiz-adv-x="1450" 
d="M1125 1245h61q140 -115 140 -422q0 -618 -542 -803h-221q-181 66 -181 241v40h-40q-10 0 -401 -301h-61q-31 0 -80 80q80 112 321 844q10 0 61 40h60q29 0 60 -60v-20q-85 -152 -281 -603q20 0 20 -20q96 15 502 402h20q60 -20 60 -121q-92 -138 -100 -261
q40 -120 221 -120q482 145 482 642v101q0 57 -61 200h-120q-149 -120 -221 -120q-20 39 -20 60q95 201 321 201z" />
    <glyph glyph-name="guilsinglright" unicode="&#x203a;" horiz-adv-x="1097" 
d="M1540 1529h20q40 -6 40 -42q-577 -614 -1099 -1355q0 -31 51 -31q298 123 548 348h20q41 -7 41 -41v-38q-247 -255 -571 -424h-198q0 -33 -239 -346q-347 -588 -347 -785q0 -66 -19 -164q19 -30 19 -95l-42 -21q-58 74 -58 170q0 370 587 1285q83 31 127 364
q248 428 347 727h-13q-189 0 -676 -604q-30 0 -61 58v58q523 582 791 680h56q40 -7 40 -41v-92q0 -99 -327 -728h10l677 859z" />
    <glyph glyph-name="section" unicode="&#xa7;" horiz-adv-x="1780" 
d="M1185 1245h40q31 0 80 -80q-120 -191 -120 -402q140 -48 140 -80v-81q0 -33 -180 -381v-40h120q163 0 502 261h20q29 0 60 -60q-351 -348 -602 -382h-161q-120 80 -120 161q0 19 201 361v20q-96 181 -121 181q-518 -663 -863 -663h-20q-101 0 -161 121q29 201 80 201
q24 0 81 -161h80q424 103 763 642q157 382 181 382z" />
    <glyph glyph-name="partialdiff" unicode="&#x2202;" horiz-adv-x="650" 
d="M339 975h44q89 0 177 -355v-177q0 -176 -266 -377q0 -66 -243 -66q-111 138 -111 487q58 421 133 421h22q32 0 67 -66v-89q-67 -297 -67 -421v-88l44 -67q128 0 311 244v155q-21 222 -133 222q-89 0 -89 44v22q0 30 111 111z" />
    <glyph glyph-name="ltshade" unicode="&#x2591;" horiz-adv-x="719" 
d="M695 459l61 -24l2 -53q-318 -291 -618 -382q-140 21 -140 140v52q0 27 70 70h17q40 0 53 -88h69q73 0 486 285z" />
    <glyph glyph-name="shade" unicode="&#x2592;" horiz-adv-x="1131" 
d="M73 605h37q37 -6 37 -37q0 -35 -37 -128q63 -312 275 -312q311 0 754 330q37 -60 37 -92q-430 -366 -736 -366h-183q-257 152 -257 403v129q0 28 73 73z" />
    <glyph glyph-name="dkshade" unicode="&#x2593;" horiz-adv-x="1432" 
d="M86 949h43q43 -7 43 -43v-44q0 -18 -43 -172v-22q125 -517 518 -517h65q350 50 712 306h21q0 -10 43 -64q-353 -304 -798 -393q-396 0 -625 431q-65 184 -65 302q27 216 86 216z" />
    <glyph glyph-name="SF110000" unicode="&#x2502;" horiz-adv-x="260" 
d="M48 1085q151 0 195 -238v-21q0 -265 -195 -476h-43q-54 43 -65 43q173 216 173 433v86q-108 119 -108 130q7 43 43 43z" />
    <glyph glyph-name="SF090000" unicode="&#x2524;" horiz-adv-x="10" 
d="M-196 1445q350 -177 350 -620q0 -304 -108 -485q-52 27 -80 27v54q67 192 75 351l-21 161q0 240 -270 458q8 54 54 54z" />
    <glyph glyph-name="SF190000" unicode="&#x2561;" horiz-adv-x="1136" 
d="M739 1283q41 -50 41 -81q-81 -264 -81 -326v-40l162 -102v-81q-167 -176 -244 -305v-81q7 -41 41 -41h61q180 11 387 236h41q40 -7 40 -41v-20q-215 -317 -549 -317q-92 35 -163 142v81q0 77 163 326q-21 39 -21 60h-40q-400 -711 -610 -711l-20 41v20q650 649 650 1118
q57 122 142 122z" />
    <glyph glyph-name="SF200000" unicode="&#x2562;" horiz-adv-x="1400" 
d="M561 1205h83q312 -51 312 -270v-42q0 -41 -42 -41q-112 196 -208 228q-124 0 -124 -124q2 -54 374 -686q124 0 436 208l42 -62v-21q-448 -395 -935 -395q-275 66 -499 395v83q0 30 62 62h63l166 -228q100 -75 374 -125q145 28 145 62v42q-353 528 -353 748q0 108 104 166
z" />
    <glyph glyph-name="SF210000" unicode="&#x2556;" horiz-adv-x="500" 
d="M400 1240h40q40 -6 40 -40v-80q-60 -192 -60 -300q0 -212 40 -660q-50 -160 -300 -160q-340 0 -340 300q480 350 480 780zM-40 240v-20q20 -60 120 -60h20q200 0 200 40q0 61 20 140q-20 105 -20 200v80h-20z" />
    <glyph glyph-name="SF220000" unicode="&#x2555;" horiz-adv-x="1740" 
d="M905 1038h19q25 0 53 -54q-78 -219 -78 -275v-32q293 282 376 282l57 -75l-98 -510v-21q21 -63 123 -63h98q99 0 258 158q23 0 52 -56v-17q-160 -232 -389 -232h-59q-153 0 -231 134v116q40 167 40 307q-309 -271 -385 -543l20 -40q0 -112 -132 -112q-26 0 -54 54
q117 326 197 773h-25q-340 0 -340 -163q0 -286 -295 -529q0 -37 -94 -37h-39q-25 0 -54 56q0 80 20 216l-20 39q198 554 349 604q94 -30 94 -118h64q94 0 473 138zM92 355v-49q187 112 187 363v45q-80 0 -187 -359z" />
    <glyph glyph-name="SF230000" unicode="&#x2563;" horiz-adv-x="1475" 
d="M329 1225h58q39 -6 39 -39q-19 -165 -19 -253q0 -9 19 -77q-19 -38 -19 -59h19q311 0 311 311l39 20h39q39 -6 39 -39v-175q136 -134 136 -214v-58q0 -68 -194 -389v-20q0 -62 136 -97q272 0 528 335q28 0 59 -58v-20q-101 -293 -568 -393h-58q-234 27 -234 136
q0 143 195 486v78q-117 75 -117 97q-330 -140 -330 -233q0 -247 -331 -428h-97q-39 0 -39 39v175q0 44 19 78q-19 34 -19 78v19q26 276 389 700zM193 700q-55 -62 -136 -350q6 -39 39 -39q213 108 213 311q-38 78 -116 78z" />
    <glyph glyph-name="SF240000" unicode="&#x2551;" horiz-adv-x="1800" 
d="M1440 1185q40 -6 40 -40q0 -67 -180 -520v-340q315 65 480 160h80v-60q0 -97 -840 -300q-92 0 -200 180v80q0 31 80 80h60q77 -140 100 -140q100 55 100 280v60q-413 -140 -540 -140q0 -220 -500 -500q-160 0 -160 180l-20 140q236 660 400 660q77 148 160 180h40
q29 0 60 -60v-320q6 -140 40 -140q572 0 680 380q0 85 120 180zM400 745v-40q0 -29 60 -60h20q20 0 60 80l-20 40l20 40q-40 60 -40 140q-100 -45 -100 -200zM260 645q-105 -128 -160 -400v-80h40q340 141 340 320z" />
    <glyph glyph-name="SF250000" unicode="&#x2557;" horiz-adv-x="1550" 
d="M262 1025h85q86 0 150 -342h42q373 0 598 214h64q35 0 150 -320q-52 -513 -257 -513q0 -64 -213 -64q-85 0 -128 85v86q0 66 149 448q-261 -85 -320 -85h-85q-93 -252 -406 -427h-86q-33 0 -85 85q0 406 235 769q52 0 107 64zM198 726q120 -64 170 -64l43 64
q-34 150 -107 150q-59 0 -106 -150zM881 299v-107q85 0 85 -21q235 103 235 277l-42 193h-43q-128 -67 -192 -299q-43 -7 -43 -43zM134 577q-86 -152 -86 -299h21q129 0 299 213v43h-85z" />
    <glyph glyph-name="SF260000" unicode="&#x255d;" horiz-adv-x="1606" 
d="M645 1615h20q30 0 62 -62q-277 -948 -600 -1223q-145 -105 -145 -124q6 -41 41 -41h21q514 188 1139 766q214 477 332 477l62 -83q-346 -562 -518 -995v-62h21q30 0 580 187l21 -42v-41q-96 -110 -622 -269q0 -21 -21 -21q42 -182 42 -290l-62 -42q20 -40 20 -62
q0 -1242 -683 -1678h-104q-30 0 -62 62v124q0 296 352 1244l228 600q41 0 62 249q112 0 207 290v21q-109 -58 -393 -270l-498 -290q-124 0 -290 -766q-36 -17 -124 -270q-337 -745 -601 -745q-62 91 -62 145q0 237 497 1181q166 558 352 787q581 1243 726 1243zM458 1180
q0 -42 -269 -539v-20q83 35 311 538zM852 -146q-352 -764 -539 -1637l42 -21h20q560 454 560 1513q-21 26 -21 145h-62zM-184 -167l-560 -1201l-20 -145h20q66 22 291 414q297 538 331 912l-41 20h-21z" />
    <glyph glyph-name="SF270000" unicode="&#x255c;" horiz-adv-x="1690" 
d="M676 1185h40q102 -51 118 -118q0 -44 -158 -158q0 -162 -98 -552q442 552 650 552h178q43 0 79 -158q-108 -335 -217 -335q-40 -85 -99 -296h40q244 126 453 335h59v-79q-142 -202 -572 -453q-157 -371 -157 -710q-72 -166 -237 -237h-79q-166 0 -237 296q0 377 454 671
q158 78 158 236v40q-219 -257 -454 -257l-98 158q0 -42 -276 -671q-213 -625 -415 -749h-79q-39 0 -39 59q0 608 552 1282q127 0 237 493v40h-59q-509 -651 -631 -651h-20l-40 59v20q0 132 553 867q228 316 394 316zM45 337h20q37 0 335 335h20v79q-133 -16 -375 -414z
M676 159l20 -39q256 0 434 493h-20q-414 -282 -414 -355q-20 -33 -20 -99zM-192 -1044l40 -19q291 448 375 867q-276 -298 -415 -848zM578 -748q32 -89 118 -138q147 0 217 375l-20 39q40 55 40 276q-355 -184 -355 -552z" />
    <glyph glyph-name="SF280000" unicode="&#x255b;" horiz-adv-x="1590" 
d="M798 1795h42q43 -7 43 -43q0 -605 -641 -1175q-92 0 -192 -256q0 -129 106 -129q577 115 577 299q392 798 748 1197h64q43 -7 43 -43v-106q-263 -838 -726 -1133l-22 -43v-21q29 -71 171 -128q273 11 556 235q31 0 64 -64q-301 -342 -620 -342v21q-41 -21 -64 -21
q-157 78 -256 171h-43q0 -102 -620 -214q-128 114 -128 150q0 345 342 790q355 723 556 855zM306 812h21q346 312 385 684q-257 -261 -406 -684zM968 684h22q322 266 427 662v43q-84 0 -449 -705z" />
    <glyph glyph-name="SF030000" unicode="&#x2510;" horiz-adv-x="2848" 
d="M1571 1023q59 0 59 -79q0 -24 -20 -196l197 177h79q42 0 78 -177q-19 -107 -19 -178v-177h19q357 442 414 473h19q29 0 59 -59v-20q0 -95 -137 -571v-39h19q211 0 494 266h20q28 0 59 -59q-386 -384 -671 -384l-79 98q0 44 138 492v20q-198 -174 -413 -590l-40 -20h-59
q-28 0 -59 59v39q61 71 118 433l-19 39q19 107 19 178v19h-59q-164 -145 -177 -256q-196 -205 -196 -432q-79 -40 -138 -40l-20 40v98l20 39q-20 0 -20 20q-245 -157 -354 -157h-39q-93 81 -138 216l59 334h-39q-19 -58 -315 -472q0 -78 -157 -118q-40 65 -40 118v40
q145 140 197 354q-20 34 -20 78l20 99q-49 39 -59 39h-20q-157 -88 -236 -374q-57 0 -118 -314l-98 -20h-20q-39 0 -39 39v99q216 508 216 629q109 158 138 158q39 0 39 -138l99 79h98q118 -52 118 -355q37 0 354 414l40 19h59q39 -6 39 -39q-98 -242 -197 -590v-20
q40 -118 79 -118h59q116 0 354 216q59 74 138 453q76 118 98 118z" />
    <glyph glyph-name="SF020000" unicode="&#x2514;" horiz-adv-x="1966" 
d="M1471 880q57 -63 57 -96q0 -57 -57 -251v-77q14 -154 135 -154q108 0 385 154q39 -6 39 -39v-38q-234 -232 -482 -232h-20q-141 0 -193 212l20 135v174q-367 -258 -367 -424q0 -116 -58 -116q-17 0 -154 19q-174 -77 -405 -77q-77 109 -77 154q27 215 77 270v58h-19
q-103 -69 -270 -308l19 -39q-39 -135 -155 -135h-38q-58 19 -58 116q142 257 212 617l39 19h38q39 -6 39 -38v-39l-19 -193q27 0 270 270q34 20 77 20q39 -6 39 -39v-58q-78 -289 -116 -366q19 -135 58 -135q424 21 424 289q92 309 154 309h20q58 -51 58 -155h19
q228 193 309 193z" />
    <glyph glyph-name="SF070000" unicode="&#x2534;" horiz-adv-x="2166" 
d="M295 1013h39q28 0 58 -58q-78 -181 -97 -329q196 174 271 174h97q135 -78 135 -232v-97q0 -82 -97 -193v-19h78q186 70 387 580q9 0 58 39h19q28 0 58 -58l-155 -387l20 -116h38q293 462 523 503h19q116 -43 116 -194v-39q0 -171 -116 -328v-39q175 26 426 213h19
q39 -6 39 -39q0 -137 -658 -368q-207 -38 -368 -38l-96 19q-210 -365 -252 -368q-88 38 -97 78l78 387q44 0 58 96h-58q-187 -154 -426 -154h-116l-193 19q0 -86 -78 -252q-24 -193 -77 -193h-58q-39 0 -39 39v58q39 213 135 464q-77 140 -77 174q0 181 213 194
q97 394 174 464zM1224 200q6 -38 39 -38h174q290 108 290 348q0 77 19 77l-58 117q-108 -20 -464 -504zM198 239l58 -39h116q227 0 310 271v136q0 30 -77 77h-58q-257 -173 -349 -445z" />
    <glyph glyph-name="SF060000" unicode="&#x252c;" horiz-adv-x="1620" 
d="M312 1097l38 -77q0 -57 -96 -442q0 -25 193 -77l19 -38v-39q-96 -125 -96 -192v-19q30 0 77 -39h115q303 0 519 635q0 96 115 173h39q38 -6 38 -39v-38q0 -53 -96 -212q0 -110 96 -288q-1 -84 -77 -192v-58h39q132 0 370 294q38 0 56 -50q-184 -398 -426 -398
q-43 0 -77 -19q-145 0 -212 115v77l154 135v134h-19q-279 -366 -500 -442h-96q-205 0 -269 116v269q-47 38 -77 38q-96 -58 -135 -58l-38 58q173 125 173 462q77 211 173 211z" />
    <glyph glyph-name="SF080000" unicode="&#x251c;" horiz-adv-x="1760" 
d="M1450 1108l62 -82q-62 -89 -103 -308l21 -42q0 -77 -41 -431h41q99 0 349 206q41 -7 41 -41v-41q-315 -329 -760 -329h-20q-212 0 -247 164q-187 -82 -451 -82h-62q-205 0 -390 185v41q71 110 349 205l144 206q110 287 205 287l41 -62q-82 -217 -82 -513q0 -18 21 -164
q375 0 698 554q89 247 184 247zM999 389v-123q6 -41 41 -41h82q185 0 185 410h-41q-222 -246 -267 -246zM383 553q-185 -159 -185 -184h205v61l21 103z" />
    <glyph glyph-name="SF100000" unicode="&#x2500;" horiz-adv-x="1670" 
d="M495 1675h43q43 0 43 -65q0 -44 -150 -451l43 -22h408q142 0 301 409l44 21h64q43 0 43 -64l-194 -323q22 -64 43 -64q183 0 646 -22l21 -43v-43q0 -43 -43 -43q-430 22 -645 22q-42 21 -65 21q-322 -493 -322 -559q0 -153 150 -237h258q269 0 460 231l78 -16v-43
q-240 -344 -753 -344h-21q-301 35 -301 301v65h-22q-437 -237 -538 -237h-43q-150 0 -150 151q258 569 258 624q21 0 21 21v43l-107 22q-43 0 -43 -22l-151 22h-236q-31 0 -65 64v43q7 43 43 43q216 0 538 -43q163 0 280 473zM86 363v-22h22q624 159 624 409l150 194v21
q0 43 -43 43h-365q-130 0 -259 -344q-72 0 -129 -301z" />
    <glyph glyph-name="SF050000" unicode="&#x253c;" horiz-adv-x="970" 
d="M479 1035h81q81 0 81 -244q81 0 81 -60l-203 -447v-81q6 -41 41 -41q109 0 378 288h40q29 0 61 -61q-365 -389 -520 -389h-61q-27 0 -101 101l20 102h-20q-41 0 -203 -122l-142 -20q-122 0 -122 142v41q0 193 589 791zM52 244v-21h21q236 0 406 447v121h-41
q-386 -476 -386 -547z" />
    <glyph glyph-name="SF360000" unicode="&#x255e;" horiz-adv-x="860" 
d="M406 1045h57q35 0 115 -230q-115 -353 -115 -574q37 -19 58 -19q138 29 363 230l19 -38v-58q-286 -306 -478 -306q-47 0 -96 230l-95 19q-219 -249 -268 -249q-28 1 -96 77q31 303 364 803q19 0 172 115zM80 356h39q268 183 268 459h-19q-120 -77 -230 -306
q-58 -88 -58 -153z" />
    <glyph glyph-name="SF370000" unicode="&#x255f;" horiz-adv-x="660" 
d="M446 1125h33q24 0 51 -50q0 -196 -185 -737q0 -56 -16 -84l33 -17h34q116 71 251 218q67 -74 67 -84q-206 -261 -385 -301q-118 23 -118 67l17 100l-33 17q-129 -84 -201 -84q-77 33 -84 67q0 393 385 821q90 67 151 67zM329 824q-285 -404 -285 -503h17q224 189 284 486
v17h-16z" />
    <glyph glyph-name="SF380000" unicode="&#x255a;" horiz-adv-x="1190" 
d="M347 1555q27 0 56 -56v-57l-263 -809v-19h19q380 377 526 377q158 0 245 -489q-19 -155 -38 -189h94q169 132 189 132h37l19 -94q-303 -282 -771 -282q0 -19 -19 -19q-308 44 -339 75h-56q-80 -75 -151 -75h-19q-47 0 -56 75q0 54 113 282v19l-19 38q282 706 395 1072z
M140 389v-57q0 -61 320 -113q6 38 37 38l94 -19q226 61 226 226q-19 36 -19 56h19q-75 335 -150 358q-175 0 -527 -489z" />
    <glyph glyph-name="SF390000" unicode="&#x2554;" horiz-adv-x="890" 
d="M472 1085h138q138 -88 138 -197q-129 -395 -237 -395h-39q-40 0 -40 40v79q10 197 99 197q38 -20 59 -20q40 72 40 158q-20 0 -20 20q-232 0 -474 -553q-35 0 -118 -138v-20q0 -98 375 -98q137 0 471 299h20l43 -47v-19q-290 -371 -514 -371l-99 -20q-434 0 -434 178v39
q0 287 513 809z" />
    <glyph glyph-name="SF400000" unicode="&#x2569;" horiz-adv-x="810" 
d="M491 865l21 -41v-40q-163 -367 -265 -367h-20q-30 0 -62 61q-87 0 -142 -204q30 -81 61 -81h122q217 0 591 285h20q29 0 61 -61v-20q-211 -239 -651 -347q-79 -20 -163 -20q-100 0 -204 143q156 692 631 692z" />
    <glyph glyph-name="SF410000" unicode="&#x2566;" horiz-adv-x="1070" 
d="M879 1295h57q38 -6 38 -38v-19q0 -84 -418 -931l38 -76q293 76 456 228h19q27 0 57 -57v-19q-266 -285 -627 -285q-87 37 -95 76l19 95h-19q-174 -209 -437 -209l-57 76v57q0 309 494 855l95 38q57 -7 133 -95h95q129 304 152 304zM100 421q88 37 342 475h-19
q-286 -254 -323 -475zM62 231v-19h76q380 225 380 551v57q-86 -20 -342 -494q-78 -26 -114 -95z" />
    <glyph glyph-name="SF420000" unicode="&#x2560;" horiz-adv-x="1180" 
d="M1102 1545l20 -39v-39q-391 -818 -391 -997v-78q0 -28 59 -58h117l313 117l19 -39v-39q-91 -152 -410 -215q-235 0 -235 273h-78q-60 -169 -312 -371h-196q-54 0 -78 156q0 217 567 958l97 58q172 -19 215 -58q104 106 196 351zM106 294v-58h19q147 0 313 293
q53 45 161 285l25 100l-33 48q-89 -58 -267 -321q-218 -262 -218 -347z" />
    <glyph glyph-name="SF430000" unicode="&#x2550;" horiz-adv-x="646" 
d="M412 1235h77q84 0 97 -289q0 -224 -521 -656v-39q19 -77 116 -77h38q85 0 405 276h39q0 -9 39 -57q-290 -373 -598 -373q-174 59 -174 289v39q142 554 482 887zM104 502h19q347 252 347 482l-39 77q-113 0 -327 -559z" />
    <glyph glyph-name="SF440000" unicode="&#x256c;" horiz-adv-x="680" 
d="M302 1045l61 -141q0 -341 -282 -563v-20q128 -40 161 -40q222 0 402 181h40q40 -6 40 -40q-209 -302 -442 -302q-382 0 -382 261v202q87 267 362 462h40zM21 502v-20h40q181 132 181 322l-40 20q-170 -158 -181 -322z" />
    <glyph glyph-name="SF450000" unicode="&#x2567;" horiz-adv-x="840" 
d="M292 1145q60 0 100 -181v-140q0 -239 -341 -543q12 -60 161 -60h100q45 0 80 20q39 -20 61 -20q0 17 221 120q0 29 120 121h20q29 0 61 -60q-240 -342 -744 -342q-261 32 -261 261v60q0 343 342 764h80zM191 944q-140 -272 -180 -482l40 -20q221 205 221 442
q-20 39 -20 60h-61z" />
    <glyph glyph-name="SF460000" unicode="&#x2568;" horiz-adv-x="830" 
d="M693 1565h19q28 0 57 -57v-39q-110 -490 -535 -936q-50 0 -76 -134q12 -96 114 -96q221 0 555 153l38 -57v-19q-219 -191 -516 -191h-153l-77 -58q39 -70 39 -153v-38l-134 -612q-301 -688 -593 -688h-19q-127 0 -172 191q0 325 268 822q114 306 286 516q0 64 172 325
q0 159 211 325q193 414 516 746zM-14 284q-141 -294 -402 -688q-191 -454 -191 -707q0 -115 76 -115q198 100 421 497q153 358 153 745q38 0 38 96v96q-38 0 -95 76z" />
    <glyph glyph-name="SF470000" unicode="&#x2564;" horiz-adv-x="770" 
d="M583 1705h40q45 0 59 -99q-49 -374 -298 -796q-52 -41 -218 -457q-28 0 -40 -179h20q308 0 636 298l40 -59v-20q-296 -358 -537 -358q0 -40 -219 -60q-40 -65 -40 -119v-80q0 -606 -298 -1292q-152 -139 -219 -139q-85 0 -99 258q0 189 457 1293q40 212 40 278v159
q0 50 80 60q38 -20 59 -20l139 398q90 183 318 854zM-431 -1377v-39h20q189 268 318 874q-20 39 -20 60q20 0 20 20h-20q-68 0 -298 -736q-20 -107 -20 -179z" />
    <glyph glyph-name="SF480000" unicode="&#x2565;" horiz-adv-x="890" 
d="M575 1179q66 -71 91 -237q-91 -451 -91 -747h18q255 191 255 255h37q26 0 55 -54v-19q-401 -423 -401 -455q-73 -603 -219 -820q-157 -182 -255 -182h-55q-200 0 -200 328q95 327 383 565q236 257 236 309q37 164 37 237q-18 0 -18 18q-78 0 -292 -273l-127 -36h-19
l-91 127q0 376 529 948zM65 286q6 -36 36 -36q115 0 365 601v18q-18 0 -18 19q-208 -99 -383 -529v-73zM-62 -861q27 -73 54 -73h55q252 0 346 728q18 0 18 19l-36 18q-437 -400 -437 -692z" />
    <glyph glyph-name="SF490000" unicode="&#x2559;" horiz-adv-x="939" 
d="M768 1175q71 -75 71 -143q-107 -300 -286 -572q-107 -169 -107 -358l497 357l53 -72q-360 -352 -693 -517q-67 -447 -107 -447l18 -36q0 -270 -215 -500q-121 -72 -197 -72q-232 70 -232 340v53q0 265 572 680q76 0 143 268q-26 0 -197 -107h-143q-46 0 -71 143v35
q128 327 536 716q254 232 358 232zM142 478q6 -36 36 -36q112 104 268 340h-18q-138 -56 -286 -304zM35 245q5 -35 36 -35q213 74 357 321h-18q-190 -172 -375 -286zM-341 -881q0 -72 126 -161h53q214 0 304 662q36 0 36 143q-161 -36 -411 -340q-108 -139 -108 -304z" />
    <glyph glyph-name="SF500000" unicode="&#x2558;" horiz-adv-x="970" 
d="M268 1585h19q57 -19 57 -115q0 -29 -230 -901v-19q474 518 633 518q27 0 57 -58v-77q-210 -565 -210 -632v-38h115q31 0 287 210q38 -46 38 -76q-241 -307 -479 -307h-38q-49 0 -77 173l211 613h-38q-312 -221 -575 -633q-71 -237 -134 -268h-96q-28 0 -58 58v19
q187 244 345 862q89 671 173 671z" />
    <glyph glyph-name="SF510000" unicode="&#x2552;" horiz-adv-x="900" 
d="M351 1506h19q26 0 55 -55q0 -269 -203 -535l-92 -313h19q487 516 553 516h37q27 0 55 -74q0 -219 -240 -663q19 -56 37 -56q161 0 295 130h18q42 0 56 -93q-285 -202 -424 -202h-37q-29 0 -74 73v74q203 507 203 608q-571 -510 -682 -829l-55 -37h-56q-26 0 -55 55v37
q115 106 332 811q160 553 239 553z" />
    <glyph glyph-name="SF520000" unicode="&#x2553;" horiz-adv-x="763" 
d="M385 1695h19q28 0 57 -57v-76q0 -38 -38 -38h-38q-57 19 -57 114q0 27 57 57zM233 933q27 0 57 -57v-57l-248 -571q0 -68 210 -115q249 53 496 319q27 0 57 -57v-20q-275 -375 -667 -375h-39q-183 0 -209 229q152 491 343 704z" />
    <glyph glyph-name="SF530000" unicode="&#x256b;" horiz-adv-x="725" 
d="M154 1775h18q27 0 56 -56v-18q0 -142 -74 -167h-19q-41 0 -74 167q82 74 93 74zM172 756h75q37 -6 37 -37q0 -44 -186 -315v-112q20 -74 186 -74q211 0 426 238q74 -28 74 -56q-140 -247 -426 -330h-149q-259 0 -259 241q0 167 222 445z" />
    <glyph glyph-name="SF540000" unicode="&#x256a;" horiz-adv-x="730" 
d="M345 1875h64q42 -7 42 -42v-22q0 -28 -106 -106h-64q-42 0 -42 43v21q0 28 106 106zM218 898h21q42 -7 42 -43q0 -58 -212 -446v-128l106 -21q331 0 553 213q30 0 63 -64v-21q0 -161 -680 -298q-165 91 -191 149v106q176 553 298 553z" />
    <glyph glyph-name="SF040000" unicode="&#x2518;" horiz-adv-x="460" 
d="M241 1770h20q62 0 62 -83q-20 -248 -82 -248q-33 0 -83 83v165q0 32 83 83zM179 963q31 0 62 -83q-145 -434 -145 -642h20q55 0 352 228l42 -62v-21q-110 -174 -414 -310q-139 -285 -290 -1325q-97 -229 -186 -248h-42q-207 0 -248 414v21q0 503 579 1179q75 607 207 849
h63zM-546 -1024v-103q0 -37 62 -187h62q119 0 269 1097q-393 -348 -393 -807z" />
    <glyph glyph-name="SF010000" unicode="&#x250c;" horiz-adv-x="1180" 
d="M231 1371q77 -19 77 -75q0 -112 -66 -461q42 0 94 -43h51q250 257 361 257h64q28 0 76 -78v-39q-137 -335 -410 -335v24q-148 -33 -148 -77v-45q93 -180 375 -180q199 0 489 126l16 -32v-41q0 -114 -571 -205h-62q-270 55 -339 194q-109 0 -144 -262l-58 -39h-81l-34 17
l213 1214q60 80 97 80zM566 783v-34h31q71 0 145 149h-59q-34 0 -117 -115z" />
    <glyph glyph-name="block" unicode="&#x2588;" horiz-adv-x="820" 
d="M806 1595h20q28 0 59 -59v-20q0 -638 -768 -1201v-79q0 -34 118 -98q309 38 591 315q59 0 59 -79q-295 -374 -709 -374h-59q-177 122 -177 335q96 477 610 1083q144 177 256 177zM137 492h39q443 360 473 552q33 0 98 256v98h-39q-262 -200 -571 -847v-59z" />
    <glyph glyph-name="dnblock" unicode="&#x2584;" horiz-adv-x="778" 
d="M705 1875h71q33 0 70 -70v-164q-33 -390 -515 -1006q-281 -254 -281 -351v-23l47 -164h117q172 0 562 374h23q47 -7 47 -46v-24q-426 -491 -655 -491v23l-47 -23h-23q-123 0 -211 328q67 694 655 1520zM659 1664q-513 -725 -562 -1052h24q584 574 584 1029z" />
    <glyph glyph-name="lfblock" unicode="&#x258c;" horiz-adv-x="1660" 
d="M614 1002h42q62 -21 62 -125v-147l-21 -41h21q22 0 418 313h62q42 -7 42 -42v-42q-146 -412 -146 -480v-21q28 -83 188 -83q211 0 355 125h20q30 0 63 -62v-21q-216 -209 -480 -209q-313 42 -313 209l104 375h-21q-94 -28 -542 -521q0 -105 -63 -105h-83q-42 0 -42 42v21
q0 104 188 250l104 334v84h-21q-409 -259 -584 -793q0 -30 -63 -63h-62q-42 0 -42 42q0 107 313 751q0 112 84 146h62v-62l-21 -105h21q229 230 355 230z" />
    <glyph glyph-name="rtblock" unicode="&#x2590;" horiz-adv-x="1369" 
d="M262 967l38 -56q0 -61 -56 -205h37q167 149 186 149h93q52 0 75 -186q-19 -32 -37 -167l391 279h37q56 -19 56 -112q-186 -403 -186 -503h18q33 -18 75 -18q38 0 377 311l48 -5l7 -53q-267 -378 -507 -402h-37q-100 0 -130 74v93q0 48 149 391h-38q-337 -225 -521 -577
h-93q-37 0 -37 37v56q298 414 298 633h-56q-429 -345 -429 -540q-60 -130 -93 -130h-18l-75 56q0 47 242 596q82 279 186 279z" />
    <glyph glyph-name="upblock" unicode="&#x2580;" horiz-adv-x="1230" 
d="M779 1145q91 -34 91 -68v-91l-114 -430v-158q165 -23 204 -46q147 11 249 114h23q33 0 68 -68q-163 -182 -385 -182h-136q-158 85 -158 204v68q0 57 113 476h-68l-566 -657q-140 -317 -181 -317h-91q-57 0 -68 91q249 402 408 973q11 0 68 46q32 0 68 -68
q-91 -260 -91 -385h23l520 498h23z" />
    <glyph glyph-name="invsmileface" unicode="&#x263b;" horiz-adv-x="1210" 
d="M202 1121q62 0 62 -83q0 -69 -103 -395h41q0 37 249 374h62q29 -1 84 -104v-83q0 -20 -21 -20q0 -21 21 -21q-21 -208 -63 -208l104 -228h187q126 0 394 104l21 -42v-21q-136 -166 -581 -166q-166 0 -208 291v311h-21q-66 -7 -373 -685q0 -145 -62 -145h-83q-42 0 -42 62
q213 1059 332 1059z" />
    <glyph glyph-name="heart" unicode="&#x2665;" horiz-adv-x="825" 
d="M389 1025h38q38 -6 38 -38l-19 -228l108 -200q98 -161 264 -76q38 -6 38 -38v-38q-38 -76 -114 -76l-161 8q-173 283 -173 155q0 -191 -341 -437q-95 -57 -133 -57q-114 46 -114 114q321 854 456 854q51 0 113 57zM238 702q-123 -146 -171 -379q-30 0 -95 -133h19
q342 134 342 436q-48 0 -57 76h-38z" />
    <glyph glyph-name="diamond" unicode="&#x2666;" horiz-adv-x="930" 
d="M302 983q276 0 300 -556q102 -67 334 19q28 0 59 -59v-20q-82 -108 -425 -76q-78 -273 -327 -273q0 -20 -20 -20h-158q-177 31 -177 177q162 577 335 710q52 97 79 98zM361 688q36 -114 69 -165q40 -9 61 -9l-32 272h-39q-45 0 -59 -98zM65 372v-157q0 -29 59 -59
q335 83 347 101l2 66l-41 33q-115 174 -189 233q-40 0 -178 -217z" />
    <glyph glyph-name="club" unicode="&#x2663;" horiz-adv-x="1100" 
d="M304 1089h19q27 0 57 -57q-57 -200 -57 -245h19q200 189 321 189q145 0 265 -227q0 -271 -302 -510h37q36 0 434 229l67 -93q-460 -363 -954 -363l-94 19q-118 -321 -208 -321q0 38 -38 38q0 252 94 415q-18 257 -18 359q54 55 207 114q76 453 151 453zM191 239
q37 -19 57 -19q548 128 548 416v94q-37 94 -208 94q-397 -262 -397 -585z" />
    <glyph glyph-name="spade" unicode="&#x2660;" horiz-adv-x="1147" 
d="M121 885h57q39 0 39 -58q0 -16 -19 -153h19q51 58 211 173h154q230 -32 230 -308q-25 -125 -269 -307v-19q227 0 595 255q57 -19 57 -115q-378 -275 -786 -275h-250l-57 39h-58l-134 -250q-65 -233 -135 -307h-57q-48 0 -58 77q102 364 230 557v19l-57 77v57
q211 178 211 269q0 269 77 269zM121 347v-19q0 -38 57 -38q383 0 500 230v19q-14 192 -154 192q-230 0 -403 -384z" />
    <glyph glyph-name="invbullet" unicode="&#x25d8;" horiz-adv-x="890" 
d="M209 905h38q37 -6 37 -38v-19q-18 -81 -18 -132q113 -39 113 -76v-76q0 -22 -113 -265v-38q0 -28 113 -95h57q54 0 455 293h19l19 -95q-326 -349 -588 -349q-227 67 -227 322q57 95 57 151v19h-57q-28 -108 -96 -173h-38l-19 95q153 148 153 400q11 0 95 76z" />
    <glyph glyph-name="circle" unicode="&#x25cb;" horiz-adv-x="867" 
d="M373 1235h39q28 0 58 -58v-20q-97 -243 -97 -369v-39q6 -39 39 -39h19l58 39h78q28 0 59 -58v-39q-195 -202 -195 -350q12 -117 58 -117h20q102 0 351 273q28 0 58 -58v-20q-291 -370 -467 -370h-39q-98 0 -117 253q39 186 39 291l-78 59q-211 -281 -240 -281h-19
q-39 0 -39 39v58q249 239 318 592q49 214 97 214z" />
    <glyph glyph-name="invcircle" unicode="&#x25d9;" horiz-adv-x="1020" 
d="M603 985h20q29 0 61 -60v-61q-128 -613 -201 -703v-20h20q81 0 519 319l40 -60q0 -70 -459 -400h-301q-155 0 -362 221v81q0 180 141 180l80 -60h60q277 337 342 543zM201 281q7 -40 41 -40h100q60 0 141 302q-25 0 -282 -262z" />
    <glyph glyph-name="male" unicode="&#x2642;" horiz-adv-x="820" 
d="M555 1165h43q31 0 65 -65q-173 -390 -173 -821q135 0 324 173q31 0 65 -65q-302 -367 -692 -367h-194q-173 62 -173 194q0 136 324 303q259 300 259 389q129 259 152 259zM101 279q71 -43 129 -43h65q65 0 87 346q-303 -231 -303 -303h22z" />
    <glyph glyph-name="female" unicode="&#x2640;" horiz-adv-x="1009" 
d="M683 1055h43q44 -7 44 -43v-109q-174 -205 -174 -564q207 0 408 122l44 -66v-21q-281 -274 -799 -274q-308 0 -369 282q42 99 87 109h22q79 -65 151 -65q221 0 391 369q65 229 152 260z" />
    <glyph glyph-name="musicalnote" unicode="&#x266a;" horiz-adv-x="820" 
d="M358 1375h25q41 0 73 -122q242 24 364 24q180 0 195 -73q-152 -66 -657 -121l-267 -730v-24l146 -49q417 0 583 219q49 -7 49 -49v-48q-219 -292 -730 -292q-219 0 -219 219q268 671 268 730v24q-189 -31 -584 -195l-24 49q0 148 681 292q49 146 97 146z" />
    <glyph glyph-name="musicalnotedbl" unicode="&#x266b;" horiz-adv-x="534" 
d="M380 1330h19q75 -150 355 -150q94 -24 94 -56v-19l-19 -38q-220 19 -318 19h-94q-75 -197 -374 -786v-131h56q158 0 420 285q27 0 56 -56v-19q-282 -360 -420 -360q0 -19 -19 -19h-93q-150 0 -169 206q48 212 337 768v75h-18q-95 0 -300 -56h-38q-37 0 -37 37
q0 97 468 169q49 120 94 131z" />
    <glyph glyph-name="sun" unicode="&#x263c;" horiz-adv-x="650" 
d="M691 1535q0 -10 40 -59v-79l-178 -277v-20q81 0 277 -60v-59l-99 -20h-277q-317 -451 -317 -534v-59q0 -60 79 -60q186 0 436 159l39 -80q0 -94 -376 -217l-99 -20q-165 0 -257 218q51 195 297 573l-40 20q-18 0 -277 -79h-19q-40 0 -40 40v19q0 104 475 159
q260 415 297 415q0 20 39 20z" />
    <glyph glyph-name="triagrt" unicode="&#x25ba;" horiz-adv-x="860" 
d="M136 825h52q35 0 35 -52q-46 -254 -209 -644h52q166 102 227 278q60 174 87 174h52q25 0 52 -52v-52q-70 -93 -70 -157v-35h87q153 0 331 175h17q53 0 53 -70q-167 -261 -401 -261q0 -18 -52 -18q-35 0 -122 53q-39 0 -313 -227q-30 -17 -70 -17h-34q-25 0 -53 52l18 35
q-18 34 -18 52q18 0 18 18q-35 0 -35 34q165 597 296 714z" />
    <glyph glyph-name="triaglf" unicode="&#x25c4;" horiz-adv-x="1190" 
d="M206 1049h42q31 0 63 -84q-294 -621 -294 -692v-21q0 -30 63 -63q281 120 461 566q0 210 84 231h21q63 0 63 -84q-126 -450 -126 -587q26 -168 84 -168h84q120 0 412 306h21q42 -7 42 -42v-63q-287 -348 -517 -348q-251 0 -251 252l-42 21q-243 -273 -399 -273
q-147 0 -147 252q252 754 336 797z" />
    <glyph glyph-name="arrowupdn" unicode="&#x2195;" horiz-adv-x="1130" 
d="M672 1172l78 -58q-19 -171 -58 -254l39 -20q104 -597 397 -389l39 -59v-19q-342 -290 -515 291q0 -232 -429 -605q-68 -59 -196 -59q-29 0 -117 98q25 264 39 312l-19 39q85 460 254 645h39q28 0 58 -58q0 -32 -117 -372q-117 -163 -117 -410v-59q0 -39 58 -39
q235 0 450 547q-39 64 -39 118v19q70 332 156 332z" />
    <glyph glyph-name="exclamdbl" unicode="&#x203c;" horiz-adv-x="1469" 
d="M295 1015q37 -6 37 -38v-18q-263 -613 -263 -677v-19h38q370 339 432 545q56 75 75 75h19q27 0 56 -56v-56q-146 -192 -206 -451v-94q0 -45 131 -57q414 165 414 432v38q-151 0 -151 169v38q94 131 170 131q85 -36 94 -75v-131l90 -208q92 -147 252 -94l47 -94
q-147 -154 -399 57q28 -98 -460 -413l-94 -19h-132q-61 0 -94 188q38 122 38 169h-19q-251 -280 -338 -301h-76q-42 0 -56 94q43 304 169 545q18 0 169 320h57z" />
    <glyph glyph-name="filledrect" unicode="&#x25ac;" horiz-adv-x="1710" 
d="M224 930h60q41 0 41 -61q0 -60 -263 -606h40q372 305 506 586q32 0 81 41q29 0 60 -61v-20q0 -56 -161 -384v-182q60 0 60 -21q425 136 425 445q30 0 81 223l40 20h41q78 -121 101 -121q126 -352 333 -344h41q40 -7 40 -41v-20q-151 -168 -535 243q-56 -241 -405 -506
l-121 -60h-182q-61 0 -61 222v121q-357 -364 -445 -404h-60q-29 0 -61 61v101q0 132 344 768z" />
    <glyph glyph-name="arrowupdnbse" unicode="&#x21a8;" horiz-adv-x="1024" 
d="M923 1255q37 0 37 -55q-292 -347 -531 -879q44 -147 165 -147q232 72 403 257h18q26 0 55 -55v-19q-214 -245 -440 -329h-110q-78 0 -183 91q-26 -2 -220 -440q-73 -90 -110 -549q0 -118 92 -312l-37 -18q-128 63 -128 348q0 358 238 898q138 224 312 843v55h-19
q-201 -195 -427 -619h-19l-73 79q216 415 574 723h37q26 0 55 -55v-147h37q150 330 274 330z" />
    <glyph glyph-name="arrowup" unicode="&#x2191;" horiz-adv-x="1083" 
d="M840 1265h43q31 0 65 -65q-91 -237 -195 -975q141 0 304 228h65q0 -11 22 -87q-478 -475 -478 -531q-73 -472 -563 -1083l-108 -22h-65q-34 0 -87 87q0 317 325 693q412 461 412 542q86 336 151 693h-43q-160 -155 -542 -650q-103 -92 -195 -130q-108 37 -108 108
q0 102 368 1019h65q44 -7 44 -44v-21q-174 -412 -304 -780h65q715 755 715 996zM-5 -1010v-87h43q250 167 477 780v22h-22q-409 -433 -498 -715z" />
    <glyph glyph-name="arrowdown" unicode="&#x2193;" horiz-adv-x="850" 
d="M822 1055h44q44 -7 44 -44v-22q-191 -403 -242 -661v-44q31 0 198 154q44 -7 44 -44v-22q0 -22 -264 -265q-217 -1212 -463 -1212h-44q-199 103 -199 264q0 273 287 618l286 374l66 331q-493 -573 -705 -573q-44 72 -44 110q0 195 309 772q120 242 154 242h44
q44 -7 44 -44v-66q-245 -333 -331 -639q-38 0 -44 -111v-22h22q303 160 662 728q0 79 132 176zM72 -818v-67q7 -44 45 -44h110q176 326 220 617v155q-375 -295 -375 -661z" />
    <glyph glyph-name="arrowright" unicode="&#x2192;" horiz-adv-x="1297" 
d="M530 1035h40q50 0 78 -177l-39 -157h20q110 59 157 59q59 -72 59 -138v-20q0 -138 -20 -433q20 0 20 -19q227 96 413 314h59q40 -6 40 -39q-18 -76 -197 -197q-64 -103 -354 -255q-315 -1063 -591 -1063h-39q-60 0 -98 275q30 347 492 788q98 0 98 78l-20 79
q59 94 59 295v118h-19q-45 0 -335 -374q0 -118 -138 -118h-19q-29 0 -59 59v59q216 184 334 492l20 40v118h-20q-428 -479 -447 -479h-20q-29 0 -59 79q29 5 585 616zM215 -913h40q171 74 374 708h-59q-355 -279 -355 -708z" />
    <glyph glyph-name="arrowleft" unicode="&#x2190;" horiz-adv-x="2600" 
d="M1273 1009h62v-41q-62 -229 -62 -267l308 267h62q31 0 103 -124v-226q247 256 390 350h82q62 0 62 -82q-144 -306 -144 -535q20 -82 123 -82l82 21q0 -21 21 -21l226 185h20q30 0 62 -62q-235 -246 -329 -246h-226q-102 46 -102 205v124q0 51 61 246v41
q-408 -366 -472 -698q-21 -62 -123 -62q-52 0 -62 82q205 414 205 576v102q0 41 -41 41h-20q-329 -336 -391 -719q-20 -164 -82 -164h-61q-30 0 -62 62v82q62 79 62 123h-62l-349 -164h-247q-307 0 -349 472q35 247 103 247h20q30 0 62 -62l-62 -205q43 -329 267 -329
q652 98 678 329q118 534 185 534z" />
    <glyph glyph-name="orthogonal" unicode="&#x221f;" horiz-adv-x="2600" 
d="M1817 1151q30 0 62 -61v-41l-62 -288l370 370q165 0 165 -185q0 -63 -165 -637v-103q127 3 391 267h20q30 0 62 -61v-42q-32 0 -308 -267q-158 -82 -185 -82q-124 42 -124 165v20q0 75 165 699v61h-21q-493 -466 -493 -780l-41 -21h-62q-41 0 -41 41v21q0 40 41 205
q-605 -452 -945 -452q-360 0 -473 247q-123 256 -123 411q31 82 62 82h41q0 -553 493 -596q357 49 699 267q349 242 349 555q84 203 123 205z" />
    <glyph glyph-name="arrowboth" unicode="&#x2194;" horiz-adv-x="2440" 
d="M284 1637h20q63 0 63 -83q-63 -426 -63 -539h21q212 21 332 21h207q41 -7 41 -41q-113 -56 -663 -125q-186 -305 -186 -373q46 -165 124 -165q371 0 746 538q137 580 207 580h62q42 0 42 -62q-249 -792 -249 -829q32 6 435 518h21q32 0 83 -82q-62 -258 -62 -518
q25 -270 269 -270q0 -41 207 -41h42q322 167 456 312l41 -62v-42q-308 -372 -601 -374q-497 122 -497 269q-42 0 -62 208h20q0 20 -20 20q20 185 41 228l-41 21h-21q-360 -480 -456 -746h-83q-41 0 -41 41v42q83 250 103 435h-20q-351 -332 -684 -332q-117 0 -186 291
l41 352l-249 -21h-83q-41 0 -41 41v63q0 29 62 62l145 -21l42 21q20 0 20 -21q228 0 270 373q99 304 145 311z" />
    <glyph glyph-name="triagup" unicode="&#x25b2;" horiz-adv-x="1880" 
d="M320 1585q39 -79 59 -79q0 -66 -177 -748q20 0 20 -20q492 48 492 177q147 631 256 631h40q39 -7 39 -40q0 -307 -296 -827v-40l454 552q87 79 98 79h39q29 0 59 -59l-118 -631v-59q26 -177 178 -177h19q316 55 375 118h39q39 -6 39 -39v-40q-82 -117 -453 -197h-39
q-276 0 -276 355l59 473h-39q-493 -637 -493 -887q-49 -39 -59 -39h-39q-28 0 -59 59q0 42 59 256h-40q0 -111 -315 -374q-118 -79 -177 -79h-20q-27 0 -118 118v158q39 263 99 354l-40 20h-276q-39 0 -39 39v60q6 39 39 39h335q46 0 197 630q-19 107 -19 178q64 39 98 39z
M64 265l20 -118q200 0 512 492v40h-20q-438 0 -473 -158q-39 -236 -39 -256z" />
    <glyph glyph-name="triagdn" unicode="&#x25bc;" horiz-adv-x="1760" 
d="M376 1695h21q29 0 62 -62v-83q0 -103 -145 -560v-41l103 21h249q31 5 145 497h62q42 -6 42 -41v-42l-83 -414v-21h41q0 74 249 249h83q83 -29 83 -166q-125 -547 -125 -601q0 -62 125 -124q230 0 414 145h62q31 0 63 -83q-206 -164 -477 -228q-311 0 -311 311
q0 148 124 580l-41 21q-307 -276 -560 -767l-41 -21h-21q-62 0 -62 145q-311 -290 -373 -290h-62q-43 9 -83 104q0 110 124 538l-41 -20h-21q-41 0 -41 41v42q311 160 311 393q82 138 82 332v104q7 41 42 41zM65 348v-41h21q210 92 539 538v21q-436 0 -436 -145
q-124 -263 -124 -373z" />
    <glyph glyph-name="equivalence" unicode="&#x2261;" horiz-adv-x="1140" 
d="M512 1495q81 -20 81 -80l-141 -301l40 -20h261q121 -13 121 -61q0 -70 -502 -100q-261 -462 -261 -582q0 -181 341 -181h40q267 0 482 181h20v-20q-81 -301 -522 -301q-502 0 -502 261v40q0 20 21 20l-21 40q0 24 201 522h-20q-239 -40 -281 -40l-40 60q0 120 442 120
q49 65 200 442h40z" />
    <glyph glyph-name="peseta" unicode="&#x20a7;" horiz-adv-x="800" 
d="M282 1245h22q108 -113 204 -136q96 -98 136 -543v-45q0 -215 -227 -476q-74 -45 -135 -45h-114q-158 73 -158 204q0 670 272 1041zM146 430v-158q0 -33 68 -68h90q99 0 204 294v204q-45 249 -91 249q-158 0 -271 -521z" />
    <glyph glyph-name="uni2105" unicode="&#x2105;" horiz-adv-x="670" 
d="M419 1545q30 0 63 -63v-21q-294 -1043 -294 -1197q42 -69 42 -126q0 -30 -63 -63h-84q-52 42 -63 42q0 291 315 1302q0 92 84 126z" />
    <glyph glyph-name="uni2116" unicode="&#x2116;" horiz-adv-x="1310" 
d="M662 1470q44 -10 85 -106q0 -244 -360 -1018h21q246 63 509 63h191q42 -6 42 -42v-43q0 -58 -233 -84v21q-180 0 -764 -191h-21l-42 85q461 756 487 1103v42h-21q-94 0 -382 -361h-63q-43 0 -43 43v42q0 164 488 446h106z" />
    <glyph glyph-name="twothirds" unicode="&#x2154;" horiz-adv-x="980" 
d="M509 1395q113 -44 113 -75v-132q0 -141 -207 -340q0 -28 264 -169q171 -188 188 -302q0 -153 -245 -302q-124 -75 -283 -75h-37q-283 38 -283 189v18q48 95 151 95q56 -57 56 -132q397 0 490 188q0 195 -433 340q-69 -38 -151 -38l-38 56v57q0 35 264 188
q132 169 132 245v38h-19q-87 0 -264 -169q-29 0 -75 75v56q165 189 377 189z" />
    <glyph glyph-name="oneeighth" unicode="&#x215b;" horiz-adv-x="1210" 
d="M1099 1955h61q41 -6 41 -41v-41q-149 -129 -428 -1019l142 21l21 -41v-41q0 -34 -245 -122q-102 -258 -102 -408q41 -6 41 -40q0 -115 -102 -143q-122 41 -122 82v40l122 449q0 61 -469 61l-41 61q0 62 204 285q127 345 163 387q40 21 61 21l62 -82q-70 -207 -245 -468
v-41q164 -41 204 -41h143q389 1094 489 1121z" />
    <glyph glyph-name="threeeighths" unicode="&#x215c;" horiz-adv-x="1230" 
d="M989 1345q28 0 59 -59v-60q0 -59 -534 -98q-84 -114 -217 -396h197q341 0 475 -276q-169 -376 -534 -376h-158q-257 0 -257 178q59 138 198 138q39 -6 39 -39v-99q35 -20 79 -20h139q336 82 336 218q-171 138 -257 138h-158q-206 -79 -257 -79h-20q-40 0 -40 39v79
q257 443 257 633q40 0 40 39q24 0 197 -19q115 0 416 59z" />
    <glyph glyph-name="fiveeighths" unicode="&#x215d;" horiz-adv-x="1120" 
d="M429 1545q46 -7 46 -45v-114l-296 -682v-46q7 -45 46 -45q374 432 591 432h22q160 -99 160 -296q0 -576 -682 -659q-149 0 -296 114v159q0 379 341 1137zM225 317v-22l113 -23q478 93 478 295q22 0 22 23v205q0 57 -90 68q-523 -335 -523 -546z" />
    <glyph glyph-name="seveneighths" unicode="&#x215e;" horiz-adv-x="1190" 
d="M1001 1455h21q43 -7 43 -43v-86q-255 -245 -537 -989l-22 -108v-172l65 -86q0 -34 -86 -86h-86q-86 35 -86 151v21q0 226 365 990l129 193l-43 22q-79 0 -666 -194h-86l-22 43v65q0 57 344 107q160 86 667 172z" />
    <glyph glyph-name="fraction" unicode="&#x2044;" horiz-adv-x="910" 
d="M555 1525h79q99 -51 99 -158v-80q-209 -629 -277 -1049q39 -73 39 -159q-26 -79 -178 -79l-60 79q0 73 238 911h-20q-268 -198 -336 -198h-80q-28 0 -59 60v59q0 289 436 574q65 40 119 40zM158 990q20 0 20 -20q182 45 357 317v60h-20q-199 0 -357 -357z" />
    <glyph glyph-name="fraction" unicode="&#x2215;" horiz-adv-x="910" 
d="M555 1525h79q99 -51 99 -158v-80q-209 -629 -277 -1049q39 -73 39 -159q-26 -79 -178 -79l-60 79q0 73 238 911h-20q-268 -198 -336 -198h-80q-28 0 -59 60v59q0 289 436 574q65 40 119 40zM158 990q20 0 20 -20q182 45 357 317v60h-20q-199 0 -357 -357z" />
    <glyph glyph-name="uni2034" unicode="&#x2034;" horiz-adv-x="40" 
d="M1041 565l39 -79v-39q-6 -40 -65 -78q-97 39 -116 39q-13 0 -13 -20q-103 40 -246 40q-138 -40 -181 -40h-181q-29 0 -52 -19q-13 0 -13 19q-157 -19 -245 -98q-78 20 -78 59v39q0 54 26 118q576 39 931 39q12 0 104 -19q51 39 90 39z" />
    <glyph glyph-name="uni20A2" unicode="&#x20a2;" horiz-adv-x="40" 
d="M1873 565l67 -79v-39q-10 -40 -111 -78q-167 39 -201 39q-22 0 -22 -20q-178 40 -424 40q-237 -40 -311 -40h-312q-51 0 -90 -19q-22 0 -22 19q-271 -19 -423 -98q-134 20 -134 59v39q0 54 45 118q992 39 1604 39q20 0 178 -19q89 39 156 39z" />
    <glyph glyph-name="uni20A5" unicode="&#x20a5;" horiz-adv-x="40" 
d="M2938 565l102 -79v-39q-15 -40 -171 -78q-257 39 -308 39q-34 0 -34 -20q-273 40 -651 40q-365 -40 -479 -40h-480q-77 0 -137 -19q-34 0 -34 19q-417 -19 -651 -98q-205 20 -205 59v39q0 54 68 118q1525 39 2466 39q30 0 274 -19q137 39 240 39z" />
    <glyph glyph-name="uni20A0" unicode="&#x20a0;" horiz-adv-x="40" 
d="M3905 565l135 -79v-39q-19 -40 -225 -78q-339 39 -406 39q-45 0 -45 -20q-360 40 -857 40q-481 -40 -632 -40h-632q-101 0 -180 -19q-45 0 -45 19q-549 -19 -857 -98q-271 20 -271 59v39q0 54 90 118q2008 39 3248 39q40 0 361 -19q181 39 316 39z" />
    <glyph glyph-name="colonmonetary" unicode="&#x20a1;" horiz-adv-x="40" 
d="M4979 565l171 -79v-39q-25 -40 -285 -78q-429 39 -515 39q-57 0 -57 -20q-456 40 -1087 40q-609 -40 -800 -40h-801q-128 0 -228 -19q-58 0 -58 19q-696 -19 -1086 -98q-343 20 -343 59v39q0 54 114 118q2546 39 4117 39q50 0 458 -19q228 39 400 39z" />
    <glyph glyph-name="summation" unicode="&#x2211;" horiz-adv-x="1070" 
d="M190 1015l67 -66q-60 -458 -199 -620q86 -44 243 -44h133q487 86 487 354q-133 52 -133 88q36 89 155 89h22q88 -31 88 -177q0 -358 -663 -509h-67l-133 22l-44 -22q-376 0 -376 398q177 487 420 487zM-75 506v-88h44q83 138 155 354l-44 22q-140 -125 -155 -288z" />
    <glyph glyph-name="lessequal" unicode="&#x2264;" horiz-adv-x="1310" 
d="M214 965h86q48 0 64 -107q-27 -198 -257 -471v-21q0 -86 407 -86h21q458 0 642 407q-26 32 -256 64v21q0 60 214 86h64q29 0 107 -107v-64q0 -235 -428 -471q-250 -86 -364 -86q-664 0 -664 364q68 280 364 471zM0 515h43q100 67 171 214v43h-43q-171 -128 -171 -257z
" />
    <glyph glyph-name="uni2117" unicode="&#x2117;" horiz-adv-x="1000" 
d="M207 975h36q55 0 55 -72q-73 -126 -73 -235l343 307h55q25 0 54 -54q-181 -624 -181 -686q18 -72 127 -72l372 307q36 -6 36 -36v-72q-352 -362 -481 -362h-108q-90 40 -90 199q144 445 162 577q-444 -363 -505 -613q-43 -109 -127 -109q-72 80 -72 90v37
q293 446 361 776z" />
    <glyph glyph-name="Omega" unicode="&#x2126;" horiz-adv-x="1339" 
d="M1010 1245q163 -54 163 -162v-36q0 -26 -54 -55h-36q-91 109 -127 109q-162 0 -343 -127v-90q142 -206 399 -521q67 0 313 82h36l18 -36v-18q-231 -126 -254 -126v-96v-54q-121 -115 -746 -115h-307q-28 0 -72 72v36q39 44 433 199q0 31 273 36q130 -15 130 6
q0 23 -367 499v72q0 237 541 325zM415 162l-102 -44l228 8q23 0 117 14l66 -4q274 -24 274 87q-45 36 -54 36h-36q-403 -97 -493 -97z" />
    <glyph glyph-name="estimated" unicode="&#x212e;" horiz-adv-x="510" 
d="M405 1218h37q38 -6 38 -37q0 -47 -150 -431v-57q0 -307 93 -581q-128 -112 -150 -112q-47 0 -468 94q-75 0 -75 112q344 213 468 544q0 270 207 468zM161 468q0 -44 -187 -224v-57l224 -18q37 18 57 18q-19 281 -75 281h-19z" />
    <glyph glyph-name="uni2101" unicode="&#x2101;" horiz-adv-x="2090" 
d="M627 955q157 -39 157 -137q-69 -251 -157 -472v-78h39q473 275 904 275q265 -18 471 -217l20 -39v-59q0 -102 -59 -118h-39q-170 334 -452 334h-98q-490 -96 -864 -451q-244 -963 -491 -963q-29 0 -59 59v98q0 298 235 629q211 133 295 589q0 44 20 79h-20
q-227 -258 -393 -275q-152 44 -216 98q0 211 255 393q275 255 452 255zM77 425v-59h20q183 0 432 393h-79q-269 -180 -373 -334zM313 -263q-197 -320 -197 -432v-59h20q88 17 216 472z" />
    <glyph glyph-name="uni2101" unicode="&#x214d;" horiz-adv-x="2090" 
d="M627 955q157 -39 157 -137q-69 -251 -157 -472v-78h39q473 275 904 275q265 -18 471 -217l20 -39v-59q0 -102 -59 -118h-39q-170 334 -452 334h-98q-490 -96 -864 -451q-244 -963 -491 -963q-29 0 -59 59v98q0 298 235 629q211 133 295 589q0 44 20 79h-20
q-227 -258 -393 -275q-152 44 -216 98q0 211 255 393q275 255 452 255zM77 425v-59h20q183 0 432 393h-79q-269 -180 -373 -334zM313 -263q-197 -320 -197 -432v-59h20q88 17 216 472z" />
    <glyph glyph-name="uni2132" unicode="&#x2132;" horiz-adv-x="2400" 
d="M732 875h22q43 -7 43 -43v-22q-75 -189 -130 -520h22q526 433 1041 433h43q542 -152 542 -412v-65q0 -43 -43 -43h-22q-212 412 -694 412q-976 -239 -976 -846q-57 -145 -130 -867q-98 -347 -347 -347q-65 80 -108 282q0 322 369 1019q119 135 195 477l-44 22
q-348 -239 -455 -239h-65q-53 0 -65 217q163 477 239 477h43q43 -7 43 -43v-22q0 -31 -152 -369v-65h44q171 0 412 282q101 269 173 282zM125 -1185q22 -42 22 -65h65q108 0 195 846h-22q-260 -327 -260 -781z" />
    <glyph glyph-name="uni2132" unicode="&#x214e;" horiz-adv-x="2400" 
d="M732 875h22q43 -7 43 -43v-22q-75 -189 -130 -520h22q526 433 1041 433h43q542 -152 542 -412v-65q0 -43 -43 -43h-22q-212 412 -694 412q-976 -239 -976 -846q-57 -145 -130 -867q-98 -347 -347 -347q-65 80 -108 282q0 322 369 1019q119 135 195 477l-44 22
q-348 -239 -455 -239h-65q-53 0 -65 217q163 477 239 477h43q43 -7 43 -43v-22q0 -31 -152 -369v-65h44q171 0 412 282q101 269 173 282zM125 -1185q22 -42 22 -65h65q108 0 195 846h-22q-260 -327 -260 -781z" />
    <glyph glyph-name="uni2184" unicode="&#x2184;" horiz-adv-x="790" 
d="M518 1555q40 -6 40 -40v-40q-80 -99 -239 -578v-20l239 20h140q39 -6 39 -40q-498 -85 -498 -159q0 -36 -179 -419q68 -114 199 -159q235 20 399 79l20 -40v-19q-129 -140 -379 -140h-100q-200 0 -259 279v40q20 186 100 299v20q-80 0 -80 100q219 100 219 259
q232 538 259 538q35 20 80 20z" />
    <glyph glyph-name="intersection" unicode="&#x2229;" horiz-adv-x="2208" 
d="M2116 2045h44q87 0 87 -394v-176q-17 -355 -219 -789q-239 -350 -307 -350v-44q214 0 504 175q44 -71 44 -109q-277 -164 -438 -197q0 -22 -66 -44l-109 22q-71 -44 -241 -66q-22 0 -22 22q-417 -25 -417 -154q0 -95 -87 -131h-44q-33 0 -66 88q88 181 88 197
q-526 127 -526 307q-54 25 -241 482v87q0 32 66 66h44q88 0 175 -482q200 -285 591 -285h22q203 269 526 899q60 26 263 438q152 267 263 394zM1174 270v-44h22q253 0 525 263q417 414 417 1205l-22 154h-22q-105 -75 -811 -1381q-109 -87 -109 -197z" />
    <glyph glyph-name="logicalor" unicode="&#x2228;" horiz-adv-x="2030" 
d="M3379 2195h23q46 -7 46 -46q0 -92 -1200 -254q-1970 -462 -2123 -462q-116 17 -116 70v69l23 46l162 -23h92zM1186 1503h23q47 0 47 -70q-70 -675 -116 -900q23 -125 23 -207v-47q0 -188 -92 -461v-23q7 -46 46 -46q1381 415 1846 415l47 -69q0 -101 -831 -185
q-122 -57 -623 -161q-485 -132 -485 -162q0 -208 -46 -208h-23q-46 0 -70 185q-225 -92 -877 -254q-105 45 -115 92v70q7 46 46 46h69q78 0 116 -23l761 184v116q0 23 24 23l-24 46v208q70 301 208 1408z" />
  </font>
</defs>
</svg>
