<svg xmlns="http://www.w3.org/2000/svg">
<defs>
<font
       horiz-adv-x="997"
       id="QEMeganRikliCAP">
      <font-face
         id="font-face2724"
         unicode-range="U+001D-266B"
         underline-position="-480"
         underline-thickness="160"
         bbox="-850.107 -1922 5125 2168"
         cap-height="1249"
         x-height="814"
         descent="-615"
         ascent="2457"
         panose-1="0 0 4 0 0 0 0 0 0 0"
         units-per-em="3072"
         font-stretch="normal"
         font-variant="small-caps"
         font-weight="400"
         font-family="QEMeganRikliCAP" />
      <missing-glyph
         id="missing-glyph2726"
         horiz-adv-x="2003" />
      <glyph
         id="glyph2728"
         horiz-adv-x="2003"
         glyph-name=".notdef" />
      <glyph
         id="glyph2730"
         horiz-adv-x="0"
         glyph-name="uni0000" />
      <glyph
         id="glyph2732"
         horiz-adv-x="0"
         glyph-name="uni0000" />
      <glyph
         id="glyph2734"
         horiz-adv-x="768"
         glyph-name="uni000D" />
      <glyph
         id="glyph2736"
         unicode=" "
         glyph-name="space" />
      <glyph
         id="glyph2738"
         horiz-adv-x="0"
         glyph-name="uni001D" />
      <glyph
         id="glyph2740"
         horiz-adv-x="613"
         glyph-name="nonmarkingreturn.1" />
      <glyph
         id="glyph2742"
         d="M246 97q-7 13 -4 18t11 5q6 0 13 -3t11.5 -6.5t4.5 -8t-8 -7.5 M347 808q88 238 177 476q38 101 80 212.5t84.5 223.5t84.5 221t79 206 "
         horiz-adv-x="990"
         unicode="!"
         glyph-name="exclam" />
      <glyph
         id="glyph2744"
         d="M516 1717q12 -47 14 -114t-7 -147.5t-28 -170t-48 -182.5 M861 1799q-25 -70 -43.5 -147.5t-33 -158.5t-26 -163.5t-20.5 -160.5 "
         horiz-adv-x="810"
         unicode="&quot;"
         glyph-name="quotedbl" />
      <glyph
         id="glyph2746"
         d="M4 689q198 95 402.5 153.5t418 93t437.5 51t462 27.5 M189 302q107 45 206 78t197 57t198.5 41t210 31.5t231.5 28.5t263 30 M1280 1430q-59 -114 -113.5 -249t-107 -301t-104.5 -368t-106 -450 M966 1335q-51 -73 -98 -172.5t-89.5 -214t-81 -238t-73 -246t-65 -237.5 t-58.5 -212 "
         horiz-adv-x="1900"
         unicode="#"
         glyph-name="numbersign" />
      <glyph
         id="glyph2748"
         d="M1034 1873q-101 -225 -191 -455.5t-169 -451.5t-145.5 -425.5t-120.5 -377.5t-94.5 -308.5t-66.5 -218.5 M1134 1178q-21 77 -56.5 131.5t-82 90t-101.5 52t-115 16.5q-74 0 -152 -23t-155 -66q-119 -66 -155.5 -144t-9 -167.5t110.5 -189t204 -209.5 q113 -103 187 -189.5t94 -149t-22 -97.5t-160 -35q-98 0 -193.5 20.5t-176.5 65t-142.5 115.5t-91.5 172 "
         horiz-adv-x="1330"
         unicode="$"
         glyph-name="dollar" />
      <glyph
         id="glyph2750"
         d="M1007 614q-42 -42 -73 -90t-49 -95.5t-23 -91t5 -76.5t37 -53t71 -20q33 0 76 12.5t98 40.5q81 41 125.5 96.5t61.5 115.5t9 119t-33.5 105.5t-65 75.5t-85.5 29q-50 0 -101.5 -39t-99.5 -131 M181 1535q-82 -51 -130 -108q-21 -24 -36 -52.5t-18.5 -59.5t7.5 -64.5 t43 -67.5q40 -41 84 -41q32 0 62 19t52.5 50.5t35 72.5t9 84.5t-24.5 87t-65 79.5q6 4 38.5 33t97 73t162.5 97.5t233 104.5q57 22 103 32t83 10q68 0 101.5 -35t36 -101t-25.5 -160.5t-83 -213.5q-69 -150 -148.5 -300t-164.5 -294t-173.5 -278.5t-176.5 -253.5 q-44 -59 -70 -108t-39 -88.5t-15 -70t2 -52.5q11 -53 54 -81 "
         horiz-adv-x="1590"
         unicode="%"
         glyph-name="percent" />
      <glyph
         id="glyph2752"
         d="M889 1863q-14 -167 -25 -320q-4 -65 -8.5 -134t-8.5 -133.5t-6.5 -122t-3.5 -100.5q1 0 3 13.5t-1 34.5t-14.5 46t-38 46.5t-71 35.5t-113.5 14q-57 0 -131.5 -11.5t-171.5 -38.5q-107 -30 -178.5 -69.5t-108 -81t-38 -82t32.5 -72t102.5 -51t172.5 -19.5 q115 0 271.5 28.5t357.5 94.5q0 -1 -30.5 -10.5t-80 -26t-112.5 -39t-126.5 -49.5t-121.5 -57.5t-99 -62t-58.5 -63.5t0.5 -62q16 -26 44.5 -38t66.5 -12q46 0 101 14.5t112 39.5t113.5 57t104 66.5t83 69.5t52.5 66q1 1 -12.5 -34.5t-35 -97t-48.5 -144.5t-54 -178 t-50.5 -197.5t-37.5 -202.5q-22 -150 -26 -251t-1 -162q4 -72 17 -113 "
         horiz-adv-x="1260"
         unicode="&amp;"
         glyph-name="ampersand" />
      <glyph
         id="glyph2754"
         d="M317 1646q6 -52 6.5 -115t-6 -132.5t-20.5 -142.5t-36 -145 "
         horiz-adv-x="550"
         unicode="'"
         glyph-name="quotesingle" />
      <glyph
         id="glyph2756"
         d="M619 1829q-144 -145 -242.5 -277t-160.5 -252t-92.5 -228.5t-37.5 -207.5t4 -189t32 -173q21 -82 60 -155.5t90.5 -136t111 -112t120 -84.5t119 -54t107.5 -19 "
         horiz-adv-x="930"
         unicode="("
         glyph-name="parenleft" />
      <glyph
         id="glyph2758"
         d="M156 1697q121 -201 211 -405q38 -87 73.5 -184t61 -196t37 -197t2.5 -188q-10 -100 -36 -180t-62.5 -143.5t-80 -111.5t-87.5 -83q-102 -82 -226 -120 "
         horiz-adv-x="750"
         unicode=")"
         glyph-name="parenright" />
      <glyph
         id="glyph2760"
         d="M176 1243q10 -42 29.5 -62t56.5 -20q49 0 135.5 37.5t225.5 112.5q68 37 138.5 82.5t142.5 96t144.5 103.5t143.5 103t140 95.5t133 81.5 M1092 2101q-22 -135 -49 -274t-53.5 -271t-48.5 -252t-33.5 -217t-9.5 -165.5t24 -98.5 M507 1879q61 -70 136 -133 q32 -27 70.5 -54.5t82 -53t92.5 -48t102 -37.5q119 -34 216.5 -83.5t167.5 -97.5q83 -55 148 -113 "
         horiz-adv-x="1700"
         unicode="*"
         glyph-name="asterisk" />
      <glyph
         id="glyph2762"
         d="M14 558q135 16 244 28.5t206.5 21.5t188.5 13.5t190 4.5t43 -1 M568 975q-17 -77 -33 -166.5t-29 -182t-23 -184t-16.5 -173t-9 -149t-0.5 -112.5 "
         horiz-adv-x="1100"
         unicode="+"
         glyph-name="plus" />
      <glyph
         id="glyph2764"
         d="M261 225q-13 -104 -31.5 -188t-40 -157t-45 -139t-48.5 -133 "
         horiz-adv-x="652"
         unicode=","
         glyph-name="comma" />
      <glyph
         id="glyph2766"
         d="M193 520q124 40 257.5 71t261.5 58t244 51t204 50 "
         horiz-adv-x="1370"
         unicode="-"
         glyph-name="hyphen" />
      <glyph
         id="glyph2768"
         d="M193 520q124 40 257.5 71t261.5 58t244 51t204 50 "
         horiz-adv-x="1370"
         unicode="‐"
         glyph-name="hyphen" />
      <glyph
         id="glyph2770"
         d="M268 105q-7 13 -4 18t11 5q6 0 13 -3t11.5 -6.5t4.5 -8t-8 -7.5 "
         horiz-adv-x="720"
         unicode="."
         glyph-name="period" />
      <glyph
         id="glyph2772"
         d="M982 1917q-41 -70 -95 -164.5t-114.5 -204.5t-125.5 -231.5t-128.5 -244.5t-124 -244t-112 -230.5t-91 -203t-62.5 -162t-26.5 -107t17.5 -38.5q23 0 77.5 50t148.5 162 "
         horiz-adv-x="1150"
         unicode="/"
         glyph-name="slash" />
      <glyph
         id="glyph2774"
         d="M380 1280q-73 -135 -127 -267t-87 -251t-44 -220t1 -175t48 -115.5t97 -41.5q6 0 12 0.5t13 1.5q69 9 129 57t109 122t86 166.5t59 191.5t28.5 197.5t-5.5 183.5q-10 75 -27.5 139t-43 110.5t-58.5 73t-75 26.5q-58 0 -136 -59t-176 -195q-68 -94 -100 -153.5t-38.5 -93 t6.5 -45.5t34 -12q17 0 34.5 5t32.5 10q18 7 35 15 "
         horiz-adv-x="910"
         unicode="0"
         glyph-name="zero" />
      <glyph
         id="glyph2776"
         d="M483 1434q-38 -118 -79 -255.5t-80.5 -279t-76.5 -280.5t-69 -259.5t-57 -215t-41 -148.5 "
         horiz-adv-x="710"
         unicode="1"
         glyph-name="one" />
      <glyph
         id="glyph2778"
         d="M29 940q97 110 187 197q38 37 78.5 72t78.5 62.5t71.5 44.5t58.5 17q23 0 36.5 -16t15 -53t-10 -97t-39.5 -147q-45 -140 -89.5 -256t-86 -210.5t-79 -168t-70.5 -128.5q-76 -130 -143 -202q156 57 314 117q67 26 141 54.5t150 58.5t150 61t141 60 "
         unicode="2"
         glyph-name="two" />
      <glyph
         id="glyph2780"
         d="M157 1042q74 66 144 119q30 22 62.5 43.5t64 38t60.5 26.5t53 10q25 0 42.5 -13t23.5 -44q10 -49 -9 -105t-58.5 -114t-95.5 -116.5t-120 -112.5t-132.5 -102.5t-132.5 -86.5q1 0 22.5 11t58 28t86 36t106.5 36t120 28t126 11q59 0 115.5 -11.5t107.5 -39.5 q64 -35 83 -74.5t5 -81t-55 -83t-97.5 -79.5t-123 -71t-131.5 -57t-123 -38t-97 -14q-33 0 -48.5 11t-7 35t44.5 62.5t107 93.5 "
         horiz-adv-x="1080"
         unicode="3"
         glyph-name="three" />
      <glyph
         id="glyph2782"
         d="M406 1426q3 -97 -19 -201t-70 -207.5t-123 -201.5t-179 -183q0 -1 15.5 8.5t57.5 24.5t115.5 33t188.5 33t277.5 25.5t382.5 10.5 M1064 1785q-84 -222 -164 -445q-34 -95 -70.5 -200t-72 -211.5t-68.5 -211t-60 -198.5t-44.5 -166t-28 -126.5t-15.5 -92.5t-6 -63 q-1 -60 14 -73 "
         horiz-adv-x="1310"
         unicode="4"
         glyph-name="four" />
      <glyph
         id="glyph2784"
         d="M1088 1324q-77 -41 -159 -66.5t-160.5 -39.5t-150 -19t-128.5 -5q-35 0 -64 1t-49 3q-24 2 -42 4 M394 1197q-74 -121 -121.5 -218.5t-82.5 -186t-65 -174.5t-70 -183q3 0 19 21t45.5 53t72.5 70t100 72t127.5 59.5t154.5 31.5q8 1 15 1q79 0 140.5 -31t100 -82 t51.5 -116.5t-5 -134.5t-70 -135.5t-143 -119.5q-73 -43 -143 -61t-130 -18q-57 0 -102.5 14t-74 36.5t-37 51t8.5 58t62 57.5t123 49 "
         horiz-adv-x="1280"
         unicode="5"
         glyph-name="five" />
      <glyph
         id="glyph2786"
         d="M501 1485q-57 -133 -110.5 -265t-99.5 -257t-82 -240.5t-58 -215.5t-27.5 -182t9.5 -140t53 -89t103 -30t139.5 32.5t150.5 83.5t148 119t132 139.5t103.5 145.5t62.5 136.5t8 113.5t-60 75q-19 10 -41 10q-37 0 -80 -26t-87.5 -70.5t-88 -104t-82.5 -126.5t-71.5 -137.5 t-54.5 -137.5t-31 -126.5t-1.5 -104t34 -70.5t75.5 -26t11.5 1 "
         horiz-adv-x="1220"
         unicode="6"
         glyph-name="six" />
      <glyph
         id="glyph2788"
         d="M37 1240q85 0 175.5 10t180 27t175.5 40t163 49.5t141.5 55t111.5 56.5q1 0 -32.5 -53t-86 -149t-115.5 -229.5t-121 -293.5q-48 -117 -81 -206t-52.5 -156t-26 -114.5t-2.5 -82t17.5 -59t34.5 -44.5 "
         horiz-adv-x="1150"
         unicode="7"
         glyph-name="seven" />
      <glyph
         id="glyph2790"
         d="M582 1576q-31 -5 -64.5 -20t-62.5 -43.5t-50.5 -74t-28 -112.5t4.5 -158.5t47 -212.5q51 -173 78 -318.5t22 -250.5t-45.5 -164t-124.5 -59q-8 0 -16 0.5t-16 1.5q-96 12 -157.5 63.5t-74 133.5t31 189.5t156.5 231.5q54 60 114 124.5t117.5 130.5t107.5 131t84 124.5 t47.5 111.5t-1.5 92t-63.5 66.5t-138.5 34.5 "
         horiz-adv-x="910"
         unicode="8"
         glyph-name="eight" />
      <glyph
         id="glyph2792"
         d="M699 1101q40 261 7.5 395.5t-124.5 134.5q-57 0 -133 -52.5t-171 -159.5q-84 -96 -139 -183t-78.5 -153.5t-15 -106t50.5 -39.5q39 0 107.5 39.5t169.5 128.5q79 70 143 128.5t114 106.5t88 86t65 67q65 69 95 109q-99 -363 -181 -694q-35 -141 -69.5 -289.5t-64 -287.5 t-51 -261t-29.5 -211 "
         horiz-adv-x="1060"
         unicode="9"
         glyph-name="nine" />
      <glyph
         id="glyph2794"
         d="M215 259q-7 13 -4 18t11 5q6 0 13 -3t11.5 -6.5t4.5 -8t-8 -7.5 M248 736q-7 13 -4 18t11 5q6 0 13 -3t11.5 -6.5t4.5 -8t-8 -7.5 "
         horiz-adv-x="630"
         unicode=":"
         glyph-name="colon" />
      <glyph
         id="glyph2796"
         d="M229 718q10 5 14 5q7 0 8.5 -6.5t-0.5 -14t-6 -14t-9 -6.5t-8 8 M228 241q44 -120 47.5 -215t-27.5 -178.5t-93.5 -164t-149.5 -171.5 "
         horiz-adv-x="700"
         unicode=";"
         glyph-name="semicolon" />
      <glyph
         id="glyph2798"
         d="M903 1481q-76 -141 -199 -276q-53 -58 -121 -120t-153 -122.5t-187.5 -117t-224.5 -103.5q0 -1 24.5 -10.5t73 -36t119 -75.5t163 -128t205.5 -193.5t246 -272.5 "
         horiz-adv-x="1070"
         unicode="&lt;"
         glyph-name="less" />
      <glyph
         id="glyph2800"
         d="M97 704q130 17 272 30q60 5 128.5 10.5t141.5 9.5t148.5 6.5t149.5 2.5t46.5 -1 M213 414q21 -24 93 -24q54 0 134 9.5t186 21.5q31 4 60 5t58 1q66 0 121.5 -6t96.5 -14q47 -10 86 -21 "
         horiz-adv-x="1250"
         unicode="="
         glyph-name="equal" />
      <glyph
         id="glyph2802"
         d="M62 1313q97 -57 213 -117q100 -51 231.5 -112.5t283.5 -121.5q-1 1 -29.5 -19t-73 -57t-100.5 -90.5t-113.5 -120.5t-110.5 -145.5t-92.5 -166.5t-59.5 -184t-10 -197 "
         unicode="&gt;"
         glyph-name="greater" />
      <glyph
         id="glyph2804"
         d="M486 98q-7 7 -8 11.5t1 7.5t7 4.5t10 1.5q12 0 20.5 -5.5t-2.5 -13.5 M200 1553q61 55 135 99.5t151 75.5t153 47.5t141 16.5q69 0 120.5 -20t73 -63.5t7.5 -111t-76 -162.5q-79 -122 -159 -226.5t-146 -192.5t-112.5 -161t-59.5 -133t14 -107.5t107 -85.5 "
         horiz-adv-x="1177"
         unicode="?"
         glyph-name="question" />
      <glyph
         id="glyph2806"
         d="M1019 478q0 68 -9 115.5t-24.5 78t-37.5 44.5t-48 14q-45 0 -98 -36t-104.5 -96.5t-98 -139.5t-77.5 -165q-41 -114 -40 -170.5t35 -56.5q49 0 155 109.5t250 326.5q1 -1 -6 -22t-16.5 -55t-19.5 -76.5t-16 -86.5t-5 -86t12.5 -75t37 -53t69.5 -20q40 0 96.5 19.5 t134.5 64.5q88 51 153 119.5t107.5 146.5t63 161t19 161.5t-24.5 148.5t-67.5 122.5t-110.5 83.5t-153 31q-24 0 -50 -3q-90 -9 -183 -37t-184 -71t-178 -100t-164 -123.5t-141.5 -141t-111.5 -153.5t-73.5 -161.5t-27.5 -163.5q-1 -115 44.5 -204.5t125.5 -150.5t187.5 -93 t228.5 -32q145 0 298 46.5t296 145.5 "
         horiz-adv-x="1730"
         unicode="@"
         glyph-name="at" />
      <glyph
         id="glyph2808"
         d="M413 549q-71 -10 -117 -19.5t-64 -17t-6 -12t55 -4.5q47 0 131.5 6.5t212.5 20.5q144 17 239 26.5t153 14t85.5 6t37.5 1.5 M106 -219q85 156 157 318.5t133.5 318.5t113.5 298t97 257q26 65 45 119.5t33 95t23.5 63t16.5 22.5q11 0 17.5 -63.5t13.5 -209.5 q8 -167 44 -310.5t87 -265.5t112 -223.5t120 -184.5 "
         horiz-adv-x="1160"
         unicode="A"
         glyph-name="A" />
      <glyph
         id="glyph2810"
         d="M230 1152q24 -166 41.5 -309t27.5 -277.5t11.5 -267t-6.5 -276.5 M-117 1145q154 70 277.5 100t220.5 30q110 0 186 -32t119.5 -83t55 -113t-6.5 -122q-17 -57 -61 -100.5t-100 -74.5t-117.5 -51.5t-114.5 -32.5t-91 -17t-46 -5q2 0 39.5 -3.5t99 -13t142 -27t168.5 -45 t179 -67t173 -93.5q123 -81 150 -162.5t-25 -149t-172.5 -114t-292.5 -57.5q-16 -1 -31.5 -1.5t-30.5 -0.5q-102 0 -178 21t-125 57t-69.5 84t-11 101t50 108.5t113.5 106.5 "
         horiz-adv-x="1360"
         unicode="B"
         glyph-name="B" />
      <glyph
         id="glyph2812"
         d="M636 1053q-25 67 -70 104.5t-101 37.5q-36 0 -74.5 -17t-77 -53t-75.5 -91.5t-70 -133.5q-43 -100 -70.5 -204.5t-36 -202t5 -183.5t53.5 -150.5t108.5 -101.5t170.5 -37q111 0 265 51t356 166 "
         horiz-adv-x="1085"
         unicode="C"
         glyph-name="C" />
      <glyph
         id="glyph2814"
         d="M261 1026q10 -55 20.5 -133.5t21 -167.5t19.5 -182t15.5 -178t9 -156.5t-0.5 -115.5 M15 1185q50 11 102 16t106 5q116 0 235.5 -22t231.5 -59.5t211.5 -87.5t175.5 -106.5t123 -116t54 -115.5q8 -65 -27 -130.5t-100 -127.5t-152 -118.5t-182.5 -102.5t-192 -80 t-179.5 -52q-31 -7 -58.5 -9.5t-52.5 -2.5q-49 0 -85.5 10t-60 24.5t-33 32t-5 32t23.5 24.5t52 10q37 0 91 -15 "
         horiz-adv-x="1430"
         unicode="D"
         glyph-name="D" />
      <glyph
         id="glyph2816"
         d="M881 1372q-169 -59 -322 -105q-65 -19 -133 -38t-131 -34t-117.5 -24t-93.5 -9t-10.5 1q2 1 6 -32.5t9.5 -91t11.5 -134.5t11.5 -164.5t11 -180t9.5 -180.5t6 -167.5t1 -139.5q4 2 49 19t147.5 43.5t272 59t423.5 65.5 M80 640q36 17 101 41q55 21 146 52.5 t229 74.5 "
         horiz-adv-x="1110"
         unicode="E"
         glyph-name="E" />
      <glyph
         id="glyph2818"
         d="M8 583q42 3 99 6.5t122.5 8.5t136.5 11.5t141 15t136 19t122 23.5 M187 1185q28 -139 50 -281q10 -60 19.5 -127t17 -136t13 -137t6.5 -131q2 -73 5 -136.5t8 -110t13 -73.5t18 -27q8 0 17.5 15t20.5 47.5t24.5 84t28.5 123.5 M144 1012q128 66 284 124q67 24 146.5 49 t169.5 46.5t189 39t205 27.5 "
         horiz-adv-x="1270"
         unicode="F"
         glyph-name="F" />
      <glyph
         id="glyph2820"
         d="M574 1031q-4 41 -19.5 73t-38 55t-51 35t-60.5 12q-37 0 -76.5 -17.5t-76 -55.5t-68 -97.5t-52.5 -143.5q-21 -82 -33.5 -168.5t-10.5 -168t22 -153.5t63.5 -126.5t113.5 -86t173 -31.5q81 0 182 21.5t228 69.5 M413 556q132 111 227 176t150 65q41 0 58.5 -39t10.5 -125 q-8 -102 -4 -201.5t14 -183t22 -142.5t20 -80 "
         horiz-adv-x="1110"
         unicode="G"
         glyph-name="G" />
      <glyph
         id="glyph2822"
         d="M8 551q261 106 513 163.5t481 79.5 M190 1364q-8 -234 -21 -465q-5 -98 -12 -205.5t-15.5 -215t-18.5 -211t-22 -193.5 M817 1468q-17 -82 -35 -185t-33 -220.5t-25.5 -246t-13 -262.5t4.5 -270.5t28 -269.5 "
         horiz-adv-x="1110"
         unicode="H"
         glyph-name="H" />
      <glyph
         id="glyph2824"
         d="M68 1138q125 23 248.5 43t241.5 35t229.5 24t211.5 9q88 0 165.5 -7t143.5 -24 M14 107q33 -8 72.5 -11t84.5 -3q91 0 204.5 11t246 25.5t282.5 30t314 24.5 M592 1214q-8 -132 -12.5 -277.5t-7.5 -289.5t-5.5 -278.5t-6.5 -244.5 "
         horiz-adv-x="1450"
         unicode="I"
         glyph-name="I" />
      <glyph
         id="glyph2826"
         d="M37 1078q146 49 303.5 90.5t314 71.5t307.5 47t284 17q76 0 145 -6 M683 1229q36 -207 67 -386t40 -322.5t-12.5 -247.5t-89.5 -161q-42 -35 -87.5 -50.5t-93.5 -15.5q-55 0 -110 18.5t-105 51.5t-92.5 77.5t-71.5 96.5 "
         horiz-adv-x="1480"
         unicode="J"
         glyph-name="J" />
      <glyph
         id="glyph2828"
         d="M132 1251q0 -82 5.5 -182t14.5 -209t21.5 -222t27.5 -221t30.5 -206.5t31.5 -177.5 M739 1211q-36 -76 -89.5 -149.5t-116.5 -142t-131 -130t-132.5 -113.5t-121.5 -93t-97 -67q2 0 34 -5.5t87.5 -16t130.5 -26t162 -35.5t182.5 -44t191.5 -52.5t189 -60.5t175 -68 "
         horiz-adv-x="1290"
         unicode="K"
         glyph-name="K" />
      <glyph
         id="glyph2830"
         d="M59 1382q15 -109 23 -226.5t11.5 -236.5t3.5 -235.5t-2 -224t-5 -203t-6 -172.5q0 -1 21.5 9t60.5 25t94 33t121.5 33.5t143 26t158.5 10.5q68 0 140 -9 "
         horiz-adv-x="990"
         unicode="L"
         glyph-name="L" />
      <glyph
         id="glyph2832"
         d="M88 84q6 82 13 173t13.5 185t13 186.5t12.5 176.5t11 156.5t9 126t6 84t2 31.5t2.5 -36.5t9.5 -98.5t18.5 -139t30 -157.5t44 -153.5t60.5 -128q47 -72 81 -105.5t65 -33.5q38 0 78 48.5t98 138.5q32 49 60.5 108t53.5 122.5t46.5 128.5t39.5 126q42 142 74 290 q-24 -176 -8 -387q6 -90 21.5 -196.5t44.5 -226t74 -250.5t109 -271 "
         horiz-adv-x="1320"
         unicode="M"
         glyph-name="M" />
      <glyph
         id="glyph2834"
         d="M962 1397q-13 -39 -28.5 -95t-25.5 -133t-9.5 -176.5t19 -227t59.5 -285t113 -348.5q2 1 -27 12.5t-80.5 35.5t-120.5 62t-148 91.5t-162.5 124t-163.5 160.5t-151.5 200t-126.5 243q-2 0 -3 -43t0.5 -117t6 -174t14.5 -214.5t26 -237t40 -242.5 "
         horiz-adv-x="1280"
         unicode="N"
         glyph-name="N" />
      <glyph
         id="glyph2836"
         d="M197 1079q-26 -63 -50.5 -140t-40 -160t-19 -169t11 -167.5t50.5 -154.5t100 -131q50 -45 106 -65t116 -20q84 0 168.5 36t157 96.5t127 138.5t78.5 162q16 56 14.5 128t-20.5 147.5t-55 148.5t-89 130.5t-122.5 92.5t-155.5 35q-95 0 -209 -51t-248 -170 "
         horiz-adv-x="1200"
         unicode="O"
         glyph-name="O" />
      <glyph
         id="glyph2838"
         d="M29 1108q104 91 199.5 131.5t179.5 40.5q60 0 112.5 -19.5t94.5 -56t72.5 -88t47.5 -114.5q15 -56 2 -113t-46.5 -109t-82.5 -97t-105.5 -78.5t-117 -52.5t-115.5 -19q-44 0 -82 13.5t-67 42.5 M216 1068q-6 -57 -0.5 -121.5t18 -138t30 -157t33.5 -180t29.5 -206.5 t17.5 -236 "
         horiz-adv-x="940"
         unicode="P"
         glyph-name="P" />
      <glyph
         id="glyph2840"
         d="M529 741q27 -43 69.5 -89.5t94 -98.5t108.5 -109.5t111 -122t102 -136.5t83 -152 M457 1152q-38 38 -80 38q-37 0 -74 -31t-73.5 -89.5t-72 -143t-69.5 -191.5q-24 -75 -35 -154t-7.5 -153.5t22.5 -140t54.5 -114.5t89 -77.5t125.5 -28.5q44 0 93.5 11t107.5 35 q174 73 277 165t145 203.5t29 243.5t-71 284q-52 138 -116 201t-132 63q-41 0 -83 -21.5t-82.5 -61.5t-79.5 -97.5t-74 -130.5 "
         horiz-adv-x="1250"
         unicode="Q"
         glyph-name="Q" />
      <glyph
         id="glyph2842"
         d="M132 -18q4 215 3 378t-5 288t-10.5 220t-13.5 174q-5 61 19.5 103t67 68t97.5 37.5t111 11.5q35 0 67.5 -4t61.5 -11q36 -9 79.5 -32t81.5 -55.5t63.5 -72.5t26 -83t-31.5 -87.5t-109 -85t-205.5 -76t-321.5 -60.5q0 3 27.5 -17t80 -54t129 -79t174.5 -93t216.5 -95.5 t254.5 -85.5 "
         horiz-adv-x="1170"
         unicode="R"
         glyph-name="R" />
      <glyph
         id="glyph2844"
         d="M574 1079q-48 98 -110.5 147.5t-127.5 49.5q-61 0 -117 -44.5t-98 -137.5q-28 -63 -28.5 -116t20.5 -99t60 -86.5t90 -78.5t110.5 -75t120.5 -76t114 -75.5t88.5 -72t48.5 -70.5t-6 -70.5t-75 -73t-159 -77.5q-92 -36 -162 -52.5t-122 -16.5q-61 0 -96 21t-46.5 58 t-1.5 88t40 111 "
         horiz-adv-x="860"
         unicode="S"
         glyph-name="S" />
      <glyph
         id="glyph2846"
         d="M563 1214q46 -274 83 -510q15 -101 30 -203.5t26.5 -194t18.5 -165t7 -115.5 M-128 1181q96 0 209 4t234 11t247.5 15.5t249.5 18.5t240 20t219 19 "
         horiz-adv-x="1450"
         unicode="T"
         glyph-name="T" />
      <glyph
         id="glyph2848"
         d="M91 1119q6 -141 10 -270t9 -240t12 -201.5t20 -154t33.5 -98.5t50.5 -35q31 0 73.5 36.5t99.5 117.5q58 80 103.5 168t81 177.5t61.5 177t45 166.5q43 185 60 368q-53 -348 -66 -621q-3 -77 -3 -153.5t5 -145.5t16 -128t30 -102t46.5 -67.5t64.5 -24.5q33 0 74 21t92 66  "
         horiz-adv-x="1190"
         unicode="U"
         glyph-name="U" />
      <glyph
         id="glyph2850"
         d="M60 1221q102 -245 210 -467q46 -94 98.5 -193t107.5 -191t111.5 -172t111.5 -136q2 1 -1.5 37t-3.5 107t7 176.5t28.5 246.5t62 316.5t108.5 385.5 "
         horiz-adv-x="1070"
         unicode="V"
         glyph-name="V" />
      <glyph
         id="glyph2852"
         d="M55 1244q93 -272 169 -489t131 -372q65 -181 117 -321q3 123 40 264q16 60 41 130t62 147t87.5 159t116.5 167q3 1 15 -25t31 -70.5t43.5 -103.5t52 -125.5t57 -135.5t57.5 -133q38 -87 61 -133.5t41 -46.5q11 0 21.5 18.5t23.5 57.5t29.5 99.5t39.5 143.5q28 101 50 199 t39.5 187t30 165t21 132t12.5 88t4 34 "
         horiz-adv-x="1610"
         unicode="W"
         glyph-name="W" />
      <glyph
         id="glyph2854"
         d="M96 1084q-14 -46 -12.5 -109t23.5 -136t67.5 -154t119.5 -164q37 -42 79 -74.5t85 -58t85.5 -44.5t81.5 -32q92 -31 184 -43 M710 1390q-59 -105 -110.5 -207.5t-99 -209t-93 -221t-91.5 -244t-95 -278.5t-104 -325 "
         horiz-adv-x="930"
         unicode="X"
         glyph-name="X" />
      <glyph
         id="glyph2856"
         d="M29 1163q55 -70 103.5 -131t106.5 -116.5t133.5 -107t183.5 -102.5 M691 1397q-45 -124 -80 -233.5t-61 -216t-44.5 -217.5t-30 -238.5t-16.5 -278.5t-5 -337 "
         horiz-adv-x="890"
         unicode="Y"
         glyph-name="Y" />
      <glyph
         id="glyph2858"
         d="M40 995q158 39 287.5 51t217.5 12q64 0 102 -2.5t46 -2.5q0 1 -11.5 -29t-31.5 -82.5t-47.5 -122t-61 -147.5t-70.5 -160.5t-76 -159.5t-78.5 -145.5t-77.5 -118.5q9 0 50 7.5t104 19.5t143.5 25t169 25t181 19.5t179.5 7.5q91 0 169.5 -10t135.5 -36 "
         horiz-adv-x="1440"
         unicode="Z"
         glyph-name="Z" />
      <glyph
         id="glyph2860"
         d="M849 2129q-48 -17 -99.5 -28t-102.5 -17t-100 -8.5t-91 -2.5q-37 0 -67.5 1t-52.5 3q-26 2 -47 4q-10 -347 -32 -723q-9 -160 -21.5 -341.5t-29 -374.5t-38 -392.5t-47.5 -394.5q2 0 30 8.5t73 20.5t103.5 27t122.5 27t128.5 20.5t122.5 8.5 "
         unicode="["
         glyph-name="bracketleft" />
      <glyph
         id="glyph2862"
         d="M51 1258q110 -184 220.5 -364t229 -342t247.5 -298t276 -232 "
         horiz-adv-x="1210"
         unicode="\"
         glyph-name="backslash" />
      <glyph
         id="glyph2864"
         d="M78 1970q43 -5 99.5 -7.5t120.5 -2.5q98 0 201 4t189 9q100 5 195 12q-76 -405 -124 -793q-13 -110 -25 -226.5t-20.5 -234.5t-13.5 -234.5t-3.5 -227.5t8.5 -213.5t23 -192.5q1 -1 -2 -1q-9 0 -45.5 2.5t-96.5 2.5q-75 0 -180 -8.5t-228 -34.5 "
         unicode="]"
         glyph-name="bracketright" />
      <glyph
         id="glyph2866"
         d="M43 232q-5 -72 18.5 -111.5t83.5 -39.5q38 0 91.5 18t124 56t159.5 98t198 144 "
         horiz-adv-x="719"
         unicode="^"
         glyph-name="asciicircum" />
      <glyph
         id="glyph2868"
         d="M36 -104q75 12 161.5 21t179.5 15.5t190 10t192 3.5q96 0 188 -4t174.5 -12t152.5 -20.5t123 -30.5t85.5 -41t39.5 -52 "
         horiz-adv-x="1670"
         unicode="_"
         glyph-name="underscore" />
      <glyph
         id="glyph2870"
         unicode="`"
         glyph-name="grave" />
      <glyph
         id="glyph2872"
         d="M483 607q37 69 49.5 123.5t6 92t-30 57.5t-58.5 20q-29 0 -65 -14.5t-76 -45t-83 -77.5t-85 -112q-48 -73 -87 -145t-67 -137.5t-44.5 -121.5t-18.5 -97t10.5 -64.5t41.5 -23.5q26 0 66 20.5t97 67.5q123 101 196.5 185t114.5 147q48 72 68 131q-55 -137 -73 -244 q-8 -46 -8.5 -89.5t11.5 -77.5t39.5 -54.5t75.5 -19.5t90.5 13t79 31t67 43t54.5 49q58 59 99 133 "
         horiz-adv-x="953"
         unicode="a"
         glyph-name="a" />
      <glyph
         id="glyph2874"
         d="M486 1335q-75 -98 -145.5 -211.5t-132.5 -233t-113.5 -240t-87.5 -233.5t-54.5 -213t-14.5 -178t7.5 25t26 53t55.5 90t96.5 136t147.5 192.5q155 196 258 302.5t167 106.5q46 0 75 -58t45 -182q10 -73 -1.5 -149t-40 -146.5t-72 -132.5t-98.5 -108t-118.5 -72.5 t-132.5 -26.5q-71 0 -145 32.5t-146 104.5q1 1 14 -6t40.5 -16t70.5 -16.5t104 -7.5q62 0 142 10.5t182 37.5t226 74t273 120 "
         horiz-adv-x="1114"
         unicode="b"
         glyph-name="b" />
      <glyph
         id="glyph2876"
         d="M354 466q37 118 52.5 204t14 142.5t-18 83.5t-44.5 27q-27 0 -62 -24t-75 -70t-83.5 -113t-86.5 -154q-53 -107 -52.5 -200.5t41 -163t113.5 -109.5t166 -40q61 0 128 19.5t136 61.5t138.5 108t134.5 159 "
         horiz-adv-x="856"
         unicode="c"
         glyph-name="c" />
      <glyph
         id="glyph2878"
         d="M746 546q-7 230 -60.5 343t-145.5 113q-113 0 -271 -163q-72 -74 -129.5 -159t-96.5 -169.5t-55.5 -162.5t-6.5 -138t50.5 -96t115.5 -36q9 0 18 0.5t19 1.5q87 10 160 51.5t141 117.5t136 188.5t146 263.5t170 342.5t207 425.5 M690 556q-53 -95 -72 -177t-8.5 -142.5 t48 -95t96.5 -34.5q39 0 85.5 16.5t100.5 51.5t114 90t124 132 "
         horiz-adv-x="1178"
         unicode="d"
         glyph-name="d" />
      <glyph
         id="glyph2880"
         d="M0 397q137 119 224 216t131.5 166.5t51 107.5t-17.5 38q-27 0 -88.5 -55.5t-146.5 -178.5q-100 -145 -143.5 -263t-31.5 -201t79 -128.5t188 -45.5q35 0 74 4t83 12q69 13 127 33.5t106.5 46t87.5 54t69 55.5q71 65 116 139 "
         horiz-adv-x="909"
         unicode="e"
         glyph-name="e" />
      <glyph
         id="glyph2882"
         d="M308 1557q6 -179 -35 -434q-18 -108 -47.5 -244t-75.5 -299t-110.5 -353.5t-152.5 -408.5q-159 -396 -266.5 -703t-158 -517t-42.5 -319.5t79 -109.5q27 0 68 19q48 23 103.5 89t112 165t111 225.5t100.5 270.5t81.5 299.5t53.5 313t15.5 311.5t-31.5 294 q-18 90 -35.5 150t-32.5 96.5t-27 52t-20 15.5t-9.5 -16t5.5 -40t24 -52.5t45.5 -52.5t70.5 -40t98 -16q71 0 166 32.5t219 111.5 "
         horiz-adv-x="617"
         unicode="f"
         glyph-name="f" />
      <glyph
         id="glyph2884"
         d="M662 633q-6 80 -18.5 136t-31.5 91.5t-44 51.5t-54 16q-35 0 -75.5 -20.5t-85 -56.5t-92.5 -85.5t-98 -107.5q-51 -59 -92.5 -127t-70 -134.5t-43 -128t-13 -108.5t21 -75t58.5 -28q23 0 53.5 11t68.5 34q78 48 149.5 110.5t134 133t116 146.5t95 151t70 145.5 t42.5 129.5q2 -1 -17.5 -92.5t-55 -262t-84.5 -413.5t-108 -547q-48 -247 -101 -412t-108.5 -264.5t-111.5 -141t-110 -41.5q-50 0 -97 29q-41 24 -51.5 84.5t17.5 157.5t99.5 231.5t194 306.5t300.5 383t420 461 "
         horiz-adv-x="940"
         unicode="g"
         glyph-name="g" />
      <glyph
         id="glyph2886"
         d="M390 1256q-23 -53 -63 -134.5t-88.5 -182t-101 -216t-101 -235t-87.5 -239.5t-61 -230q0 -2 36.5 59t106 165t169 240.5t225.5 284.5q45 53 80 90.5t61 60.5t44 33.5t29 10.5q20 0 20 -28.5t-12.5 -73.5t-34 -100t-44.5 -108q-26 -59 -42.5 -120t-21.5 -118t2 -107 t27.5 -87.5t55 -59.5t85.5 -22q39 0 87 14t106.5 45t127.5 80t149 119 "
         horiz-adv-x="1144"
         unicode="h"
         glyph-name="h" />
      <glyph
         id="glyph2888"
         d="M912 1609l25.5 -25.5t17.5 -34.5 M346 1031q-111 -137 -182 -254.5t-111.5 -215.5t-55 -176.5t-11.5 -136t19 -94.5t36 -53q16 -12 39.5 -19t55.5 -7q45 0 105 16.5t132 54t154 99.5t171 152 "
         horiz-adv-x="698"
         unicode="i"
         glyph-name="i" />
      <glyph
         id="glyph2890"
         d="M96 1086q-25 -171 -50.5 -360t-53 -383.5t-57 -387.5t-61 -372.5t-65.5 -338t-72 -283.5q-38 -128 -82 -225.5t-90 -163.5t-91.5 -100t-86.5 -34q-38 0 -71 29.5t-58 91.5q-39 96 -31 227.5t67.5 282t172.5 311t284 313.5q86 77 152 133.5t118.5 99.5t93.5 76t76.5 63.5 t68.5 61t68.5 68.5t77 87t94.5 115 "
         horiz-adv-x="500"
         unicode="j"
         glyph-name="j" />
      <glyph
         id="glyph2892"
         d="M337 1276q-18 -96 -54 -195.5t-79.5 -202.5t-91 -209.5t-89 -216.5t-73.5 -224.5t-45 -232.5 M606 966q-80 -82 -153 -143.5t-135.5 -110.5t-114 -89t-88.5 -80q-64 -69 -97.5 -125.5t-40 -101t9.5 -77t50.5 -54t84.5 -32t109 -10.5q77 0 164.5 17t174.5 49t168 79.5 t144 108.5 "
         horiz-adv-x="882"
         unicode="k"
         glyph-name="k" />
      <glyph
         id="glyph2894"
         d="M0 358q129 93 239 227q47 57 93.5 128t87 156.5t71 185t45.5 213.5q15 117 20.5 200t3 136t-12.5 78t-27 25q-16 0 -37 -21t-46.5 -60.5t-54 -95.5t-60.5 -126q-43 -95 -90 -212t-90.5 -241.5t-78.5 -248t-53 -232.5t-15 -195.5t36 -135.5q30 -45 72.5 -73t97.5 -28 q39 0 84 17t96 55t107.5 99t117.5 149 "
         horiz-adv-x="606"
         unicode="l"
         glyph-name="l" />
      <glyph
         id="glyph2896"
         d="M101 889q-12 -87 -29 -179t-35.5 -181t-37 -171.5t-34.5 -150.5t-28 -117.5t-17 -72.5q0 -1 7 28t23 79t41 116t60.5 140t82 151.5t105.5 148.5q86 104 143 155t91 51q35 0 45 -57.5t-2 -172.5q-6 -55 -17 -111t-25 -110t-30.5 -104.5t-32.5 -94.5q-38 -104 -82 -200 q81 111 167 225q36 48 77 102t84 109.5t86.5 110.5t84.5 106q70 87 111.5 126.5t58.5 39.5q23 0 6 -67.5t-66 -189.5q-42 -105 -57 -203t2 -175.5t68.5 -127.5t142.5 -59q4 -1 8 -1q37 0 74.5 14t73 37t68.5 52.5t62 59.5q68 72 130 163 "
         horiz-adv-x="1518"
         unicode="m"
         glyph-name="m" />
      <glyph
         id="glyph2898"
         d="M128 1050q-29 -194 -64 -384q-15 -81 -33.5 -169t-39 -175.5t-43.5 -171t-47 -154.5q2 3 12.5 33t30 80.5t47.5 119t65.5 148t84.5 167.5t104 177q65 102 110.5 146t75.5 44q25 0 40.5 -25t24.5 -67t12.5 -97t3.5 -115q0 -44 0.5 -97t4 -106.5t11.5 -103t22.5 -88 t37 -61.5t54.5 -23q45 0 112 52.5t163 177.5 "
         horiz-adv-x="917"
         unicode="n"
         glyph-name="n" />
      <glyph
         id="glyph2900"
         d="M172 742q-98 -184 -149 -330q-22 -62 -35.5 -122t-12 -108t23 -79t70.5 -34q63 0 117 36t98 96.5t78 139.5t56.5 164t33.5 170t9 159q-2 94 -26.5 133.5t-59.5 39.5q-26 0 -56 -19.5t-57 -52t-49.5 -74.5t-34.5 -87.5t-11 -91.5t20 -86q33 -70 69.5 -118t78 -78 t89.5 -43t105 -13q32 0 65.5 3.5t71.5 10.5 "
         horiz-adv-x="680"
         unicode="o"
         glyph-name="o" />
      <glyph
         id="glyph2902"
         d="M285 966q-13 -87 -40 -184.5t-61.5 -202t-72.5 -215t-73 -223.5t-62.5 -228t-41.5 -228 M138 444q101 204 196 310.5t170 106.5q55 0 94.5 -61t56.5 -189q21 -150 -5.5 -258.5t-83.5 -179t-137.5 -104.5t-168.5 -36q-50 -1 -102.5 18t-100.5 51t-89 73t-68.5 85t-39 87 t-0.5 79q15 48 45 48q28 0 62 -48t62 -148q18 -62 54 -108.5t86 -77.5t112 -46.5t131 -15.5q81 0 169 20.5t176 62t172.5 103t159.5 142.5 "
         horiz-adv-x="1089"
         unicode="p"
         glyph-name="p" />
      <glyph
         id="glyph2904"
         d="M494 640q7 83 7 143t-6 98.5t-17.5 56.5t-29.5 18q-31 0 -77 -47.5t-108 -133.5q-45 -62 -91 -127t-86.5 -128.5t-72.5 -122t-49.5 -106.5t-16.5 -84t27 -53q10 -7 24 -7q25 0 60.5 20t78 55.5t90 84t95.5 105.5t95.5 120.5t90 129t78.5 131t61 125.5q6 2 -11.5 -67 t-69.5 -215t-143.5 -371.5t-233.5 -537.5q-120 -264 -205 -472t-129 -352.5t-43.5 -221t51.5 -76.5q37 0 104 43q72 47 141 138.5t125 214t94 268t47.5 300.5t-15 311.5t-92.5 301.5q0 -2 13 -4.5t39 -2.5q31 0 79 7t112.5 28.5t144 60.5t172.5 102 "
         horiz-adv-x="827"
         unicode="q"
         glyph-name="q" />
      <glyph
         id="glyph2906"
         d="M0 373q41 52 77.5 109t69 115t61 115t51.5 109q55 121 97 241q-49 -126 -75 -224q-11 -42 -18 -82.5t-7 -72t9.5 -51t32.5 -19.5q24 0 64 25t101 82q1 0 -15.5 -15.5t-41 -44.5t-51.5 -71t-47.5 -94.5t-29.5 -114.5t2 -131q15 -93 59.5 -140t115.5 -47q89 0 214.5 76 t280.5 235 "
         horiz-adv-x="950"
         unicode="r"
         glyph-name="r" />
      <glyph
         id="glyph2908"
         d="M0 373q119 50 224 138q44 38 89.5 87t86.5 112t74 140t53 170q1 -1 -2 -32t-8 -82.5t-12.5 -117.5t-16.5 -137.5t-18.5 -142t-19.5 -131.5q-10 -66 -43.5 -129.5t-80.5 -113t-104 -80t-115 -30.5q-41 0 -81 17.5t-75.5 56.5t-65 101t-50.5 152q-1 1 6.5 -18t25 -48 t46.5 -63t72 -63.5t100.5 -49.5t132.5 -20q58 0 126.5 14.5t149.5 47.5t174.5 87.5t200.5 134.5 "
         horiz-adv-x="869"
         unicode="s"
         glyph-name="s" />
      <glyph
         id="glyph2910"
         d="M-230 742q69 21 165.5 42.5t211 39t242 28t259.5 10.5q15 0 30.5 -0.5t30.5 -0.5 M410 1445q-93 -223 -165.5 -399t-124.5 -312.5t-84 -237.5t-44 -175t-4.5 -124.5t33.5 -86.5q41 -54 102 -54q42 0 90.5 24t99.5 66t103.5 100t103.5 127 "
         horiz-adv-x="520"
         unicode="t"
         glyph-name="t" />
      <glyph
         id="glyph2912"
         d="M307 927q-251 -411 -335 -616.5t11 -205.5q62 0 201 87q71 44 138 101.5t128 121.5t115.5 131t100.5 130q108 147 198 306q-74 -115 -137 -232q-26 -50 -52.5 -105.5t-49 -112.5t-39.5 -113.5t-24 -108.5q-6 -47 0.5 -82t23.5 -58t43.5 -34.5t60.5 -11.5q41 0 89 16 t100.5 47.5t107 78t106.5 107.5 "
         horiz-adv-x="1093"
         unicode="u"
         glyph-name="u" />
      <glyph
         id="glyph2914"
         d="M251 1004q-58 -101 -106 -208.5t-83.5 -210t-57 -194t-26.5 -160.5t7.5 -109t45.5 -40q32 0 80 41q61 52 117.5 100t107 103t94.5 122t79.5 154.5t63 201.5t44.5 263q1 1 -4.5 -30t-10.5 -81.5t-8 -115.5t2 -132.5t20.5 -132.5t47.5 -116t82.5 -82t125.5 -31q32 0 69 6.5 t80 20.5 "
         horiz-adv-x="1021"
         unicode="v"
         glyph-name="v" />
      <glyph
         id="glyph2916"
         d="M259 903q-67 -121 -122.5 -230.5t-97 -202.5t-67.5 -168.5t-34.5 -128.5t1.5 -81.5t40 -28.5q42 0 120 56q55 39 105.5 88t95.5 101.5t84.5 106.5t72.5 104q77 118 138 242q-70 -154 -110 -274q-17 -52 -29.5 -101.5t-14 -88t9.5 -62t40 -23.5q23 0 58.5 17t86.5 55 q155 116 241 220.5t123 195t34 165t-26 129.5 "
         horiz-adv-x="1170"
         unicode="w"
         glyph-name="w" />
      <glyph
         id="glyph2918"
         d="M37 950q-30 -105 -48.5 -203t-19 -185t21 -161.5t73 -134t136.5 -102t211 -65.5q29 -5 55 -7.5t52 -2.5q61 0 114 12t98 32t82 45.5t67 52.5q70 62 118 142 M885 1101q-109 -121 -217.5 -244t-211.5 -242t-197 -229.5t-173.5 -205t-141 -170.5t-100.5 -125 q-29 -37 -46 -67.5t-25 -54.5t-9 -42.5t3 -32.5q9 -32 39 -49 "
         unicode="x"
         glyph-name="x" />
      <glyph
         id="glyph2920"
         d="M193 883q-63 -121 -107 -232.5t-69 -208t-31.5 -175t5 -135t40.5 -87t75 -30.5t91.5 33t89.5 88t85 127.5t78.5 152.5t70 161.5t58.5 155t45.5 133.5t30.5 96q1 -3 -19 -81.5t-48 -229t-57 -372t-45 -509.5q-11 -201 -39 -365.5t-62.5 -281.5t-71 -181t-64.5 -64 q-25 0 -39.5 52.5t-12.5 166.5q2 124 31 245t79.5 236.5t120 224.5t152.5 209.5t176.5 191t192.5 169.5 "
         horiz-adv-x="949"
         unicode="y"
         glyph-name="y" />
      <glyph
         id="glyph2922"
         d="M0 373q57 104 115 186t110.5 138.5t96.5 86.5t74 30q21 0 33 -15t13.5 -46.5t-8 -79t-33.5 -113.5q-51 -141 -110 -259t-110 -206q-60 -101 -119 -183q111 186 212 333q43 63 87.5 123t86 107t77 76.5t59.5 30.5q39 2 60 -33t28 -97t2.5 -145.5t-18.5 -178.5 t-34.5 -197.5t-44.5 -202t-49.5 -191.5t-49.5 -166q-21 -67 -51 -139t-63.5 -141t-68.5 -130.5t-67.5 -108t-60 -74t-45.5 -27.5q-12 0 -19 15.5t-6.5 49.5t9 87.5t26.5 130.5q38 158 93 304t122.5 276.5t143.5 244.5t154.5 210t157.5 172.5t152 131.5 "
         horiz-adv-x="955"
         unicode="z"
         glyph-name="z" />
      <glyph
         id="glyph2924"
         d="M486 1964q-122 -63 -205.5 -129.5t-130 -131.5t-58.5 -127.5t8 -117.5t69.5 -100.5t126.5 -77.5t119.5 -75t53.5 -89.5t-8 -93t-65 -85t-118.5 -65t-167.5 -34.5q2 0 22 -3.5t50 -11t65.5 -18t68 -24t58 -31t35.5 -38t0.5 -44.5t-47.5 -51q-37 -27 -74.5 -65t-68 -83 t-50 -95t-21 -102.5t18 -105.5t67.5 -102.5t127.5 -94t198.5 -81.5 "
         horiz-adv-x="730"
         unicode="{"
         glyph-name="braceleft" />
      <glyph
         id="glyph2926"
         unicode="|"
         glyph-name="bar" />
      <glyph
         id="glyph2928"
         d="M154 1915q128 -29 200 -83.5t89.5 -127t-18.5 -159.5t-126 -182q-90 -94 -136 -168.5t-38.5 -128.5t74 -87t201.5 -44q1 1 -15.5 -4t-40 -16t-51 -27.5t-49.5 -37.5t-34.5 -47.5t-7 -57.5t34.5 -65.5t89 -73.5q80 -51 117 -110t44 -120.5t-10 -124.5t-45 -122.5 t-60.5 -113.5t-56.5 -99 "
         horiz-adv-x="640"
         unicode="}"
         glyph-name="braceright" />
      <glyph
         id="glyph2930"
         unicode="~"
         glyph-name="asciitilde" />
      <glyph
         id="glyph2932"
         d="M200 648q114 32 204 49.5t172 27t164.5 14t181.5 10.5 M1112 1502q-45 32 -89.5 46.5t-89.5 14.5q-66 0 -129 -31t-116.5 -87.5t-95 -136t-65.5 -177.5q-20 -82 -18.5 -174t11 -187.5t19 -190.5t6 -183.5t-27.5 -166.5t-82 -138.5t-158 -100.5t-255 -52l25 13.5 t81.5 33.5t148 44t224 44.5t310 34t405.5 13.5q82 0 170 -1.5t184 -6.5 "
         horiz-adv-x="1750"
         unicode="£"
         glyph-name="sterling" />
      <glyph
         id="glyph2934"
         d="M272 660q-31 35 -34.5 56.5t8.5 34.5t34 18.5t41 8.5q19 0 34.5 -16t18.5 -36t-11.5 -37t-56.5 -20 "
         horiz-adv-x="730"
         unicode="•"
         glyph-name="bullet" />
      <glyph
         id="glyph2936"
         d="M117 578q124 32 238 48.5t204 24.5q104 8 196 9 "
         unicode="–"
         glyph-name="endash" />
      <glyph
         id="glyph2938"
         d="M101 527q275 59 521 80t463 21q117 0 225 -4t208.5 -9t192.5 -10.5t176 -7.5 "
         horiz-adv-x="2060"
         unicode="—"
         glyph-name="emdash" />
      <glyph
         id="glyph2940"
         d="M486 1723q-54 -97 -89.5 -177t-52 -137t-15 -88.5t20.5 -31.5t52.5 31.5t83.5 100.5 M757 1802q-26 -38 -45 -71t-32.5 -69t-23 -78.5t-17 -98t-13.5 -127.5l-14 -168 "
         horiz-adv-x="830"
         unicode="“"
         glyph-name="quotedblleft" />
      <glyph
         id="glyph2942"
         d="M384 1712q0 -28 -5.5 -63t-14 -73.5t-19 -77.5t-21.5 -76q-26 -86 -58 -177 M518 1569q-14 -45 -25.5 -76.5t-20.5 -55t-16 -42.5t-12.5 -40.5t-9 -48.5t-6.5 -66 "
         horiz-adv-x="720"
         unicode="”"
         glyph-name="quotedblright" />
      <glyph
         id="glyph2944"
         d="M587 1846q-44 -126 -75.5 -226t-53.5 -184t-35 -157t-20 -146 "
         horiz-adv-x="540"
         unicode="‘"
         glyph-name="quoteleft" />
      <glyph
         id="glyph2946"
         d="M516 1775q-35 -78 -53 -159.5t-26 -149.5q-9 -80 -9 -155 "
         horiz-adv-x="580"
         unicode="’"
         glyph-name="quoteright" />
      <glyph
         id="glyph2948"
         d="M121 1613q1 -82 0.5 -147t0 -119t1.5 -100t4 -90t8 -89t13 -97 M834 1673q-100 -260 -179 -481t-141.5 -405.5t-110.5 -333t-86 -263.5q-20 -60 -28 -102.5t-8 -72t6.5 -47.5t16 -27.5t20.5 -12.5t20 -3t12 1q3 0 5 1 M814 756q36 60 75.5 107t78.5 79t75.5 49t65.5 17 q33 0 54 -22t23.5 -69t-17 -118.5t-66.5 -171.5t-125 -228t-193 -287q3 -1 16.5 7t42.5 20t75.5 26.5t115.5 27t162.5 21t216.5 8.5q59 0 125 -2.5t140 -7.5 "
         horiz-adv-x="1850"
         unicode="½"
         glyph-name="onehalf" />
      <glyph
         id="glyph2950"
         d="M56 1763q4 -45 9.5 -80t10.5 -72.5t8.5 -84.5t3.5 -115t-4 -163.5t-14 -231.5 M678 1785q-26 -132 -50.5 -237t-49 -193t-49 -162.5t-50 -145t-52 -140.5t-54.5 -150q-27 -77 -55 -157t-52 -155.5t-41.5 -142t-24.5 -116t-1 -78.5t29 -29q6 0 10 1 M922 1083 q-29 -85 -67.5 -169t-82 -156.5t-89 -128t-87.5 -84.5q2 -1 44.5 15.5t129 37.5t218 39.5t310.5 21.5 M1302 1434q-25 -86 -53.5 -193t-55 -226t-47.5 -247t-33 -256.5t-11.5 -252.5t17.5 -237 "
         horiz-adv-x="1520"
         unicode="¼"
         glyph-name="onequarter" />
      <glyph
         id="glyph2952"
         d="M2 1564q69 67 134.5 96.5t119.5 29.5q48 0 82.5 -20.5t48.5 -56.5t3.5 -84.5t-51.5 -104.5q-27 -36 -62.5 -71t-72.5 -65.5t-72.5 -56t-63.5 -43.5t-45 -27.5t-17 -8.5t21 13t56.5 25.5t83.5 25t102 11.5q51 0 105 -14t107 -49q49 -32 58.5 -66t-13 -65.5t-73 -60 t-121 -50.5t-158 -36t-184.5 -18 M1014 1653q-30 -163 -76 -320t-99.5 -306t-111 -289.5t-111.5 -271t-101.5 -250t-80.5 -226.5 M1199 1029q-23 -100 -49 -170.5t-56 -123.5t-66 -94.5t-78 -82.5q3 2 52 13.5t140.5 32.5t224 51t301.5 69 M1617 1346q-59 -156 -108.5 -320 t-84.5 -332t-53.5 -338.5t-17.5 -340.5 "
         horiz-adv-x="1810"
         unicode="¾"
         glyph-name="threequarters" />
      <glyph
         id="glyph2954"
         unicode="₤"
         glyph-name="lira" />
      <glyph
         id="glyph2956"
         d="M148 714q208 23 385.5 29.5t313.5 6.5t73.5 -1 M8 270q86 19 155 32t126.5 20.5t107 10.5t96.5 3q50 0 100 -2.5t109 -6.5 M1105 1426q-152 -53 -272.5 -145t-209 -206.5t-144.5 -244.5t-80 -259q-18 -100 1.5 -193t79.5 -164t161.5 -114t246.5 -43q85 0 184.5 16.5 t215.5 51.5 "
         horiz-adv-x="1510"
         unicode="€"
         glyph-name="Euro" />
      <glyph
         id="glyph2958"
         d="M787 1319q-16 69 -42 119.5t-58 83.5t-67 48.5t-69 15.5q-33 0 -63.5 -14t-54 -41t-38 -66.5t-16.5 -90.5q-4 -103 4.5 -216t25.5 -227t39.5 -224t45.5 -206q42 -172 7 -258.5t-157 -86.5q-15 0 -31.5 1t-34.5 4q-163 25 -186 121t98 248q30 38 73.5 79.5t92 86t98.5 91 t93.5 93.5t75.5 94t46 91.5t5 87t-49 80.5 "
         horiz-adv-x="970"
         unicode="Δ"
         glyph-name="uni0394" />
      <glyph
         id="glyph2960"
         d="M787 1319q-16 69 -42 119.5t-58 83.5t-67 48.5t-69 15.5q-33 0 -63.5 -14t-54 -41t-38 -66.5t-16.5 -90.5q-4 -103 4.5 -216t25.5 -227t39.5 -224t45.5 -206q42 -172 7 -258.5t-157 -86.5q-15 0 -31.5 1t-34.5 4q-163 25 -186 121t98 248q30 38 73.5 79.5t92 86t98.5 91 t93.5 93.5t75.5 94t46 91.5t5 87t-49 80.5 "
         horiz-adv-x="970"
         unicode="∆"
         glyph-name="uni0394" />
      <glyph
         id="glyph2962"
         glyph-name="fraction.1" />
      <glyph
         id="glyph2964"
         d="M697 848q-29 48 -65 69.5t-77 21.5q-71 0 -154.5 -57.5t-176.5 -154.5q-41 -43 -81 -96t-73 -108t-54.5 -107.5t-25.5 -93t13.5 -65.5t63.5 -25q26 0 63.5 9.5t88.5 31.5q74 32 133.5 72.5t107.5 84.5t84.5 90t63.5 89q63 102 94 210q-53 -257 -107 -516 q-23 -110 -49 -232t-52.5 -246t-53.5 -245.5t-52 -230.5q-39 -174 -74 -319.5t-67 -251t-61.5 -164.5t-58.5 -59q-21 0 -42 35t-42 110q-19 70 -11.5 160.5t38 193.5t81 215.5t116 225.5t144 223.5t164.5 210.5t177.5 185.5t183.5 148.5q183 125 373 182t368 57 q111 0 212 -20.5t187.5 -59.5t155 -95t113.5 -127 "
         horiz-adv-x="2410"
         unicode="≈"
         glyph-name="approxequal" />
      <glyph
         id="glyph2966"
         d="M697 848q-29 48 -65 69.5t-77 21.5q-71 0 -154.5 -57.5t-176.5 -154.5q-41 -43 -81 -96t-73 -108t-54.5 -107.5t-25.5 -93t13.5 -65.5t63.5 -25q26 0 63.5 9.5t88.5 31.5q74 32 133.5 72.5t107.5 84.5t84.5 90t63.5 89q63 102 94 210q-53 -257 -107 -516 q-23 -110 -49 -232t-52.5 -246t-53.5 -245.5t-52 -230.5q-39 -174 -74 -319.5t-67 -251t-61.5 -164.5t-58.5 -59q-21 0 -42 35t-42 110q-19 70 -11.5 160.5t38 193.5t81 215.5t116 225.5t144 223.5t164.5 210.5t177.5 185.5t183.5 148.5q183 125 373 182t368 57 q111 0 212 -20.5t187.5 -59.5t155 -95t113.5 -127 "
         horiz-adv-x="2410"
         unicode="⋲"
         glyph-name="approxequal" />
      <glyph
         id="glyph2968"
         d="M208 790q-63 -78 -108 -156.5t-71 -150t-33 -133t6.5 -107t48.5 -71.5t92 -26q47 0 108.5 19.5t139.5 61.5q91 50 159.5 101.5t119 102t85.5 98.5t57 91q52 101 58 196q-16 -136 -41 -305q-22 -145 -56.5 -344t-84.5 -440q-48 -233 -91 -396.5t-83.5 -266t-80.5 -149.5 t-82 -47q-2 0 -5 0.5t-5 0.5q-44 5 -65.5 64t-9.5 164t63.5 251t153.5 325q51 90 116 179.5t142 171.5t165.5 152.5t186 122.5t204 81.5t219.5 29.5q114 0 232 -33t243 -108 "
         horiz-adv-x="2000"
         unicode="≠"
         glyph-name="notequal" />
      <glyph
         id="glyph2970"
         d="M0 373q54 61 97.5 126.5t75.5 128.5t52.5 119t28 98t1 67t-28.5 25t-59.5 -28t-92.5 -92q-72 -84 -116.5 -169t-57 -163.5t9 -147t80 -119t156 -79.5t238.5 -29q147 3 264.5 34.5t209 82.5t158.5 116.5t113.5 136t73 141.5t37.5 133q11 61 10.5 102t-11.5 66.5 t-32 36.5t-52 11q-32 0 -74.5 -10t-96.5 -27 "
         horiz-adv-x="1410"
         unicode="†"
         glyph-name="dagger" />
      <glyph
         id="glyph2972"
         d="M307 946q-155 -222 -234 -389.5t-95.5 -279t22 -168t117.5 -56.5q20 0 48 5q54 10 108.5 41.5t104 79.5t91.5 108.5t71 127.5t43 138.5t6.5 140t-38 132t-90.5 115.5 "
         horiz-adv-x="740"
         unicode="‡"
         glyph-name="daggerdbl" />
      <glyph
         id="glyph2974"
         d="M435 903q-115 -199 -204.5 -372t-159 -329.5t-121.5 -302t-93 -287.5q3 2 18 44.5t44.5 114t75.5 166t110 201t148 219.5t190 221q97 99 175 141t136 42q45 0 77 -21.5t51 -58t24.5 -85.5t-3 -104.5t-32.5 -114t-63 -114.5q-38 -54 -92.5 -97.5t-118 -73.5t-131.5 -46 t-134 -16q-80 0 -150.5 25.5t-116.5 81t-61.5 142t14.5 207.5 "
         horiz-adv-x="1040"
         unicode="‰"
         glyph-name="perthousand" />
      <glyph
         id="glyph2976"
         d="M255 930q-125 -237 -209 -423q-36 -79 -66 -155.5t-46.5 -136t-15 -96t28.5 -36.5q20 0 53.5 20.5t84.5 66.5q114 103 195 176.5t135 124t86 81.5t48 47.5t20.5 22.5t4.5 7t-17.5 -27.5t-39.5 -74.5t-41.5 -103.5t-23.5 -114.5t14 -107t72 -81q62 -36 148 -36 q59 0 124 18t128.5 54.5t122 91t105 127.5t77 164.5t37.5 201.5q8 119 -5 202.5t-41 136.5t-68 77t-85 24q-65 0 -132 -44.5t-119 -120.5 "
         horiz-adv-x="1450"
         unicode="‹"
         glyph-name="guilsinglleft" />
      <glyph
         id="glyph2978"
         d="M48 527q126 159 244 285.5t218.5 215.5t176.5 136.5t118 47.5q44 0 44.5 -54.5t-55.5 -170.5q-29 -61 -65 -135.5t-73.5 -155.5t-73.5 -164.5t-64 -161t-46 -145.5t-20 -118.5t14.5 -80t58.5 -29.5q33 0 83 20.5t120 65.5t161.5 116.5t207.5 173.5 M1576 1518 q-130 -123 -240.5 -238.5t-210 -232t-193 -238t-189 -255.5t-197.5 -284t-219 -324q-175 -261 -296 -472t-188.5 -380.5t-82 -302t21.5 -237.5 "
         horiz-adv-x="1097"
         unicode="›"
         glyph-name="guilsinglright" />
      <glyph
         id="glyph2980"
         d="M51 333q36 -107 79.5 -153t100.5 -46q33 0 70 13.5t80 37.5t92 58t105 75q105 77 196.5 175t170.5 212.5t145 242t121 263.5q1 0 -10 -33.5t-25.5 -85.5t-28 -115t-18.5 -122t3.5 -106.5t37.5 -68.5q44 -31 56 -67t2 -77.5t-37 -90t-61 -105.5q-29 -48 -48 -98.5 t-18 -91.5t26.5 -67t85.5 -26q45 0 108 16q70 18 134 47t118.5 62t99 66t76 60t48.5 44.5l17 17.5 "
         horiz-adv-x="1780"
         unicode="§"
         glyph-name="section" />
      <glyph
         id="glyph2982"
         d="M85 897q-33 -109 -53.5 -215t-28 -200.5t-2 -175t24.5 -138.5t51.5 -91t78.5 -33q9 0 18.5 1t20.5 4q48 13 93 44t83 75.5t68 100.5t48 117.5t22.5 127.5t-7.5 131q-25 131 -69 192t-96 61q-50 0 -101 -56 "
         horiz-adv-x="650"
         unicode="∂"
         glyph-name="partialdiff" />
      <glyph
         id="glyph2984"
         d="M46 242q-1 -35 2.5 -66t15 -54t32 -36t54.5 -13q35 0 85 16t119 51.5t159.5 92.5t205.5 140 "
         horiz-adv-x="719"
         unicode="░"
         glyph-name="ltshade" />
      <glyph
         id="glyph2986"
         d="M80 601q-17 -157 9 -281q11 -52 32.5 -102.5t58 -90.5t89.5 -64t128 -24q59 0 133 17.5t164.5 57t199 103.5t237.5 156 "
         horiz-adv-x="1131"
         unicode="▒"
         glyph-name="shade" />
      <glyph
         id="glyph2988"
         d="M106 936q-47 -141 -45 -259t38.5 -213.5t100.5 -168t140.5 -121t158 -73t153.5 -24.5q91 0 197 25.5t211.5 67t202.5 95t169 108.5 "
         horiz-adv-x="1432"
         unicode="▓"
         glyph-name="dkshade" />
      <glyph
         id="glyph2990"
         d="M25 1066q69 -24 105 -71.5t46.5 -109.5t-1.5 -132.5t-37.5 -139.5t-62 -131.5t-75.5 -108.5 "
         horiz-adv-x="260"
         unicode="│"
         glyph-name="SF110000" />
      <glyph
         id="glyph2992"
         d="M-228 1426q67 -52 123.5 -120.5t98 -149.5t66 -173t27.5 -191.5t-17.5 -205t-69.5 -213.5 "
         horiz-adv-x="10"
         unicode="┤"
         glyph-name="SF090000" />
      <glyph
         id="glyph2994"
         d="M-22 3q81 70 156.5 151.5t143.5 169.5t128 179.5t109.5 181t88 174t63.5 159.5q17 51 26.5 87.5t12.5 60t1.5 34.5t-6.5 11q-6 0 -15.5 -15.5t-18.5 -44.5t-17 -70.5t-11 -93.5q-3 -63 6.5 -110t26 -80.5t36.5 -55.5t37.5 -34.5t29.5 -17t12 -3.5t-26.5 -20.5t-63 -57.5 t-75.5 -83.5t-64 -99t-28.5 -103.5t30.5 -97q32 -43 73.5 -61.5t89.5 -18.5q51 0 106.5 19t110 51t105 73t91.5 85 "
         horiz-adv-x="1136"
         unicode="╡"
         glyph-name="SF190000" />
      <glyph
         id="glyph2996"
         d="M940 874q-24 75 -58.5 129t-73.5 89.5t-79.5 52t-77.5 16.5q-43 0 -77 -21.5t-50 -62t-9 -98t45 -130.5q55 -105 112 -200t102.5 -177.5t73.5 -150t25 -117t-43 -79.5t-131 -37q-11 -1 -22.5 -1.5t-22.5 -0.5q-87 0 -170.5 23.5t-156.5 60t-131.5 81.5t-96.5 88.5 t-50.5 79.5t6.5 56q5 5 10 5q15 0 34.5 -31t49.5 -78t72.5 -101t102.5 -101t140 -78t184 -31q69 0 149.5 16.5t173.5 53t200 96.5t229 147 "
         horiz-adv-x="1400"
         unicode="╢"
         glyph-name="SF200000" />
      <glyph
         id="glyph2998"
         d="M-119 258q61 49 124 117t121.5 146t110 161t90 161t61.5 147t25 118q3 61 -13 61q-9 0 -22 -28.5t-22.5 -78.5t-12 -118.5t7.5 -149.5q9 -72 20.5 -154.5t17 -164t1 -156.5t-26 -132.5t-65 -92t-115.5 -35.5q-71 -1 -121.5 16.5t-85 44t-55.5 57.5t-31.5 58t-14 45.5 t-3.5 19.5 "
         horiz-adv-x="500"
         unicode="╖"
         glyph-name="SF210000" />
      <glyph
         id="glyph3000"
         d="M332 820q1 54 -11.5 86.5t-37.5 32.5q-28 0 -68.5 -46.5t-93.5 -154.5q-51 -104 -81.5 -204t-40.5 -178.5t2.5 -126.5t47.5 -48q24 0 60.5 23.5t75.5 66t75.5 100.5t59.5 126.5t27 146t-21 157.5q1 -1 3 -1q9 0 38 6.5t75 19.5t108 32t135 44q67 23 111 41.5t67 18.5 q16 0 21.5 -12t0.5 -40.5t-20 -75.5t-40 -118q-43 -122 -73.5 -235t-50 -206t-30 -159.5t-14.5 -96.5l5.5 26.5t21 73.5t41.5 111.5t66 141.5t95 162.5t128 173.5q86 104 141.5 149t85.5 45q23 0 32 -23.5t6.5 -64.5t-16 -95t-35.5 -116q-32 -92 -38 -172.5t12.5 -140.5 t59.5 -94.5t103 -34.5q70 0 164 49.5t210 162.5 "
         horiz-adv-x="1740"
         unicode="╕"
         glyph-name="SF220000" />
      <glyph
         id="glyph3002"
         d="M307 761q50 173 57.5 258t-18.5 85q-30 0 -96 -110t-156 -331q-54 -132 -78.5 -224t-27 -150t14 -84t45.5 -26q32 0 74.5 28.5t87.5 78.5q62 69 95 135.5t42 126.5t-3.5 111.5t-41.5 91.5l7 -4t21.5 -9.5t35.5 -10t49 -4.5q34 0 78 10t99 36q36 18 64 41.5t49.5 50.5 t36.5 56t25 56q24 64 31 134q-17 -61 -19 -118q0 -24 2.5 -50t10.5 -51t22 -47.5t36 -40.5q45 -35 57.5 -71t2 -80.5t-39.5 -102.5t-68 -137t-54 -145t-4 -113t48.5 -73t102.5 -26q76 0 160 28t163 73.5t146.5 103t110.5 116.5 "
         horiz-adv-x="1475"
         unicode="╣"
         glyph-name="SF230000" />
      <glyph
         id="glyph3004"
         d="M346 794q-6 32 -13.5 48t-19.5 16q-19 0 -53.5 -36t-96.5 -108q-37 -43 -72 -109.5t-61 -141t-40.5 -149t-11.5 -134.5t27.5 -97.5t76.5 -37.5q35 0 85 20.5t117 68.5q84 59 140.5 143.5t90 178.5t47 190.5t11.5 180t-17.5 146t-39.5 89.5q-10 11 -22 11 q-28 0 -60.5 -55.5t-65.5 -147.5t-21.5 -156t54.5 -103.5t111 -57.5t149 -18q85 0 176 17t174 46t149.5 67.5t102.5 81.5q44 53 76 113.5t51 111.5t24 85t-4 34q-5 0 -15 -13t-25 -42t-35 -75t-45 -113q-43 -114 -61 -208.5t-23.5 -169.5t-5.5 -131.5t-6.5 -94t-26.5 -56 t-66 -18.5q-11 0 -24 1t-28 3q-75 11 -115.5 39.5t-55 58t-8.5 52.5t22 23q11 0 23.5 -12t26.5 -39q25 -51 82 -75.5t142 -24.5q117 0 278 45t356 132 "
         horiz-adv-x="1800"
         unicode="║"
         glyph-name="SF240000" />
      <glyph
         id="glyph3006"
         d="M99 738q-99 -281 -109 -425.5t61 -144.5q55 0 152 87q89 79 150 160t86 163t10 165.5t-79 167.5q-23 29 -48 42.5t-51 13.5q-41 0 -78.5 -27t-62.5 -68t-31.5 -89t14.5 -91t75 -73.5t151 -35.5q18 -1 35.5 -1.5t34.5 -0.5q75 0 144 8t131 21.5t116.5 30t99.5 34.5 q107 41 194 93q-44 -39 -88 -102q-38 -53 -81.5 -136.5t-79.5 -203.5q-19 -65 -18.5 -115t16.5 -84.5t45 -52t66 -17.5q31 0 65.5 13t70.5 40t71.5 68t67.5 96q37 64 48.5 127t6.5 121t-23 108t-41.5 87t-48.5 58t-44 21q-15 0 -23.5 -15.5t-6.5 -50.5 "
         horiz-adv-x="1550"
         unicode="╗"
         glyph-name="SF250000" />
      <glyph
         id="glyph3008"
         d="M0 373q104 89 196.5 201.5t169.5 231.5t135 236t91 214.5t39 167t-21 93.5q-10 8 -19 8q-23 0 -56 -36.5t-74 -103.5t-89.5 -161.5t-103 -209.5t-114.5 -247.5t-124.5 -276.5t-133 -296.5t-139.5 -306.5q-100 -217 -193.5 -410.5t-171.5 -357t-135.5 -295t-85 -224 t-20 -143t59.5 -52.5q39 -2 95 44t120 127.5t130.5 192.5t127 238.5t109 266t76.5 275t30.5 265.5t-29.5 238q15 0 84.5 23.5t184.5 76.5t272 139t347 211q99 65 183.5 136t156 142.5t129.5 141t104 132.5q107 148 178 292q-89 -137 -194 -327q-91 -163 -210 -401.5 t-255 -554.5q-90 -210 -160.5 -383.5t-125.5 -320.5t-96.5 -272.5t-74.5 -238.5t-59 -217.5t-49 -210.5q-37 -168 -28.5 -255t61.5 -87q48 0 132 76t205 237q84 112 147.5 254t105 300.5t59.5 326t11.5 330t-38.5 313.5t-90 275q-1 0 14.5 -2.5t48.5 -2.5q38 0 98.5 6.5 t146 26.5t196.5 57t249 98 "
         horiz-adv-x="1606"
         unicode="╝"
         glyph-name="SF260000" />
      <glyph
         id="glyph3010"
         d="M756 990q-50 31 -107 31t-117 -29t-121.5 -81t-124 -123t-123.5 -155.5t-120.5 -178.5t-115.5 -191q-63 -109 -80 -160.5t5 -51.5q23 0 87 54t161.5 155t225.5 245t279 324q2 4 -1.5 -29.5t-15 -98t-32.5 -158t-54.5 -210t-80 -253t-109.5 -288.5q-48 -117 -99.5 -238.5 t-102 -235.5t-98.5 -214.5t-90 -175.5t-76 -118.5t-56 -43.5q-20 0 -29 39.5t-4 128.5q6 128 51 260.5t115 262t159.5 252.5t185.5 231.5t193 199t181 155.5 M1307 473q44 82 61 141.5t12 98t-29.5 57t-64.5 18.5q-43 0 -101 -21t-124 -61.5t-138 -99t-143 -133.5 q-94 -99 -138.5 -178.5t-50 -135t22 -85.5t76.5 -30q45 0 102 26t120 81q101 88 169.5 173.5t111.5 153.5q50 79 80 151q-51 -111 -100 -254q-43 -122 -91 -294.5t-87 -387.5q-30 -167 -60 -287t-63.5 -197.5t-71.5 -114.5t-85 -37q-27 0 -56.5 11.5t-63.5 34.5 q-50 34 -73.5 91t-21.5 127t30.5 148.5t82.5 155.5t133.5 147.5t184.5 125.5q158 82 275.5 146.5t207 119.5t156 105t120.5 104 "
         horiz-adv-x="1690"
         unicode="╜"
         glyph-name="SF270000" />
      <glyph
         id="glyph3012"
         d="M0 373q162 185 295.5 342t233.5 296.5t165.5 265.5t90.5 249q17 81 12.5 118.5t-25.5 37.5q-22 0 -59 -35.5t-85 -100t-105 -155.5t-118 -201t-125.5 -224.5t-122 -224.5t-102.5 -211t-66 -184t-12.5 -144t57.5 -90q21 -13 47.5 -19t56.5 -6q59 0 132 21.5t153.5 59.5 t166 91t170 115t165.5 132t153 143q84 85 152.5 184t121 198t87.5 193t51.5 169t15 125t-23.5 62q-6 3 -13 3q-25 0 -64 -38t-85.5 -101.5t-98.5 -146t-103 -172.5t-98 -180.5t-84 -169.5q-38 -81 -71 -161.5t-53 -153.5t-23.5 -136.5t17.5 -109.5t70 -72.5t134 -26.5 q73 0 152 23t155.5 59.5t147 83t125.5 92.5 "
         horiz-adv-x="1590"
         unicode="╛"
         glyph-name="SF280000" />
      <glyph
         id="glyph3014"
         d="M173 963q-17 -71 -38 -147.5t-43.5 -152.5t-46 -149.5t-44.5 -139.5q-50 -154 -102 -303q48 136 103 264q23 55 50.5 113.5t57.5 115.5t61.5 109.5t64.5 94.5q39 50 74 72.5t66 22.5q36 0 63.5 -28t43 -75.5t18.5 -110.5t-10 -133q-18 -100 -54.5 -182t-73.5 -142 q-43 -70 -91 -126q79 110 163 225q36 49 76.5 104t83 111.5t85.5 113.5t85 110q86 110 133 166t61 56q13 0 -3.5 -51.5t-58.5 -157.5q-26 -66 -48.5 -135.5t-37 -135.5t-18.5 -125t7.5 -103t40.5 -70t80 -26q30 0 72 11q55 15 103.5 35.5t89.5 43.5t75.5 47.5t61.5 47.5 q65 55 111 114 M1569 1004q-3 -74 -19.5 -153.5t-40.5 -162t-51 -165.5t-51.5 -164t-42.5 -158t-23 -147q2 2 8 30t19 76.5t36 114.5t59 142.5t87.5 161t122.5 170.5q68 82 112 116.5t71 34.5q29 0 41 -32.5t14 -81.5t-3 -106.5t-10 -108.5q-7 -74 -21.5 -157.5t-32 -160.5 t-35.5 -140t-32 -97q0 2 29.5 53.5t84 134.5t132 189.5t174.5 218.5q90 104 140.5 154t69.5 50q23 0 9.5 -62.5t-49.5 -180.5q-18 -60 -39.5 -121.5t-40 -117.5t-31 -105t-13 -85t14 -56.5t49.5 -20.5q23 0 53.5 8.5t72.5 28.5q105 48 182.5 96t129.5 87q60 45 103 86 "
         horiz-adv-x="2848"
         unicode="┐"
         glyph-name="SF030000" />
      <glyph
         id="glyph3016"
         d="M128 845q-8 -67 -28.5 -147t-46 -161.5t-52.5 -157.5t-49 -135.5t-35.5 -95t-11.5 -35.5q3 0 21.5 34.5t62.5 98.5t119 155.5t192 205.5q76 75 118.5 107t59.5 32q18 0 15 -29t-17 -77t-34 -109t-36 -125q-15 -59 -18.5 -110.5t8 -90t41 -61t80.5 -22.5q63 0 162 38 t243 125 M1072 823q-7 -46 -21.5 -101.5t-32.5 -116t-37 -123t-36 -122t-30.5 -113.5t-18.5 -97q3 0 8 21t18 58t35.5 87.5t61 110.5t94 126.5t134.5 134.5q82 71 127.5 102t66.5 31q20 0 21.5 -23.5t-5 -63.5t-16.5 -91.5t-15 -108.5t-2 -120t20.5 -116.5t53 -88 t95.5 -34.5q62 0 153.5 45t219.5 153 "
         horiz-adv-x="1966"
         unicode="└"
         glyph-name="SF020000" />
      <glyph
         id="glyph3018"
         d="M340 998q-27 -68 -60.5 -163t-69 -204t-72 -225t-70 -226.5t-63 -209t-50.5 -173t-33 -117.5t-10 -42t14 48t35.5 124t59.5 176.5t86 206t114.5 212.5t144.5 195q68 75 127 107.5t107 32.5q41 0 72.5 -21t51 -56.5t26 -82t-3 -99t-35.5 -106.5t-71 -104 q-75 -84 -165.5 -122.5t-178.5 -38.5q-66 0 -126 20.5t-104 59.5t-69.5 94.5t-22.5 125.5q1 29 1.5 42t2.5 13t9 -28.5t22.5 -72t43 -93.5t72 -93.5t108 -72t151.5 -28.5q56 0 123 14t146 46t170.5 83.5t196.5 126.5 M1247 863q-85 -181 -150 -331t-113.5 -288.5t-84 -276 t-61.5 -293.5q3 -1 18.5 33t48.5 97t85 152t127 198.5t175 236t229 264.5q60 64 106.5 92t81.5 28q40 0 63 -32t29.5 -85t-3 -120t-35.5 -137.5t-68.5 -137.5t-100.5 -120t-132.5 -85t-164.5 -32q-69 0 -146 21.5t-164 69.5q1 1 22.5 -7.5t62 -18.5t99 -18.5t133.5 -8.5 q78 0 173 13.5t203.5 48t230.5 94.5t255 153 "
         horiz-adv-x="2166"
         unicode="┴"
         glyph-name="SF070000" />
      <glyph
         id="glyph3020"
         d="M0 373q30 30 60 73.5t58 95t53 107t44.5 109t34 102t20.5 85t4 58t-14 21.5q-25 0 -33.5 -34t-11.5 -93t-6.5 -137.5t-18.5 -167.5q-9 -50 0 -82t28.5 -50t46.5 -24.5t54 -6.5q22 0 41.5 2.5t34.5 6.5q18 3 33 8q-40 -24 -71 -55q-13 -13 -25.5 -30t-22.5 -36.5 t-15.5 -42t-4.5 -48.5q1 -35 14.5 -66t37.5 -54t58.5 -36t78.5 -13q39 0 84 11t96 37q56 28 114 79t114 115.5t106.5 137t91 143t68 133.5t37.5 109q6 29 6.5 41.5t-4.5 12.5t-15 -18t-21 -47.5t-20 -67t-12 -77t2 -77t23 -67.5q33 -56 44 -102.5t2 -87t-37.5 -77 t-73.5 -73.5q-24 -19 -26 -43.5t14 -46t47.5 -36t74.5 -14.5q40 0 89 15.5t104 53t114 99.5t120 155 "
         horiz-adv-x="1620"
         unicode="┬"
         glyph-name="SF060000" />
      <glyph
         id="glyph3022"
         d="M0 373q87 12 170 64t157.5 136t138.5 197.5t113 249.5q1 -1 -16.5 -41t-38 -108t-35.5 -157.5t-9 -189.5q5 -76 5 -141.5t-12.5 -113.5t-43.5 -75t-89 -27q-35 0 -82.5 11.5t-109.5 35.5q-81 32 -128.5 61t-65.5 51t-9 34.5t40 12.5q37 0 101.5 -21.5t149.5 -71.5 q61 -36 124 -52t128 -16q87 0 173.5 27t169 73.5t158.5 109t141 134.5q89 99 153.5 189t104.5 160.5t54 115t3 51.5q-4 2 -6 2q-12 0 -25.5 -24t-24.5 -77.5t-17.5 -139t-3.5 -208.5q2 -91 -15.5 -183.5t-51.5 -167.5t-83.5 -122t-112.5 -47q-57 0 -122 45t-138 150 q0 -1 8 -14.5t25.5 -33.5t44 -42.5t64 -42t85.5 -32.5t108 -13q53 0 115 12t134.5 40.5t155 76t176.5 117.5 "
         horiz-adv-x="1760"
         unicode="├"
         glyph-name="SF080000" />
      <glyph
         id="glyph3024"
         d="M-420 1111q480 -17 913 -33q185 -7 377.5 -14t371.5 -14.5t332.5 -14t260.5 -12.5 M520 1652q-217 -400 -350 -715q-38 -89 -71 -177t-56.5 -167t-34.5 -147t-6 -118t28.5 -78t70.5 -28q12 0 25 2t28 6q146 48 259.5 109.5t192.5 116.5q92 64 161 129 M1278 1551 q-101 -183 -179.5 -324.5t-137.5 -250.5t-101 -190t-70 -143t-44.5 -109.5t-24.5 -89.5q-12 -63 9.5 -125.5t71 -112t124 -80t167.5 -30.5q61 0 128.5 15t140 48t150 85.5t158.5 128.5 "
         horiz-adv-x="1670"
         unicode="─"
         glyph-name="SF100000" />
      <glyph
         id="glyph3026"
         d="M580 619q14 87 17.5 148t-1.5 99.5t-19 56t-35 17.5q-20 0 -46.5 -14t-58.5 -39.5t-69.5 -61t-79.5 -79.5q-60 -62 -114 -126t-97 -126t-73 -118.5t-42.5 -104t-4 -83t42.5 -54.5q20 -11 49 -11q48 0 116 33.5t150 110t174.5 200t188.5 303.5q0 -3 -22 -46t-55.5 -110 t-74 -150t-77.5 -167q-20 -46 -27 -88.5t0 -75.5t29 -53t60 -20q32 0 76 16.5t101 53.5t127.5 96.5t154.5 146.5 "
         horiz-adv-x="970"
         unicode="┼"
         glyph-name="SF050000" />
      <glyph
         id="glyph3028"
         d="M501 801q-13 81 -36 114.5t-54 33.5q-28 0 -60 -23.5t-66 -61.5t-68 -86t-66 -98q-33 -51 -63.5 -109t-54.5 -115t-40.5 -110.5t-22 -95.5t2 -70t31.5 -34q4 -1 12 -1q38 0 93.5 49.5t120.5 135.5t135 201.5t136 247.5q3 -1 -11 -31.5t-34 -89.5t-40.5 -146.5 t-31.5 -204.5q-9 -98 16 -141t75 -43q35 0 78.5 18.5t93.5 51.5t104 79t109 101 "
         horiz-adv-x="860"
         unicode="╞"
         glyph-name="SF360000" />
      <glyph
         id="glyph3030"
         d="M278 366q72 163 111.5 287.5t53 208.5t2 127t-41.5 43q-29 0 -73.5 -40t-100.5 -124q-44 -65 -84 -138.5t-72.5 -146t-53.5 -138.5t-26.5 -117t7 -81t48.5 -30q33 0 88 30t137 99q2 -1 0.5 -17t-2.5 -40t0 -51.5t8 -51.5t21.5 -39.5t40.5 -15.5q21 0 49.5 12t67.5 40.5 t89 75t113 114.5 "
         horiz-adv-x="660"
         unicode="╟"
         glyph-name="SF370000" />
      <glyph
         id="glyph3032"
         d="M366 1536q-55 -186 -107.5 -370.5t-111 -368t-126.5 -366t-153 -365.5q2 1 15.5 31t41 82.5t70 122.5t101.5 150t136 166.5t174 171.5q86 75 150.5 107.5t112.5 32.5q38 0 67 -18t50 -49.5t35.5 -73.5t24.5 -89.5t16.5 -98.5t11.5 -100q8 -71 -12.5 -140.5t-69.5 -124.5 t-126.5 -89t-184.5 -34q-100 0 -223.5 34t-275.5 113q0 1 17.5 -9t50 -25.5t79.5 -33.5t105.5 -33t128 -25.5t146.5 -10.5q75 0 156.5 12t168 41t176 77t180.5 120 "
         horiz-adv-x="1190"
         unicode="╚"
         glyph-name="SF380000" />
      <glyph
         id="glyph3034"
         d="M549 738q-2 1 -6 1q-12 0 -22 -13.5t-17.5 -33.5t-11.5 -44t-4 -44t4 -33.5t14 -13.5q9 0 23.5 15.5t35.5 52.5q44 78 74.5 142.5t38 114.5t-12 86t-75.5 58q-11 5 -30 5q-39 0 -85.5 -29t-96 -77t-99 -108.5t-94.5 -124t-82 -124t-62 -107.5q-26 -49 -45.5 -98.5 t-26.5 -95.5t3 -86.5t43.5 -70t94 -46.5t155.5 -17q54 2 108.5 16.5t107 38t101 52.5t90.5 59q99 71 189 160 "
         horiz-adv-x="890"
         unicode="╔"
         glyph-name="SF390000" />
      <glyph
         id="glyph3036"
         d="M212 512q8 -11 21 -11q18 0 40.5 19.5t46 52t46 73t40.5 82.5q15 36 11.5 54t-23.5 18q-33 0 -104.5 -54t-161.5 -161q-43 -51 -77.5 -107.5t-56 -111.5t-27.5 -105.5t7.5 -88.5t49 -60.5t97.5 -22.5q20 0 42.5 2.5t48.5 7.5q111 23 201.5 56.5t163.5 71t130.5 75.5 t102.5 71 "
         horiz-adv-x="810"
         unicode="╩"
         glyph-name="SF400000" />
      <glyph
         id="glyph3038"
         d="M639 668q0 90 -8.5 154t-24 104.5t-37.5 59t-50 18.5q-25 0 -55.5 -15t-64 -42t-70 -65.5t-75.5 -86.5q-36 -45 -72.5 -97t-69.5 -107t-61 -110.5t-47 -106.5t-27 -95.5t-2 -77t28.5 -51.5t64.5 -19q73 0 143.5 36.5t137.5 98.5t129 145t118 175.5t105 190t89.5 189.5 t71 172.5t50.5 139.5q-76 -184 -149 -354q-31 -72 -64 -148.5t-66 -148.5t-64 -135.5t-57 -111.5q-28 -51 -36 -93t1.5 -72t37.5 -46t72 -16q76 0 198 52t285 168 "
         horiz-adv-x="1070"
         unicode="╦"
         glyph-name="SF410000" />
      <glyph
         id="glyph3040"
         d="M767 897q5 72 -0.5 123.5t-20 84.5t-36.5 48.5t-50 15.5q-53 0 -122.5 -49.5t-145.5 -137.5q-39 -45 -85.5 -104.5t-93 -125.5t-90 -136t-77 -136.5t-52.5 -126t-17 -105t29 -73.5t85 -32q59 -4 124.5 37t135 113.5t140.5 170.5t140 209.5t134.5 229t123.5 230 t106.5 212.5t83.5 176q2 3 -17 -34t-51.5 -103.5t-75 -157t-88.5 -193t-92 -212.5t-85 -216q-36 -97 -38.5 -170t20.5 -121.5t67.5 -72.5t104.5 -24q76 0 168.5 39t187.5 117 "
         horiz-adv-x="1180"
         unicode="╠"
         glyph-name="SF420000" />
      <glyph
         id="glyph3042"
         d="M0 373q117 59 214 134.5t166 157.5t107 166t37 159q-2 83 -20.5 127.5t-54.5 44.5q-29 0 -70.5 -33t-95.5 -103q-39 -51 -82 -125t-82 -158t-69.5 -172.5t-45 -169.5t-9.5 -148.5t38 -109.5q26 -32 59 -46.5t71 -14.5q56 0 120 26t128.5 67.5t125 93.5t109.5 104  "
         horiz-adv-x="646"
         unicode="═"
         glyph-name="SF430000" />
      <glyph
         id="glyph3044"
         d="M0 373q125 89 193.5 177.5t95 166t17 137t-42.5 90.5q-14 13 -33 13q-24 0 -53 -21.5t-58 -59t-56 -87.5t-48 -107t-34 -118t-14 -120q-1 -58 21.5 -107t62.5 -84t95.5 -55t120.5 -20q94 0 200.5 45.5t212.5 149.5 "
         horiz-adv-x="680"
         unicode="╬"
         glyph-name="SF440000" />
      <glyph
         id="glyph3046"
         d="M0 373q76 23 136 74.5t103.5 117t69 140t30.5 144t-11 127.5t-55 92q-13 12 -31 12q-32 0 -70.5 -40t-75 -105.5t-68.5 -150t-52 -173.5t-24 -175t14.5 -155.5t63.5 -115t124 -52.5q20 -2 39 -3t38 -1q100 0 185.5 23.5t160 61t139.5 84.5t125 95 "
         horiz-adv-x="840"
         unicode="╧"
         glyph-name="SF450000" />
      <glyph
         id="glyph3048"
         d="M0 373q185 238 321.5 435t224 338t124.5 218.5t21 77.5t-93 -96t-217 -306q-134 -201 -261.5 -407t-241.5 -405.5t-210.5 -386t-169.5 -349.5t-118 -297t-56 -227q-7 -61 -2 -110.5t21 -84.5t42 -54t61 -19q38 0 85 24t102 76t117 134.5t129 198.5q60 103 100.5 220.5 t66 239.5t37.5 243.5t14 232.5t-4.5 207t-17.5 166.5t-25 110.5t-28 40q-10 0 -18 -21q-12 -32 -17.5 -70t0 -76t23 -74t51.5 -64t86.5 -44.5t126.5 -16.5q96 0 233 33.5t323 112.5 "
         horiz-adv-x="830"
         unicode="╨"
         glyph-name="SF460000" />
      <glyph
         id="glyph3050"
         d="M7 143q168 348 288 622.5t195 464.5t106 290.5t19 100.5q-9 0 -46 -70t-101 -218q-73 -169 -148.5 -356t-151.5 -383t-151 -397t-148.5 -398t-143.5 -386.5t-135 -361.5q-59 -158 -88.5 -278t-34.5 -201.5t11 -123t48 -41.5q41 0 100.5 70t126.5 216q57 123 99 266 t70.5 293.5t44 303.5t20 296t-2.5 270.5t-23 228.5q3 5 -0.5 -15.5t-5 -53.5t2.5 -73t22 -74.5t53 -58t96 -23.5q47 0 104 15t117.5 40.5t122 58.5t117 68.5t102.5 71t78 66.5 "
         horiz-adv-x="770"
         unicode="╤"
         glyph-name="SF470000" />
      <glyph
         id="glyph3052"
         d="M600 912q-8 82 -33 117.5t-63 35.5q-34 0 -76.5 -26t-88 -69t-91 -98.5t-87.5 -115.5q-41 -59 -73.5 -128t-54 -137.5t-31.5 -132t-8 -112.5t18 -78t46 -29q29 0 70 29q39 28 79.5 74t80.5 101.5t78 117.5t72 122q79 141 154 302q-14 -163 -33 -346q-8 -78 -17.5 -167.5 t-21 -186.5t-24.5 -199.5t-28 -206.5q-27 -188 -70 -337t-98 -252.5t-118.5 -158.5t-131.5 -55q-30 0 -57 10q-75 27 -104.5 98.5t-12.5 168t80.5 207t173.5 215.5t222 208t213.5 195.5t186 168.5t138.5 126 "
         horiz-adv-x="890"
         unicode="╥"
         glyph-name="SF480000" />
      <glyph
         id="glyph3054"
         d="M1 373q159 75 278.5 157t203.5 161t134 150.5t69.5 125t10 85.5t-44.5 32q-26 0 -66 -20.5t-94 -65.5q-56 -48 -116.5 -112t-119 -135.5t-112.5 -147t-97.5 -147.5t-73 -135.5t-40 -111t1 -75.5t51.5 -28q27 0 67 14t97 45q79 43 154 121.5t142.5 172t124.5 190t98.5 176 t64.5 130t23 51.5t-18.5 -31t-50 -89t-73 -137.5t-87.5 -177.5t-93 -207.5t-90 -228.5t-78.5 -240t-58.5 -242q-71 -377 -158 -574.5t-201 -197.5q-64 0 -135 61q-84 72 -101.5 170t35 213t177 240.5t322.5 252.5q200 128 347.5 230t246.5 174q116 85 198 151 "
         horiz-adv-x="939"
         unicode="╙"
         glyph-name="SF490000" />
      <glyph
         id="glyph3056"
         d="M293 1570q-10 -81 -29 -183.5t-44 -216.5t-55.5 -235t-64 -238.5t-69.5 -227.5t-72.5 -202.5t-71.5 -163t-67 -108.5q2 2 24 39t61 98.5t93.5 142t122 171t146.5 185t167 183.5q112 113 183 164.5t106 51.5q24 0 31.5 -22.5t-0.5 -64t-31 -101.5t-60 -135 q-29 -60 -56 -126.5t-47.5 -132t-31.5 -125.5t-9.5 -105.5t19.5 -72.5t55 -27q50 0 142 58.5t235 196.5 "
         horiz-adv-x="970"
         unicode="╘"
         glyph-name="SF500000" />
      <glyph
         id="glyph3058"
         d="M180 955q56 102 93.5 192t59 156.5t27.5 105.5t-2 39t-27 -38.5t-48 -126.5q-30 -90 -61 -198t-64 -222t-67.5 -228.5t-73 -217t-81 -188t-89.5 -141.5q2 -1 25.5 32.5t63.5 91t95.5 133.5t122.5 159.5t144 170t160 164.5q112 106 177.5 156t93.5 50q33 0 16.5 -70.5 t-67.5 -204.5q-23 -60 -51 -125.5t-54 -128.5t-45 -120.5t-25 -101t6 -69t49 -25.5q22 0 53 9.5t73 30.5t95.5 54t120.5 79 "
         horiz-adv-x="900"
         unicode="╒"
         glyph-name="SF510000" />
      <glyph
         id="glyph3060"
         d="M258 911q-65 -102 -120 -205t-93 -198t-55 -177.5t-7 -143.5t50 -96t117 -35q52 0 108 13.5t112.5 36.5t112.5 54.5t107 66.5t95 72.5t78 73.5 M383 1597q-5 7 -1 10t9 3q6 0 10 -3t-2 -8 "
         horiz-adv-x="763"
         unicode="╓"
         glyph-name="SF520000" />
      <glyph
         id="glyph3062"
         d="M224 756q-89 -107 -141.5 -196t-74 -159t-15.5 -122.5t34.5 -87.5t76.5 -52t110 -17q39 0 79 6q48 7 91.5 21.5t83 33t74 40t62.5 42.5q67 49 121 108 M147 1667q7 0 8.5 -3.5t0 -7.5t-5 -7t-6.5 -3q-4 0 -4 6 "
         horiz-adv-x="725"
         unicode="╫"
         glyph-name="SF530000" />
      <glyph
         id="glyph3064"
         d="M230 896q-114 -176 -170 -312t-60 -229t42 -141.5t137 -48.5q62 0 137 19.5t150 49.5t144.5 67t119.5 72 M347 1797q7 -1 8 -4.5t-1 -7t-6 -6t-7 -2.5q-5 0 -4 7 "
         horiz-adv-x="730"
         unicode="╪"
         glyph-name="SF540000" />
      <glyph
         id="glyph3066"
         d="M222 1668q11 -19 16.5 -28t5.5 -16.5t-5 -17.5t-14 -31 M121 941q-34 -145 -59.5 -266.5t-47 -235t-40.5 -226.5t-40 -240t-46 -276t-57 -334q-68 -390 -132.5 -595t-135.5 -205q-59 0 -129 156q-39 88 -43 192.5t19 217t69 228.5t108 225.5t135.5 209t150.5 179.5 q56 58 109.5 100t104 74t98.5 57.5t94.5 51t91.5 53.5t89 66 "
         horiz-adv-x="460"
         unicode="┘"
         glyph-name="SF040000" />
      <glyph
         id="glyph3068"
         d="M230 1357q-65 -211 -119 -430q-23 -93 -46 -197.5t-42.5 -213t-33.5 -217.5t-19 -211q0 -2 13 31t41.5 90t73 134t107.5 163.5t144.5 177t184.5 175.5q72 60 125 84.5t87 24.5q37 0 52 -23.5t8.5 -58t-35 -75.5t-78.5 -75.5t-122 -58t-165 -23.5q-68 0 -146 14.5 t-169 48.5q0 1 4 -20t14.5 -55t30 -77.5t49.5 -89t72 -89.5t99 -78t130 -55t165 -21q105 0 234.5 32.5t290.5 108.5 "
         horiz-adv-x="1180"
         unicode="┌"
         glyph-name="SF010000" />
      <glyph
         id="glyph3070"
         d="M0 373q59 22 129.5 65.5t145 104t149.5 136t141.5 162t121 182t88.5 195.5q26 78 37.5 134t10.5 92.5t-13.5 53.5t-34.5 17q-42 0 -112 -56t-155 -157q-44 -52 -96.5 -123t-106.5 -153.5t-105.5 -172.5t-93.5 -180t-71 -176.5t-38 -161.5t6.5 -135t62.5 -98 q33 -26 72 -38t83 -12q51 0 106.5 14.5t111.5 39.5t110.5 57.5t104 68t92 72t74.5 69.5 "
         horiz-adv-x="820"
         unicode="█"
         glyph-name="block" />
      <glyph
         id="glyph3072"
         d="M0 373q142 134 273 287q56 65 114 140.5t113.5 158t104 170.5t84.5 178q47 118 70 209.5t26 153.5t-13 94.5t-47 32.5q-42 0 -106.5 -61t-143.5 -189q-49 -79 -98.5 -170t-96.5 -188t-90.5 -198t-79 -200.5t-62 -194.5t-41 -180.5t-15 -159t16.5 -129.5 q23 -76 69.5 -111.5t110.5 -35.5q58 0 127.5 27.5t145.5 78.5t156.5 123.5t159.5 163.5 "
         horiz-adv-x="778"
         unicode="▄"
         glyph-name="dnblock" />
      <glyph
         id="glyph3074"
         d="M205 925q0 -24 -16 -75t-43 -120.5t-62.5 -154.5t-73.5 -178t-76.5 -190.5t-72.5 -191.5q2 1 18 40t46 103.5t73 147t99 170.5t124 174.5t148 157.5q80 72 137.5 105.5t94.5 33.5t53 -32t11.5 -92.5t-29.5 -147.5t-69 -196 M380 143q-13 37 2.5 86.5t64.5 114.5 t133.5 147.5t209.5 185.5q72 60 134 111.5t111 90t84 60.5t53 22q26 0 14.5 -54t-70.5 -179q-58 -124 -73 -218t5.5 -156.5t73 -94t128.5 -31.5q82 0 186.5 36t223.5 109 "
         horiz-adv-x="1660"
         unicode="▌"
         glyph-name="lfblock" />
      <glyph
         id="glyph3076"
         d="M256 958q-14 -43 -36.5 -103.5t-50 -131t-58.5 -146t-61.5 -148t-57.5 -137.5t-48 -114.5t-33.5 -78.5t-12.5 -30t24 48t73.5 131t124 188.5t176.5 218.5q74 82 126 117t85 35q29 0 44.5 -23t19 -61.5t-3 -88.5t-22.5 -104q-16 -56 -45.5 -118t-63.5 -122t-69 -114.5 t-64 -95t-47 -64.5t-18 -23t22 32t61 82.5t93.5 117t119.5 134t138 135.5t151 121q69 48 111 69t62 21q25 0 24 -25.5t-18 -66.5t-45 -92.5t-58 -104.5q-38 -67 -57.5 -133t-18.5 -118t24.5 -84t70.5 -32q32 0 76 17.5t99.5 56t124 100t150.5 150.5 "
         horiz-adv-x="1369"
         unicode="▐"
         glyph-name="rtblock" />
      <glyph
         id="glyph3078"
         d="M249 1086q-16 -71 -41.5 -155t-57.5 -175.5t-70 -187.5t-79 -192t-85 -188.5t-88 -176.5q-1 -2 17 24.5t53.5 76t87.5 119.5t118.5 155.5t147 183t172.5 202.5q147 168 240 254.5t135 86.5q37 0 32 -72.5t-52 -224.5q-36 -117 -54.5 -217.5t-10.5 -174t48.5 -115.5 t121.5 -42q61 0 146 25t200 81 "
         horiz-adv-x="1230"
         unicode="▀"
         glyph-name="upblock" />
      <glyph
         id="glyph3080"
         d="M216 1112q-71 -195 -118.5 -358t-78.5 -298t-48.5 -243.5t-29.5 -194.5q0 -2 9.5 26t29.5 79t50.5 121.5t72 154t94.5 176.5t118 189q74 110 119.5 158t70.5 48q20 0 28 -26.5t9 -71.5t-3 -105t-9 -127q-6 -76 1.5 -144t36 -119t82.5 -81t142 -30q75 0 178 25t240 82  "
         horiz-adv-x="1210"
         unicode="☻"
         glyph-name="invsmileface" />
      <glyph
         id="glyph3082"
         d="M315 843q-12 12 -27 12q-39 0 -98 -82t-134 -253q-23 -52 -47 -105.5t-45 -103.5t-36 -94t-20 -77t3.5 -52t34.5 -19q23 0 62 17.5t99 55.5q63 41 111 96.5t83 119t58 131.5t35 132t15 121.5t-2.5 100.5t-18.5 68.5t-31 25.5q-5 0 -7 -1q-39 -10 -42.5 -50t17.5 -96 t60.5 -120t85.5 -123q38 -47 70.5 -82t64.5 -57.5t65 -33.5t72 -11q38 0 81 10 "
         horiz-adv-x="825"
         unicode="♥"
         glyph-name="heart" />
      <glyph
         id="glyph3084"
         d="M256 790q-39 -41 -79.5 -95t-76.5 -113.5t-64.5 -121.5t-45 -121t-18 -110.5t17.5 -90.5t61 -61.5t112 -22.5t17.5 1q101 8 166.5 41.5t104 84t55 114t19.5 130.5t-3 133t-12 122q-6 53 -25 94t-45.5 68.5t-56.5 42t-57 14.5q-29 0 -51.5 -17t-30 -52.5t4 -89 t49.5 -126.5q44 -85 93.5 -139t101.5 -85t103.5 -42.5t100.5 -11.5q65 0 121 13t95 21 "
         horiz-adv-x="930"
         unicode="♦"
         glyph-name="diamond" />
      <glyph
         id="glyph3086"
         d="M315 1075q-14 -71 -35.5 -158t-48 -183t-56 -196t-60 -197.5t-60.5 -189t-56.5 -168.5t-47.5 -137t-35 -95q1 0 11.5 30.5t28.5 82.5t44 122.5t57.5 150t69.5 164.5t80 166.5t88.5 156t95.5 133.5q63 75 128 108.5t125 33.5q55 0 101 -25t76 -68.5t39.5 -101.5t-7.5 -124 t-64.5 -136t-133.5 -137q-140 -110 -249 -161.5t-190 -51.5q-123 0 -181 111t-53 314q1 0 3 -18.5t8 -48t17.5 -67t31.5 -77t50 -77t72 -67t99 -47.5t130 -18q61 0 134 14.5t161 47t190.5 84.5t221.5 128 "
         horiz-adv-x="1100"
         unicode="♣"
         glyph-name="club" />
      <glyph
         id="glyph3088"
         d="M141 873q-13 -68 -39 -165t-61 -209.5t-76.5 -235t-85 -243.5t-88 -233.5t-84.5 -205.5q2 0 15 31.5t36 86t54.5 128t70 157.5t83 174.5t93 179t100 170.5t104.5 150q57 72 121.5 103.5t126.5 31.5q56 0 104.5 -23t80.5 -61.5t43 -89t-8 -106.5t-73 -114t-151 -111 q-106 -57 -187 -80.5t-142 -23.5q-42 0 -75.5 9.5t-59.5 24.5t-45.5 34.5t-32.5 39.5q-31 48 -43 108q47 -76 121 -135q32 -25 72.5 -49.5t90.5 -43.5t110 -30.5t130 -11.5q67 0 144 12.5t164.5 41t185.5 75t207 114.5 "
         horiz-adv-x="1147"
         unicode="♠"
         glyph-name="spade" />
      <glyph
         id="glyph3090"
         d="M0 373q44 69 76 126t54 104t35.5 84.5t20.5 65.5q17 67 9 106q-11 -68 -9 -123q1 -23 4.5 -46t12 -41.5t22 -31.5t33.5 -16q27 -4 26 -30t-15 -65.5t-33.5 -89t-29.5 -101t-2 -101t48 -88.5q22 -22 51 -31.5t63 -9.5q56 0 123 23.5t136.5 63.5t138 92t126.5 109  "
         horiz-adv-x="890"
         unicode="◘"
         glyph-name="invbullet" />
      <glyph
         id="glyph3092"
         d="M0 373q64 85 115 167t91.5 157.5t70.5 144.5t52 127q51 137 73 256q-48 -136 -75 -253q-12 -49 -20 -99.5t-9.5 -94.5t5.5 -78.5t26 -52.5q20 -19 40.5 -26.5t40.5 -7.5q29 0 55.5 12t46.5 26q24 16 44 37q-68 -75 -116 -160q-20 -36 -38.5 -77.5t-30.5 -87t-15 -94 t6 -97.5q9 -47 33 -67.5t59 -20.5q42 0 94.5 25t108 65.5t110.5 92.5t100 106 "
         horiz-adv-x="867"
         unicode="○"
         glyph-name="circle" />
      <glyph
         id="glyph3094"
         d="M55 245q111 72 200 157.5t158 178.5t120 189t85 188q-1 -1 -1.5 -40t-5.5 -107t-19 -160.5t-43 -200.5q-22 -82 -48 -150t-57 -117t-68 -75.5t-82 -26.5q-57 0 -126 47q-55 38 -92 87.5t-56.5 93.5t-21.5 74.5t13 30.5q10 0 26.5 -15.5t39.5 -50.5q29 -43 60.5 -93.5 t72.5 -94t95 -72.5t127 -29q50 0 110.5 16t132.5 53t158 97t187 148 "
         horiz-adv-x="1020"
         unicode="◙"
         glyph-name="invcircle" />
      <glyph
         id="glyph3096"
         d="M0 373q74 39 139.5 93.5t121.5 116t103 127t84 127.5q89 147 152 308q-42 -101 -76 -213q-15 -48 -29 -102.5t-26 -113.5t-20 -120.5t-10 -123.5q-4 -123 -22.5 -198t-56.5 -115.5t-99 -54t-151 -13.5q-62 0 -102 22t-62.5 54.5t-28.5 70.5t-1 70.5t19.5 54.5t34.5 22 q12 0 25.5 -9t27 -30t27 -54.5t26.5 -82.5q18 -68 65 -96.5t112 -28.5q70 0 152.5 28t161.5 70.5t146 93.5t107 97 "
         horiz-adv-x="820"
         unicode="♂"
         glyph-name="male" />
      <glyph
         id="glyph3098"
         d="M0 373q19 -8 42 -13q20 -5 47.5 -9.5t59.5 -4.5q43 0 92.5 10.5t101.5 39t104 78.5t98 129q51 87 83 160t48.5 126.5t19.5 83.5t-3 30q-8 0 -27.5 -51t-43.5 -166q-16 -77 -33.5 -152t-38.5 -142.5t-45.5 -125.5t-55 -100t-67 -66t-80.5 -24q-42 0 -90 22.5t-105 73.5 q-68 60 -109.5 84t-58.5 24q-14 0 -11 -13t23.5 -32.5t57 -42.5t90 -42.5t122.5 -32.5t154 -13q63 0 134 8.5t150 28.5t166.5 52t183.5 80 "
         horiz-adv-x="1009"
         unicode="♀"
         glyph-name="female" />
      <glyph
         id="glyph3100"
         d="M-405 924q127 72 276.5 126t313.5 90t338.5 54t350.5 18t64 -2 M380 1361q-46 -132 -93.5 -251.5t-94 -234t-92.5 -228.5t-90 -236q-26 -70 -21 -119.5t33.5 -80.5t76.5 -45t108 -14q71 0 154 17.5t166 47.5t159 70.5t134 85.5 "
         horiz-adv-x="820"
         unicode="♪"
         glyph-name="musicalnote" />
      <glyph
         id="glyph3102"
         d="M-174 1018q146 55 299.5 89.5t328.5 34.5q89 0 183.5 -10t200.5 -33 M407 1327q-57 -149 -103.5 -262t-85 -202t-70.5 -159.5t-61.5 -134.5t-57.5 -127.5t-58 -137.5q-23 -57 -27 -103t8 -78.5t39.5 -50.5t68.5 -18q39 0 90 18t111 56.5t129 99t144 145.5 "
         horiz-adv-x="534"
         unicode="♫"
         glyph-name="musicalnotedbl" />
      <glyph
         id="glyph3104"
         d="M-110 935q85 27 160.5 45t144.5 29.5t134 16t131 4.5q84 0 171 -6t189 -15 M689 1492q-104 -137 -204 -273.5t-186 -263.5t-153 -241t-105 -206t-41.5 -158t37.5 -98q30 -23 68 -33t80 -10q51 0 105.5 12t106.5 30t98 39t80.5 39.5t55 30.5t19.5 13 "
         horiz-adv-x="650"
         unicode="☼"
         glyph-name="sun" />
      <glyph
         id="glyph3106"
         d="M-82 58q37 88 71 175t63 165.5t52 146t38 116.5t21.5 77t2.5 28t-18 -29t-41 -95q-35 -84 -67 -164t-57 -150.5t-41.5 -130t-20 -102t7.5 -66.5t41 -24q10 0 24 3q59 15 120 66t118 127t107 169t87 192l-12 -27.5t-25.5 -68.5t-23.5 -88.5t-6 -90t27.5 -72t76.5 -34.5 q5 -1 9.5 -1q52 0 109 19.5t109 49t94.5 63t65.5 61.5 "
         horiz-adv-x="860"
         unicode="►"
         glyph-name="triagrt" />
      <glyph
         id="glyph3108"
         d="M249 1045q-67 -133 -118 -258.5t-85 -235.5t-50 -201.5t-13 -157t26 -102t67 -36.5t11.5 2q53 10 117 64.5t136 164t150 281t157 415.5q0 1 -11 -33t-27.5 -91.5t-35.5 -131.5t-34.5 -153t-25.5 -156.5t-8 -141.5q2 -48 15.5 -88t38.5 -68.5t60.5 -44.5t80.5 -16 t98 17.5t113.5 55.5t128 98t139.5 145 "
         horiz-adv-x="1190"
         unicode="◄"
         glyph-name="triaglf" />
      <glyph
         id="glyph3110"
         d="M-20 458q69 133 116.5 242.5t75 188t36.5 121.5t1 43q-9 0 -39 -65t-77 -208q-49 -148 -72.5 -280t-22 -230.5t28.5 -156t78 -57.5q32 0 72 23.5t90 74.5q88 90 155.5 190t116.5 202t80.5 204t46.5 197q11 72 3 107t-22 35q-11 0 -21.5 -22.5t-13 -66.5t7 -109t38.5 -149 q36 -103 70.5 -181t72 -130.5t80.5 -79t95 -26.5q66 0 153 45 "
         horiz-adv-x="1130"
         unicode="↕"
         glyph-name="arrowupdn" />
      <glyph
         id="glyph3112"
         d="M277 1004q-110 -215 -178 -372t-99.5 -262.5t-29.5 -163t33 -74.5q6 -3 14 -3q27 0 72 30t100.5 83t118 124t123.5 153t116.5 171t97.5 177q1 1 -14.5 -25.5t-39.5 -73t-52.5 -109t-53 -133t-42 -145t-18.5 -145.5q-1 -46 8 -78t25.5 -52.5t40.5 -30t52 -9.5q38 0 82 15 t91.5 40.5t95 61t91.5 75.5q55 51 92.5 117.5t60 137t30.5 138.5t4 121.5t-19 86.5t-39 33q-20 0 -44 -25q-17 -18 -13 -48.5t23.5 -68.5t51 -81t70.5 -85t82.5 -80.5t86.5 -68t82.5 -47t70.5 -17.5q5 0 9.5 0.5t9.5 1.5 "
         horiz-adv-x="1469"
         unicode="‼"
         glyph-name="exclamdbl" />
      <glyph
         id="glyph3114"
         d="M263 919q-64 -97 -116.5 -197.5t-91.5 -194.5t-64 -177t-33.5 -145t-0.5 -98t36 -36q20 0 52 22t76 72q55 62 99 109t80.5 85t67 69.5t59.5 63.5t58 66t61 76.5t69.5 96.5t83.5 125q1 0 -14 -22.5t-37 -62t-48 -93t-46.5 -115.5t-33 -130t-7.5 -137q7 -96 40.5 -141.5 t88.5 -45.5q64 0 151.5 57.5t191.5 168.5q65 69 105 136.5t63 129t31.5 114t9.5 91.5t-1.5 61.5t-2.5 23.5t10.5 -35t35 -90.5t64.5 -120t97.5 -123t135 -99.5t177.5 -50 "
         horiz-adv-x="1710"
         unicode="▬"
         glyph-name="filledrect" />
      <glyph
         id="glyph3116"
         d="M933 1243q-107 -136 -186.5 -248.5t-142 -214t-113.5 -198t-101.5 -201t-106.5 -222.5t-127 -263t-112.5 -271.5t-60 -235.5t-16.5 -199.5t17 -162.5t39.5 -125.5t52.5 -88.5 M0 373q53 92 107.5 179t107.5 164t102.5 141t92 110t76.5 71.5t55 25.5q28 0 31 -50.5 t-29 -163.5q-33 -119 -63.5 -213.5t-54 -168t-37 -129.5t-12 -98.5t20.5 -74t61 -56.5q17 -11 36 -15t40 -4q36 0 76.5 12t81.5 32t81.5 45.5t77.5 51.5q87 62 173 141 "
         horiz-adv-x="1024"
         unicode="↨"
         glyph-name="arrowupdnbse" />
      <glyph
         id="glyph3118"
         d="M266 1081q-54 -116 -103.5 -237.5t-89.5 -235.5t-68 -215t-40 -176t-6 -119t35 -44q23 0 60.5 30t93.5 97q134 161 254 316.5t216 294.5t163.5 256t96.5 199q0 1 -12 -56.5t-31.5 -160.5t-45.5 -244t-53 -308q-18 -111 -36 -213.5t-38 -200t-44.5 -192.5t-55 -191 t-70 -196t-89.5 -207q-63 -134 -120.5 -224.5t-108.5 -146.5t-93.5 -80t-74.5 -24q-26 0 -45 14q-27 19 -35 78.5t14.5 146.5t82 196.5t166.5 228.5q54 60 121 130.5t139.5 145t148 150.5t145.5 146q165 165 340 334 "
         horiz-adv-x="1083"
         unicode="↑"
         glyph-name="arrowup" />
      <glyph
         id="glyph3120"
         d="M329 1020q-70 -92 -133.5 -202.5t-113.5 -222.5t-85 -217.5t-49 -187t-4.5 -131t47.5 -49.5q25 0 63 23.5t91 76.5q74 74 144 153t134 159t121.5 157.5t105.5 146.5q114 163 209 322q-55 -99 -109 -251q-23 -65 -48 -147.5t-50 -184.5t-48.5 -223t-44.5 -262 q-33 -230 -78.5 -417.5t-98 -320.5t-111 -205.5t-117.5 -72.5q-56 0 -108 67q-47 60 -47.5 146.5t38.5 191.5t115 225.5t181 249.5t236 263t281 266 "
         horiz-adv-x="850"
         unicode="↓"
         glyph-name="arrowdown" />
      <glyph
         id="glyph3122"
         d="M0 373q105 118 195 221.5t161 181t121 122t75 44.5q23 0 25 -40t-20 -128q-23 -95 -60 -184t-79.5 -166t-85 -141t-77 -109t-56 -70t-21.5 -24t16.5 21t45 54t67.5 80t84 98.5t94 109t97 111.5q57 64 95.5 94.5t62.5 30.5q38 0 45 -73t-6 -211q-10 -112 -25.5 -239 t-45.5 -268t-80.5 -295t-130.5 -320q-39 -80 -76 -137.5t-70.5 -95t-63.5 -55t-55 -17.5q-27 0 -46.5 19.5t-30 56t-11 88.5t11.5 117q15 84 52 167t91 162.5t123 155t147.5 145t164 132.5t173.5 116q132 80 209.5 129t117.5 74q47 31 63 43 "
         horiz-adv-x="1297"
         unicode="→"
         glyph-name="arrowright" />
      <glyph
         id="glyph3124"
         d="M140 734q-30 -75 -42.5 -152t-8.5 -148.5t25.5 -134t60.5 -110t96 -75.5t131 -30q71 0 139.5 12.5t132.5 32.5t122 46.5t107 53.5q117 63 218 144 M1295 1002q-52 -200 -99 -394q-20 -82 -40.5 -171t-40 -176t-35.5 -169t-27 -151q2 1 9 37t22 97t40 140.5t63.5 168 t91.5 180t125 175.5q63 74 115 110t90 36q46 0 66.5 -54t8.5 -161.5t-61 -268.5t-142 -375q1 0 16.5 34t43.5 91t68.5 130.5t92 152.5t113 158.5t131.5 146.5q91 88 146 129.5t80 41.5q33 0 18 -69t-69 -201q-21 -52 -33 -107t-14 -106.5t6.5 -97t28.5 -79.5t52 -54t77 -20 q63 0 152.5 45.5t209.5 151.5 "
         horiz-adv-x="2600"
         unicode="←"
         glyph-name="arrowleft" />
      <glyph
         id="glyph3126"
         d="M97 708q1 -71 12 -147t36.5 -149t67 -138.5t101.5 -114.5t140 -78t184 -29q42 0 88 5.5t97 16.5q189 42 347 131.5t284.5 223t220.5 310t154 391.5q1 1 -10.5 -41.5t-29.5 -115.5t-41.5 -169t-46.5 -202.5t-44.5 -215.5t-35.5 -208q2 1 7.5 25.5t18.5 67.5t35 102 t57 129.5t84.5 150t118.5 162.5q100 121 178 183t124 62q50 0 56.5 -71.5t-40.5 -220.5q-21 -67 -45 -143t-44 -151t-32.5 -144.5t-12.5 -122.5t17 -84.5t56 -31.5q26 0 62.5 15.5t86 49t112 87.5t140.5 130 "
         horiz-adv-x="2600"
         unicode="∟"
         glyph-name="orthogonal" />
      <glyph
         id="glyph3128"
         d="M-395 876q7 -1 15 -1q53 0 140.5 6t195.5 16.5t229.5 24t243.5 29t237.5 31t210.5 29.5 M318 1620q-73 -196 -136.5 -373.5t-109 -330t-69 -275.5t-16 -210t49.5 -134t128 -47q34 0 74 7t88 23q124 40 225.5 110.5t184 159t147 188t112.5 197.5q113 229 174 495 q-86 -268 -161 -525q-31 -110 -63.5 -228t-61 -234t-51.5 -224t-36 -197q2 0 23.5 57.5t70.5 157t129 232.5t198 284q96 123 148 179t73 56q15 0 17 -27.5t-4 -78t-18.5 -122t-25.5 -160.5q-16 -112 7 -207.5t78.5 -166t140 -110.5t190.5 -40q65 0 137.5 17t150.5 53 t160.5 92t167.5 135 "
         horiz-adv-x="2440"
         unicode="↔"
         glyph-name="arrowboth" />
      <glyph
         id="glyph3130"
         d="M282 1562q8 -59 9.5 -114t-7 -118.5t-28.5 -143t-55 -188.5q-31 -98 -61.5 -182t-57 -157t-46.5 -138.5t-31 -126.5t-11.5 -120t13.5 -120q12 -54 38 -78t63 -24q45 0 102.5 33t121 91.5t130.5 137.5t130 172q60 87 115 193t101 215t82 212.5t57 185.5t24.5 134.5 t-13.5 58.5q-1 0 -1.5 0.5t-2.5 0.5q-18 0 -42.5 -56.5t-53.5 -154.5t-61 -230.5t-64 -285t-62.5 -316.5t-56.5 -326q1 0 10.5 29t29 80.5t49.5 121t71 151t94 171t119 179.5q58 80 109 145t92 111t72.5 71.5t50.5 25.5q27 0 27.5 -55t-29.5 -178q-19 -76 -37.5 -159 t-29 -162.5t-7.5 -151.5t26.5 -126.5t72.5 -86.5t131 -32q73 0 174.5 28.5t240.5 93.5 M-318 669l96 -2t99 -1q76 0 161 3.5t186 14.5t221.5 30.5t267.5 50.5 "
         horiz-adv-x="1880"
         unicode="▲"
         glyph-name="triagup" />
      <glyph
         id="glyph3132"
         d="M-52 773q69 36 146 64t157 47t162 29t161 10q102 0 199 -17 M384 1687q5 -71 2.5 -135t-12.5 -127.5t-29 -129.5t-47.5 -140.5t-67 -160t-87.5 -189.5q-57 -120 -93.5 -231.5t-48.5 -197t1 -136.5t54 -51q24 0 58 19.5t79 62.5q66 63 129.5 118.5t124 118.5t117.5 141.5 t109.5 188.5t100.5 258.5t89 351.5q2 -1 -8.5 -51.5t-32 -137t-54.5 -201t-77 -244t-98 -266t-118 -266.5q0 2 20.5 36t57 91t85.5 131t106.5 155t120.5 164t126 158q66 78 113 113.5t76 35.5q27 0 40 -27.5t13 -76t-12.5 -114.5t-35.5 -143q-17 -58 -33.5 -125 t-25.5 -134.5t-6.5 -130t22 -110.5t60 -77t108.5 -29q74 0 184.5 40.5t265.5 133.5 "
         horiz-adv-x="1760"
         unicode="▼"
         glyph-name="triagdn" />
      <glyph
         id="glyph3134"
         d="M-154 915q129 38 267 61t272 36t257.5 17t223.5 4 M534 1470q-107 -189 -203 -368q-41 -76 -84 -158t-83.5 -161t-75 -151.5t-59.5 -130.5q-31 -72 -32.5 -132t20 -107.5t62.5 -83.5t95.5 -59.5t119.5 -35.5t134 -12q81 0 163 16t155.5 48t133.5 79.5t97 111.5 "
         horiz-adv-x="1140"
         unicode="≡"
         glyph-name="equivalence" />
      <glyph
         id="glyph3136"
         d="M380 1029q-24 39 -44 59.5t-39 20.5q-32 0 -64.5 -67t-76.5 -213q-23 -77 -43.5 -163t-31.5 -169.5t-10 -160t20 -134.5t59.5 -92t107.5 -32q57 1 108 36t92 92.5t71 132.5t45 158t13.5 167.5t-23.5 161t-66 140t-113 102.5 "
         horiz-adv-x="800"
         unicode="₧"
         glyph-name="peseta" />
      <glyph
         id="glyph3138"
         d="M435 1525q-45 -145 -79.5 -260.5t-61.5 -210t-48 -172.5t-39 -147.5t-34.5 -136t-33.5 -137.5q-24 -99 -33 -167t-3 -110t25.5 -60t51.5 -18t10 1 "
         horiz-adv-x="670"
         unicode="℅"
         glyph-name="uni2105" />
      <glyph
         id="glyph3140"
         d="M85 966q185 215 320.5 325.5t204.5 110.5q54 0 64 -68t-32 -209q-47 -160 -111.5 -308.5t-134.5 -279t-139 -240.5t-125 -195q2 -1 22 15.5t65 42t119 55t182.5 55t255 42.5t338.5 17 "
         horiz-adv-x="1310"
         unicode="№"
         glyph-name="uni2116" />
      <glyph
         id="glyph3142"
         d="M148 1136q61 50 120 90q26 17 53.5 32.5t55 28.5t54 20.5t49.5 7.5q29 0 50 -14.5t30 -49.5q12 -49 -2.5 -100t-47.5 -101.5t-81 -99t-101.5 -91.5t-108.5 -79.5t-104 -63.5q1 -1 11 4t29 11t46 11.5t63 5.5q32 0 71 -6t85 -21t98 -41t110 -66q82 -56 120 -112t41.5 -109 t-22 -100.5t-71 -87t-106 -68.5t-126.5 -44q-48 -11 -91 -16t-80 -5q-69 0 -116.5 16t-68.5 43.5t-13 64t48 76.5 "
         horiz-adv-x="980"
         unicode="⅔"
         glyph-name="twothirds" />
      <glyph
         id="glyph3144"
         d="M1141 1949q-221 -508 -377 -906q-44 -113 -85.5 -224.5t-76 -212.5t-59.5 -187t-37 -149t-9 -98.5t26 -35.5q25 0 72 44 M444 1453q-37 -123 -81 -224t-93 -185t-102.5 -152.5t-108.5 -125.5q2 1 26.5 -2t67 -7.5t101 -8t128.5 -3.5q115 0 255 15.5t287 59.5 "
         horiz-adv-x="1210"
         unicode="⅛"
         glyph-name="oneeighth" />
      <glyph
         id="glyph3146"
         d="M1043 1267q-49 -12 -101.5 -19.5t-105 -12t-103 -6.5t-96.5 -2q-48 0 -89 1.5t-70 3.5q-35 1 -64 4q-36 -130 -75 -247q-17 -50 -36 -103t-40 -102t-43 -92t-44 -74q2 0 21.5 8t53.5 18t81.5 18t105.5 8q63 0 137 -13.5t156 -49.5q77 -34 111.5 -76.5t34.5 -88t-29 -90.5 t-79 -84t-116.5 -69t-140.5 -45q-78 -15 -151 -15q-57 0 -106 8.5t-85 23.5t-55 36.5t-16 47t31.5 54.5t88.5 60 "
         horiz-adv-x="1230"
         unicode="⅜"
         glyph-name="threeeighths" />
      <glyph
         id="glyph3148"
         d="M446 1525q-97 -205 -173 -384t-124.5 -329t-66.5 -267.5t1 -198.5t78 -124t165 -43t195 24t159.5 65.5t122 97.5t82.5 120.5t41.5 135t-1.5 139.5q-14 80 -62.5 126t-123.5 46q-60 0 -134 -34t-155 -108.5t-167.5 -192.5t-172.5 -287 "
         horiz-adv-x="1120"
         unicode="⅝"
         glyph-name="fiveeighths" />
      <glyph
         id="glyph3150"
         d="M7 1137q85 20 174 41.5t177 43.5t171.5 44t158.5 42q174 46 340 93q-77 -78 -159 -192q-71 -98 -156 -245t-168 -350q-55 -134 -83.5 -235.5t-38 -176.5t-4.5 -125.5t17 -82.5t27.5 -49.5t26.5 -24.5 "
         horiz-adv-x="1190"
         unicode="⅞"
         glyph-name="seveneighths" />
      <glyph
         id="glyph3152"
         d="M662 1287q4 89 -24.5 130t-79.5 41q-31 0 -70 -15t-82 -44.5t-89.5 -72t-93.5 -97.5q-34 -39 -61.5 -81.5t-47 -83.5t-29.5 -78t-8.5 -65t15 -44.5t41.5 -16.5q29 0 74 20t109 65t147 118.5t188 180.5q1 -3 -13.5 -47.5t-38 -117t-53 -166t-58.5 -193.5t-55 -199.5 t-42 -184.5q-19 -103 -22 -162.5t3.5 -90.5t17.5 -39.5t19 -8.5q2 0 3.5 0.5t2.5 0.5t2 1 "
         horiz-adv-x="910"
         unicode="⁄"
         glyph-name="fraction" />
      <glyph
         id="glyph3154"
         d="M662 1287q4 89 -24.5 130t-79.5 41q-31 0 -70 -15t-82 -44.5t-89.5 -72t-93.5 -97.5q-34 -39 -61.5 -81.5t-47 -83.5t-29.5 -78t-8.5 -65t15 -44.5t41.5 -16.5q29 0 74 20t109 65t147 118.5t188 180.5q1 -3 -13.5 -47.5t-38 -117t-53 -166t-58.5 -193.5t-55 -199.5 t-42 -184.5q-19 -103 -22 -162.5t3.5 -90.5t17.5 -39.5t19 -8.5q2 0 3.5 0.5t2.5 0.5t2 1 "
         horiz-adv-x="910"
         unicode="∕"
         glyph-name="fraction" />
      <glyph
         id="glyph3156"
         d="M-95 393q63 10 147 24t185 27t216.5 22t241.5 9q90 0 182 -5.5t189 -18.5 "
         horiz-adv-x="40"
         unicode="‴"
         glyph-name="uni2034" />
      <glyph
         id="glyph3158"
         d="M-97 393q173 21 350 35t350 22.5t338 12.5t315 4q212 0 383.5 -6t286.5 -17 "
         horiz-adv-x="40"
         unicode="₢"
         glyph-name="uni20A2" />
      <glyph
         id="glyph3160"
         d="M-88 391q143 14 302 26t329.5 22t349.5 18.5t360.5 14.5t362.5 9t357 3q147 0 288 -2.5t273 -7.5t253 -12.5t227 -18.5 "
         horiz-adv-x="40"
         unicode="₥"
         glyph-name="uni20A5" />
      <glyph
         id="glyph3162"
         d="M-88 384q180 17 376.5 30.5t404 24t422.5 17.5t431.5 11.5t432 6.5t423.5 2q246 0 476.5 -2.5t437 -6.5t383 -9.5t313.5 -11.5 "
         horiz-adv-x="40"
         unicode="₠"
         glyph-name="uni20A0" />
      <glyph
         id="glyph3164"
         d="M-63 385q558 28 1049 49t928 35t827 21t746 7q222 0 433.5 -3t414.5 -8t400 -13t390 -19 "
         horiz-adv-x="40"
         unicode="₡"
         glyph-name="colonmonetary" />
      <glyph
         id="glyph3166"
         d="M0 373q67 125 111 224.5t60.5 171t2.5 112.5t-64 49q-26 0 -61 -31t-70 -82t-64.5 -116.5t-44 -134.5t-9.5 -135.5t40 -120t104 -87.5t182 -39q12 -1 24 -1q125 0 233.5 24t197.5 63t157 88.5t112 101.5t63 101.5t9.5 88.5t-48.5 63t-111 24q-8 0 -17 -0.5 t-19 -1.5 "
         horiz-adv-x="1070"
         unicode="∑"
         glyph-name="summation" />
      <glyph
         id="glyph3168"
         d="M0 373q110 121 174.5 216.5t91 162t19 102t-41.5 35.5q-26 0 -65 -21.5t-87 -66.5q-58 -54 -97.5 -117.5t-52.5 -127.5t3.5 -125t69.5 -111t146.5 -85t234.5 -46q14 -2 28.5 -2q101 0 200 25.5t189 68t166.5 96t131.5 110t85 110t27 96t-44 68t-127 25.5 q-59 0 -145 -15 "
         horiz-adv-x="1310"
         unicode="≤"
         glyph-name="lessequal" />
      <glyph
         id="glyph3170"
         d="M236 966q-67 -131 -112.5 -254.5t-84.5 -234.5t-80 -207.5t-99 -173.5q-1 0 16.5 26.5t50 72t77.5 105.5t98.5 127.5t113 138t121.5 136.5q99 106 164.5 164.5t94.5 58.5q26 0 19.5 -51t-47.5 -161q-28 -74 -55 -150.5t-47 -148.5t-30 -135t-4.5 -110t29.5 -74.5 t73 -27.5q37 0 79 15.5t85.5 40.5t87 57.5t83 66.5t73.5 67t58 59 "
         horiz-adv-x="1000"
         unicode="℗"
         glyph-name="uni2117" />
      <glyph
         id="glyph3172"
         d="M1149 1020q-34 62 -86 94t-125 32q-104 0 -247 -65q-89 -40 -125 -85.5t-31 -97t45 -109t103 -122.5l75 -75t87.5 -91.5t86 -99.5t68.5 -100t35 -93t-13 -77.5t-76.5 -55t-155.5 -24.5q-69 -2 -135.5 -3.5t-128.5 -1.5q-100 0 -184 3.5t-141.5 11t-83.5 19.5t-9.5 29.5 t80.5 40t185 51.5q132 31 237.5 51t192.5 33.5t158.5 22t135 17.5t122.5 19.5t120 28.5 "
         horiz-adv-x="1339"
         unicode="Ω"
         glyph-name="Omega" />
      <glyph
         id="glyph3174"
         d="M-176 200q74 60 141 131t125.5 146t107.5 151t85.5 147.5t60.5 135t33 113.5q6 34 3 49.5t-11 15.5q-10 0 -25.5 -18t-32 -49.5t-31.5 -75t-24 -94.5t-10.5 -107.5t10.5 -115.5q13 -68 28 -136t26 -130.5t15.5 -117t-2 -94t-26.5 -62.5t-59 -23q-13 0 -28.5 2.5 t-33.5 8.5q-90 29 -163 54.5t-126 45.5q-61 23 -110 42 "
         horiz-adv-x="510"
         unicode="℮"
         glyph-name="estimated" />
      <glyph
         id="glyph3176"
         d="M702 785q-18 48 -45 75.5t-71 27.5q-54 0 -140 -47.5t-217 -157.5q-91 -76 -146.5 -149t-74.5 -130.5t-1.5 -92.5t71.5 -35q32 0 77 14t103 46q63 34 115.5 70t94.5 72t75 70.5t58 65.5q59 72 91 142q-20 -100 -52 -231q-26 -112 -68.5 -272.5t-103.5 -364.5 q-57 -190 -107.5 -335.5t-97 -244.5t-89.5 -149.5t-84 -50.5q-5 0 -11 1t-11 3q-22 7 -29.5 42.5t0 91t29.5 128t58.5 154.5t87.5 169.5t117 173t146.5 166t175.5 148.5q100 71 206.5 128t214.5 97.5t214 62t205 21.5q91 0 173 -19.5t152 -60.5t124.5 -105.5t90.5 -154.5  "
         horiz-adv-x="2090"
         unicode="℁"
         glyph-name="uni2101" />
      <glyph
         id="glyph3178"
         d="M702 785q-18 48 -45 75.5t-71 27.5q-54 0 -140 -47.5t-217 -157.5q-91 -76 -146.5 -149t-74.5 -130.5t-1.5 -92.5t71.5 -35q32 0 77 14t103 46q63 34 115.5 70t94.5 72t75 70.5t58 65.5q59 72 91 142q-20 -100 -52 -231q-26 -112 -68.5 -272.5t-103.5 -364.5 q-57 -190 -107.5 -335.5t-97 -244.5t-89.5 -149.5t-84 -50.5q-5 0 -11 1t-11 3q-22 7 -29.5 42.5t0 91t29.5 128t58.5 154.5t87.5 169.5t117 173t146.5 166t175.5 148.5q100 71 206.5 128t214.5 97.5t214 62t205 21.5q91 0 173 -19.5t152 -60.5t124.5 -105.5t90.5 -154.5  "
         horiz-adv-x="2090"
         unicode="⅍"
         glyph-name="uni2101" />
      <glyph
         id="glyph3180"
         d="M194 797q-94 -163 -147 -291q-23 -54 -39 -106.5t-18.5 -93.5t12 -66t53.5 -25q19 0 43 6q110 29 212.5 94t189.5 151.5t153.5 188t103.5 204.5q1 1 -11.5 -41t-33.5 -118.5t-49 -184t-58 -236.5t-60.5 -275.5t-56.5 -302.5t-44.5 -292.5t-35.5 -250.5t-35.5 -204.5 t-45.5 -155t-65 -101t-93 -43.5q-5 -1 -9 -1q-50 0 -77 35t-33.5 97.5t6.5 149t43.5 189t76.5 218t106 235.5q62 124 130 244.5t149.5 231.5t178.5 209.5t216 178.5t264 138t321 87q34 6 66 8.5t62 2.5q87 0 160.5 -19.5t133.5 -52t107.5 -73.5t83.5 -84 q86 -101 137 -229 "
         horiz-adv-x="2400"
         unicode="Ⅎ"
         glyph-name="uni2132" />
      <glyph
         id="glyph3182"
         d="M194 797q-94 -163 -147 -291q-23 -54 -39 -106.5t-18.5 -93.5t12 -66t53.5 -25q19 0 43 6q110 29 212.5 94t189.5 151.5t153.5 188t103.5 204.5q1 1 -11.5 -41t-33.5 -118.5t-49 -184t-58 -236.5t-60.5 -275.5t-56.5 -302.5t-44.5 -292.5t-35.5 -250.5t-35.5 -204.5 t-45.5 -155t-65 -101t-93 -43.5q-5 -1 -9 -1q-50 0 -77 35t-33.5 97.5t6.5 149t43.5 189t76.5 218t106 235.5q62 124 130 244.5t149.5 231.5t178.5 209.5t216 178.5t264 138t321 87q34 6 66 8.5t62 2.5q87 0 160.5 -19.5t133.5 -52t107.5 -73.5t83.5 -84 q86 -101 137 -229 "
         horiz-adv-x="2400"
         unicode="ⅎ"
         glyph-name="uni2132" />
      <glyph
         id="glyph3184"
         d="M-27 693q88 42 202 77q98 31 237 59.5t314 38.5 M502 1541q-68 -134 -121 -239.5t-94 -189.5t-72.5 -149.5t-55.5 -120t-42.5 -102t-34.5 -94.5t-31 -97.5t-32 -112.5q-24 -85 -18.5 -157t38 -124.5t90.5 -82.5t140 -30q79 0 178 30t218 97 "
         horiz-adv-x="790"
         unicode="ↄ"
         glyph-name="uni2184" />
      <glyph
         id="glyph3186"
         d="M858 -171q181 377 348.5 677.5t311 537.5t258 418t189.5 318q52 96 90.5 139t66.5 43q26 0 42.5 -35t25.5 -98.5t10.5 -151.5t-1.5 -195q-2 -74 -20 -171t-52 -206t-83.5 -224t-115.5 -223.5t-148 -205t-181 -168.5t-215 -114t-249 -42q-110 0 -232 33 q-124 34 -221.5 88.5t-172.5 119.5t-129 137.5t-92 142.5q-89 165 -119 352q30 -240 149 -428q51 -80 126 -157t181.5 -137t247.5 -97t324 -37q199 0 451 51.5t565 172.5 "
         horiz-adv-x="2208"
         unicode="∩"
         glyph-name="intersection" />
      <glyph
         id="glyph3188"
         d="M24 1551q46 -33 142 -33q102 0 259.5 32t374 83t494 114.5t618.5 125.5q280 51 502 92.5t391.5 74.5t289.5 57t196.5 39.5t111.5 23.5l35 8 M-44 -556q21 -18 73 -18q60 0 167.5 23t271 68t388 110.5t519.5 149.5q361 103 655.5 167t508.5 100q248 42 445 62 M1200 1478 q-24 -132 -45 -285.5t-39 -316.5t-32.5 -328.5t-26.5 -321.5t-20.5 -295.5t-13.5 -250.5t-7 -187t0 -104 "
         horiz-adv-x="2030"
         unicode="∨"
         glyph-name="logicalor" />
    </font>
</defs>
</svg>
