<?xml version="1.0" standalone="no"?>
<!DOCTYPE svg PUBLIC "-//W3C//DTD SVG 1.1//EN" "http://www.w3.org/Graphics/SVG/1.1/DTD/svg11.dtd" >
<svg xmlns="http://www.w3.org/2000/svg" xmlns:xlink="http://www.w3.org/1999/xlink" version="1.1">
<metadata>
Created by FontForge 20191125 at Fri Aug  9 07:33:15 2019
 By convertio
Copyright: Megan Rikli
</metadata>
<defs>
<font id="QEMeganRikliPrintSL" horiz-adv-x="997" >
  <font-face 
    font-family="QEMeganRikliPrintSL"
    font-weight="400"
    font-stretch="normal"
    units-per-em="3072"
    panose-1="0 0 4 0 0 0 0 0 0 0"
    ascent="2457"
    descent="-615"
    x-height="949"
    cap-height="1641"
    bbox="-906.125 -1525 5229 2326"
    underline-thickness="160"
    underline-position="-480"
    unicode-range="U+001D-266B"
  />
<missing-glyph horiz-adv-x="2003" 
 />
    <glyph glyph-name=".notdef" horiz-adv-x="2003" 
 />
    <glyph glyph-name="uni0000" horiz-adv-x="0" 
 />
    <glyph glyph-name="uni0000" horiz-adv-x="0" 
 />
    <glyph glyph-name="uni000D" horiz-adv-x="768" 
 />
    <glyph glyph-name="space" unicode=" " 
 />
    <glyph glyph-name="uni001D" horiz-adv-x="0" 
 />
    <glyph glyph-name="nonmarkingreturn.1" horiz-adv-x="613" 
 />
    <glyph glyph-name="exclam" unicode="!" horiz-adv-x="890" 
d="M710 1912q-80 -182 -142 -389q-27 -88 -52.5 -190.5t-46 -215t-32.5 -232.5t-12 -243zM290 203q0 2 -1.5 -7.5t-7.5 -23.5t-17.5 -29.5t-31.5 -26.5z" />
    <glyph glyph-name="quotedbl" unicode="&#x22;" horiz-adv-x="1070" 
d="M212 1819q-32 -74 -49 -163q-7 -38 -11.5 -83t-3.5 -96t8 -106.5t23 -115.5zM744 1974q-10 -117 -28 -238q-7 -51 -17.5 -108.5t-23 -117.5t-28.5 -120t-36 -116z" />
    <glyph glyph-name="numbersign" unicode="#" horiz-adv-x="2390" 
d="M16 845q144 59 287 105t291.5 86.5t304 79.5t323.5 82q168 44 307.5 74.5t259.5 59t224.5 60t202.5 77.5zM52 454q101 0 231 10t279.5 29t312 47t328 63t329.5 77.5t315 90.5zM1101 1873q-131 -364 -250 -707q-51 -146 -104 -302t-102.5 -306.5t-92.5 -287.5t-74 -246z
M1612 1975q-38 -80 -74 -172t-68 -190t-60 -199.5t-51.5 -199.5t-41.5 -189.5t-30 -171.5q-18 -119 -35 -225t-30.5 -198t-21.5 -170.5t-8 -142.5z" />
    <glyph glyph-name="dollar" unicode="$" horiz-adv-x="1520" 
d="M1289 1424q-31 77 -85.5 134t-119.5 95t-135.5 56.5t-133.5 18.5q-57 0 -103 -14.5t-75 -43.5q-31 -31 -35 -73.5t13 -94.5t51 -113.5t77.5 -131t93.5 -146.5t100 -160t91 -166.5t66 -164t30 -155.5t-18.5 -142.5t-79.5 -124.5t-152 -101q-67 -31 -131 -44.5t-125 -13.5
q-88 0 -165 26t-140 69.5t-108 101t-68 120.5t-22 128.5t32 124.5t93 108t161 80zM1043 2037q-2 -103 -30.5 -240.5t-74.5 -300.5t-105.5 -348.5t-122.5 -384.5t-114 -371.5t-82.5 -324t-41 -285.5t10.5 -255z" />
    <glyph glyph-name="percent" unicode="%" horiz-adv-x="1520" 
d="M1192 686q-12 2 -24 3.5t-24 1.5q-41 0 -82 -16.5t-76.5 -56t-62.5 -105.5t-40 -165q-9 -72 2 -127.5t36.5 -93t61 -57t74.5 -19.5q58 0 113.5 42t89.5 129q27 69 31.5 132t-4.5 117t-26.5 98t-35.5 75.5t-32 48.5t-15 17zM203 1383q54 -34 114 -55t114 -21q35 0 64 10.5
t47.5 34.5t24.5 62t-6 92q-15 72 -49 106t-78 34q-37 0 -77.5 -23.5t-79 -68.5t-72 -111.5t-57.5 -153.5q-18 -67 -23 -115t2.5 -79t25 -45.5t44.5 -14.5q28 0 65 16t80 45t91 70.5t99 93.5q65 67 131 130.5t128.5 121t118.5 107.5t101 90.5t76.5 70t45.5 45.5v-16t-6 -44.5
t-20 -79.5t-41.5 -120t-72 -167t-110.5 -220t-136.5 -262t-138.5 -279.5t-130 -282t-110.5 -269.5t-80.5 -242t-41 -200z" />
    <glyph glyph-name="ampersand" unicode="&#x26;" horiz-adv-x="1130" 
d="M700 1960q-5 -106 -6.5 -234.5t0.5 -271.5t7.5 -296t14 -307.5t19.5 -306.5t24.5 -292.5t29 -266t32.5 -226.5zM648 1405h-28q-65 0 -129.5 -8.5t-121 -23.5t-102 -35t-72.5 -42.5t-33 -47t17 -47.5t78 -44t149 -38q129 -23 221.5 -50t141.5 -55t51.5 -55.5t-49 -52
t-161 -43.5t-284.5 -30z" />
    <glyph glyph-name="quotesingle" unicode="'" horiz-adv-x="860" 
d="M351 1466q0 -49 3 -100t13.5 -103t29.5 -104t52 -102z" />
    <glyph glyph-name="parenleft" unicode="(" horiz-adv-x="750" 
d="M435 1965q-89 -145 -146.5 -287t-92.5 -290t-52.5 -304.5t-27.5 -330.5q-6 -116 9 -217.5t45.5 -188t72 -157.5t87 -125.5t91.5 -93t86 -58.5z" />
    <glyph glyph-name="parenright" unicode=")" horiz-adv-x="910" 
d="M241 1796q10 7 18.5 15t18.5 8q9 0 19 -9t22 -33t27.5 -66t34.5 -108q15 -52 36 -126.5t43.5 -162t46 -184t44 -194t37 -192t25 -177t8.5 -149t-13 -109.5q-25 -85 -82.5 -155.5t-132.5 -123t-160 -84t-165 -38.5z" />
    <glyph glyph-name="asterisk" unicode="*" horiz-adv-x="1280" 
d="M554 2125q3 -61 0.5 -142t-7.5 -172t-11.5 -188t-12 -190.5t-8.5 -178.5t-1 -153zM87 1876q72 -72 160.5 -149t198.5 -144.5t243.5 -118.5t295.5 -70zM1065 1926q-103 -79 -204 -157.5t-213 -152t-243 -139.5t-296 -119z" />
    <glyph glyph-name="plus" unicode="+" horiz-adv-x="1180" 
d="M11 511q38 -5 83 -8.5t98 -3.5q74 0 161 7t183.5 22t201 39.5t214.5 58.5zM471 934q-8 -192 -19 -367q-4 -75 -9 -153t-11 -151t-12.5 -136.5t-13.5 -108.5z" />
    <glyph glyph-name="comma" unicode="," horiz-adv-x="670" 
d="M215 215q32 -66 50.5 -135.5t14 -145t-37 -157t-101.5 -171.5z" />
    <glyph glyph-name="hyphen" unicode="-" horiz-adv-x="830" 
d="M68 587q51 -10 100 -20t104 -10q35 0 72.5 5.5t79.5 19.5t90 37.5t102 59.5z" />
    <glyph glyph-name="hyphen" unicode="&#x2010;" horiz-adv-x="830" 
d="M68 587q51 -10 100 -20t104 -10q35 0 72.5 5.5t79.5 19.5t90 37.5t102 59.5z" />
    <glyph glyph-name="period" unicode="." horiz-adv-x="800" 
d="M278 90q-9 8 -9.5 15t4 12.5t12.5 9t15 3.5q11 0 16 -8.5t-6 -31.5h-32z" />
    <glyph glyph-name="slash" unicode="/" horiz-adv-x="940" 
d="M706 1633q-54 -113 -99.5 -212t-85 -189t-74.5 -172.5t-67 -163.5t-63 -162.5t-64 -168.5q-49 -130 -76 -225.5t-33 -160t9 -99.5t50 -44z" />
    <glyph glyph-name="zero" unicode="0" horiz-adv-x="1400" 
d="M290 775q-58 76 -85 144.5t-28 133t20.5 127.5t59.5 127q32 54 71 98.5t83 76.5t92 50t97 18q47 0 94 -18t92 -57t86 -101t77 -150q52 -128 73 -254t14 -240.5t-40.5 -212.5t-91.5 -170t-138.5 -113t-180.5 -41q-37 0 -78 6q-70 11 -118.5 44t-80.5 80t-49.5 103.5
t-25.5 113.5q-18 134 6 298z" />
    <glyph glyph-name="one" unicode="1" horiz-adv-x="590" 
d="M69 1557q16 -99 28.5 -181.5t22 -154t15.5 -135t10 -126t5.5 -127.5t1.5 -138v-219.5t0.5 -203t3 -164t7.5 -101.5z" />
    <glyph glyph-name="two" unicode="2" horiz-adv-x="1430" 
d="M29 1170q41 78 93 144t106.5 114.5t108 76t98.5 27.5q32 0 57 -15t41 -47.5t22 -83t-1 -122.5q-12 -115 -20.5 -218.5t-18 -200t-22.5 -189t-34 -186t-51.5 -191t-74.5 -203.5q-1 1 27 9.5t77 25t114 39.5t138.5 52.5t151 64t150.5 74t138 83t113 90.5z" />
    <glyph glyph-name="three" unicode="3" horiz-adv-x="1410" 
d="M47 1405q41 68 91 119.5t103 86.5t106.5 52.5t100.5 17.5q69 0 117 -37.5t58 -115.5q12 -92 -9.5 -180.5t-80.5 -169t-157.5 -150.5t-241.5 -126q2 0 34.5 14.5t87 32t125.5 32t150 14.5q80 0 162.5 -21t157.5 -76q79 -57 121 -116t53 -116.5t-8 -112.5t-62 -104.5
t-109.5 -91.5t-150.5 -75q-106 -41 -197 -64t-158 -23q-46 0 -78.5 12t-47.5 38t-11.5 66.5t29.5 97.5z" />
    <glyph glyph-name="four" unicode="4" horiz-adv-x="1350" 
d="M250 1510q24 -64 32 -127t-5.5 -131.5t-49.5 -144.5t-100 -166q2 0 38 -1.5t97 -1.5q63 0 146 3.5t172.5 13t179 28t166 48.5t133.5 74t82 104zM1014 1923q-26 -22 -45 -52.5t-34 -79t-27.5 -120.5t-24.5 -176t-27.5 -204.5t-33 -202.5t-36 -207.5t-36.5 -221.5
q-10 -65 -20 -135t-17.5 -136.5t-10 -126.5t2 -104.5t17.5 -71t37 -26.5q26 0 67 35z" />
    <glyph glyph-name="five" unicode="5" horiz-adv-x="1240" 
d="M981 1553q-55 -19 -117 -36.5t-126 -32t-128 -26.5t-122 -22q-137 -22 -274 -38q-17 -117 -38 -236q-9 -50 -19 -105.5t-21 -112t-23.5 -111.5t-25.5 -105q1 -1 14 11.5t38.5 32.5t63.5 44t88.5 44.5t113 34.5t137.5 14q85 0 182 -22q105 -24 166.5 -68t86.5 -98t17 -114
t-43 -117.5t-93.5 -107.5t-133.5 -85q-61 -28 -120 -51.5t-112.5 -40t-99 -26t-79.5 -9.5q-58 0 -76 29.5t20 97.5z" />
    <glyph glyph-name="six" unicode="6" horiz-adv-x="1300" 
d="M105 1622q-3 -111 -8.5 -232t-9 -244t-4.5 -244t4 -231t17.5 -205.5t36 -168t59 -117t86.5 -53.5q36 -6 77 -6q68 0 143.5 17t149 49t141 77t121 102t89 123.5t43.5 140.5q8 67 -0.5 117t-29.5 83.5t-53 50t-71 16.5q-66 0 -145.5 -45.5t-160.5 -138.5
q-44 -51 -77 -102.5t-57.5 -101.5t-40.5 -97t-27 -88q-24 -97 -26 -186z" />
    <glyph glyph-name="seven" unicode="7" horiz-adv-x="1180" 
d="M33 1307q-6 -19 -10.5 -33.5t-4.5 -25t7 -16t24 -5.5q25 0 76.5 12.5t142.5 38.5q215 62 367.5 102.5t255.5 75.5q1 2 -20 -36t-54 -114t-72.5 -188.5t-76.5 -259.5t-66 -327.5t-41 -392.5z" />
    <glyph glyph-name="eight" unicode="8" horiz-adv-x="970" 
d="M514 1300q10 95 -1 171q-5 32 -14.5 62.5t-26 54.5t-41.5 38.5t-60 14.5h-10t-10 -1q-79 -9 -122.5 -54.5t-52 -119.5t17 -172.5t85.5 -214.5q30 -58 71.5 -125t85 -138t85 -142t71.5 -137t44 -124t2.5 -101t-53 -69t-122.5 -29q-21 -1 -40.5 -1h-37.5q-133 0 -204 21
t-79 68t45.5 123t167.5 187q82 79 138 143.5t93.5 120.5t58 105t31 96t13 94.5t3.5 99.5q1 51 -9.5 97.5t-29 82t-44.5 56.5t-57 21q-35 0 -73 -31t-77 -103z" />
    <glyph glyph-name="nine" unicode="9" horiz-adv-x="1240" 
d="M923 1405q12 100 5.5 173t-28 120.5t-56.5 70.5t-81 23q-78 0 -179.5 -62t-214.5 -180q-54 -56 -100.5 -134.5t-80.5 -163.5t-52.5 -169t-16.5 -150.5t27 -107.5t79 -41q43 0 105.5 31t147.5 101t194 183t244 277q1 -1 -11.5 -46t-33 -132.5t-47.5 -217t-55 -300.5
t-55 -383t-48 -464z" />
    <glyph glyph-name="colon" unicode=":" horiz-adv-x="770" 
d="M308 681q-11 12 -12.5 21.5t3 17t12.5 11.5t16 4q12 0 19 -10t-2 -33zM373 102q-11 12 -12.5 21.5t3 17t12.5 11.5t16 4q12 0 19 -10t-2 -33z" />
    <glyph glyph-name="semicolon" unicode=";" horiz-adv-x="720" 
d="M338 834q-11 12 -12.5 21.5t3 17t12.5 11.5t16 4q12 0 19 -10t-2 -33zM272 275q50 -75 84.5 -160t51 -171t13 -169t-30 -154t-78 -126t-131.5 -85z" />
    <glyph glyph-name="less" unicode="&#x3c;" horiz-adv-x="890" 
d="M565 1032q-31 -49 -80.5 -102.5t-105 -104t-111.5 -96t-101 -79.5t-73.5 -53.5t-28.5 -18.5t47.5 -16t123.5 -50t171 -81.5t190 -110.5z" />
    <glyph glyph-name="equal" unicode="=" 
d="M225 760q6 -16 11 -29t15 -22.5t28 -15t51 -5.5q27 0 66.5 4t94 12.5t126.5 21.5t165 32zM177 261q89 40 181.5 63t169.5 35q89 14 173 18z" />
    <glyph glyph-name="greater" unicode="&#x3e;" horiz-adv-x="980" 
d="M103 1105q31 -59 73.5 -112t108 -99t159.5 -85t229 -70q0 -1 -30 -22.5t-74.5 -58t-94.5 -86t-90 -108t-62 -123.5t-10 -132z" />
    <glyph glyph-name="question" unicode="?" horiz-adv-x="1087" 
d="M456 57q-15 12 -18.5 22t0.5 18t13 12.5t18 4.5q14 0 23.5 -13t-3.5 -44h-33zM119 1627q80 84 158.5 146t151 103t137 61.5t115.5 20.5q54 0 92 -22t54.5 -65t10 -107t-41.5 -148q-45 -110 -89.5 -202t-85.5 -173.5t-77 -156.5t-64.5 -151.5t-48.5 -157.5t-29 -175z" />
    <glyph glyph-name="at" unicode="@" horiz-adv-x="1800" 
d="M1019 299q79 118 105.5 208t15.5 151.5t-53 93t-100 31.5q-37 0 -78.5 -13t-82.5 -40t-81 -68t-74 -97q-58 -94 -83.5 -181.5t-19.5 -155.5t42 -109t101 -41q66 0 161.5 49.5t218.5 162.5q4 0 11.5 -26t22.5 -57.5t40 -57.5t62 -26q38 0 91.5 38.5t125.5 137.5
q70 96 93 195t10.5 192t-56 174.5t-107 142.5t-142 96.5t-161.5 35.5q-106 0 -214.5 -36t-210 -98t-192 -144.5t-160.5 -176.5t-116 -194t-58 -196q-11 -89 9.5 -172t66 -155t111.5 -131t144.5 -101.5t166.5 -65.5t177 -23q95 0 186.5 28t171 89.5t142.5 159t100 235.5z" />
    <glyph glyph-name="A" unicode="A" horiz-adv-x="1420" 
d="M36 623q10 -1 23 -1q11 -1 27 -1.5t37 -0.5q59 0 153 7.5t215.5 32t266 71t303.5 124.5zM141 54q35 102 70.5 232.5t70.5 283t69.5 324t69 355t68 376.5t65.5 388q2 1 1.5 -34.5t2 -100.5t9 -156.5t21.5 -204t41 -242.5t66 -271q60 -212 131 -384.5t140 -305
t130.5 -226.5t103.5 -149z" />
    <glyph glyph-name="B" unicode="B" horiz-adv-x="1520" 
d="M315 1517q-4 -88 -7 -198.5t-3.5 -234.5t2 -255.5t8.5 -260t16 -250t24 -224.5zM80 1376q78 59 171 108t187.5 84.5t185 55.5t164.5 20q78 0 130 -23.5t67 -74.5q15 -50 -1.5 -118.5t-57.5 -143t-104 -148.5t-141.5 -136t-169.5 -105t-189 -55q2 0 16 2.5t39.5 5t61 5
t78.5 2.5q54 0 118.5 -5.5t135 -20t144 -40t146.5 -65.5q87 -48 136.5 -103t64 -111.5t-3.5 -111.5t-66.5 -101.5t-125.5 -82.5t-179 -55q-152 -28 -288.5 -48.5t-240.5 -20.5q-54 0 -96.5 6.5t-71.5 21.5t-44 39.5t-12 59.5z" />
    <glyph glyph-name="C" unicode="C" horiz-adv-x="1380" 
d="M840 1343q-11 111 -34.5 195t-56 140.5t-73 85t-85.5 28.5q-69 0 -142 -67.5t-141 -207.5q-52 -107 -92 -219t-67 -223.5t-39.5 -220.5t-8.5 -208.5t25 -188.5t62 -160q27 -47 71.5 -87t101 -69t122 -45t134.5 -16q87 0 174 30t160.5 97t127.5 175.5t76 265.5z" />
    <glyph glyph-name="D" unicode="D" horiz-adv-x="2150" 
d="M531 1603q-21 26 -38 50t-30 43.5t-22 31t-15 11.5t-8 -13t-1.5 -42.5t4 -77.5t9.5 -119q6 -72 12.5 -159t13.5 -182t14 -194t14 -195.5t15 -186t16 -164.5t17 -133t18 -90zM19 1617q134 64 258 95t246 31q95 0 189.5 -18.5t189 -55.5t191 -91t196.5 -125
q82 -58 160.5 -124.5t146.5 -138t122.5 -146.5t87.5 -150t41.5 -148.5t-15 -142.5t-83 -131t-161.5 -115q-103 -53 -208.5 -91t-207.5 -62t-199 -35t-183 -11q-84 0 -156 10t-126.5 28.5t-89.5 44.5t-46 58z" />
    <glyph glyph-name="E" unicode="E" horiz-adv-x="1330" 
d="M43 1530q142 41 294 73q65 14 139 26.5t152.5 23t159.5 16.5t160 6h37zM111 893q11 -1 22 -1h22q87 0 169.5 17t169.5 42.5t183.5 55t210.5 55.5zM237 1753q-7 -115 -16 -204.5t-16.5 -167t-12.5 -149t-4.5 -151t7.5 -174t24 -217t44.5 -279.5t69.5 -363zM29 87
q138 22 285.5 39t289.5 36t269 44.5t223 63.5z" />
    <glyph glyph-name="F" unicode="F" horiz-adv-x="1500" 
d="M14 1685q96 9 213 30t245.5 52t263 70.5t264.5 85.5t249.5 97t218.5 104zM164 941q145 0 290 16t289 43.5t285.5 64.5t279.5 79zM377 1728q24 -133 42.5 -279.5t35.5 -298.5t34 -305t37.5 -298t47.5 -278t63 -245z" />
    <glyph glyph-name="G" unicode="G" horiz-adv-x="1660" 
d="M690 1699q-15 68 -48 102.5t-76 34.5q-31 0 -64.5 -17.5t-67 -53t-65.5 -89.5t-60 -126q-24 -62 -51.5 -140t-55 -167t-51.5 -185t-40.5 -192.5t-23 -191t2 -180.5t34.5 -160.5t74 -130.5q63 -74 153.5 -109.5t191.5 -35.5q70 0 140 16.5t135.5 49.5t122.5 81.5
t99.5 112.5t67.5 142.5t27 171.5zM488 821q209 150 366.5 240t263.5 137q125 56 214 77q16 -49 25 -127q8 -66 11.5 -170.5t-7.5 -253.5q-7 -99 -12 -198t-5.5 -193.5t5.5 -182t20.5 -162t38.5 -134.5t60 -100z" />
    <glyph glyph-name="H" unicode="H" horiz-adv-x="1330" 
d="M7 1017h39q79 0 175.5 6.5t199 19t205.5 31.5t195.5 43.5t168.5 54.5t125 66zM355 2212q-7 -129 -11.5 -286.5t-4.5 -334t5 -368t16 -390.5t29.5 -400.5t45.5 -396.5zM818 2140q32 -87 53 -189.5t34.5 -233t21.5 -294.5t14 -373q6 -211 24 -390t38 -313q23 -156 51 -285z
" />
    <glyph glyph-name="I" unicode="I" horiz-adv-x="1560" 
d="M29 1452q168 53 351 95q78 18 167 34.5t183.5 30t192.5 21.5t194 8q81 0 159 -6.5t150 -21.5t137.5 -39.5t120.5 -59.5zM272 58q163 34 314.5 73t307.5 77t323.5 72.5t361.5 59.5zM778 1611q5 -112 11 -242t14.5 -267t18.5 -275t22 -267t26.5 -242.5t31.5 -201.5z" />
    <glyph glyph-name="J" unicode="J" horiz-adv-x="1520" 
d="M261 1622q244 27 514 57.5t550.5 59.5t563 55t551.5 45zM1126 1825q3 -136 6 -243.5t5.5 -200t3.5 -176t-1.5 -171t-8 -185.5t-16.5 -219q-13 -151 -48.5 -255t-89 -168.5t-124.5 -93.5t-156 -29q-68 0 -150 17q-115 25 -205 56t-144 70t-67 87t25 106z" />
    <glyph glyph-name="K" unicode="K" horiz-adv-x="1560" 
d="M97 1880q0 -145 1 -309t3.5 -335t8 -341.5t14.5 -328t23 -296t33 -244.5zM1191 1815q-96 -135 -201.5 -256.5t-210 -225t-205 -188.5t-187 -146.5t-155 -98t-110.5 -44.5q1 4 28.5 -22.5t76.5 -74.5t118.5 -113.5t154 -140t183 -154t206.5 -155.5t223 -145t233 -122z" />
    <glyph glyph-name="L" unicode="L" horiz-adv-x="1250" 
d="M103 1699q18 -120 30 -255.5t20 -277t12.5 -284.5t7 -279.5t4 -262t3.5 -231.5q2 -1 19 -1q29 0 93.5 4t152.5 16t192 33t211 55.5t210.5 84t190.5 117.5z" />
    <glyph glyph-name="M" unicode="M" horiz-adv-x="1610" 
d="M129 32q-10 104 -16 218.5t-9 230.5t-4 230.5t-0.5 218t2 192t3 153.5t3 102.5t1.5 38.5q0 2 11.5 -33.5t36 -98.5t61.5 -148t88.5 -182t118 -201.5t148.5 -205.5q2 0 27 18.5t67.5 63t99.5 120.5t122.5 191.5t136 274t139.5 369.5q5 -2 0.5 -46.5t-8 -131t-0.5 -215
t22 -298.5t60 -380.5t113 -461.5z" />
    <glyph glyph-name="N" unicode="N" horiz-adv-x="1470" 
d="M1320 1860q-70 -99 -113 -216t-64 -254.5t-22 -297.5t12 -345q12 -172 10.5 -290.5t-7.5 -193.5q-8 -87 -22 -141q-167 113 -340 338q-73 96 -155.5 225.5t-167.5 298.5t-170 380.5t-165 470.5q1 0 5.5 -48t10 -132.5t10.5 -200t7 -250.5t0 -284.5t-10.5 -301.5
t-24.5 -301.5t-43 -284.5z" />
    <glyph glyph-name="O" unicode="O" horiz-adv-x="1530" 
d="M483 1770q-87 -74 -151 -169.5t-109 -204t-72 -226t-39.5 -235t-12.5 -231t10 -215.5q10 -100 56.5 -179t118 -133.5t161.5 -83.5t186 -29q71 0 142.5 16.5t138 50.5t126.5 86t108 124q76 113 106 227t25.5 229.5t-39 232.5t-89 234.5t-124 236t-143.5 237.5
q-45 72 -89.5 122.5t-88 82.5t-84.5 46.5t-79 14.5q-55 0 -100.5 -29t-74.5 -79t-40 -115.5t2 -139.5z" />
    <glyph glyph-name="P" unicode="P" horiz-adv-x="1780" 
d="M32 1577q63 29 154 42t200 13q118 0 248 -14.5t257 -40t243.5 -62t206 -80.5t144.5 -94.5t60 -104.5q5 -53 -28 -103.5t-92.5 -99t-140 -95t-170 -91t-183 -87t-179 -83t-157.5 -79.5t-119 -77zM348 1493q19 -82 35 -194t30.5 -239.5t28.5 -264t29 -268t32 -251
t38 -212.5z" />
    <glyph glyph-name="Q" unicode="Q" horiz-adv-x="2140" 
d="M457 2034q-128 -171 -225.5 -356t-150 -384t-52 -412.5t67.5 -443.5q26 -89 80.5 -154t129.5 -108t166.5 -63.5t190.5 -20.5q105 0 214 22t213 65t198.5 106t169.5 144.5t126 180.5t69 214q25 160 15 319.5t-47.5 306t-99 272.5t-139.5 219t-169 146t-188 53
q-51 0 -103.5 -16t-104.5 -51q-96 -64 -182.5 -144.5t-154.5 -170t-115 -185t-64 -190t-1 -184.5t72 -169zM1178 1249q77 -181 166 -364t182.5 -361t188.5 -347.5t184 -324.5z" />
    <glyph glyph-name="R" unicode="R" horiz-adv-x="2030" 
d="M547 1590q22 -229 50 -439t51 -403t34.5 -371t-0.5 -345zM26 1693q35 78 93 136t133.5 96t166.5 57t190 19q135 0 279 -34t284 -100q116 -55 224 -121.5t192.5 -140.5t137.5 -154t59 -161t-43.5 -161.5t-170.5 -156.5q-83 -52 -159 -88t-145.5 -58t-133.5 -32t-124 -10
q-70 0 -135 11.5t-126.5 31t-120.5 44t-118 50.5q2 2 46 -43.5t126.5 -129.5t203 -201t274.5 -257q97 -88 177 -148t146 -97t119.5 -53t97.5 -16q53 0 93 19t75 50z" />
    <glyph glyph-name="S" unicode="S" horiz-adv-x="1660" 
d="M1197 1706q-54 62 -115 105t-125 71t-128.5 40.5t-126.5 12.5q-95 0 -177 -26.5t-139 -73.5q-65 -53 -83 -103.5t10.5 -111.5t103.5 -139t195 -187q60 -54 133 -122t149 -143.5t150.5 -156t137.5 -161t110 -157.5t68 -145t12 -125t-59 -97q-72 -58 -178 -86.5t-226 -28.5
q-104 0 -212 21t-206 61.5t-180.5 100.5t-136.5 138q-56 82 -71.5 146t-4 113t43 85t69 61.5t73.5 42.5t57 28z" />
    <glyph glyph-name="T" unicode="T" horiz-adv-x="1810" 
d="M32 1538q144 17 309.5 40t343.5 49.5t364.5 55.5t372.5 58.5t366.5 58.5t346.5 55.5t313.5 49t267.5 39.5zM1249 1699q5 -87 4.5 -203.5t-4 -251.5t-8.5 -282.5t-8.5 -296t-5 -292.5t1.5 -271z" />
    <glyph glyph-name="U" unicode="U" horiz-adv-x="1400" 
d="M90 1867q7 -198 11 -358t6.5 -292t4 -241.5t1 -206.5t-1 -187t-2.5 -183q-2 -145 22 -225.5t78 -80.5q51 0 130.5 79.5t188.5 252.5q57 89 103 195t82.5 219t65 227t49.5 220q49 248 73 504q-32 -258 -51 -494q-8 -100 -14 -206t-8 -205t1 -186.5t14 -151.5
q17 -99 52 -180t83 -139t106.5 -89.5t122.5 -31.5q76 0 151 47z" />
    <glyph glyph-name="V" unicode="V" horiz-adv-x="1260" 
d="M64 1751q39 -91 86.5 -211t100 -254.5t106 -276.5t103.5 -276.5t94 -254t77 -210t52 -143.5t19 -54t7.5 39.5t22 114t35 177t46.5 227.5t57.5 264.5t67 290t75 303t81.5 303.5z" />
    <glyph glyph-name="W" unicode="W" horiz-adv-x="1840" 
d="M97 1770q23 -65 51 -154t58.5 -194.5t64 -223.5t67 -240.5t67 -245.5t64.5 -239.5t59 -222t51 -192.5q3 -2 1 23.5t-1.5 86.5t8.5 161.5t31.5 248.5t66 347.5t113.5 458.5q1 1 8 -31.5t21 -91t36 -138.5t53.5 -175t73.5 -200t96.5 -213t122 -214.5t149.5 -204.5
q5 3 -2.5 32t-14 98t-5 185.5t23.5 295.5t71.5 428t139.5 583z" />
    <glyph glyph-name="X" unicode="X" horiz-adv-x="1230" 
d="M116 1757q45 -90 91 -196t93.5 -220.5t97 -234.5t101 -238.5t105.5 -232.5t110 -217t115 -191.5t120 -156.5zM1081 2195q-72 -132 -130 -262t-107.5 -264.5t-93.5 -277t-88.5 -299.5t-92.5 -332t-106 -374t-106 -367.5t-89.5 -315t-77.5 -274.5t-68.5 -247.5t-64 -234.5
t-63.5 -234z" />
    <glyph glyph-name="Y" unicode="Y" horiz-adv-x="1110" 
d="M19 1487q170 -376 338 -692t332 -563zM1011 1912q-60 -177 -117.5 -362.5t-110 -371t-97.5 -368.5t-79.5 -355t-57 -329.5t-28.5 -292.5t-12.5 -247.5t-11.5 -210t-9 -184t-6.5 -169.5t-2 -166.5t3.5 -175.5z" />
    <glyph glyph-name="Z" unicode="Z" horiz-adv-x="1280" 
d="M13 1487q58 -19 143 -19q75 0 176 14t240.5 41t321.5 66.5t419 90.5q1 1 -11 -10.5t-39.5 -47t-72 -101t-108 -172t-147.5 -259.5t-191 -364.5t-237.5 -486.5t-287.5 -625q2 1 25.5 17.5t79.5 43t150.5 59.5t238 68.5t341 70t459.5 63.5z" />
    <glyph glyph-name="bracketleft" unicode="[" horiz-adv-x="1010" 
d="M863 2105q-78 -26 -167.5 -45t-167.5 -30q-90 -14 -180 -22q-63 -463 -111 -883q-14 -119 -27 -243t-25 -246.5t-22 -240t-16.5 -224t-9.5 -199t-2 -165.5q3 0 44 14t118.5 36t189 48t253.5 50z" />
    <glyph glyph-name="backslash" unicode="\" horiz-adv-x="1497" 
d="M148 1481q219 -248 442 -503q95 -109 200.5 -230.5t213.5 -247.5t215 -251.5t204 -242.5z" />
    <glyph glyph-name="bracketright" unicode="]" horiz-adv-x="980" 
d="M58 2079q85 -10 162.5 -19.5t155.5 -9.5t158 14.5t168 53.5q3 -2 -4.5 -81t-19 -221t-24 -340t-19.5 -437t-5 -512t20 -566q3 -7 -31 -10.5t-95.5 -12t-146.5 -26.5t-184 -54z" />
    <glyph glyph-name="asciicircum" unicode="^" 
 />
    <glyph glyph-name="underscore" unicode="_" horiz-adv-x="1440" 
d="M64 -174q128 14 274.5 22.5t295.5 8.5q84 0 166 -3t158 -10t144.5 -18t126.5 -26z" />
    <glyph glyph-name="grave" unicode="`" 
 />
    <glyph glyph-name="a" unicode="a" horiz-adv-x="1060" 
d="M690 801q-29 84 -72.5 123t-97.5 39q-64 0 -137.5 -50.5t-150.5 -144.5q-47 -58 -89 -126t-73.5 -137.5t-49.5 -136t-18.5 -122.5t19.5 -96.5t66 -57.5q17 -6 35 -6q48 0 104 36t113.5 95t113.5 135t103 156t81 158t49 140q-1 0 -5 -37.5t-3.5 -99.5t9.5 -142.5t33 -167
t66.5 -172.5t111.5 -158z" />
    <glyph glyph-name="b" unicode="b" horiz-adv-x="850" 
d="M39 1550q-12 -27 -22.5 -54.5t-18.5 -63.5t-13 -85t-6 -119t3 -165.5t13.5 -224t26.5 -295t41 -379.5q0 -1 0.5 23.5t6 66t17.5 96t35 114t59 119.5t89 112q44 42 90 60.5t93 18.5q62 0 120 -27t103.5 -66t74 -83.5t31.5 -80.5q3 -37 -20 -75.5t-65 -76t-98.5 -72.5
t-120 -65.5t-130.5 -56.5t-129.5 -44.5t-117 -28.5t-92.5 -10q-31 0 -49 7t-19.5 23t16 40.5t57.5 58.5z" />
    <glyph glyph-name="c" unicode="c" horiz-adv-x="740" 
d="M367 855q-39 69 -81.5 102t-84.5 33q-66 0 -123 -81t-88 -238q-20 -103 -15.5 -188t27.5 -153t61 -118t85.5 -83.5t100.5 -50t106 -16.5q62 0 118.5 22.5t97.5 66.5t61.5 110.5t9.5 153.5z" />
    <glyph glyph-name="d" unicode="d" horiz-adv-x="1000" 
d="M695 1511q-26 -100 -41 -219.5t-18 -247.5t6 -259.5t30 -256.5t54.5 -237.5t79.5 -203.5zM715 821q-34 70 -69.5 117.5t-71 77t-71 42.5t-69.5 13q-45 0 -87 -18.5t-80 -48t-71.5 -65t-60.5 -70.5q-33 -42 -58 -99t-41 -121.5t-22 -132t-1.5 -132t20.5 -122t44.5 -100.5
t70 -68t97.5 -25q19 0 40 3q53 8 96.5 39.5t79 77.5t63.5 102.5t49 113.5q49 134 76 299z" />
    <glyph glyph-name="e" unicode="e" horiz-adv-x="1070" 
d="M-3 424q246 93 403 176.5t217 146.5t20 100t-189 36q-94 -1 -168.5 -29t-129.5 -74.5t-90.5 -107.5t-50 -126.5t-8.5 -132t33.5 -124t76.5 -101.5t120 -66q63 -20 122.5 -28t115.5 -8q100 0 182.5 20t142.5 43q70 28 127 63z" />
    <glyph glyph-name="f" unicode="f" horiz-adv-x="810" 
d="M-413 736q71 31 161.5 49.5t191.5 31t206 21.5t205 21.5t189.5 31.5t157.5 51zM788 1526q-21 78 -54.5 138.5t-74.5 101t-86.5 61.5t-89.5 21q-43 0 -83 -20t-70.5 -61.5t-49.5 -104t-22 -147.5q-3 -86 4 -185.5t18.5 -206t25 -216.5t24 -216t15.5 -205.5t0.5 -185
t-22.5 -154t-53 -112.5z" />
    <glyph glyph-name="g" unicode="g" horiz-adv-x="1090" 
d="M777 753q-45 79 -96.5 116t-110.5 37q-89 0 -188.5 -78.5t-202.5 -219.5q-41 -56 -69.5 -118t-44 -122.5t-17.5 -115.5t10 -96.5t38 -66t67 -24.5q47 0 112 36.5t150 120.5q78 77 136.5 151t101.5 142.5t71.5 131t46.5 115.5q43 125 45 233q-11 -123 -12 -266
q-2 -123 6 -282t35 -336q27 -176 54.5 -333t38 -297t-5 -263.5t-73.5 -231.5q-32 -60 -77 -105t-95.5 -75t-103 -45t-99.5 -15q-59 0 -104 23.5t-62 71t1.5 118.5t85.5 167z" />
    <glyph glyph-name="h" unicode="h" horiz-adv-x="1050" 
d="M-48 1376q14 -77 27 -183t22.5 -227t16 -250t8 -253.5t-2 -237.5t-13.5 -201q1 -1 8.5 25.5t27.5 75.5t54 117t88.5 149.5t131.5 173.5t182 188q104 96 176.5 137t120.5 41t74.5 -35t38.5 -91t12.5 -125.5t-2.5 -138.5q-5 -103 -6.5 -193.5t-1.5 -158.5q1 -79 3 -146z
" />
    <glyph glyph-name="i" unicode="i" horiz-adv-x="420" 
d="M79 1517q-10 7 -12.5 13.5t1 11t10.5 7t14 2.5q12 0 20 -7.5t0 -26.5h-33zM-63 990q23 -86 41.5 -163.5t33.5 -151.5t27 -147.5t22.5 -151.5t20 -163.5t19.5 -183.5z" />
    <glyph glyph-name="j" unicode="j" horiz-adv-x="450" 
d="M63 1171q-10 7 -12.5 13.5t1 11t10.5 7t14 2.5q12 0 20 -7.5t0 -26.5h-33zM19 864q0 -99 4.5 -187t13 -172.5t20.5 -169.5t28.5 -177.5t36 -196.5t42.5 -227t43.5 -227t34 -192t17 -163t-7.5 -140t-39 -122.5t-77 -110.5q-33 -36 -75 -68t-89 -56.5t-96.5 -39
t-97.5 -14.5q-59 0 -111.5 26t-90 85.5t-56.5 157.5t-11 242z" />
    <glyph glyph-name="k" unicode="k" horiz-adv-x="1150" 
d="M10 1497q-33 -119 -37 -321q-2 -86 2.5 -198.5t19.5 -254.5t41.5 -314.5t69.5 -379.5zM541 1081q-77 -66 -134.5 -117.5t-102 -95t-79.5 -82.5t-66.5 -80.5t-63.5 -88t-71 -105.5q4 0 21.5 -14t59 -35t113 -46t183 -46t268 -35t368.5 -14h62.5t64.5 1z" />
    <glyph glyph-name="l" unicode="l" horiz-adv-x="420" 
d="M-14 1506q-7 -94 -11 -215t-1 -258t14.5 -284.5t35.5 -296t62 -292t93 -271.5z" />
    <glyph glyph-name="m" unicode="m" horiz-adv-x="1550" 
d="M29 941q4 -83 6.5 -157t4.5 -144t3 -139.5t1 -143.5t-1 -156t-4 -177q0 1 1 34.5t6 90t16 130.5t29.5 156t47 168t69.5 165q35 68 73 101.5t75 33.5q48 0 89.5 -56t67 -169t30 -285t-21.5 -403q1 0 5.5 25.5t18.5 73.5t39.5 116.5t68.5 154t106 186t153 212.5
q45 56 83 95.5t70.5 64.5t59 36t48.5 11q29 0 49.5 -17.5t34 -47.5t20 -69.5t8.5 -83.5t-1 -89.5t-9 -87.5q-17 -115 -21.5 -216t-2.5 -178q2 -90 9 -166z" />
    <glyph glyph-name="n" unicode="n" 
d="M-39 1057q6 -108 14.5 -232t22.5 -255t34.5 -265.5t49.5 -265.5q0 -1 -3 30.5t-2.5 86.5t7.5 129.5t25.5 158t52.5 171.5t89 172q78 119 144 170t119 51q38 0 69.5 -23t56 -63t42.5 -93.5t28 -113.5q17 -99 32.5 -185.5t32.5 -156t38.5 -120.5t50.5 -78z" />
    <glyph glyph-name="o" unicode="o" horiz-adv-x="650" 
d="M14 724q-12 -172 -9.5 -297t22 -206.5t59 -120.5t102.5 -39q7 0 14 0.5t15 1.5q72 9 116.5 62.5t67.5 131t28.5 168t0.5 174.5q-7 104 -35 181t-68 128t-86 76.5t-89 25.5q-40 0 -73 -22t-50 -65t-14.5 -107.5t33.5 -149.5z" />
    <glyph glyph-name="p" unicode="p" horiz-adv-x="1100" 
d="M130 -497q-5 157 -9 291.5t-8 255t-8.5 229.5t-9.5 213.5t-12 209t-15 215.5q9 1 25 1.5t39 0.5q38 0 93 -5t125.5 -20.5t156 -45.5t183.5 -80q86 -43 132 -95.5t47 -108t-44.5 -111t-143.5 -105t-250 -90t-363 -65.5z" />
    <glyph glyph-name="q" unicode="q" horiz-adv-x="980" 
d="M605 847q-30 41 -72 63.5t-94 22.5q-74 0 -163 -51.5t-189 -168.5q-44 -51 -65 -112t-23.5 -122t11.5 -118t40.5 -100.5t63.5 -70t80 -26.5q37 0 76.5 22t80.5 71q33 40 62.5 85.5t55 92t47 92t38.5 87.5q40 99 69 197q-22 -156 -49 -337q-23 -155 -55 -357t-70 -428
q-19 -115 -32.5 -236.5t-18.5 -237t0 -219t23 -181t50.5 -123t82.5 -45.5q45 0 106 43t140 140z" />
    <glyph glyph-name="r" unicode="r" horiz-adv-x="810" 
d="M43 905q2 -108 11 -219.5t29 -217t52 -201.5t79 -173q2 1 -5.5 19t-15.5 50.5t-11.5 78.5t6.5 102.5t38.5 122.5t84.5 138q59 77 122 134.5t116 97.5q62 46 121 79z" />
    <glyph glyph-name="s" unicode="s" horiz-adv-x="780" 
d="M471 862q-25 25 -57 44.5t-68 32.5t-74 19.5t-74 6.5q-38 0 -73 -7.5t-62.5 -23t-45.5 -39t-24 -55.5q-5 -31 16 -68t59.5 -77t88.5 -82.5t102 -85.5t101.5 -85.5t86 -82.5t55 -77t9.5 -68q-10 -37 -32.5 -63t-53.5 -42.5t-68 -24t-77 -7.5q-54 0 -109 12.5t-102 33.5z
" />
    <glyph glyph-name="t" unicode="t" horiz-adv-x="1090" 
d="M-369 619q119 49 258 78.5t283.5 50t288.5 35.5t273.5 35.5t238 50.5t182.5 80zM453 1412q-8 -76 -13 -184.5t-7.5 -234.5t-2.5 -261.5t2 -265.5t5.5 -246.5t7.5 -205.5z" />
    <glyph glyph-name="u" unicode="u" horiz-adv-x="840" 
d="M11 880q4 -101 2 -198.5t-5.5 -184t-5.5 -159.5t3 -126.5t20 -83t44 -29.5q4 0 7 0.5t7 1.5q35 7 68 49t65 108t63.5 150.5t62.5 176t61 185.5t60 179q2 0 -5 -26.5t-16 -72.5t-17.5 -107.5t-9.5 -132.5t8.5 -147t36.5 -151t74 -144.5t121 -127.5z" />
    <glyph glyph-name="v" unicode="v" horiz-adv-x="710" 
d="M-69 1032q27 -126 65.5 -265t87 -281.5t107.5 -284t128 -273.5q2 0 -1 20.5t-1.5 69t11 128t35 198.5t72.5 281t123 374z" />
    <glyph glyph-name="w" unicode="w" horiz-adv-x="1210" 
d="M-58 1036q46 -103 84 -205.5t71 -219.5t63 -255.5t61 -315.5q-1 1 -2.5 38.5t0 104t7 158t19.5 200t38 229.5t61 247q1 -1 18.5 -46t48 -119.5t73 -170.5t92.5 -197.5t106 -202t115 -183.5q-1 -1 -1.5 43.5t2 119t8 172t17 203t30 212t45.5 198.5z" />
    <glyph glyph-name="x" unicode="x" horiz-adv-x="760" 
d="M-29 927q38 -72 68 -130.5t61 -115t68.5 -118t91.5 -140t128.5 -180t179.5 -239.5zM561 1122q-73 -153 -138 -306t-129.5 -310.5t-132.5 -323.5t-147 -345z" />
    <glyph glyph-name="y" unicode="y" 
d="M-76 1010q60 -163 127 -308t135.5 -271t135.5 -231.5t127 -188.5zM655 1122q-55 -152 -94 -275t-65.5 -229t-43 -200.5t-27 -190t-17 -197.5t-13.5 -222q-10 -182 -8 -347.5t7 -294.5q7 -150 19 -281z" />
    <glyph glyph-name="z" unicode="z" horiz-adv-x="950" 
d="M18 815q47 25 96.5 45t98.5 36t96 27.5t89 19.5q98 19 192 27q-16 -35 -44 -99q-24 -55 -64 -148t-102 -234q-61 -140 -112 -248t-88 -183q-44 -88 -79 -152q124 47 256 101q57 23 120.5 49.5t131 55t136.5 59t135 61.5z" />
    <glyph glyph-name="braceleft" unicode="{" 
d="M518 1959q-157 -65 -245.5 -139.5t-109.5 -149t23.5 -144t153.5 -125.5q73 -37 139.5 -75.5t110 -78t56.5 -79t-23 -79t-129 -77.5t-259 -74q2 2 26 2q21 0 53 -2t68 -8t71 -16.5t61.5 -27t41 -40t8 -55.5t-37.5 -73.5t-95 -94.5q-89 -73 -146 -155.5t-79.5 -163
t-10 -154.5t62.5 -130t138.5 -89.5t216.5 -33.5q117 0 263 31z" />
    <glyph glyph-name="bar" unicode="|" 
 />
    <glyph glyph-name="braceright" unicode="}" horiz-adv-x="890" 
d="M174 1923q113 -10 198.5 -45.5t141.5 -86.5t82 -111.5t20.5 -121.5t-44.5 -116t-112 -95t-132.5 -80.5t-96 -79.5t-46.5 -74t15.5 -64.5t91 -51.5t179.5 -34q1 -1 -21.5 -9.5t-57 -24.5t-74.5 -39.5t-72.5 -54t-51 -67t-10.5 -79.5t48 -91t126 -102q114 -71 166 -130.5
t56 -112t-33.5 -101t-103 -99t-152 -105t-179.5 -118.5z" />
    <glyph glyph-name="asciitilde" unicode="~" horiz-adv-x="4004" 
d="M1545 1991q-19 -135 -35 -277t-27.5 -284t-19 -281t-11 -267.5t-1.5 -243.5t8 -209zM2420 2326q-23 -99 -45.5 -226t-41.5 -270.5t-33 -297t-21.5 -304.5t-7 -294t11.5 -265zM429 618q-34 -194 -10 -388.5t98.5 -373t196.5 -332.5t283.5 -267.5t359 -178.5t422.5 -65
q84 0 169 9q249 28 475.5 107.5t417.5 205t340 293.5t243.5 371.5t128 439t-7.5 497.5z" />
    <glyph glyph-name="sterling" unicode="&#xa3;" horiz-adv-x="1790" 
d="M888 847q33 2 61.5 3t54.5 1q32 0 60.5 -0.5t57.5 -0.5q43 0 90 3.5t108 15.5zM1562 1496q-35 50 -83 73.5t-101 23.5q-45 0 -89 -16.5t-81.5 -48.5t-66 -78.5t-41.5 -107.5q-14 -67 -13 -134t7.5 -134t13 -133t3 -131.5t-23 -129.5t-64.5 -127t-121 -124.5t-193 -121.5
t-281 -117.5t-385 -112.5q1 0 40 13t103 33t148 43.5t175 43.5t183.5 33.5t173.5 13.5q48 0 89.5 -5.5t76.5 -17.5q67 -24 120 -46.5t96 -40t76.5 -28t60.5 -10.5q33 0 59 18t50 60z" />
    <glyph glyph-name="bullet" unicode="&#x2022;" horiz-adv-x="1050" 
d="M424 568q-69 36 -91 74.5t-13 70.5t40 52.5t67 20.5q35 0 62 -20q22 -16 30.5 -38t6.5 -45t-13.5 -45.5t-29 -39.5t-40 -28t-46.5 -11q-20 0 -44 11z" />
    <glyph glyph-name="endash" unicode="&#x2013;" horiz-adv-x="1240" 
d="M136 576q127 20 223.5 35t168.5 25t121.5 15t81.5 5q36 0 53 -6t23 -18t4.5 -29.5t-4.5 -40.5z" />
    <glyph glyph-name="emdash" unicode="&#x2014;" horiz-adv-x="2110" 
d="M119 736q18 -17 35 -29.5t42.5 -20.5t63.5 -12t98 -4q76 0 194.5 6t297.5 16q67 4 129.5 5.5t120.5 1.5q173 0 304 -12t222 -26q106 -17 183 -39z" />
    <glyph glyph-name="quotedblleft" unicode="&#x201c;" horiz-adv-x="1150" 
d="M342 1841q5 -56 6.5 -118.5t-4 -135t-19.5 -157.5t-40 -186zM684 1912q-8 -78 -8 -182.5t1.5 -222.5t1.5 -241.5t-8 -238.5z" />
    <glyph glyph-name="quotedblright" unicode="&#x201d;" horiz-adv-x="910" 
d="M525 1778q-11 -72 -18.5 -140.5t-10 -137.5t0 -139.5t10.5 -146.5zM198 1780q4 -68 3.5 -152t-9 -169.5t-26.5 -163.5t-50 -134z" />
    <glyph glyph-name="quoteleft" unicode="&#x2018;" horiz-adv-x="880" 
d="M320 1705q2 -51 1 -119.5t-6.5 -141.5t-16 -144t-25.5 -127z" />
    <glyph glyph-name="quoteright" unicode="&#x2019;" horiz-adv-x="900" 
d="M401 1931q19 -185 5 -350t-60 -308z" />
    <glyph glyph-name="onehalf" unicode="&#xbd;" horiz-adv-x="1940" 
d="M53 1813q24 -71 46 -146q10 -32 20.5 -68t20.5 -74.5t19 -77t16 -76.5q9 -46 19.5 -76t21.5 -47.5t22 -24.5t20 -7q11 0 19.5 7t11.5 15zM815 1811q-29 -60 -53.5 -110.5t-46.5 -102t-43.5 -110.5t-44.5 -135t-49.5 -175.5t-59.5 -232.5q-49 -201 -80 -362.5t-49 -276.5
q-21 -136 -31 -241zM927 778q48 53 96.5 94t94 69.5t86 43.5t72.5 15q30 0 50.5 -14t28 -43.5t0 -75t-32.5 -107.5q-26 -64 -54 -127t-56.5 -123t-56.5 -115.5t-53 -103.5q-59 -114 -117 -215q26 36 76 65q42 26 114 49.5t183 30.5q100 7 172.5 16.5t121.5 18.5q57 11 97 23
z" />
    <glyph glyph-name="onequarter" unicode="&#xbc;" horiz-adv-x="1660" 
d="M72 1655q2 -41 7 -88t12.5 -96.5t17 -99t19.5 -95.5q22 -106 49 -215zM826 1789q-28 -33 -69.5 -121.5t-90.5 -219t-102 -295.5t-105 -350.5t-99.5 -385t-84.5 -398.5zM927 960q-14 -51 -34.5 -99.5t-44 -93.5t-49 -85.5t-49.5 -75.5q-57 -81 -120 -150q61 30 165 60
q89 26 235 56.5t360 57.5zM1390 1253q-17 -62 -36 -149t-36.5 -188.5t-33 -213t-25.5 -222.5t-13 -217.5t3 -197.5z" />
    <glyph glyph-name="threequarters" unicode="&#xbe;" horiz-adv-x="2350" 
d="M69 1593q40 36 85 63t90.5 45t89.5 27.5t82 9.5q44 0 77 -13t48 -39t8.5 -66.5t-40.5 -94.5t-100 -123t-170 -153q2 -1 21 7t50 18t71 18.5t85 8.5q48 0 97.5 -13.5t95.5 -49.5q65 -51 78.5 -106.5t-13.5 -107t-89 -94t-146 -68.5q-42 -13 -78.5 -18.5t-68.5 -5.5
q-48 0 -81 12t-46.5 33t-5 48.5t43.5 57.5zM1444 1646q-144 -304 -264 -615q-51 -133 -101.5 -280t-93 -298t-73.5 -300.5t-43 -287.5zM1521 932q0 -71 -18.5 -143t-41.5 -131q-27 -68 -61 -132q106 1 228 13q105 10 240.5 31.5t284.5 61.5zM2066 1241q-35 -94 -72.5 -200
t-71.5 -215.5t-62 -218t-43.5 -207.5t-16 -184t19.5 -148z" />
    <glyph glyph-name="lira" unicode="&#x20a4;" 
 />
    <glyph glyph-name="Euro" unicode="&#x20ac;" horiz-adv-x="1620" 
d="M145 989q43 9 93.5 16.5t103.5 13.5t107 10t104 7q116 7 236 10zM14 507q72 30 144 48t138 28t123 13t97 3h33t24 -1q12 0 21 -1zM1191 1655q-34 8 -67 12t-66 4q-69 0 -134.5 -19.5t-128 -61.5t-122 -107.5t-115.5 -157.5q-69 -114 -122 -238t-83.5 -249.5t-35 -248.5
t22.5 -234q14 -57 60 -109t113 -92.5t150.5 -64.5t171.5 -24q86 0 171.5 26t162 84.5t139 153t101.5 232.5z" />
    <glyph glyph-name="uni0394" unicode="&#x394;" horiz-adv-x="910" 
d="M666 1361q-10 57 -33.5 98t-55 66.5t-69.5 37.5t-76 12q-40 0 -78.5 -12t-68.5 -34.5t-48.5 -54t-19.5 -69.5q-1 -49 12 -109t36.5 -126.5t55.5 -138t68.5 -143.5t75.5 -143t76 -137q56 -99 69 -187.5t-10 -155.5t-80.5 -108t-142.5 -46q-7 -1 -13.5 -1h-13.5
q-53 0 -98.5 13.5t-76.5 39t-44.5 63t-3 86.5t48 109t109.5 129q53 51 110.5 114t112 131.5t102 139t79.5 136.5t44.5 123.5t-2 100.5t-60.5 68t-132 25q-22 0 -47 -1.5t-53 -5.5z" />
    <glyph glyph-name="uni0394" unicode="&#x2206;" horiz-adv-x="910" 
d="M666 1361q-10 57 -33.5 98t-55 66.5t-69.5 37.5t-76 12q-40 0 -78.5 -12t-68.5 -34.5t-48.5 -54t-19.5 -69.5q-1 -49 12 -109t36.5 -126.5t55.5 -138t68.5 -143.5t75.5 -143t76 -137q56 -99 69 -187.5t-10 -155.5t-80.5 -108t-142.5 -46q-7 -1 -13.5 -1h-13.5
q-53 0 -98.5 13.5t-76.5 39t-44.5 63t-3 86.5t48 109t109.5 129q53 51 110.5 114t112 131.5t102 139t79.5 136.5t44.5 123.5t-2 100.5t-60.5 68t-132 25q-22 0 -47 -1.5t-53 -5.5z" />
    <glyph glyph-name="fraction.1" 
 />
    <glyph glyph-name="approxequal" unicode="&#x2248;" horiz-adv-x="1030" 
d="M681 613q-2 107 -16 184t-38 126.5t-56 72.5t-69 23q-36 0 -76 -21t-80.5 -60t-80.5 -95.5t-77 -127.5q-30 -58 -55 -124t-43 -132t-27 -126.5t-7.5 -107t15 -74.5t41.5 -28q27 0 69.5 31t101.5 100.5t136.5 182.5t174.5 278q2 -2 13.5 -74.5t31.5 -212t49 -342.5
t65 -466q24 -175 34.5 -312t5.5 -244t-26 -188t-60 -145t-96.5 -115t-134.5 -97q-38 -23 -85.5 -33.5t-100.5 -10.5q-67 0 -137.5 15.5t-137 43.5t-124 66.5t-97.5 84t-58.5 96.5t-6.5 104.5t58 108t136 105.5z" />
    <glyph glyph-name="approxequal" unicode="&#x22f2;" horiz-adv-x="1030" 
d="M681 613q-2 107 -16 184t-38 126.5t-56 72.5t-69 23q-36 0 -76 -21t-80.5 -60t-80.5 -95.5t-77 -127.5q-30 -58 -55 -124t-43 -132t-27 -126.5t-7.5 -107t15 -74.5t41.5 -28q27 0 69.5 31t101.5 100.5t136.5 182.5t174.5 278q2 -2 13.5 -74.5t31.5 -212t49 -342.5
t65 -466q24 -175 34.5 -312t5.5 -244t-26 -188t-60 -145t-96.5 -115t-134.5 -97q-38 -23 -85.5 -33.5t-100.5 -10.5q-67 0 -137.5 15.5t-137 43.5t-124 66.5t-97.5 84t-58.5 96.5t-6.5 104.5t58 108t136 105.5z" />
    <glyph glyph-name="notequal" unicode="&#x2260;" horiz-adv-x="970" 
d="M47 916q48 -127 102 -240t119.5 -207.5t144 -170t174.5 -128.5zM764 1017q-31 -109 -55 -204.5t-43.5 -183.5t-35 -172.5t-29 -173t-26 -184t-25.5 -205.5q-20 -165 -26 -330.5t-4 -316.5t9 -278.5t14 -217.5z" />
    <glyph glyph-name="dagger" unicode="&#x2020;" horiz-adv-x="1210" 
d="M-40 572q174 35 301.5 78.5t208.5 90t115 94t20 92.5q-12 38 -50.5 60t-92.5 22q-37 0 -79 -11.5t-84.5 -36t-84.5 -63.5t-80 -94q-65 -95 -90 -195t-12 -191t61 -166.5t128 -121.5q27 -16 66.5 -29t86.5 -22.5t99 -15t106 -5.5q69 0 136.5 9.5t124.5 31t99 56t61 84
t10 115t-54 149.5z" />
    <glyph glyph-name="daggerdbl" unicode="&#x2021;" horiz-adv-x="990" 
d="M47 717q-23 -93 -36.5 -177t-15.5 -156t8.5 -129.5t36.5 -98.5t68 -63t102 -22q39 0 87 10t105 31q106 39 176 87t111 103t57.5 115.5t15.5 124.5t-15 130t-34 132q-18 58 -56 106.5t-88.5 83.5t-108.5 54.5t-116 19.5q-56 0 -108 -20t-91.5 -64t-63 -113.5t-23.5 -168.5
z" />
    <glyph glyph-name="perthousand" unicode="&#x2030;" horiz-adv-x="1130" 
d="M36 550q-4 -1 -8 -1h-8q-26 0 -45 10t-27 28t-1 42t34 53t77.5 60.5t129.5 64.5q72 29 144.5 43t141.5 14q86 0 163 -19.5t136 -55t95 -84.5t41 -108q4 -48 -14.5 -104.5t-59 -113.5t-102.5 -110t-144.5 -93.5t-185 -65t-223.5 -24.5q-103 0 -213 19zM101 757
q-1 -95 -0.5 -173.5t2 -149.5t3 -139t3 -142t2.5 -158t1 -187q0 -115 6.5 -207.5t18.5 -158t29 -100.5t38 -35q31 0 68 74z" />
    <glyph glyph-name="guilsinglleft" unicode="&#x2039;" horiz-adv-x="1380" 
d="M-62 1075q28 -73 55 -141.5t54.5 -139t56.5 -147t61 -166t68 -195.5t78 -235q2 0 -3 25t-10.5 70.5t-9 110t1 142.5t20 167.5t48.5 186.5q33 98 63 138.5t58 40.5q27 0 52 -32.5t47.5 -82.5t42.5 -109.5t38 -113.5q54 -161 128 -290.5t165 -238.5q2 2 13.5 32t27 84
t31.5 129.5t26 167.5q17 155 38 267t40 185q22 85 45 142z" />
    <glyph glyph-name="guilsinglright" unicode="&#x203a;" horiz-adv-x="860" 
d="M54 1043q69 -135 146.5 -272t161.5 -268t175 -251.5t187 -222.5zM742 1376q-80 -113 -140 -243t-109.5 -279t-93 -318.5t-90.5 -361.5q-48 -193 -79 -354.5t-50 -279.5q-22 -138 -35 -250z" />
    <glyph glyph-name="section" unicode="&#xa7;" horiz-adv-x="810" 
d="M48 1183q17 -68 32 -162.5t29 -204t29 -227t31 -231t35 -217t42 -184.5q0 -1 -6.5 26.5t-13.5 77.5t-10.5 121t3 156t26 181.5t59.5 199.5q38 99 90 159.5t107.5 94t111 45t101.5 11.5q26 0 47 -2.5t37 -4.5q18 -4 32 -8z" />
    <glyph glyph-name="partialdiff" unicode="&#x2202;" horiz-adv-x="917" 
d="M239 894h-5q-58 0 -102 -32t-71.5 -87.5t-38.5 -131t-4 -161.5q6 -80 21 -138.5t47.5 -96.5t88.5 -56.5t144 -18.5q15 0 31.5 0.5t33.5 1.5q110 7 190.5 43.5t124.5 95.5t48.5 135.5t-37.5 163.5q-36 73 -83.5 127.5t-101 90.5t-108 53.5t-103.5 17.5q-61 0 -104 -25z
" />
    <glyph glyph-name="ltshade" unicode="&#x2591;" horiz-adv-x="10" 
 />
    <glyph glyph-name="shade" unicode="&#x2592;" horiz-adv-x="10" 
 />
    <glyph glyph-name="dkshade" unicode="&#x2593;" horiz-adv-x="10" 
 />
    <glyph glyph-name="SF110000" unicode="&#x2502;" horiz-adv-x="10" 
 />
    <glyph glyph-name="SF090000" unicode="&#x2524;" horiz-adv-x="10" 
 />
    <glyph glyph-name="SF190000" unicode="&#x2561;" horiz-adv-x="730" 
d="M199 1079q-19 -2 -35 -7.5t-27 -19t-16.5 -37.5t-3 -62t13.5 -92.5t32 -129.5q32 -113 61 -224t51 -201q25 -105 47 -201q-37 212 -8 403q12 81 40 165.5t79 162t128.5 143.5t188.5 111z" />
    <glyph glyph-name="SF200000" unicode="&#x2562;" horiz-adv-x="1170" 
d="M721 1137q-28 61 -64 104t-77.5 70t-85.5 39t-88 12q-54 0 -104 -16.5t-88 -45.5q-50 -38 -85.5 -89.5t-40 -111t30 -124t124.5 -128.5q45 -32 101 -68.5t116 -76t120 -81.5t112.5 -84t93.5 -83t63 -79.5t22 -74t-31 -65.5q-24 -24 -55.5 -42.5t-66.5 -31.5t-73 -20
t-76 -7q-61 0 -115.5 20t-88 64t-38.5 113.5t31 168.5z" />
    <glyph glyph-name="SF210000" unicode="&#x2556;" horiz-adv-x="970" 
d="M532 1094q-41 14 -84 21t-88 7q-59 0 -116 -13t-104 -40t-81 -67.5t-48 -96.5q-19 -76 -10 -123.5t51.5 -82t120.5 -64t196 -70.5t202.5 -91t124 -103t28.5 -106.5t-83 -101.5q-29 -19 -63 -33.5t-71 -24.5t-74.5 -15t-73.5 -5q-53 0 -98.5 11.5t-73 34.5t-33.5 58t20 83
z" />
    <glyph glyph-name="SF220000" unicode="&#x2555;" horiz-adv-x="1760" 
d="M58 1079q-24 -88 -38 -178.5t-20.5 -183.5t-6.5 -189t3 -195q2 -57 22 -104t52 -81.5t72.5 -53.5t82.5 -19q32 0 62.5 11.5t57.5 36.5t49 64.5t37 94.5q17 63 20 145.5t-5.5 168.5t-28 169.5t-47 148.5t-63.5 105t-77 40q-45 0 -96 -56.5t-105 -187.5zM702 1072
q14 -141 22 -280t9.5 -269.5t-4 -250.5t-19.5 -225q1 3 9 46.5t33 126t71.5 204t125.5 278.5q45 90 97 162t104.5 122t102.5 77t92 27q31 0 55.5 -16t40.5 -50t21 -85.5t-3 -123.5q-18 -162 -27.5 -302t-1 -244t40.5 -163.5t96 -59.5h9.5t9.5 1z" />
    <glyph glyph-name="SF230000" unicode="&#x2563;" horiz-adv-x="1600" 
d="M254 1002q-50 -16 -91 -45.5t-69 -83.5t-41.5 -139t-9.5 -213q3 -81 20 -150t45 -119.5t65 -79.5t79 -29q50 0 103 44t105 143q43 82 55 164.5t2 158t-38.5 140.5t-67 113.5t-83 76t-85.5 27.5q-22 0 -43 -9zM865 1162q-13 -96 -7.5 -220t17.5 -263t24 -286.5t10 -291.5
q1 0 2 25t5.5 70t14.5 107.5t29 136t48 156t71 168.5q47 95 97.5 154t99 91.5t91.5 44t74 11.5q23 0 37.5 -3.5t20.5 -7.5z" />
    <glyph glyph-name="SF240000" unicode="&#x2551;" horiz-adv-x="1590" 
d="M152 1072q-33 -60 -62 -140.5t-49.5 -170t-29.5 -181t-3.5 -173t28 -147t65.5 -101.5q28 -23 60.5 -34t67.5 -11q65 0 129.5 33.5t112.5 92t70.5 137.5t1.5 170q-18 78 -45.5 154.5t-63.5 137t-79.5 98t-92.5 37.5q-45 0 -92 -36t-98 -120zM1217 855q-11 74 -38 128.5
t-64 90.5t-81 53.5t-90 17.5q-34 0 -68 -10t-64.5 -29.5t-56.5 -49t-45 -67.5q-22 -44 -4 -91t62 -95t107 -96.5t130.5 -96.5t133.5 -95t115.5 -91t76 -85t16.5 -78q-13 -48 -46.5 -82t-78.5 -55.5t-97.5 -31.5t-105.5 -10q-54 0 -104 9.5t-87.5 27t-58.5 42t-17 54
t36.5 63.5t102.5 70z" />
    <glyph glyph-name="SF250000" unicode="&#x2557;" horiz-adv-x="1410" 
d="M137 1010q-14 14 -27 25.5t-27 11.5q-12 0 -22.5 -12t-20 -41.5t-17 -80t-12.5 -127.5q-5 -74 -5.5 -150.5t6 -148.5t21 -135.5t39 -111t61 -75t86.5 -27.5q26 0 53 7q62 16 100 67t50.5 124.5t0 163t-51.5 183.5t-104.5 185t-157.5 168zM983 872q-17 42 -35 67.5
t-39 25.5q-23 0 -50 -34.5t-61 -115.5q-21 -52 -39.5 -126t-28.5 -155.5t-9 -162.5t18.5 -147.5t53 -110.5t95.5 -51q5 -1 14 -1q42 0 72.5 28t50 76t29.5 111t12 132t-4.5 140.5t-19 136.5t-31.5 119.5t-42 88.5z" />
    <glyph glyph-name="SF260000" unicode="&#x255d;" horiz-adv-x="1890" 
d="M-94 608q67 45 133 78t135.5 59.5t144.5 49.5t160.5 48.5t183.5 56.5t213 74zM807 485q92 73 175.5 129t162 100t153.5 80t148.5 69t147.5 66.5t151 73.5zM1644 1655q-32 47 -72.5 72t-83.5 25q-33 0 -65.5 -16.5t-61 -52t-51 -90t-35.5 -130.5q-22 -125 -20 -273.5
t13 -321t23.5 -369.5t12.5 -419zM829 1619q-42 67 -109.5 103.5t-142.5 36.5q-61 0 -120.5 -27.5t-105 -86t-71 -151t-19.5 -223.5q6 -139 17 -259.5t24 -229.5t26.5 -211t24 -204.5t17.5 -209.5t7 -226z" />
    <glyph glyph-name="SF270000" unicode="&#x255c;" horiz-adv-x="2220" 
d="M816 560q-8 102 -29 173.5t-52.5 117t-72 66.5t-88.5 21q-63 0 -136 -32.5t-152 -90.5q-53 -39 -98 -98.5t-76.5 -125.5t-47.5 -132.5t-11.5 -119.5t32.5 -86.5t83 -33.5q39 0 94 20t127 65t162 117t199 176q3 -1 5.5 -51.5t11 -155.5t25.5 -266.5t48 -384.5
q19 -138 37.5 -258.5t27.5 -221t4 -179.5t-32 -133.5t-80.5 -83t-142.5 -28.5q-41 0 -89 6q-115 14 -184.5 41.5t-102.5 64t-35 81.5t18.5 95t59 103.5t85.5 107.5zM1864 811q-55 101 -128.5 146t-150.5 45q-54 0 -107.5 -20t-102.5 -56.5t-91 -88t-72 -113.5
q-25 -51 -36.5 -103t-10.5 -99.5t13.5 -89.5t35 -72.5t55.5 -48.5t75 -18q44 0 97 22.5t114.5 73t130.5 132t144 198.5q0 2 0.5 -26t6.5 -98t21 -186.5t44 -292.5q19 -117 43 -235t44.5 -229t32.5 -211t7 -181t-31 -139.5t-81 -86.5q-57 -29 -114.5 -44t-108.5 -15
q-49 0 -87.5 15t-59.5 47t-20.5 81.5t28.5 118.5z" />
    <glyph glyph-name="SF280000" unicode="&#x255b;" horiz-adv-x="1080" 
d="M19 1687q5 -210 10.5 -430.5t13 -444.5t17.5 -447.5t24 -441.5zM425 1654q19 -50 33.5 -137.5t28 -203t29 -255t36 -292t49 -314.5t68.5 -323z" />
    <glyph glyph-name="SF030000" unicode="&#x2510;" horiz-adv-x="2930" 
d="M29 1091q-6 -73 -10 -133t-4.5 -121.5t3 -131t12.5 -162.5t24 -216.5t38 -292.5q0 -1 -0.5 30.5t2.5 87.5t10.5 130.5t23 159.5t41 174.5t63.5 175.5q50 111 96 161t84 50q25 0 46.5 -19.5t38 -56t28 -88t16.5 -115.5q9 -112 10.5 -205t-3.5 -171t-15.5 -144.5
t-25.5 -126.5q-1 -1 13.5 32.5t40.5 90t60.5 132t72.5 157t77 165t74 157.5q53 111 97.5 169.5t78.5 58.5q35 0 55.5 -63.5t24.5 -198.5q3 -134 7 -254.5t11.5 -212t21 -145.5t37.5 -54zM1550 985q-18 -60 -22.5 -146t-0.5 -192.5t12.5 -230t15.5 -257.5q2 1 1.5 27.5t2 71
t10 104.5t26 128.5t50.5 143t83 148.5q45 65 88.5 97t81.5 32q46 0 80.5 -47.5t48.5 -143.5t4 -239.5t-52 -335.5q3 1 14.5 28.5t32 76t49 116t64.5 148.5t78.5 173.5t90.5 191.5q37 76 71.5 110.5t66.5 34.5q47 0 85 -67.5t63.5 -185t37 -276.5t4.5 -341z" />
    <glyph glyph-name="SF020000" unicode="&#x2514;" horiz-adv-x="1900" 
d="M14 1115q0 -97 4.5 -205.5t13 -234.5t21.5 -272.5t29 -320.5q1 -1 2.5 22.5t7.5 68t19.5 107.5t38.5 140t65 166t99 186q35 58 64.5 98.5t53.5 66.5t43 38t34 12q23 0 38 -24t24.5 -65.5t16 -96t11.5 -115.5q5 -55 8 -123t6.5 -137.5t8 -135t13 -116.5t22 -82t33.5 -31
q14 0 30.5 15.5t37.5 49.5zM1033 995q-11 -19 -17 -69.5t-7.5 -124t1 -166.5t9.5 -198t17.5 -219t25.5 -228q1 0 1.5 26.5t4 73t12 110.5t27 138.5t48.5 157t76 165.5q71 129 130 200.5t102 71.5q41 0 65 -71.5t27 -229.5q3 -115 15 -203t29 -153.5t36.5 -109.5t36 -70.5
t27 -37.5t10.5 -10z" />
    <glyph glyph-name="SF070000" unicode="&#x2534;" horiz-adv-x="1780" 
d="M10 1067q4 -111 8 -198t9 -161t11 -140.5t12 -137t13 -150t14 -179.5t14.5 -183t15.5 -155t17 -135t20.5 -123t26 -120t32.5 -125zM-87 864q31 10 67.5 14.5t77.5 4.5q65 0 137 -11t142 -31t133.5 -47.5t112 -61t77.5 -71t30 -77.5q1 -36 -24 -74.5t-66.5 -77t-95 -75.5
t-109.5 -70q-131 -77 -298 -152zM859 985q29 -121 55 -255.5t48 -275.5t39.5 -284t30 -281.5t19 -268.5t6.5 -243zM772 772q55 29 127 43t150 14q64 0 129 -8.5t126 -24t114.5 -37.5t93.5 -49t64.5 -59t26.5 -67q3 -38 -19.5 -85.5t-63 -97t-96.5 -96.5t-120.5 -84
t-134 -59.5t-137.5 -22.5q-63 0 -122 22.5t-109 75.5z" />
    <glyph glyph-name="SF060000" unicode="&#x252c;" horiz-adv-x="1490" 
d="M-43 1183q5 -111 18.5 -244.5t33 -276.5t43.5 -288t49 -277q2 1 -2.5 28.5t-7.5 76.5t-0.5 116t17.5 146.5t47 169t88.5 183t141 187.5t204.5 184zM879 1077q0 -64 -1.5 -143t-4.5 -165t-6.5 -174t-6.5 -171q-9 -192 -20 -395q31 250 105 450q32 85 76.5 167.5t104 148.5
t136 108.5t172.5 47.5z" />
    <glyph glyph-name="SF080000" unicode="&#x251c;" horiz-adv-x="1840" 
d="M488 879q-22 70 -52 125q-13 24 -29.5 46.5t-36 40t-42 28t-48.5 10.5q-37 0 -80 -27t-94 -93q-47 -62 -44 -111.5t41 -89t101.5 -71t137.5 -59t149 -53t136 -52.5t99 -57t37 -67q-1 -32 -25 -66t-64 -66t-92 -60.5t-108.5 -50t-114 -34t-108.5 -12.5q-41 0 -75 9t-58 29
t-35 52t-6 78zM1328 908q-7 42 -26 73.5t-46 52.5t-60 31t-68 10q-37 0 -74 -11t-70 -32t-60.5 -52t-44.5 -72q-25 -59 -8.5 -101t60 -73t108 -52.5t136 -39.5t144 -34.5t132 -37t100 -47t47.5 -64.5q6 -33 -2.5 -69.5t-28 -72t-47.5 -68t-60.5 -57t-67.5 -39t-68 -14.5
q-27 0 -51.5 11t-44.5 35t-34.5 63t-20.5 95z" />
    <glyph glyph-name="SF100000" unicode="&#x2500;" horiz-adv-x="1850" 
d="M14 811q85 17 177 36t194 38.5t216 37.5t244 33zM816 690q57 50 138 84t173 58.5t186.5 43t178 37t149 40t97.5 51.5zM1265 1714q-28 -313 -25 -614q2 -128 10 -266.5t27.5 -274t51.5 -263t81 -233.5zM348 1641q10 -124 11 -261.5t2.5 -280t8 -287.5t26.5 -283.5
t57.5 -268t101.5 -241.5z" />
    <glyph glyph-name="SF050000" unicode="&#x253c;" horiz-adv-x="1220" 
d="M612 981q-80 98 -171 98q-59 0 -119.5 -39.5t-122.5 -116.5q-27 -34 -53.5 -83t-50 -107t-42 -121t-30 -125t-14 -119.5t5.5 -104t29 -79t57 -43.5q9 -3 20 -3q24 0 50.5 16t54 44.5t55.5 67.5t55.5 84.5t54.5 95.5t52 101q88 180 176 409q-6 -230 25 -416
q13 -79 35.5 -157t58 -141.5t85.5 -107t118 -54.5z" />
    <glyph glyph-name="SF360000" unicode="&#x255e;" horiz-adv-x="1090" 
d="M572 851q-48 141 -108.5 206.5t-123.5 65.5q-69 0 -133 -68.5t-113 -196.5q-28 -73 -47 -157t-27.5 -167.5t-7.5 -160t13.5 -135.5t36.5 -94t60 -35q35 0 81.5 38t104.5 125q54 80 96 157.5t74 151t55.5 141t39.5 125.5q38 136 50 257q-17 -247 -4 -459q6 -90 18 -181.5
t34.5 -171.5t56.5 -143.5t83 -97.5z" />
    <glyph glyph-name="SF370000" unicode="&#x255f;" horiz-adv-x="1060" 
d="M684 1014q-33 48 -68.5 74t-74.5 26q-47 0 -98.5 -41t-109.5 -132q-35 -55 -76 -127.5t-80 -150t-71 -154.5t-49.5 -141.5t-16.5 -110t29 -61.5q14 -7 27 -7q33 0 78 29t96.5 81.5t107.5 126t111 163t106 193t93 214.5q0 -1 12.5 -51t30.5 -131t39 -184.5t37 -213.5
q14 -96 32.5 -158t37.5 -97.5t37 -49.5t30 -14q6 0 12 4z" />
    <glyph glyph-name="SF380000" unicode="&#x255a;" horiz-adv-x="1350" 
d="M-29 1745q13 -89 27 -210.5t28 -260t27 -286t23.5 -289.5t18 -271t10.5 -229q0 -1 2.5 30t12 84.5t28.5 125.5t51.5 153.5t81 168.5t117.5 170q83 101 159.5 147t145.5 46q51 0 96.5 -24t84.5 -69t70.5 -109t55.5 -144q26 -88 33 -167t-16.5 -146.5t-83.5 -122
t-169.5 -93t-273 -59t-394.5 -20.5h-59z" />
    <glyph glyph-name="SF390000" unicode="&#x2554;" horiz-adv-x="840" 
d="M587 891q-91 91 -179 91q-142 0 -285 -247q-45 -78 -68 -157t-26 -151.5t14 -135.5t51 -109.5t84.5 -73t115.5 -26.5q54 0 117.5 20.5t135 64.5t150.5 115t165 171z" />
    <glyph glyph-name="SF400000" unicode="&#x2569;" horiz-adv-x="960" 
d="M464 923q-15 94 -48.5 144.5t-81.5 50.5q-45 0 -99 -50t-113 -158q-41 -76 -64 -160t-26.5 -165.5t12 -156t49.5 -131t87 -90t125 -33.5q86 0 200 56.5t255 187.5z" />
    <glyph glyph-name="SF410000" unicode="&#x2566;" horiz-adv-x="1130" 
d="M792 1497q-14 -200 -24 -386q-5 -79 -9.5 -163t-8 -164t-5.5 -151.5t-2 -125.5q0 -109 15 -173t34 -98q21 -39 48 -53zM743 627q-20 120 -49 205.5t-65.5 140t-80 79.5t-91.5 25q-60 0 -125 -34t-134 -97q-45 -41 -79.5 -99t-57 -125.5t-33 -140t-7.5 -142t19.5 -132
t48 -110t78 -76t108.5 -29.5q63 -1 116 20.5t98 56.5t81.5 80.5t64.5 93.5q67 111 110 254z" />
    <glyph glyph-name="SF420000" unicode="&#x2560;" horiz-adv-x="1060" 
d="M514 713q40 84 53 156t4.5 124.5t-36.5 82t-72 29.5q-38 0 -86.5 -25t-104.5 -81q-61 -60 -109 -141.5t-79.5 -169t-45 -175t-4.5 -160.5t41 -125t92 -69q9 -2 17.5 -3.5t17.5 -1.5q42 0 82 25.5t77 67.5t69.5 95.5t60.5 109.5q66 131 121 298zM692 1456
q-28 -52 -47 -127t-28.5 -164.5t-10.5 -190.5t6 -206t22 -209.5t36.5 -202t49.5 -184t62 -154.5z" />
    <glyph glyph-name="SF430000" unicode="&#x2550;" horiz-adv-x="870" 
d="M72 692q183 64 303.5 121.5t185 113t75.5 111.5t-24 117q-20 35 -45 51.5t-53 16.5q-34 0 -72 -21t-77.5 -56.5t-79.5 -82.5t-79 -100q-34 -47 -66.5 -109.5t-57.5 -132.5t-40.5 -144.5t-16 -145t16.5 -133.5t56.5 -110t104.5 -74.5t160 -27.5q66 0 148 15z" />
    <glyph glyph-name="SF440000" unicode="&#x256c;" horiz-adv-x="950" 
d="M14 456q232 124 392 221t239.5 164t74 102t-105.5 35q-28 0 -62.5 -3t-77.5 -8q-106 -14 -188 -62.5t-140 -117t-90.5 -150t-39 -161.5t13.5 -151t68 -119q57 -57 141.5 -89.5t179.5 -32.5q58 0 116 14t112 43.5t101.5 76t84.5 112.5z" />
    <glyph glyph-name="SF450000" unicode="&#x2567;" horiz-adv-x="990" 
d="M36 579q219 76 360.5 136t217.5 108t93 87.5t-15 74.5q-39 44 -121 44q-45 0 -98.5 -14.5t-111.5 -45t-116.5 -77t-114.5 -110.5q-55 -63 -85 -140.5t-36 -157.5t12 -155.5t57.5 -134.5t100 -94.5t141.5 -35.5q95 0 216.5 59t267.5 196z" />
    <glyph glyph-name="SF460000" unicode="&#x2568;" horiz-adv-x="1050" 
d="M33 547q73 36 138.5 64.5t128 52t126 43.5t132.5 39t147.5 38t170.5 42zM952 1256q9 116 -9.5 206.5t-57 153t-93.5 95.5t-120 33q-55 0 -114 -24q-56 -23 -99 -72.5t-72.5 -117.5t-44.5 -150t-15.5 -171.5t13.5 -182.5t44 -182q45 -133 83.5 -257.5t61 -233.5t25 -200
t-24.5 -157z" />
    <glyph glyph-name="SF470000" unicode="&#x2564;" horiz-adv-x="1100" 
d="M29 587q98 41 190.5 67.5t183 46t178.5 33.5t176.5 30t178.5 36t183 51zM923 1354q-23 87 -55.5 150.5t-70.5 104.5t-79 61t-82 20q-39 0 -74.5 -17.5t-65 -50.5t-50.5 -81.5t-30 -110.5q-12 -85 -8.5 -169t17.5 -175.5t36 -193t45.5 -222t45.5 -262.5t38 -314z" />
    <glyph glyph-name="SF480000" unicode="&#x2565;" horiz-adv-x="1270" 
d="M858 978q-130 94 -240 94q-111 0 -211 -86.5t-201 -251.5q-72 -116 -102 -221t-26.5 -184.5t37 -126.5t88.5 -47q56 0 129 54.5t157 176.5q63 92 112.5 166t87.5 133t66 103.5t47 76.5q45 77 61 113q0 -126 4 -284q4 -136 12 -321.5t22 -411.5q15 -224 31 -416t12 -351
t-40 -286t-125 -221t-199 -139.5t-224 -45.5q-115 0 -223 45t-191 133q-82 87 -136.5 164.5t-69 151t17 145t122.5 146.5z" />
    <glyph glyph-name="SF490000" unicode="&#x2559;" horiz-adv-x="1080" 
d="M702 710q6 84 -2 146.5t-28.5 104t-52 61.5t-71.5 20q-57 0 -126.5 -40t-146.5 -119q-61 -63 -106.5 -136.5t-73 -148t-36.5 -145t2 -127.5t42.5 -97t84.5 -52q14 -3 26 -3q39 0 80.5 23.5t81.5 62.5t79 88.5t73 101.5t62.5 101.5t49.5 88.5t32.5 63t11.5 25t11 -52.5
t29.5 -154t43 -244t50.5 -322.5q18 -119 29 -237t13.5 -228t-6.5 -209t-32 -180.5t-62 -141.5t-97 -92q-103 -57 -179 -85.5t-127 -28.5q-69 0 -86 53t25 162z" />
    <glyph glyph-name="SF500000" unicode="&#x2558;" horiz-adv-x="1130" 
d="M127 1648q-21 -72 -36 -183t-24.5 -246.5t-13 -288.5t-1 -309.5t11.5 -309t23 -286.5q3 1 1.5 31.5t0 84t9.5 127.5t31 161.5t64 185.5t108 200q58 89 113 161t105.5 123.5t94.5 79.5t80 28q53 0 84 -67.5t33 -216.5q2 -115 2 -222.5t2 -202t6.5 -172t15.5 -133.5
t29 -86.5t47 -30.5h7z" />
    <glyph glyph-name="SF510000" unicode="&#x2552;" horiz-adv-x="1170" 
d="M-87 1524q19 -68 38.5 -170t38 -228t35.5 -271t31.5 -297.5t26 -308t18.5 -303.5q2 -1 2 30.5t4.5 90t15.5 140t35.5 180t65 212t102.5 234.5q47 90 94 155.5t92.5 107.5t88 62.5t80.5 20.5q39 0 71 -20.5t55.5 -59t36.5 -95t14 -128.5q2 -142 5.5 -256t12 -203
t22.5 -155.5t36 -113.5z" />
    <glyph glyph-name="SF520000" unicode="&#x2553;" horiz-adv-x="350" 
d="M33 1231q3 -78 4 -170t2.5 -192t2.5 -205t3.5 -208t6.5 -200.5t10 -183.5zM196 1961q-18 21 -12.5 32.5t16.5 11.5t18.5 -10.5t-1.5 -33.5h-21z" />
    <glyph glyph-name="SF530000" unicode="&#x256b;" horiz-adv-x="460" 
d="M17 1143q4 -117 8 -257.5t12 -289t21 -297t34 -280.5zM167 1481q-18 21 -12.5 32.5t16.5 11.5t18.5 -10.5t-1.5 -33.5h-21z" />
    <glyph glyph-name="SF540000" unicode="&#x256a;" horiz-adv-x="350" 
d="M33 1100q4 -117 5.5 -250.5t6.5 -274t15.5 -282.5t31.5 -274zM150 1760q-18 21 -12.5 32.5t16.5 11.5t18.5 -10.5t-1.5 -33.5h-21z" />
    <glyph glyph-name="SF040000" unicode="&#x2518;" horiz-adv-x="520" 
d="M121 1796q-18 21 -12.5 32.5t16.5 11.5t18.5 -10.5t-1.5 -33.5h-21zM-43 1086q57 -180 102 -324t81.5 -266t66 -228.5t54.5 -211.5t47 -214.5t44 -237.5q21 -122 8.5 -227.5t-50 -193.5t-97.5 -156.5t-134 -116t-159.5 -72t-174.5 -24.5h-27.5t-27.5 2q-94 8 -183 38
t-164.5 77t-133 110t-87.5 137t-28 157.5t45 172.5z" />
    <glyph glyph-name="SF010000" unicode="&#x250c;" horiz-adv-x="1250" 
d="M-127 1419q46 -126 78.5 -285t58.5 -340t49 -379.5t50 -403.5zM775 1151q-78 -74 -159 -153t-157 -154t-143 -142q-116 -117 -225 -228q90 -4 189 -12q85 -8 190 -20.5t211 -32.5q213 -41 360 -60.5t234 -22.5z" />
    <glyph glyph-name="block" unicode="&#x2588;" horiz-adv-x="440" 
d="M-138 1658q14 -68 26 -168.5t24.5 -219.5t26 -249.5t29.5 -259t35 -248t42.5 -216.5t52.5 -164.5t65 -92.5z" />
    <glyph glyph-name="dnblock" unicode="&#x2584;" horiz-adv-x="430" 
d="M-214 1850q41 -136 68 -285.5t45 -298t29 -287.5t21 -255q10 -115 31.5 -223t48 -198t53.5 -158.5t48 -104.5z" />
    <glyph glyph-name="lfblock" unicode="&#x258c;" horiz-adv-x="1470" 
d="M-51 1097q12 -43 25.5 -105.5t27.5 -136.5t26.5 -156t22 -165.5t14.5 -165.5t4 -154q2 1 1 36.5t0.5 94.5t8 136t22.5 160t45 166t75 156q49 76 98 111t94 35q42 0 80 -27.5t67.5 -77t49.5 -118t27 -151.5q6 -64 5.5 -128.5t-4 -127t-10.5 -121t-15 -109.5
q-18 -120 -45 -231q46 119 104 244q24 54 53.5 114t63.5 123t71.5 126.5t77.5 124.5q65 97 118.5 139t95.5 42q31 0 54 -21.5t36 -58.5t16 -87.5t-5 -108.5q-27 -194 5.5 -331.5t106.5 -214.5z" />
    <glyph glyph-name="rtblock" unicode="&#x2590;" horiz-adv-x="1560" 
d="M14 1104q9 -59 16.5 -133t13 -154.5t10 -164.5t7.5 -162q7 -184 11 -378q5 131 25 264q9 56 22 118.5t31.5 125.5t43 125t56.5 117q48 83 92.5 118.5t86.5 35.5q36 0 68 -23t59.5 -62t50 -91.5t38.5 -111.5q13 -47 21 -96t12.5 -98t5.5 -95.5t1 -88.5q-2 -98 -12 -191
q13 110 46 230q14 51 33.5 110t46 122t60 128.5t75.5 130.5q66 102 113.5 145t79.5 43q25 0 42 -21.5t27.5 -57.5t15 -82t5.5 -96q1 -54 3.5 -118.5t7.5 -134t13.5 -141t21 -139.5t30 -130t40.5 -113z" />
    <glyph glyph-name="upblock" unicode="&#x2580;" horiz-adv-x="1080" 
d="M72 1104q-8 -134 -11.5 -276t-7.5 -276.5t-11.5 -255.5t-23.5 -213q1 -1 5 36.5t13.5 99.5t25 143t40.5 167t60.5 171t83.5 155q62 91 134 135.5t140 44.5q45 0 85 -20.5t69.5 -61t46 -101.5t14.5 -142q-3 -141 -3.5 -258.5t9 -204.5t33.5 -139.5t70 -64.5z" />
    <glyph glyph-name="invsmileface" unicode="&#x263b;" horiz-adv-x="1180" 
d="M-76 1039q31 -53 52.5 -109t37 -120.5t25.5 -141t18.5 -171t16 -210t17.5 -258.5q-1 0 -1 34t5 91.5t17 133.5t34.5 160.5t58.5 172t88 168.5q36 56 76 97t81 69t82.5 41.5t81.5 13.5q47 0 90 -19t78 -56t61.5 -92.5t39.5 -129.5q25 -137 30.5 -249.5t1.5 -193.5
q-4 -96 -17 -172z" />
    <glyph glyph-name="heart" unicode="&#x2665;" horiz-adv-x="780" 
d="M43 967q-9 -75 -14.5 -171t-3.5 -196t14 -196.5t38 -172t68 -121.5t103 -46q12 0 25.5 1.5t27.5 6.5q75 23 120.5 62t68 89t25.5 109.5t-7 123.5t-29 129.5t-41 127.5q-22 65 -53 126.5t-67 109.5t-76 77t-80 29q-37 0 -72.5 -28t-67.5 -93z" />
    <glyph glyph-name="diamond" unicode="&#x2666;" horiz-adv-x="950" 
d="M467 989q-46 60 -110 60q-30 0 -60.5 -14.5t-60.5 -45.5t-58 -78.5t-51 -113.5q-23 -67 -46 -143.5t-38 -152t-20.5 -146t5.5 -126t41.5 -91t86.5 -40.5q7 -1 13 -1h13q54 0 106 20t98.5 54.5t86 81t69 99t47 109t19.5 111.5q2 43 -4.5 85t-18.5 82t-27 76.5t-32 68.5
q-38 75 -88 141z" />
    <glyph glyph-name="club" unicode="&#x2663;" horiz-adv-x="1050" 
d="M18 655q-34 8 -61 25.5t-39 40.5t-5 51t41 57t99 58t168 54q45 11 87 16t84 5q83 0 158 -18t139 -47.5t116 -68t88.5 -79t56.5 -80.5t20 -72q0 -57 -52 -134t-159 -155.5t-270 -149t-384 -115.5zM0 847q16 -95 32 -203q13 -92 28 -209t27 -243q8 -83 15.5 -146
t14.5 -117.5t14 -107t13 -116t12 -143t11 -188.5z" />
    <glyph glyph-name="spade" unicode="&#x2660;" horiz-adv-x="1010" 
d="M-82 787q69 56 164 80.5t201 24.5q75 0 150.5 -11.5t145.5 -32t130.5 -49t104.5 -63.5t69.5 -74.5t24.5 -82.5q-1 -47 -27.5 -94.5t-70.5 -93.5t-103 -89t-125.5 -81t-136 -69t-135.5 -54t-125 -36t-103 -14zM0 821q18 -90 33.5 -195.5t27.5 -220t19 -235.5t8 -242.5
t-5 -241.5t-20 -232z" />
    <glyph glyph-name="invbullet" unicode="&#x25d8;" horiz-adv-x="1030" 
d="M25 1217q-8 -70 -6.5 -160t9.5 -191t22 -208.5t31 -211t36.5 -198.5t38.5 -172q1 -1 -0.5 29.5t2 82.5t13.5 121t32.5 144.5t60.5 153.5t97.5 148.5t143.5 128.5t197 94z" />
    <glyph glyph-name="circle" unicode="&#x25cb;" horiz-adv-x="770" 
d="M-14 1072q15 -59 29 -118.5t26.5 -125.5t25 -141.5t25.5 -166.5t27 -200.5t29 -243.5q1 1 -5.5 38.5t-12 99.5t-6 141.5t12.5 164t43 167t85 151.5t140 117t207 62z" />
    <glyph glyph-name="invcircle" unicode="&#x25d9;" horiz-adv-x="810" 
d="M561 883q-33 90 -82 127t-105 37q-38 0 -77 -15t-75 -39t-67 -55.5t-54 -64.5q-26 -38 -44.5 -79t-22.5 -82.5t8.5 -83t48 -80.5t96.5 -74.5t153 -64.5q158 -50 235.5 -105t77 -102t-79 -80.5t-233.5 -41.5q-32 -2 -58.5 -3t-49.5 -1q-60 0 -91 7.5t-39 22.5t4.5 37.5
t38.5 52.5z" />
    <glyph glyph-name="male" unicode="&#x2642;" horiz-adv-x="1070" 
d="M623 782q2 50 -7.5 86.5t-27 60t-42 34.5t-53.5 11q-57 0 -123.5 -36t-130.5 -102q-66 -68 -85.5 -123t9 -104.5t106 -96.5t205.5 -99q85 -34 162 -63.5t135 -57t91.5 -54t31 -54.5t-45.5 -60t-138 -70q-102 -41 -194 -61.5t-166 -20.5q-66 0 -113.5 17.5t-69.5 52.5
t-14 88.5t53 126.5z" />
    <glyph glyph-name="female" unicode="&#x2640;" horiz-adv-x="890" 
d="M514 822q-38 87 -84 125t-97 38q-54 0 -112.5 -37.5t-119.5 -103.5q-60 -64 -76.5 -116.5t12 -98.5t102 -87t194.5 -82q81 -27 153 -52t130 -49t99 -49t58 -53t7 -60t-52 -70q-25 -22 -64.5 -39t-87.5 -28t-100.5 -17t-103.5 -6q-53 0 -101 6.5t-82.5 19t-52 32t-10 46
t44 59t108.5 72.5z" />
    <glyph glyph-name="musicalnote" unicode="&#x266a;" horiz-adv-x="1260" 
d="M-14 920q88 44 179.5 80.5t194 68.5t218.5 60t252.5 54.5t296.5 52.5t350 53zM431 2075q35 -280 42 -554.5t-17 -560.5q-12 -143 -20 -275.5t-4.5 -245.5t23.5 -203t63 -149z" />
    <glyph glyph-name="musicalnotedbl" unicode="&#x266b;" horiz-adv-x="920" 
d="M-156 775q46 44 97.5 80t116.5 68t146.5 60t188.5 55t243 54t309 56zM518 1800q-24 -90 -41.5 -166.5t-28.5 -147t-16.5 -138.5t-7.5 -140.5t-1 -152.5t4 -175q2 -71 8.5 -145t15.5 -146.5t19.5 -141t20.5 -129.5q25 -143 56 -278z" />
    <glyph glyph-name="sun" unicode="&#x263c;" horiz-adv-x="800" 
d="M-122 845q97 85 197 141.5t204 90t213 47.5t225 14q54 0 109 -3zM538 1583q-37 -79 -63.5 -152t-45.5 -153t-30.5 -174.5t-18.5 -216.5t-12.5 -225t-2.5 -202t17.5 -201t48.5 -223z" />
    <glyph glyph-name="triagrt" unicode="&#x25ba;" horiz-adv-x="830" 
d="M-47 1115q21 -127 35 -249.5t23.5 -232t17.5 -202.5t17.5 -160.5t23.5 -105.5t35 -38q22 0 54 44.5t80 143.5q46 96 81 185t60.5 169t42.5 150.5t28 128.5q25 137 27 247q-27 -312 13 -558q17 -105 50.5 -205t90 -178.5t139.5 -126.5t200 -48h16t16 1z" />
    <glyph glyph-name="triaglf" unicode="&#x25c4;" horiz-adv-x="850" 
d="M7 1224q8 -61 11 -141.5t4 -171t1.5 -185.5t2 -185t5 -170t12 -139.5t22.5 -94.5t36 -35q26 0 62.5 53t89.5 175q89 206 142.5 362t82.5 263q33 124 47 215q-29 -307 -18 -548q3 -68 10 -135.5t19.5 -128.5t31 -113t44 -90t60 -59.5t77.5 -21.5q29 0 61 10t70 32z" />
    <glyph glyph-name="arrowupdn" unicode="&#x2195;" horiz-adv-x="970" 
d="M-91 1054q40 -42 82 -103.5t85 -137t85.5 -161t82.5 -174.5t77.5 -178.5t69.5 -172.5q2 1 17.5 23t41 70.5t58.5 124.5t70 185.5t75.5 253.5t74.5 328z" />
    <glyph glyph-name="exclamdbl" unicode="&#x203c;" horiz-adv-x="1410" 
d="M-18 891q86 -189 147 -338.5t105 -253.5t73 -159t50 -55q22 0 38.5 64.5t35.5 201.5q18 132 31 222t22 148t14 88.5t8 44.5t4 16t1 3t10.5 -19t28.5 -56.5t41 -87.5t48.5 -111.5t51 -129t48.5 -139.5q20 -61 41 -113t43 -90t44.5 -59.5t44.5 -21.5q27 0 53 38.5t47.5 125
t39 226t27.5 342.5z" />
    <glyph glyph-name="filledrect" unicode="&#x25ac;" horiz-adv-x="1380" 
d="M-7 1054q65 -133 113.5 -269.5t83 -271t55 -264t30.5 -249.5q2 -1 2.5 34.5t6 98t19 147t42 181.5t75 201.5t116.5 206.5q4 -3 24 -36.5t50 -93t68.5 -143.5t78.5 -187q23 -60 44.5 -114.5t42 -96t41 -66t41.5 -24.5q15 0 30.5 15t32.5 48t35 85.5t37 127.5
q46 178 61.5 303.5t15.5 205.5t-8 118t-8 39z" />
    <glyph glyph-name="arrowupdnbse" unicode="&#x21a8;" horiz-adv-x="790" 
d="M536 970q-72 -66 -124 -143.5t-90 -163.5t-65.5 -179t-50.5 -191q-11 -49 -24 -99t-26 -99t-25.5 -95t-24.5 -87q-28 -96 -55 -185zM-14 847q36 -37 74.5 -96.5t81 -131.5t89 -152t99 -158.5t111 -151t124.5 -128.5z" />
    <glyph glyph-name="arrowup" unicode="&#x2191;" horiz-adv-x="840" 
d="M-25 688q35 -40 73 -91.5t77 -108.5t77.5 -117t73.5 -116q81 -132 162 -273zM568 1057q-7 -108 -19 -225.5t-26.5 -238t-31 -241.5t-33 -234.5t-32.5 -217t-28 -190.5q-9 -65 -16 -132t-12 -132.5t-7.5 -127t-4.5 -115.5q-4 -127 -3 -246z" />
    <glyph glyph-name="arrowdown" unicode="&#x2193;" horiz-adv-x="980" 
d="M-11 927q75 -132 150 -258.5t149 -236.5t145.5 -197t139.5 -140zM703 1056q-25 -107 -44.5 -200.5t-34 -185t-24.5 -185t-17 -199t-11 -229t-7 -274.5q-4 -228 1.5 -412t13.5 -317q10 -154 23 -275z" />
    <glyph glyph-name="arrowright" unicode="&#x2192;" horiz-adv-x="1100" 
d="M58 920q-8 -13 -15.5 -24.5t-11 -19.5t-1 -13t14.5 -5q17 0 56 10t109 34q58 20 118.5 36.5t117.5 30t108 23.5t88.5 17t59.5 11t22 5t-19 -26t-50.5 -74.5t-72.5 -112.5t-85 -139.5t-88.5 -156t-82.5 -161.5q-31 -65 -62 -117.5t-48.5 -89.5t-13 -57t45.5 -20
q35 0 102 16t176.5 50t265 87t367.5 127z" />
    <glyph glyph-name="arrowleft" unicode="&#x2190;" horiz-adv-x="1500" 
d="M138 1046q-11 -6 -21.5 -10.5t-19 -12t-14.5 -21.5t-8.5 -39.5t-0.5 -65.5t9 -100q6 -45 11.5 -102t11 -120.5t11 -130t9.5 -128.5q11 -146 22 -302q-2 74 11 171q11 83 39 201.5t84 268.5q35 92 72 136.5t73 44.5q41 0 76.5 -56.5t58.5 -166.5t30 -272t-9 -374
q2 1 5 35.5t11 92.5t22 132.5t37.5 155.5t58 163t83.5 153q29 42 58.5 77.5t58.5 61.5t58 40.5t56 14.5q42 0 79.5 -40.5t67 -133.5t49 -245t26.5 -376z" />
    <glyph glyph-name="orthogonal" unicode="&#x221f;" horiz-adv-x="1070" 
d="M112 1036q8 -8 15 -27t11.5 -59.5t5 -109t-4 -176.5t-14.5 -261t-27 -363q1 1 3 27t8 72.5t17 110.5t29.5 139.5t46 159.5t66.5 172q24 54 56.5 93t69.5 64.5t77 37.5t80 12q58 0 110 -24.5t88 -71t51 -113.5t-3 -151q-27 -127 -43 -216.5t-20.5 -145t4.5 -81t33 -25.5
q5 0 11.5 1t14.5 4z" />
    <glyph glyph-name="arrowboth" unicode="&#x2194;" horiz-adv-x="2030" 
d="M-105 876q70 -13 130.5 -24.5t125.5 -11.5q49 0 104 9.5t122 33t148.5 63t183.5 100.5t228 145.5t281 196.5zM492 1771q-16 -75 -26.5 -176.5t-18 -219.5t-12 -247t-7.5 -258t-5 -252.5t-4 -231t-5 -193t-8 -139.5zM1322 1626q-38 -79 -67 -145.5t-51.5 -128.5t-39 -123
t-29 -128.5t-22 -145.5t-17.5 -173t-11 -188.5t-2.5 -178.5t3.5 -157t6.5 -124.5t6 -81.5t2.5 -28q0 2 12.5 42.5t45 122t88.5 205.5t143 292q53 103 107 190.5t104.5 152t95 101t78.5 36.5q44 0 65.5 -67.5t13.5 -219.5q-8 -141 -12.5 -255t-2.5 -193.5t11.5 -122.5
t29.5 -43q15 0 37.5 27t52.5 85z" />
    <glyph glyph-name="triagup" unicode="&#x25b2;" horiz-adv-x="1700" 
d="M-192 800q135 27 252.5 51.5t225.5 43t209 29t202 10.5q53 0 107 -3zM445 1503q-15 -170 -32 -318t-32.5 -283.5t-27.5 -262.5t-16 -255q-2 -69 7 -126.5t27 -99t43.5 -64.5t56.5 -23q27 0 57.5 18.5t62.5 59t66 104t67 153.5q32 85 56.5 192t41.5 218t27.5 216.5
t14.5 188t2 132.5t-11 50q-7 0 -16.5 -34t-23.5 -109q-16 -93 -28 -196.5t-20.5 -210t-14 -211.5t-8.5 -200q-7 -224 -5 -446q12 141 51 293q17 65 41 138.5t57.5 151t78 157.5t101.5 158q83 113 147.5 162.5t113.5 49.5q47 0 78.5 -39t48.5 -106t20.5 -155.5t-6.5 -186.5
q-35 -347 -23 -516t85 -175z" />
    <glyph glyph-name="triagdn" unicode="&#x25bc;" horiz-adv-x="1810" 
d="M-145 681q38 -5 90 -7t114 -2q73 0 156 2.5t171 7t176.5 9.5t172.5 11zM228 1517q16 -88 29.5 -197t24 -233t20 -260.5t17 -280t15 -290.5t14.5 -292zM670 1488q9 -111 14.5 -231.5t9 -243t4.5 -242t1.5 -227t0 -199t-1 -158t-0.5 -104t1 -36.5q2 1 6.5 36t18 95.5
t37 141.5t63 174.5t98 195t139.5 201.5q83 102 153 146t125 44q54 0 92.5 -35t61 -92.5t27 -131t-9.5 -149.5q-12 -62 -21.5 -133.5t-15 -142.5t-7 -136.5t4 -116t17.5 -80.5t33 -30q15 0 34.5 17t44.5 54z" />
    <glyph glyph-name="equivalence" unicode="&#x2261;" horiz-adv-x="980" 
d="M-301 826q77 29 169 57t190 53.5t197.5 48.5t190.5 42q215 46 437 85zM351 1637q-7 -85 -12.5 -186.5t-8 -212t-0.5 -227t10 -231t23 -224t39.5 -206.5t59 -178t81.5 -139z" />
    <glyph glyph-name="peseta" unicode="&#x20a7;" horiz-adv-x="980" 
d="M471 1068q-31 45 -87 45q-48 0 -104.5 -42t-105.5 -137q-18 -35 -32.5 -88t-23 -115.5t-9.5 -130.5t6.5 -133.5t24.5 -125t46.5 -104t72 -71t100.5 -26.5q11 0 23.5 1.5t26.5 3.5q90 17 148.5 72t88.5 133t32 172.5t-22.5 191.5t-74 190t-121.5 167z" />
    <glyph glyph-name="uni2105" unicode="&#x2105;" horiz-adv-x="500" 
d="M117 1553q16 -104 21 -225t4.5 -248.5t-3.5 -258t-2.5 -254.5t7.5 -237.5t26 -206.5z" />
    <glyph glyph-name="uni2116" unicode="&#x2116;" horiz-adv-x="1260" 
d="M51 1144q47 104 97.5 184t101 135t97.5 83.5t87 28.5q31 0 56 -18t42 -55.5t24 -95t2 -135.5q-11 -178 -36.5 -327.5t-64 -286.5t-89 -268.5t-111.5 -272.5q3 0 37 6t92.5 19.5t137.5 35t170.5 52.5t192.5 72.5t203 93.5z" />
    <glyph glyph-name="twothirds" unicode="&#x2154;" horiz-adv-x="1380" 
d="M40 1260q85 75 166 128.5t154 87.5t137.5 50t116.5 16q63 0 105 -20.5t59 -58.5q16 -33 7.5 -84.5t-38 -112t-78 -127t-113 -130t-144 -120.5t-169.5 -100q-1 1 36 18t101 37.5t149 37t179 16.5q66 0 133 -10.5t133 -36.5q85 -33 132.5 -72.5t65.5 -82t11 -88t-31.5 -92
t-62 -93t-79.5 -90.5q-35 -36 -79.5 -69.5t-94 -62t-101.5 -51.5t-102 -39t-96 -25t-83 -9q-47 0 -76 15.5t-31 48.5t27.5 86t99.5 128z" />
    <glyph glyph-name="oneeighth" unicode="&#x215b;" horiz-adv-x="1230" 
d="M387 1506q-7 -91 -17.5 -176.5t-40 -170t-83.5 -169.5t-148 -175q2 1 38.5 5t100 12.5t148.5 22.5t183.5 35.5t206 51t214.5 68.5zM931 1832q3 -56 0 -144t-10.5 -196.5t-18 -232t-22.5 -252t-24.5 -256t-23 -243.5t-18 -215t-10.5 -170z" />
    <glyph glyph-name="threeeighths" unicode="&#x215c;" horiz-adv-x="1230" 
d="M891 1619q-49 -19 -102.5 -41.5t-107.5 -45t-105.5 -45t-98.5 -43.5q-110 -49 -216 -97l-62 -208q-13 -44 -28 -93t-30.5 -98.5t-31 -98t-29.5 -92.5q1 0 16 15t43 37.5t69 48.5t92.5 48.5t113 37.5t132.5 15q31 0 62 -3q120 -12 199.5 -54.5t117 -106t31.5 -143.5
t-58 -167q-26 -44 -72 -92t-103 -94t-120 -87.5t-123 -73t-113 -50t-89 -18.5q-35 0 -50 19t-4 63z" />
    <glyph glyph-name="fiveeighths" unicode="&#x215d;" horiz-adv-x="1200" 
d="M156 1658q0 -117 -8.5 -248.5t-18.5 -264t-17 -260.5t-3.5 -239.5t20.5 -200t56 -141.5q40 -55 90.5 -80t108.5 -25q55 0 114.5 21.5t119 60t117 92.5t109.5 119q60 75 89.5 148t31 130.5t-24.5 92.5t-77 35q-33 0 -75.5 -16.5t-95.5 -52.5q-109 -75 -182 -160.5
t-117 -167.5t-63 -152t-19 -114z" />
    <glyph glyph-name="seveneighths" unicode="&#x215e;" horiz-adv-x="1510" 
d="M4 1195q255 59 488 119q99 26 204 54.5t203.5 57.5t185 58t150.5 55q3 4 -27.5 -20t-80.5 -85.5t-112.5 -165t-123.5 -258.5q-38 -95 -69.5 -204.5t-55 -217t-37.5 -207t-17 -175.5t5.5 -121.5t31.5 -45.5q11 0 26 12z" />
    <glyph glyph-name="fraction" unicode="&#x2044;" horiz-adv-x="1000" 
d="M782 1369q-12 121 -59.5 188t-125.5 67q-60 0 -136 -43t-168 -136q-58 -59 -100 -122.5t-67 -124.5t-34 -115t-1 -95t32.5 -65t65.5 -24q24 0 54 9.5t65 29.5q109 62 195 133t147 133q71 72 125 143q-55 -243 -105 -494q-21 -107 -44 -226t-44.5 -242.5t-40.5 -247
t-34 -238.5z" />
    <glyph glyph-name="fraction" unicode="&#x2215;" horiz-adv-x="1000" 
d="M782 1369q-12 121 -59.5 188t-125.5 67q-60 0 -136 -43t-168 -136q-58 -59 -100 -122.5t-67 -124.5t-34 -115t-1 -95t32.5 -65t65.5 -24q24 0 54 9.5t65 29.5q109 62 195 133t147 133q71 72 125 143q-55 -243 -105 -494q-21 -107 -44 -226t-44.5 -242.5t-40.5 -247
t-34 -238.5z" />
    <glyph glyph-name="uni2034" unicode="&#x2034;" horiz-adv-x="20" 
d="M-100 524q3 -12 5.5 -24t16.5 -21t45.5 -15t92.5 -6q44 0 105 3.5t145 11.5q60 5 117.5 8t113.5 3q123 0 229.5 -9t186.5 -20q94 -13 173 -29z" />
    <glyph glyph-name="uni20A2" unicode="&#x20a2;" horiz-adv-x="20" 
d="M-103 511q76 -16 163.5 -22.5t202.5 -6.5q74 0 161.5 2t193 5t231 6.5t275.5 6.5q35 1 68.5 1h66.5q239 0 431.5 -13.5t330.5 -30.5q161 -19 287 -44z" />
    <glyph glyph-name="uni20A5" unicode="&#x20a5;" horiz-adv-x="20" 
d="M-94 518q57 -10 117.5 -16.5t129 -10.5t146 -6t169.5 -2q101 0 221.5 2t266.5 5t321 6.5t385 6.5q73 2 141.5 2h133.5q324 0 551.5 -11.5t371.5 -25.5q169 -16 276 -37z" />
    <glyph glyph-name="uni20A0" unicode="&#x20a0;" horiz-adv-x="20" 
d="M-83 511q101 -7 196 -12.5t199 -9.5t224 -6.5t270 -2.5q119 0 260.5 1.5t313 5t376 8.5t449.5 12q180 5 338 7.5t300 2.5q184 0 338 -3.5t281 -9t228 -12.5t178 -14q181 -18 289 -40z" />
    <glyph glyph-name="colonmonetary" unicode="&#x20a1;" horiz-adv-x="20" 
d="M-97 492q226 -2 441.5 -3t432.5 -1q264 0 529 1t541 3t567.5 4.5t607.5 5.5q57 1 113.5 1h112.5q204 0 397.5 -2.5t371 -7t336.5 -10.5t294 -12q316 -14 582 -32z" />
    <glyph glyph-name="summation" unicode="&#x2211;" horiz-adv-x="1250" 
d="M68 505q150 48 250 93t159.5 85t84.5 76t25.5 66t-19 54.5t-47.5 41.5q-28 18 -68 18q-42 0 -88.5 -21.5t-91.5 -59t-85 -87.5t-69 -108q-23 -46 -42.5 -108t-25 -128.5t6 -130.5t49.5 -115t106.5 -82t176.5 -31h20q170 5 290 45.5t197.5 100t116.5 128.5t48 131z" />
    <glyph glyph-name="lessequal" unicode="&#x2264;" horiz-adv-x="1430" 
d="M87 508q111 89 188.5 153.5t128 110t77.5 75.5t35 49.5t1 31.5t-23 22q-4 3 -12 3q-22 0 -64 -28.5t-92 -75.5t-101.5 -107.5t-94.5 -124.5t-71 -126.5t-29 -113.5q-1 -60 29 -116t89 -99.5t145 -70t197 -26.5q75 0 159 13.5t179 43.5q125 40 198 88.5t109 99t43.5 98.5
t2 85.5t-16 60.5t-10.5 24z" />
    <glyph glyph-name="uni2117" unicode="&#x2117;" horiz-adv-x="1140" 
d="M109 1027q-20 -61 -33 -141t-21.5 -169t-12.5 -182t-4.5 -179.5t0.5 -162.5t3 -131q1 0 4 26.5t13.5 73.5t30.5 112.5t55.5 143.5t89 165.5t130.5 179.5q115 138 209 210t160 72t101 -76t32 -236q-3 -161 -1.5 -290t4.5 -223q3 -108 8 -193z" />
    <glyph glyph-name="Omega" unicode="&#x2126;" horiz-adv-x="1110" 
d="M725 978q-103 121 -201 177.5t-179 56.5q-98 0 -158 -74q-26 -32 -44.5 -65.5t-23 -69.5t8 -74t48 -78.5t98 -84t158.5 -90.5q144 -70 241 -131t146.5 -119.5t50.5 -117t-47 -123.5q-17 -23 -44.5 -41t-61.5 -30t-72.5 -18.5t-77.5 -6.5q-47 0 -93 9.5t-84 29t-64 49.5
t-34.5 71t4.5 93.5t54 117.5z" />
    <glyph glyph-name="estimated" unicode="&#x212e;" 
d="M557 956q-61 85 -125 121.5t-122 36.5q-54 0 -98 -26.5t-71 -71.5q-28 -47 -36 -95t17.5 -104t91.5 -124t185 -155q80 -58 149 -112t119 -102t76 -90t19.5 -75t-50.5 -57t-134 -37q-108 -15 -191 -15q-84 0 -139 15.5t-73.5 45.5t2.5 74.5t89 102.5z" />
    <glyph glyph-name="uni2101" unicode="&#x2101;" horiz-adv-x="1100" 
d="M844 880q-65 66 -117.5 98t-107.5 32q-32 0 -66.5 -11.5t-74.5 -33.5t-86 -55t-102 -77q-102 -80 -164 -171t-84 -178t-4.5 -163.5t74.5 -128.5q37 -34 87 -34q62 0 138.5 50.5t160 142t169 221t166.5 286.5q-1 -3 -2.5 -50t-1.5 -144t1.5 -245.5t5.5 -353.5
q3 -137 5.5 -270t-2.5 -255t-22 -229t-53 -191.5t-95 -143.5t-148 -84q-75 -21 -150 -21q-76 0 -146 20t-126 55.5t-95 84.5t-53 108t1 126t66 138z" />
    <glyph glyph-name="uni2101" unicode="&#x214d;" horiz-adv-x="1100" 
d="M844 880q-65 66 -117.5 98t-107.5 32q-32 0 -66.5 -11.5t-74.5 -33.5t-86 -55t-102 -77q-102 -80 -164 -171t-84 -178t-4.5 -163.5t74.5 -128.5q37 -34 87 -34q62 0 138.5 50.5t160 142t169 221t166.5 286.5q-1 -3 -2.5 -50t-1.5 -144t1.5 -245.5t5.5 -353.5
q3 -137 5.5 -270t-2.5 -255t-22 -229t-53 -191.5t-95 -143.5t-148 -84q-75 -21 -150 -21q-76 0 -146 20t-126 55.5t-95 84.5t-53 108t1 126t66 138z" />
    <glyph glyph-name="uni2132" unicode="&#x2132;" horiz-adv-x="900" 
d="M-11 851q31 -110 78 -220t112 -217.5t149 -211.5t190 -202zM699 1072q-18 -85 -37 -186t-37 -209t-36 -220t-34.5 -219.5t-31.5 -207t-28 -182.5q-9 -63 -14.5 -137.5t-7.5 -153.5t-1.5 -159.5t2.5 -155.5q5 -176 18 -357z" />
    <glyph glyph-name="uni2132" unicode="&#x214e;" horiz-adv-x="900" 
d="M-11 851q31 -110 78 -220t112 -217.5t149 -211.5t190 -202zM699 1072q-18 -85 -37 -186t-37 -209t-36 -220t-34.5 -219.5t-31.5 -207t-28 -182.5q-9 -63 -14.5 -137.5t-7.5 -153.5t-1.5 -159.5t2.5 -155.5q5 -176 18 -357z" />
    <glyph glyph-name="uni2184" unicode="&#x2184;" horiz-adv-x="830" 
d="M-79 891q126 45 242.5 73.5t225 45t209 23t195.5 7.5zM331 1711q-4 -63 -5.5 -156.5t-0.5 -206t4.5 -239.5t9.5 -256t15 -255t21 -237t27 -201.5t33 -149.5z" />
    <glyph glyph-name="intersection" unicode="&#x2229;" horiz-adv-x="2040" 
d="M19 1395q11 -1 22.5 -1h24.5q89 0 216.5 14t278.5 36t317.5 49.5t333.5 55t326.5 52t296.5 40.5zM217 63q132 27 255.5 43t244 27.5t240 21.5t243 24.5t253.5 35.5t271 55zM681 1704q18 -117 35.5 -221.5t38 -209.5t45.5 -217.5t57.5 -244.5t74.5 -290.5t96 -356.5z" />
    <glyph glyph-name="logicalor" unicode="&#x2228;" horiz-adv-x="1810" 
d="M24 1497q20 -3 43 -4t49 -1q74 0 168 9t200 22.5t220.5 29.5t228.5 29.5t224.5 22.5t209.5 9q132 0 233.5 -20.5t156.5 -72.5zM488 -101q213 38 413 70.5t374.5 57t318 39t245.5 16.5zM806 1566q4 -118 7 -230.5t8 -227.5t13.5 -237t23.5 -259t37 -293.5t55 -341.5z" />
  </font>
</defs>
</svg>
